<svg width="61" height="60" viewBox="0 0 61 60" fill="none" xmlns="http://www.w3.org/2000/svg">
<path d="M37.3848 0.000399454C37.1611 -0.00492687 36.9374 0.0430128 36.735 0.14422C35.8774 0.570353 35.3287 1.1989 34.8333 1.74755C34.3433 2.29619 33.9757 2.78625 33.9757 2.78625C33.9598 2.80755 33.9438 2.82886 33.9331 2.85017C32.5802 4.88496 31.9143 7.20206 31.8877 9.53514C31.8717 11.3302 32.2339 13.136 32.937 14.8352C34.6576 18.9633 38.1146 22.154 42.1788 23.6774H42.1841C42.3706 23.752 42.5357 23.8106 42.6689 23.8586C42.6902 23.8639 42.7115 23.8692 42.7328 23.8799C42.7594 23.8852 42.818 23.9065 42.9192 23.9331C43.0737 23.9864 43.3347 24.0929 43.7182 24.1675C44.8315 24.3912 45.8702 24.5084 46.845 24.5404C51.1596 24.6735 54.1478 23.0116 56.0122 21.1952C56.9443 20.2844 57.6102 19.3415 58.0789 18.5745C58.553 17.8075 58.9152 17.115 58.9205 17.1097H58.9259C59.336 16.4864 59.1709 15.6502 58.5583 15.2293C57.9404 14.8085 57.0988 14.963 56.6673 15.5756C55.6127 17.1256 54.3023 18.0152 52.6297 18.4467C50.9572 18.8781 48.9011 18.8142 46.5414 18.2283C46.2218 18.1484 45.8276 18.0205 45.4707 17.8874C45.4707 17.8874 45.4654 17.8874 45.46 17.882C45.0286 17.7276 44.5865 17.5411 44.155 17.3334L44.1497 17.3281L44.139 17.3227C43.3347 16.9232 42.557 16.4438 41.8486 15.8899C39.8883 14.3664 38.3649 11.8735 37.7151 9.2688C37.0652 6.66406 37.2889 4.01138 38.4981 2.08845C38.7591 1.67297 38.7751 1.15096 38.546 0.7195C38.317 0.28804 37.8749 0.0163798 37.3848 0.000399454ZM25.0642 2.72765C24.7499 2.72765 24.4463 2.83951 24.2066 3.0366C22.0227 4.81571 19.9453 7.58025 19.9453 7.58025C19.9293 7.59623 19.9187 7.61754 19.908 7.63884C15.8704 13.5088 16.1207 21.2272 19.1942 27.3156C19.7003 28.3223 20.2755 29.3024 20.9201 30.2346C20.9254 30.2399 20.9254 30.2399 20.9254 30.2399C21.4314 30.9856 22.044 31.9604 22.9282 32.7754C23.2159 33.1057 23.5142 33.4146 23.8125 33.7076C23.8817 33.7821 23.9563 33.8567 24.0255 33.926C24.0308 33.9366 24.0362 33.9419 24.0415 33.9419C24.3238 34.2189 24.6168 34.4959 24.9204 34.7676L24.9257 34.7729C24.9364 34.7836 24.9524 34.7995 24.963 34.8102L24.9843 34.8208C25.0003 34.8421 25.0216 34.8581 25.0429 34.8741C25.3625 35.1617 25.6874 35.4334 26.023 35.6944C26.039 35.7104 26.0497 35.721 26.0656 35.7317C26.0656 35.7317 26.1402 35.7956 26.2947 35.9075C26.6356 36.1738 26.9818 36.4295 27.3227 36.6745C27.3653 36.7065 27.4133 36.7384 27.4559 36.7597C27.4879 36.7811 27.5092 36.797 27.5358 36.8183H27.5411C27.6636 36.9036 27.7862 36.9835 27.8874 37.0527C27.9193 37.074 27.9939 37.1273 28.1164 37.2072C28.3827 37.383 28.6437 37.5428 28.9154 37.7079C28.942 37.7239 28.974 37.7399 29.0006 37.7558C29.0006 37.7558 29.0432 37.7771 29.0912 37.7984C29.1018 37.8091 29.1018 37.8038 29.1178 37.8144C29.3309 37.9423 29.5493 38.0701 29.7783 38.1873C29.8582 38.2352 29.9541 38.2832 29.9807 38.2992C29.9967 38.3098 30.0127 38.3151 30.0287 38.3258C30.1672 38.395 30.3163 38.4749 30.4708 38.5602C30.604 38.6294 30.6412 38.6347 30.6306 38.6347C30.9715 38.7999 31.2964 38.949 31.6 39.0928C31.6214 39.0982 31.6427 39.1088 31.6693 39.1195C31.7332 39.1461 31.7865 39.1674 31.8557 39.1994C32.1274 39.3112 32.4097 39.4391 32.708 39.5509C32.724 39.5562 32.7453 39.5669 32.7613 39.5722C32.8199 39.5935 32.9211 39.6308 33.0755 39.6894C33.0755 39.6894 33.0809 39.6894 33.0809 39.6947C33.3365 39.7853 33.5975 39.8705 33.8532 39.9557C33.9864 40.0037 34.1036 40.041 34.2048 40.0783C34.2048 40.0783 34.2048 40.0783 34.2101 40.0783C34.4924 40.1688 34.9132 40.3446 35.4832 40.4405C35.4832 40.4405 35.4832 40.4351 35.4885 40.4405C37.6405 40.7974 39.6273 40.9412 41.4597 40.9039C48.9543 40.7388 53.8123 37.4362 56.662 34.187C59.5065 30.9377 60.4653 27.6565 60.4653 27.6565C60.657 27.0119 60.3481 26.3301 59.7408 26.0425C59.1389 25.7548 58.4145 25.9519 58.031 26.5059C54.4088 31.8006 47.367 34.5225 39.6646 32.4931C39.3237 32.4079 38.9935 32.312 38.6685 32.2001C38.6472 32.1948 38.6206 32.1841 38.594 32.1788C38.546 32.1682 38.4821 32.1468 38.3702 32.1096C38.3596 32.1042 38.3489 32.0989 38.3436 32.0936C38.0933 32.0137 37.8589 31.9391 37.6458 31.8539C37.6458 31.8539 37.6458 31.8539 37.6405 31.8539C37.518 31.8059 37.4114 31.7687 37.3209 31.7314C37.0492 31.6248 36.7935 31.5236 36.5752 31.4277C36.5592 31.4171 36.5485 31.4118 36.5325 31.4064C36.4154 31.3585 36.3621 31.3319 36.4367 31.3692C36.4047 31.3532 36.3727 31.3425 36.3408 31.3265C36.0425 31.1934 35.7335 31.0496 35.4246 30.8951L35.4033 30.8898C35.4033 30.8844 35.398 30.8844 35.3926 30.8791C35.2382 30.7992 35.089 30.7246 34.9345 30.6394C34.9292 30.6394 34.9239 30.6341 34.9132 30.6341C34.8174 30.5808 34.7268 30.5329 34.6469 30.4903V30.4956C34.4711 30.405 34.29 30.2932 34.0769 30.1653C34.061 30.16 34.0503 30.1547 34.0397 30.1493C33.9757 30.1121 33.9544 30.1014 33.9438 30.0908H33.9385L33.9278 30.0854C33.6668 29.9256 33.4218 29.7765 33.23 29.6433C33.2034 29.6273 33.1714 29.6114 33.1448 29.5954C33.1661 29.606 33.1075 29.5634 32.969 29.4729C32.8252 29.3823 32.676 29.2864 32.5162 29.1746H32.5109C32.5056 29.1692 32.5003 29.1639 32.4896 29.1639C32.1913 28.9455 31.8824 28.7111 31.5681 28.4714L31.5415 28.4448C31.4669 28.3862 31.403 28.3383 31.3603 28.301C31.3497 28.2957 31.339 28.285 31.3284 28.2744C27.93 25.5631 25.256 21.8504 23.9989 17.7009V17.6956C22.7365 13.61 24.0362 8.59232 26.2467 4.7731C26.4918 4.35229 26.4918 3.83028 26.2467 3.40414C26.0017 2.98333 25.549 2.72765 25.0642 2.72765ZM10.075 6.81854C9.7394 6.81854 9.40914 6.94105 9.15879 7.1701C9.08422 7.23402 9.04693 7.30326 8.97236 7.37251C6.325 9.82278 4.43936 12.8057 4.40208 12.8696C-1.08439 20.8437 -0.35464 33.079 3.74157 41.3407C3.74157 41.346 3.74157 41.3513 3.74157 41.3567C3.8481 41.5804 3.95464 41.7775 4.03986 41.9319C4.08248 42.0278 4.13041 42.1184 4.17836 42.2089C4.27956 42.438 4.35414 42.5339 4.36479 42.5498C4.42871 42.6723 4.49263 42.7949 4.54057 42.8854C4.5459 42.8961 4.55655 42.912 4.56188 42.9227C4.68439 43.1198 4.80158 43.3382 4.93474 43.5566C4.93474 43.5619 4.94007 43.5672 4.9454 43.5726C5.00399 43.6684 5.07856 43.8069 5.19575 43.9774C5.3449 44.2224 5.48339 44.4408 5.5846 44.6006C5.58992 44.6113 5.59525 44.6166 5.59525 44.6219C5.64852 44.7018 5.71244 44.8083 5.79234 44.9202C5.79766 44.9309 5.80299 44.9362 5.80832 44.9415C5.81364 44.9522 5.81364 44.9575 5.8243 44.9735C6.01073 45.2558 6.20782 45.5487 6.42621 45.8524C6.44752 45.879 6.44219 45.8683 6.45817 45.895C6.47415 45.9163 6.47415 45.9163 6.4848 45.9323C6.49013 45.9376 6.50078 45.9536 6.50611 45.9642L6.51144 45.9696C6.52209 45.9855 6.5647 46.0388 6.5647 46.0388C6.5647 46.0441 6.57003 46.0495 6.57536 46.0495C6.76712 46.3158 6.9642 46.5875 7.17194 46.8538C7.25184 46.9603 7.32109 47.0509 7.35838 47.0988C7.36903 47.1148 7.38501 47.1308 7.39566 47.1521C7.57144 47.3598 7.7419 47.5729 7.91768 47.7913C7.923 47.8019 7.92833 47.8073 7.93366 47.8126C7.98692 47.8765 8.05617 47.9564 8.13074 48.047C8.35979 48.3239 8.59416 48.5903 8.83386 48.8566C8.85517 48.8779 8.87648 48.9046 8.89778 48.9259L8.88713 48.9099C8.95638 48.9898 9.07889 49.1229 9.2014 49.2028L8.94572 48.9845C9.19608 49.2614 9.45176 49.5331 9.70744 49.8048C9.71276 49.8101 9.71809 49.8101 9.71809 49.8154C9.80865 49.906 9.8992 49.9965 9.99508 50.0924C10.1762 50.2735 10.3679 50.4706 10.5917 50.6837C10.6769 50.7636 10.7621 50.8381 10.8207 50.9021C10.826 50.9074 10.826 50.9074 10.8314 50.9074C11.0764 51.1418 11.3427 51.3921 11.625 51.6425C11.6517 51.6584 11.6677 51.6797 11.689 51.6957C11.689 51.7011 11.689 51.7011 11.689 51.7011C11.7635 51.765 11.8061 51.8023 11.7955 51.7916C11.8115 51.8023 11.8221 51.8182 11.8381 51.8289C12.0885 52.0473 12.3388 52.2604 12.5892 52.4734C12.7117 52.5693 12.8182 52.6545 12.9088 52.7344C12.9141 52.7344 12.9141 52.7344 12.9194 52.7344C13.1431 52.9209 13.3562 53.0807 13.5586 53.2351C13.5586 53.2405 13.5639 53.2405 13.5639 53.2458C13.6652 53.3204 13.7717 53.4003 13.8889 53.4908C13.8942 53.4961 13.8995 53.4961 13.9049 53.5015C14.1446 53.6826 14.3843 53.853 14.6133 54.0182C14.6825 54.0714 14.7624 54.1247 14.8477 54.1833C14.8423 54.178 14.8743 54.2046 14.8637 54.1993C14.9009 54.2259 14.9382 54.2525 14.9702 54.2738C15.1939 54.423 15.4123 54.5721 15.6413 54.7213C15.6413 54.7266 15.6467 54.7266 15.6467 54.7266C15.7479 54.7905 15.8384 54.8544 15.929 54.913C15.9343 54.9184 15.9396 54.9237 15.9503 54.929C16.3125 55.1634 16.6694 55.3818 17.021 55.5948C17.0423 55.6108 17.0636 55.6215 17.0849 55.6321C17.1701 55.6801 17.25 55.7227 17.3246 55.7653C17.3299 55.7706 17.3299 55.7706 17.3352 55.776C17.6069 55.9304 17.8785 56.0902 18.1662 56.2447L18.1396 56.2287C18.3313 56.3353 18.5018 56.4152 18.6403 56.4844C18.8107 56.5803 18.9918 56.6815 19.1836 56.7774C19.2102 56.7933 19.2422 56.8093 19.2741 56.8253C19.3753 56.8626 19.3753 56.8732 19.2688 56.8093C19.3061 56.836 19.3434 56.8519 19.3807 56.8679C19.3966 56.8786 19.4552 56.9052 19.5564 56.9585C19.5618 56.9585 19.5618 56.9585 19.5671 56.9585C19.8814 57.1183 20.1903 57.2621 20.5099 57.4006C20.5845 57.4379 20.6324 57.4592 20.6165 57.4485C20.6484 57.4645 20.675 57.4805 20.7017 57.4911C21.0586 57.6509 21.4208 57.8001 21.7883 57.9492C21.7936 57.9492 21.8043 57.9546 21.8096 57.9546C21.8309 57.9599 21.9375 58.0078 22.044 58.0451C22.0653 58.0558 22.0866 58.0611 22.1079 58.0664C22.1186 58.0717 22.1132 58.0717 22.1239 58.0771C22.4169 58.1889 22.7098 58.3008 23.0028 58.402C23.0827 58.4393 23.1519 58.4606 23.1999 58.4819C23.5834 58.6097 23.9563 58.7323 24.3398 58.8494C24.3504 58.8548 24.3611 58.8601 24.3771 58.8654C24.3984 58.8707 24.4996 58.9027 24.6115 58.9347C24.6168 58.9347 24.6221 58.94 24.6274 58.94C24.6541 58.9453 24.6487 58.9453 24.6754 58.956C25.0003 59.0572 25.3838 59.201 25.8845 59.2969C25.8899 59.2969 25.8899 59.2969 25.8952 59.2969C28.5266 59.7816 30.9715 60 33.2513 60C52.8002 60.0053 59.0697 44.1212 59.0697 44.1212C59.3094 43.4873 59.0484 42.7736 58.4571 42.4433C57.8658 42.1184 57.1201 42.2728 56.71 42.8108C51.1436 50.1297 41.1614 51.6105 31.4243 49.3733C31.1313 49.3041 30.7851 49.1975 30.3856 49.075C30.3802 49.075 30.3696 49.0697 30.3643 49.0697C30.295 49.0484 30.2204 49.0271 30.1832 49.0111C30.1618 49.0058 30.1405 49.0004 30.1192 48.9951C29.7783 48.8886 29.4321 48.7714 29.0859 48.6542C29.0805 48.6489 29.0699 48.6489 29.0592 48.6435C29.0379 48.6382 29.0166 48.6329 29.0006 48.6222C28.9793 48.6169 28.958 48.6063 28.9314 48.6009C28.6651 48.5051 28.3774 48.3985 28.0791 48.2813L28.0312 48.26C27.914 48.2174 27.8128 48.1801 27.7702 48.1588C27.4506 48.031 27.1203 47.8925 26.7954 47.7487C26.7634 47.7327 26.7368 47.722 26.7102 47.7114C26.7155 47.7114 26.6462 47.6847 26.6036 47.6688C26.3213 47.5356 26.0443 47.4024 25.7567 47.2639C25.7354 47.2586 25.7194 47.248 25.6981 47.2373C25.6821 47.232 25.6342 47.2107 25.5383 47.1574C25.5276 47.1521 25.517 47.1467 25.501 47.1414C25.3146 47.0509 25.1068 46.9443 24.8938 46.8271C24.8884 46.8218 24.8778 46.8165 24.8725 46.8112C24.702 46.7259 24.5688 46.662 24.473 46.6034C24.4623 46.6034 24.457 46.5981 24.4463 46.5928C24.196 46.4596 23.935 46.3051 23.658 46.1507L23.7645 46.2146C23.5834 46.0974 23.4556 46.0335 23.381 45.9909L23.4236 46.0122C23.0774 45.8044 22.7365 45.5967 22.4115 45.3889C22.4062 45.3836 22.4009 45.3836 22.4009 45.3783C22.337 45.341 22.2624 45.2931 22.1718 45.2291C22.1559 45.2132 22.1346 45.2025 22.1186 45.1919C21.8949 45.048 21.6658 44.8882 21.4261 44.7284L21.4101 44.7178C21.3622 44.6805 21.2876 44.6272 21.1864 44.5527C20.9733 44.4035 20.7603 44.249 20.5419 44.0839H20.5312C20.5206 44.0733 20.5152 44.0679 20.5046 44.0573C20.4194 43.988 20.3235 43.9188 20.2276 43.8442C20.0145 43.6791 19.8121 43.5246 19.631 43.3755L19.6044 43.3595C19.4979 43.2689 19.402 43.189 19.3327 43.1304C19.3327 43.1304 19.3274 43.1304 19.3221 43.1251C19.0717 42.9227 18.832 42.7096 18.571 42.4859L18.6829 42.5978C18.4645 42.3527 18.3633 42.3208 18.4165 42.3581L18.4911 42.422C18.2301 42.1876 17.9638 41.9373 17.6921 41.6816L17.6761 41.6709C17.6335 41.6283 17.5643 41.5591 17.4737 41.4738L17.4364 41.4366C17.2393 41.2448 17.0582 41.0637 16.8931 40.8986C16.8878 40.8932 16.8878 40.8932 16.8825 40.8879C16.8079 40.8133 16.7386 40.7388 16.6534 40.6535C16.419 40.4192 16.19 40.1688 15.9609 39.9131C15.9503 39.9025 15.9343 39.8865 15.9237 39.8705H15.9183C15.6786 39.6095 15.4443 39.3379 15.2046 39.0555C15.2046 39.0502 15.2046 39.0449 15.1992 39.0396C15.1619 38.9969 15.098 38.917 14.9968 38.7999C14.8317 38.5974 14.6666 38.3844 14.4855 38.166L14.4801 38.1607C14.4215 38.0808 14.3576 37.9955 14.3203 37.9476L14.315 37.9423C14.1126 37.6759 13.9208 37.4149 13.7291 37.1486L13.7237 37.1433C11.1563 33.6064 9.38251 27.8855 8.88713 22.3777C8.38642 16.8753 9.24402 11.5912 11.1616 8.99182C11.4706 8.58166 11.5185 8.03302 11.2895 7.57492C11.0604 7.1115 10.5917 6.82386 10.075 6.81854ZM34.8919 7.70276C34.9665 8.4485 34.8866 9.19956 35.0677 9.92931C35.8614 13.088 37.6352 16.071 40.176 18.0472C41.0442 18.7183 41.9764 19.2989 42.9405 19.773C42.9459 19.7783 42.9512 19.7836 42.9565 19.7836C43.4679 20.0287 43.9952 20.2524 44.5332 20.4495L44.5225 20.4442C44.938 20.5986 45.4068 20.7584 45.8808 20.8756C47.1113 21.1792 48.2992 21.339 49.4497 21.403C48.6401 21.5681 47.9636 21.8451 46.9302 21.8131C46.1205 21.7865 45.2257 21.6853 44.2509 21.4935H44.2456C44.1816 21.4829 44.0165 21.4189 43.7342 21.3337C43.7022 21.3231 43.6383 21.3017 43.5691 21.2804C43.4039 21.2218 43.2708 21.1792 43.1696 21.1366C43.1589 21.1313 43.1536 21.1313 43.1429 21.126C39.7765 19.8635 36.8628 17.1683 35.4566 13.7858C34.8866 12.4115 34.599 10.9733 34.6149 9.56177C34.6203 8.9279 34.7694 8.31533 34.8919 7.70276ZM21.0319 11.5486C20.6857 13.8551 20.691 16.2201 21.3888 18.4946C22.827 23.2353 25.8313 27.3742 29.6292 30.405C29.7091 30.4743 29.789 30.5382 29.8422 30.5861C29.8529 30.5915 29.8636 30.6021 29.8742 30.6074C30.2151 30.8738 30.572 31.1454 30.9449 31.4064C30.9502 31.4118 30.9608 31.4171 30.9715 31.4224C31.142 31.5396 31.3124 31.6515 31.4988 31.7687C31.4988 31.774 31.4988 31.774 31.4988 31.774C31.5095 31.7793 31.6054 31.8539 31.7865 31.9604C32.0422 32.1255 32.2978 32.28 32.5109 32.4132C32.5216 32.4185 32.5269 32.4238 32.5322 32.4292C32.6281 32.4824 32.692 32.5197 32.7186 32.5304C32.9104 32.6476 33.1235 32.7754 33.3792 32.9086C33.3792 32.9086 33.3792 32.9086 33.3792 32.9139C33.4804 32.9618 33.5816 33.0151 33.6828 33.063C33.8479 33.1483 34.0077 33.2335 34.1675 33.3187C34.1782 33.324 34.1888 33.3294 34.2048 33.3347C34.5031 33.4838 34.8227 33.633 35.1529 33.7768C35.3287 33.8674 35.4033 33.894 35.4512 33.91C35.7602 34.0485 36.0531 34.1603 36.3195 34.2669C36.4526 34.3201 36.5805 34.3681 36.6817 34.4107L36.6764 34.4054C36.9587 34.5119 37.2357 34.6024 37.4967 34.6877C37.5766 34.7196 37.6884 34.7516 37.8109 34.7889C38.1891 34.9167 38.578 35.0339 38.9722 35.1351C44.0858 36.4828 48.9597 35.7903 53.0772 33.8567C50.5736 36.0992 46.9409 38.0541 41.4011 38.1766C39.7498 38.2139 37.9335 38.0861 35.9306 37.7505C35.9253 37.7452 35.92 37.7452 35.9146 37.7452C35.7495 37.7185 35.4619 37.612 35.0464 37.4788C34.9292 37.4469 34.828 37.4096 34.7215 37.3723C34.4871 37.2977 34.2474 37.2125 34.013 37.1273L34.0024 37.122C33.9438 37.1007 33.8266 37.058 33.6881 37.0101L33.6561 36.9941C33.6455 36.9888 33.6455 36.9888 33.6348 36.9888C33.4111 36.8982 33.1767 36.797 32.9317 36.6905C32.9317 36.6905 32.9317 36.6905 32.9264 36.6905C32.8571 36.6585 32.7879 36.6266 32.708 36.5999C32.3884 36.4508 32.0848 36.3123 31.8025 36.1685C31.7865 36.1632 31.7705 36.1578 31.7545 36.1525C31.616 36.0726 31.4616 35.9927 31.2964 35.9128L31.2804 35.9022C31.2698 35.8968 31.2645 35.8915 31.2538 35.8862C31.1899 35.8542 31.1206 35.8169 31.1206 35.8169C31.0887 35.7956 31.0567 35.7796 31.0301 35.7637C30.833 35.6625 30.6306 35.5453 30.4388 35.4281C30.4015 35.4068 30.3696 35.3908 30.3323 35.3695C30.3323 35.3695 30.3003 35.3535 30.2844 35.3482C30.05 35.2044 29.8263 35.0659 29.5972 34.9167C29.5919 34.9114 29.5866 34.9061 29.5812 34.9007C29.5599 34.8901 29.4907 34.8421 29.3735 34.7676C29.203 34.6557 29.0646 34.5652 28.958 34.4906C28.9261 34.464 28.8888 34.4426 28.8515 34.416C28.8515 34.416 28.8462 34.416 28.8408 34.4107C28.5319 34.187 28.2283 33.9632 27.9406 33.7342C27.9246 33.7235 27.9087 33.7129 27.898 33.7022C27.8927 33.6969 27.8128 33.633 27.7116 33.5531C27.408 33.3134 27.1203 33.0737 26.838 32.8233C26.8327 32.818 26.8327 32.818 26.8274 32.8127C26.8167 32.802 26.8007 32.7914 26.7901 32.7807C26.7847 32.7754 26.7741 32.7701 26.7688 32.7647C26.7581 32.7541 26.7528 32.7488 26.7475 32.7434C26.4811 32.5037 26.2201 32.2587 25.9591 32.003L25.9431 31.987C25.8739 31.9178 25.81 31.8539 25.7514 31.79C25.746 31.79 25.746 31.7846 25.7407 31.7846C25.4584 31.5023 25.2027 31.236 24.979 30.975C24.9364 30.927 24.8938 30.8844 24.8458 30.8471C24.3238 30.389 23.7432 29.5261 23.1733 28.6952C23.1679 28.6898 23.1679 28.6898 23.1679 28.6845C22.5926 27.8642 22.0813 26.996 21.6338 26.0958C21.6338 26.0904 21.6338 26.0904 21.6338 26.0851C19.3487 21.5734 19.0451 16.1136 21.0319 11.5486ZM6.34631 15.1068C6.04269 17.4879 5.93616 20.0127 6.17053 22.6281C6.7032 28.5247 8.49828 34.5865 11.5185 38.7413C11.7262 39.0396 11.9393 39.3219 12.1577 39.6095C12.2376 39.716 12.2909 39.78 12.3069 39.8013C12.3282 39.8332 12.3495 39.8652 12.3761 39.8918C12.5466 40.1049 12.7223 40.3233 12.9034 40.5523C12.9194 40.5683 12.9301 40.579 12.9461 40.5949C12.978 40.6322 13.0366 40.7121 13.1325 40.824C13.3775 41.1116 13.6332 41.4099 13.8995 41.7029C13.9102 41.7135 13.9208 41.7295 13.9315 41.7402C14.1818 42.0172 14.4428 42.2942 14.7092 42.5658C14.7784 42.6351 14.853 42.715 14.9436 42.8055C14.9489 42.8108 14.9489 42.8108 14.9489 42.8108L14.9542 42.8162C15.1673 43.0292 15.3644 43.2263 15.5508 43.4074C15.5614 43.4181 15.5774 43.4341 15.5881 43.4447C15.6307 43.482 15.6946 43.5512 15.8065 43.6578C15.8118 43.6631 15.8171 43.6631 15.8225 43.6684C16.0941 43.9241 16.3764 44.1904 16.6694 44.4461C16.6907 44.4728 16.7173 44.4941 16.744 44.5154C16.8558 44.6006 16.8292 44.6113 16.6587 44.4248C16.696 44.4621 16.7333 44.4994 16.7706 44.5314C17.0369 44.7711 17.3086 45.0054 17.6069 45.2451C17.7134 45.3304 17.7986 45.3996 17.8626 45.4529C17.8679 45.4582 17.8785 45.4688 17.8839 45.4742C18.1129 45.6606 18.3313 45.8257 18.5337 45.9855C18.5497 46.0015 18.5657 46.0122 18.5763 46.0228C18.6669 46.0814 18.7521 46.1507 18.848 46.2199C18.8587 46.2359 18.8693 46.2465 18.8853 46.2572C19.125 46.4276 19.3594 46.6034 19.615 46.7845C19.6683 46.8218 19.7482 46.8857 19.8494 46.9603C19.8547 46.9603 19.8601 46.9656 19.8707 46.9656C20.1157 47.1361 20.3768 47.3172 20.6591 47.493C20.7336 47.5463 20.8189 47.6102 20.9307 47.6794C20.9361 47.6847 20.9414 47.6847 20.9414 47.6847C21.3036 47.9191 21.6658 48.1428 22.0174 48.3506C22.028 48.3559 22.0387 48.3666 22.0547 48.3719C22.1718 48.4358 22.2251 48.4678 22.2145 48.4624C22.2464 48.4837 22.2837 48.5104 22.321 48.5317C22.5767 48.6702 22.843 48.8247 23.1253 48.9791L23.1306 48.9845C23.136 48.9845 23.1413 48.9898 23.1519 48.9898C23.3277 49.091 23.4875 49.1709 23.6207 49.2401C23.8284 49.352 24.0522 49.4692 24.2865 49.581C24.2919 49.5864 24.3078 49.5917 24.3078 49.597C24.3185 49.597 24.3185 49.597 24.3238 49.6023C24.4037 49.6396 24.4943 49.6929 24.6381 49.7515C24.9044 49.8847 25.1761 50.0125 25.4584 50.1403C25.4797 50.151 25.501 50.1616 25.5223 50.1723C25.5276 50.1723 25.6182 50.2096 25.6874 50.2415C26.0284 50.3907 26.3906 50.5452 26.7688 50.6943C26.7688 50.6996 26.7741 50.6996 26.7741 50.6996C26.8966 50.7476 26.9712 50.7742 26.9872 50.7795C27.0085 50.7902 27.0244 50.7955 27.0457 50.8008C27.36 50.9287 27.6903 51.0565 28.0418 51.179C28.1004 51.2003 28.1643 51.2217 28.2229 51.243C28.5585 51.3601 28.9048 51.472 29.2616 51.5839C29.4001 51.6318 29.5226 51.6638 29.6292 51.6957C29.9807 51.8023 30.3696 51.9301 30.817 52.0313C38.0347 53.6932 45.5879 53.2724 51.7242 50.151C48.1766 53.7039 42.3599 57.2727 33.2513 57.2727C31.1473 57.2727 28.8675 57.0703 26.3906 56.6122C26.1455 56.5643 25.8313 56.4578 25.4105 56.3299C25.3892 56.3193 25.3678 56.3139 25.3465 56.3086C25.3412 56.3086 25.256 56.282 25.1548 56.25L25.1122 56.2394C24.7713 56.1328 24.4357 56.021 24.0948 55.9038C24.0841 55.8985 24.0788 55.8985 24.0681 55.8931C24.0308 55.8825 24.0415 55.8878 24.0522 55.8878C24.0362 55.8825 24.0149 55.8718 23.9989 55.8665C23.674 55.7493 23.349 55.6268 23.0454 55.5096C23.0241 55.499 22.9975 55.4936 22.9708 55.483C22.9815 55.4883 22.9069 55.4564 22.7951 55.4137L22.7738 55.4031C22.4435 55.2699 22.1239 55.1368 21.799 54.9929C21.7351 54.9663 21.6498 54.9237 21.6392 54.9237C21.6338 54.9184 21.6285 54.913 21.6232 54.913C21.3249 54.7799 21.0479 54.652 20.7816 54.5189H20.7709C20.7496 54.5029 20.6697 54.4656 20.6165 54.439C20.4939 54.3697 20.478 54.3697 20.4353 54.3537L20.414 54.3484C20.2436 54.2579 20.0731 54.1673 19.908 54.0767C19.892 54.0661 19.876 54.0554 19.8601 54.0501C19.7003 53.9702 19.5778 53.9063 19.4819 53.853C19.4765 53.8477 19.4659 53.8424 19.4606 53.8424C19.2155 53.7092 18.9705 53.5707 18.7255 53.4269L18.7148 53.4216C18.6083 53.3576 18.5071 53.2991 18.4006 53.2458L18.3739 53.2245C18.0543 53.0327 17.7401 52.8356 17.4258 52.6332C17.3352 52.5693 17.2447 52.516 17.1541 52.4574L17.1488 52.4521C17.1488 52.4521 17.1488 52.4521 17.1435 52.4521C16.9357 52.3083 16.7333 52.1698 16.5149 52.026C16.483 51.9993 16.4457 51.9727 16.4084 51.9461C16.3551 51.9141 16.2912 51.8662 16.2166 51.8129C16.2113 51.8076 16.206 51.8023 16.2006 51.7969C15.9769 51.6425 15.7585 51.4827 15.5508 51.3282L15.5455 51.3229H15.5401C15.4389 51.243 15.3377 51.1631 15.2259 51.0778L15.2205 51.0725C15.0075 50.9127 14.8104 50.7636 14.6293 50.6144L14.624 50.6091C14.5174 50.5239 14.4269 50.4546 14.3523 50.3907C14.3523 50.3854 14.347 50.3854 14.347 50.3854C14.1019 50.1776 13.8622 49.9699 13.6225 49.7675C13.5906 49.7355 13.5639 49.7142 13.5426 49.7036C13.5213 49.6769 13.4947 49.6556 13.4734 49.6343C13.2284 49.4266 12.978 49.1869 12.717 48.9418L12.7117 48.9312C12.6211 48.846 12.5412 48.7767 12.472 48.7075C12.4667 48.7021 12.4613 48.6968 12.456 48.6915C12.2855 48.5317 12.1098 48.3452 11.9127 48.1482C11.902 48.1375 11.8914 48.1269 11.8807 48.1109C11.8061 48.0416 11.7422 47.983 11.6783 47.9191C11.4386 47.6634 11.2042 47.4131 10.9699 47.1574C10.9645 47.1521 10.9592 47.1467 10.9592 47.1467C10.9486 47.1308 10.9379 47.1201 10.9219 47.1095C10.6875 46.8431 10.4585 46.5821 10.2401 46.3158C10.2295 46.3051 10.2188 46.2945 10.2081 46.2785C10.1655 46.2306 10.1069 46.1613 10.043 46.0867L10.0377 46.0814C10.0377 46.0761 10.0324 46.0708 10.027 46.0654C9.86191 45.8577 9.68613 45.6393 9.50503 45.4209C9.44111 45.3357 9.38251 45.2558 9.35588 45.2132C9.3399 45.1972 9.32924 45.1812 9.31859 45.1706C9.14281 44.9415 8.96703 44.7125 8.79125 44.4674L8.7806 44.4515C8.73266 44.3822 8.7007 44.3449 8.71668 44.3662C8.70602 44.3502 8.69537 44.3343 8.68472 44.3183C8.67406 44.3023 8.66341 44.2917 8.65276 44.2757C8.64743 44.2703 8.6421 44.2597 8.63678 44.2544C8.63678 44.2544 8.63678 44.2544 8.63145 44.2544C8.45034 43.9987 8.26924 43.727 8.07748 43.4394C8.07215 43.4234 8.0615 43.4074 8.04552 43.3914C8.01356 43.3435 7.97094 43.2743 7.91768 43.189L7.9017 43.1677C7.7419 42.9067 7.59808 42.6937 7.5022 42.5285C7.49154 42.5072 7.47556 42.4806 7.45958 42.4593C7.41697 42.3954 7.3637 42.2995 7.2838 42.1716L7.27848 42.161C7.16662 41.9746 7.04943 41.7775 6.92692 41.5697V41.5591C6.91626 41.5484 6.91626 41.5431 6.90561 41.5324C6.85234 41.4259 6.8044 41.3354 6.76712 41.2608C6.75114 41.2288 6.73516 41.2022 6.71385 41.1702C6.65526 41.0637 6.63395 41.0158 6.68189 41.117C6.66058 41.069 6.63928 41.0264 6.61797 40.9891C6.57003 40.9039 6.52209 40.824 6.49013 40.7388C6.47948 40.7175 6.46882 40.6962 6.45817 40.6748C6.35164 40.4724 6.26641 40.3126 6.20249 40.1848C6.19716 40.1688 6.19184 40.1528 6.18651 40.1422C2.63362 32.9778 2.13292 21.9356 6.34631 15.1068ZM26.8646 32.8713L26.8806 32.8766C26.9019 32.9086 26.8966 32.8979 26.9232 32.9405C26.9073 32.9139 26.8859 32.8926 26.8646 32.8713ZM10.9805 47.1894C10.9805 47.1894 10.9965 47.2053 11.0018 47.2107C11.0178 47.2266 11.0125 47.2213 11.0285 47.2426L11.0338 47.248V47.2533C11.0444 47.2586 11.0498 47.2746 11.0551 47.2852C11.0125 47.2267 10.9965 47.2053 10.9805 47.1894ZM16.5416 52.0526L16.5895 52.0792C16.4936 52.01 16.4989 52.0047 16.5895 52.0899C16.5735 52.0739 16.5575 52.0633 16.5416 52.0526Z" fill="white"/>
</svg>
