<svg width="61" height="60" viewBox="0 0 61 60" fill="none" xmlns="http://www.w3.org/2000/svg">
<path d="M30.4782 25.2751C33.0532 25.2751 35.1532 27.3751 35.1532 30.0001C35.1532 32.5001 33.0532 34.6251 30.4782 34.6251C27.9032 34.6251 25.8032 32.5001 25.8032 30.0001C25.8032 27.3751 27.9032 25.2751 30.4782 25.2751ZM18.9032 50.0001C20.4782 50.9501 23.9282 49.5001 27.9032 45.7501C26.6032 44.2751 25.3282 42.6751 24.1282 41.0001C22.1136 40.8073 20.1107 40.5069 18.1282 40.1001C16.8532 45.4501 17.3282 49.1251 18.9032 50.0001ZM20.6782 35.6501L19.9532 34.3751C19.6782 35.1001 19.4032 35.8251 19.2282 36.5251C19.9032 36.6751 20.6532 36.8001 21.4282 36.9251L20.6782 35.6501ZM37.0282 33.7501L39.0532 30.0001L37.0282 26.2501C36.2782 24.9251 35.4782 23.7501 34.7532 22.5751C33.4032 22.5001 31.9782 22.5001 30.4782 22.5001C28.9782 22.5001 27.5532 22.5001 26.2032 22.5751C25.4782 23.7501 24.6782 24.9251 23.9282 26.2501L21.9032 30.0001L23.9282 33.7501C24.6782 35.0751 25.4782 36.2501 26.2032 37.4251C27.5532 37.5001 28.9782 37.5001 30.4782 37.5001C31.9782 37.5001 33.4032 37.5001 34.7532 37.4251C35.4782 36.2501 36.2782 35.0751 37.0282 33.7501ZM30.4782 16.9501C30.0032 17.5001 29.5032 18.0751 29.0032 18.7501H31.9532C31.4532 18.0751 30.9532 17.5001 30.4782 16.9501ZM30.4782 43.0501C30.9532 42.5001 31.4532 41.9251 31.9532 41.2501H29.0032C29.5032 41.9251 30.0032 42.5001 30.4782 43.0501ZM42.0282 10.0001C40.4782 9.0501 37.0282 10.5001 33.0532 14.2501C34.3532 15.7251 35.6282 17.3251 36.8282 19.0001C38.8782 19.2001 40.9032 19.5001 42.8282 19.9001C44.1032 14.5501 43.6282 10.8751 42.0282 10.0001ZM40.2782 24.3501L41.0032 25.6251C41.2782 24.9001 41.5532 24.1751 41.7282 23.4751C41.0532 23.3251 40.3032 23.2001 39.5282 23.0751L40.2782 24.3501ZM43.9032 6.7251C47.5782 8.8251 47.9782 14.3501 46.4282 20.8001C52.7782 22.6751 57.3532 25.7751 57.3532 30.0001C57.3532 34.2251 52.7782 37.3251 46.4282 39.2001C47.9782 45.6501 47.5782 51.1751 43.9032 53.2751C40.2532 55.3751 35.2782 52.9751 30.4782 48.4001C25.6782 52.9751 20.7032 55.3751 17.0282 53.2751C13.3782 51.1751 12.9782 45.6501 14.5282 39.2001C8.17821 37.3251 3.60321 34.2251 3.60321 30.0001C3.60321 25.7751 8.17821 22.6751 14.5282 20.8001C12.9782 14.3501 13.3782 8.8251 17.0282 6.7251C20.7032 4.6251 25.6782 7.0251 30.4782 11.6001C35.2782 7.0251 40.2532 4.6251 43.9032 6.7251ZM43.1782 30.0001C44.0282 31.8751 44.7782 33.7501 45.4032 35.6501C50.6532 34.0751 53.6032 31.8251 53.6032 30.0001C53.6032 28.1751 50.6532 25.9251 45.4032 24.3501C44.7782 26.2501 44.0282 28.1251 43.1782 30.0001ZM17.7782 30.0001C16.9282 28.1251 16.1782 26.2501 15.5532 24.3501C10.3032 25.9251 7.35321 28.1751 7.35321 30.0001C7.35321 31.8251 10.3032 34.0751 15.5532 35.6501C16.1782 33.7501 16.9282 31.8751 17.7782 30.0001ZM40.2782 35.6501L39.5282 36.9251C40.3032 36.8001 41.0532 36.6751 41.7282 36.5251C41.5532 35.8251 41.2782 35.1001 41.0032 34.3751L40.2782 35.6501ZM33.0532 45.7501C37.0282 49.5001 40.4782 50.9501 42.0282 50.0001C43.6282 49.1251 44.1032 45.4501 42.8282 40.1001C40.9032 40.5001 38.8782 40.8001 36.8282 41.0001C35.6282 42.6751 34.3532 44.2751 33.0532 45.7501ZM20.6782 24.3501L21.4282 23.0751C20.6532 23.2001 19.9032 23.3251 19.2282 23.4751C19.4032 24.1751 19.6782 24.9001 19.9532 25.6251L20.6782 24.3501ZM27.9032 14.2501C23.9282 10.5001 20.4782 9.0501 18.9032 10.0001C17.3282 10.8751 16.8532 14.5501 18.1282 19.9001C20.1107 19.4933 22.1136 19.1929 24.1282 19.0001C25.3282 17.3251 26.6032 15.7251 27.9032 14.2501Z" fill="white"/>
</svg>
