<svg width="58" height="60" viewBox="0 0 58 60" fill="none" xmlns="http://www.w3.org/2000/svg">
<path d="M54.9425 56.7123C53.2218 58.61 50.8548 59.5747 48.4799 59.5747C46.3902 59.5747 44.2945 58.8284 42.6245 57.3141L22.1959 38.7881C22.0876 38.6898 21.9817 38.5888 21.8784 38.4853L37.987 29.5636L54.3409 44.3941C57.9087 47.6297 58.1778 53.1444 54.9425 56.7122M19.3782 11.0406V9.32578C19.3782 4.17527 15.2028 0 10.0525 0C4.90206 0 0.72667 4.17527 0.72667 9.32578V21.3705L19.3782 11.0406ZM0.623779 50.0508V50.5713C0.623779 55.7787 4.84511 60 10.0525 60C15.2598 60 19.481 55.7787 19.481 50.5713V39.6068L0.623779 50.0508ZM56.2829 4.93055C53.9491 0.717305 48.6422 -0.806367 44.4293 1.52707L1.01448 25.5718V45.5092L52.8793 16.7843C57.0925 14.4509 58.6165 9.14367 56.283 4.93055" fill="white"/>
</svg>
