<svg width="54" height="47" viewBox="0 0 54 47" fill="none" xmlns="http://www.w3.org/2000/svg">
<path d="M48.1425 31.4749C49.2575 27.8824 51.77 14.5999 33.3175 2.74994C33.0047 2.54881 32.6313 2.46368 32.2622 2.50936C31.8932 2.55503 31.5518 2.72862 31.2975 2.99994C31.0472 3.26482 30.9032 3.61263 30.893 3.97694C30.8829 4.34125 31.0073 4.69654 31.2425 4.97494C31.3175 5.06494 38.1175 13.3499 35.7 22.8124C31.5175 19.9349 14.89 6.75494 14.89 6.75494L24.5 22.4999L6.65498 10.9999C6.65498 10.9999 19.27 26.4874 26.99 32.3149C23.2525 33.6549 15.1325 35.0749 4.40748 28.4099C4.11013 28.2259 3.76067 28.1443 3.41257 28.1778C3.06447 28.2112 2.7369 28.3577 2.47998 28.5949C2.22712 28.8257 2.0624 29.1372 2.01406 29.4761C1.96571 29.815 2.03674 30.1602 2.21498 30.4524C2.57248 31.0499 11.17 44.9999 29.3475 44.9999C34.335 44.9999 37.2475 43.5799 39.5925 42.4399C41.0325 41.7424 42.17 41.1874 43.4125 41.1874C46.5025 41.1874 48.53 44.2549 48.5475 44.2824C48.7029 44.5223 48.9207 44.7153 49.1774 44.8408C49.4342 44.9663 49.7203 45.0196 50.005 44.9949C50.2878 44.9757 50.5599 44.8794 50.7918 44.7163C51.0236 44.5532 51.2063 44.3296 51.32 44.0699C53.5525 38.8849 49.7075 33.3974 48.1425 31.4724" stroke="white" stroke-width="3.75" stroke-linecap="round" stroke-linejoin="round"/>
</svg>
