<svg width="61" height="60" viewBox="0 0 61 60" fill="none" xmlns="http://www.w3.org/2000/svg">
<path d="M4.22821 3.75V56.25H56.7282V3.75H4.22821ZM32.7995 44.6944C32.7995 49.8037 29.7995 52.1362 25.4288 52.1362C21.4801 52.1362 19.1945 50.0981 18.0226 47.625L22.0426 45.1988C22.817 46.5694 23.5201 47.73 25.2188 47.73C26.8351 47.73 27.8663 47.0962 27.8663 44.625V27.855H32.7995V44.6944ZM44.4695 52.1362C39.887 52.1362 36.9226 49.9575 35.4807 47.0963L39.5007 44.7769C40.5563 46.5 41.9382 47.7769 44.3645 47.7769C46.4026 47.7769 47.717 46.7569 47.717 45.3394C47.717 43.6519 46.3801 43.0537 44.1188 42.0581L42.8888 41.5312C39.3263 40.02 36.9713 38.1094 36.9713 34.0894C36.9713 30.3862 39.7951 27.5738 44.1901 27.5738C47.3307 27.5738 49.5807 28.6631 51.1988 31.5225L47.3551 33.9844C46.5113 32.4731 45.5963 31.875 44.1788 31.875C42.7388 31.875 41.8238 32.79 41.8238 33.9844C41.8238 35.4619 42.7388 36.0581 44.8595 36.9844L46.0895 37.5113C50.2857 39.3038 52.6407 41.145 52.6407 45.2681C52.6407 49.6987 49.1476 52.1344 44.4713 52.1344L44.4695 52.1362Z" fill="white"/>
</svg>
