<svg width="61" height="60" viewBox="0 0 61 60" fill="none" xmlns="http://www.w3.org/2000/svg">
<path d="M42.3611 2.3999C39.9142 2.3999 37.7954 3.06084 36.3283 3.7124C34.8892 3.22959 32.5033 2.40459 29.6392 2.9999C27.9705 3.29053 26.4376 3.97959 25.0314 5.03428C22.7158 3.91865 20.297 3.23428 17.7611 3.12178C16.2001 2.9999 9.8392 3.72178 7.55639 7.07803C6.71733 8.3999 5.87827 10.078 5.51733 12.1171C5.15639 13.9171 5.15639 15.9608 5.75639 20.1608C6.11733 23.039 6.60014 24.9608 7.67827 28.9171C7.80014 29.278 8.40014 31.1999 10.2001 36.4827C10.5564 37.439 11.2783 39.239 12.7173 40.9171C13.6783 42.1171 14.6392 42.839 15.8392 42.839C17.4001 42.839 18.4783 41.7608 19.4392 40.5608C19.5095 40.4812 19.5845 40.3921 19.6548 40.3124C19.5658 40.453 19.4861 40.6077 19.4392 40.7999C19.2001 41.9999 20.6392 42.9608 21.8392 43.439C22.8001 43.9171 23.8783 44.039 24.7173 44.039C25.7955 44.039 26.6392 43.7999 27.1173 43.6827C27.5298 43.5421 28.4205 43.1577 29.372 42.5249C29.4142 45.5905 29.4423 49.2093 29.5173 50.039C29.8783 53.1608 30.7173 55.3171 32.2783 56.5171C33.4783 57.478 35.6392 57.5999 35.7611 57.5999C37.9173 57.5999 41.2783 56.1608 42.7173 53.8827C43.4392 52.7999 43.6783 51.839 43.9173 50.5171C44.1564 49.7999 44.3955 45.5999 44.5173 44.7608C44.6814 43.4343 44.808 42.1265 44.9345 40.8562C45.7267 41.0624 46.7017 41.2827 47.7611 41.2827C49.6783 41.2827 52.2001 39.9608 52.6783 39.7171C53.6392 38.9999 55.5564 37.3218 54.7173 35.8827C54.2392 35.039 53.5173 35.039 51.7173 35.2827C51.7173 35.2827 48.8392 35.639 48.5955 35.5171C48.422 35.4515 48.1548 35.2827 47.8548 35.0624C48.4783 34.0968 49.0314 33.1405 49.6783 32.2827C51.1173 29.5218 51.9611 27.3608 52.5611 25.6827C53.6392 22.6827 54.2392 20.278 54.5955 18.5999C55.4392 14.9999 55.6783 13.3218 55.1955 11.3999C54.2392 8.03897 50.7564 5.16084 49.3173 4.32178C48.3564 3.83897 45.9611 2.3999 42.3611 2.3999ZM42.3611 4.7999C45.3611 4.7999 47.4001 5.9999 48.4783 6.47803C49.8001 7.1999 52.8001 9.5999 53.0392 11.878C53.1611 13.1999 53.2783 14.5218 52.4392 17.9999C51.9611 19.678 51.4783 21.839 50.3955 24.839C49.7955 26.5171 49.0783 28.5608 47.6392 31.0827C47.6017 31.1437 47.5595 31.2093 47.522 31.2749C47.6626 30.7687 47.7611 30.3608 47.7611 30.3608C48.0001 29.1608 48.0001 28.1999 47.8783 26.7608C47.7564 26.039 47.6392 24.239 47.6392 23.5171C47.6392 23.1608 47.9955 19.439 48.1173 18.1171C48.2392 15.9608 46.9173 13.3171 46.5611 12.839C44.7611 10.078 43.8001 8.52178 41.8783 6.96084C41.4001 6.55303 40.5798 5.87334 39.4642 5.18897C40.3455 4.97334 41.3204 4.7999 42.3611 4.7999ZM31.758 5.29209C33.3236 5.32959 34.6501 5.76084 35.6392 6.12178C38.1611 6.96084 39.7173 8.27803 40.4392 8.87803C42.0001 10.1999 42.8392 11.5218 44.6392 14.2827C44.7705 14.5452 45.1126 15.103 45.3845 15.8812C42.9283 15.6562 41.297 16.5187 40.3173 17.3999C38.8783 18.5999 38.9954 20.3999 39.1173 21.7171C39.1173 22.678 39.3611 23.8827 41.1611 27.9608C41.8783 29.7608 42.5954 31.678 43.3173 32.9999C43.6923 33.7452 44.1517 34.4296 44.6439 35.039C44.358 35.1843 44.0673 35.3718 43.7955 35.639C43.0783 36.478 42.9564 37.3218 42.7173 38.8827C42.4783 40.0827 42.2392 42.5999 42.1173 44.639C42.1173 45.478 41.7611 49.5608 41.6392 50.1608C41.2783 51.3608 41.1564 51.9608 40.6783 52.6827C39.8392 53.9999 37.2001 55.0827 35.6392 54.9608C35.1611 54.9608 34.4392 54.9608 33.8392 54.4827C32.5173 53.5218 32.0392 51.3608 31.9173 49.6827C31.7954 48.4827 31.9173 39.839 31.6783 37.9171C31.5564 37.439 31.4392 36.239 30.4783 35.3999C30.0751 35.0624 29.2408 34.889 28.4533 34.7718C28.4626 34.3687 28.4861 33.9655 28.5611 33.5999C28.6783 32.878 28.9173 32.5171 29.1611 31.9171C29.2783 31.5608 29.5173 31.0827 29.7611 30.4827C30.8392 27.1218 30.5955 22.678 29.9955 19.9171C29.8783 19.678 29.3955 17.7608 27.7173 16.6827C25.9173 15.5999 23.9955 16.1999 22.9173 16.5608C22.472 16.6827 22.0314 16.8749 21.5908 17.0999C21.6658 16.5983 21.7314 16.0921 21.8392 15.5999C22.3173 13.1999 22.8001 11.1608 24.3611 9.12178C26.0392 7.07803 27.9564 5.76084 30.1173 5.3999C30.6892 5.31084 31.2376 5.27803 31.758 5.29209ZM16.9408 5.50303C17.222 5.49834 17.4611 5.50303 17.6392 5.52178C19.5142 5.62022 21.3095 6.06084 23.0908 6.81084C22.8705 7.05459 22.6501 7.29834 22.4392 7.56084C20.4001 9.96084 19.9173 12.478 19.4392 14.9999C18.8392 17.9999 18.7173 21.1171 19.1955 24.239L18.9611 26.5171C18.8392 27.7171 18.5955 29.9999 19.9173 32.3999C20.3814 33.1968 20.8923 33.8718 21.4548 34.4483C20.2361 36.0608 18.9423 37.5843 17.6392 38.9999C16.9173 39.839 16.3173 40.439 15.8392 40.439C15.7173 40.439 15.2392 40.1999 14.5173 39.3608C13.1955 37.9218 12.7173 36.3608 12.4783 35.7608C11.0392 31.439 10.2001 28.678 10.0783 28.3171C9.11733 24.478 8.6392 22.5608 8.15639 19.7999C7.55639 15.9608 7.55639 14.039 7.91733 12.4827C8.27827 10.7999 8.87827 9.47803 9.47827 8.52178C10.9501 6.21084 14.9908 5.55459 16.9408 5.50303ZM44.4751 18.1499C44.8595 18.1499 45.2767 18.1968 45.7173 18.2905C45.7033 19.4108 45.2392 22.9265 45.2392 23.3999C45.2392 24.3608 45.4783 26.278 45.4783 26.9999C45.6001 28.3218 45.6001 29.039 45.4783 29.9999C45.4783 29.9999 45.3001 30.8577 45.1173 31.4671C44.5595 30.2062 43.9408 28.7015 43.1954 26.9999C41.3954 22.9218 41.2783 22.0827 41.2783 21.4827C41.2783 20.639 41.2783 19.5608 41.9954 19.0827C42.6704 18.4827 43.4908 18.1593 44.4751 18.1499ZM25.847 18.5015C26.0861 18.5296 26.3064 18.5999 26.5173 18.7171C27.4783 19.1999 27.7173 20.3999 27.7173 20.3999C28.3173 23.039 28.5564 26.9999 27.5955 29.639C27.4783 30.1171 27.2392 30.478 27.1173 30.839C26.8783 31.439 26.6392 32.039 26.3955 33.1171C26.3345 33.5624 26.3064 34.003 26.2923 34.4437C25.4626 34.2702 24.6798 33.9749 24.1173 33.5999C23.1564 33.1218 22.4392 32.278 21.9611 31.3171C21.1173 29.5171 21.2392 27.839 21.3611 26.8827L21.5955 24.1171C21.4267 22.7671 21.347 21.4124 21.3658 20.0671C21.9189 19.5937 22.6408 19.1108 23.6392 18.839C24.3611 18.6608 25.1486 18.4124 25.847 18.5015ZM43.5423 19.3077C43.2283 19.3218 42.8954 19.378 42.7173 19.439C42.2392 19.5608 42.1173 19.5608 41.9954 19.7999C41.8783 20.039 42.2392 20.3999 42.3611 20.639C42.4783 20.639 42.8392 20.9999 43.3173 20.8827C43.6783 20.7608 43.9173 20.5218 44.0392 20.3999C44.1611 20.278 44.6392 19.678 44.2783 19.439C44.1564 19.3171 43.8564 19.289 43.5423 19.3077ZM25.5751 20.1796C25.4439 20.189 25.3173 20.2218 25.1955 20.2827C25.0783 20.2827 24.8392 20.3999 24.7173 20.639C24.5955 20.878 24.7173 21.1171 24.8392 21.239C25.0783 21.5999 25.4392 21.9608 26.0392 21.9608C26.1611 21.9608 26.6392 21.9608 26.9955 21.5999C26.9955 21.5999 27.3611 21.239 27.3611 20.8827C27.2392 20.639 27.0001 20.5218 26.6392 20.3999C26.3673 20.3108 25.9642 20.1515 25.5751 20.1796ZM23.3673 35.8827C24.1033 36.2765 24.9892 36.5952 25.9595 36.8155C25.7017 37.3312 25.3314 37.7577 24.9611 38.039C24.1173 38.639 23.0392 38.9999 21.9611 39.239C21.7173 39.239 21.6001 39.3608 21.3611 39.3608C20.7798 39.5249 20.2173 39.7077 19.833 40.1062C21.0095 38.7983 22.1908 37.3546 23.3673 35.8827ZM46.5048 36.8437C47.0298 37.2374 47.5455 37.528 47.9955 37.6827C48.7173 37.9218 49.3173 37.9218 51.4783 37.6827C51.1173 38.039 50.0392 38.639 48.4783 38.8827C47.4751 38.9812 46.2283 38.7421 45.2158 38.4515C45.3095 37.7718 45.4173 37.3827 45.5955 37.1999C45.6611 37.139 46.0595 37.0171 46.5048 36.8437ZM28.4345 37.2046C28.683 37.2468 28.8798 37.2796 28.9173 37.3171C29.1564 37.5608 29.2783 38.1608 29.2783 38.3999C29.2923 38.6062 29.3017 39.1265 29.3111 39.4874C28.322 40.6452 26.733 41.2874 26.3955 41.3999C25.9173 41.639 24.4783 41.878 23.0392 41.3999C24.2392 41.039 25.4392 40.6827 26.3955 39.9608C27.2345 39.3608 27.9564 38.4046 28.4345 37.2046Z" fill="white"/>
</svg>
