<svg width="61" height="60" viewBox="0 0 61 60" fill="none" xmlns="http://www.w3.org/2000/svg">
<path d="M28.8883 3V17.7009C27.8993 17.299 25.7651 17.25 24.7135 17.25C16.8019 17.25 9.47821 20.9721 9.47821 31.5C9.47821 44.097 19.3978 45.75 26.0383 45.75C28.6603 45.75 34.5883 45.491 37.4383 44.6645V3H28.8883ZM43.1383 3V11.55H51.6883V3H43.1383ZM43.1383 17.25V42.0483C43.1383 46.3689 40.5106 50.8662 34.5883 53.4483L42.7375 57.1389C51.0196 54.2889 51.6883 44.8983 51.6883 42.0483V17.25H43.1383ZM25.9548 24.5197C26.8668 24.5197 27.8908 24.6869 28.8883 24.9149V38.3188C27.8908 38.5468 26.8668 38.7196 25.9548 38.7196C22.2213 38.7196 18.6016 37.542 18.6016 31.5C18.6016 25.458 22.2213 24.5197 25.9548 24.5197Z" fill="white"/>
</svg>
