<svg width="61" height="60" viewBox="0 0 61 60" fill="none" xmlns="http://www.w3.org/2000/svg">
<g clip-path="url(#clip0_507_679)">
<path d="M24.4782 10.8V16.8H12.4782V22.8H6.47821V28.8H1.82821C1.25634 28.8094 0.773523 29.2172 0.66571 29.775C0.66571 29.775 0.47821 30.8016 0.47821 32.1C0.47821 32.925 0.562585 33.8204 0.70321 34.725C0.632898 34.7438 0.539148 34.786 0.47821 34.8H0.70321C1.05009 36.9704 1.84696 39.2813 3.17821 41.4751C3.1829 41.4844 3.17352 41.5032 3.17821 41.5126C3.18759 41.536 3.20165 41.5641 3.21571 41.5876C3.27665 41.8735 3.43602 42.1266 3.66571 42.3001C3.68915 42.3141 3.71727 42.3282 3.74071 42.3376C4.11102 42.8719 4.50009 43.4063 4.94071 43.9126C8.15165 47.6157 13.3641 50.4001 20.8782 50.4001C33.1454 50.4001 43.5188 45.1735 49.3782 34.8H60.2907C58.9876 34.4719 56.1891 34.0313 56.6532 32.325C55.1016 34.1204 52.1485 34.3454 49.8657 33.9375C50.3016 33.1125 50.7235 32.2735 51.1032 31.3875C54.572 31.2985 57.061 30.1829 58.4532 28.8375C59.9767 27.3657 60.4407 25.725 60.4407 25.725C60.5579 25.2657 60.3985 24.7829 60.0282 24.4875C60.0282 24.4875 56.9954 22.275 52.4532 23.025C51.1595 18.7829 47.8032 16.725 47.8032 16.725C47.5548 16.5797 47.2641 16.5235 46.9782 16.575C46.786 16.6172 46.6032 16.7063 46.4532 16.8375C46.4532 16.8375 45.6516 17.5219 44.9907 18.75C44.3298 19.9782 43.7204 21.8485 43.9407 24.2625C44.0438 25.3922 44.4001 26.4657 44.9157 27.4875C44.6251 27.6657 44.4563 27.8157 43.9782 28.0125C42.9845 28.425 41.536 28.8 39.4782 28.8H38.8782V22.8H32.8782V10.8H24.4782ZM26.8782 13.2H30.4782V16.8H26.8782V13.2ZM14.8782 19.2H18.4782V22.8H14.8782V19.2ZM20.8782 19.2H24.4782V22.8H20.8782V19.2ZM26.8782 19.2H30.4782V22.8H26.8782V19.2ZM47.3907 19.4625C48.2813 20.1235 49.8938 21.5063 50.4657 24.525C50.5266 24.8579 50.7235 25.1438 51.0095 25.3219C51.2954 25.5 51.6423 25.5516 51.9657 25.4625C55.0266 24.6235 56.6813 25.3125 57.5907 25.8375C57.4173 26.2172 57.4454 26.4516 56.7657 27.1125C55.6735 28.1672 53.822 29.2313 50.3532 29.1C49.847 29.0813 49.3829 29.3813 49.1907 29.85C48.7126 31.0454 48.1595 32.1516 47.5782 33.225C47.4001 33.1219 47.2501 33 47.1282 32.8875C45.5204 35.2172 36.1923 34.3266 35.5407 32.5125C33.5298 34.875 27.2813 34.875 25.2657 32.5125C24.6141 34.3266 15.2485 35.2172 13.6407 32.8875C12.2016 34.2375 6.5204 35.0672 4.15321 32.325C4.37821 33.15 3.79696 33.6844 3.02821 34.05C2.92977 33.3657 2.87821 32.7141 2.87821 32.1C2.87821 31.5844 2.91571 31.5375 2.95321 31.2H39.4782C41.8407 31.2 43.6126 30.75 44.8782 30.225C46.1438 29.7 47.0438 29.0625 47.1657 28.9875C47.4563 28.8047 47.6532 28.5094 47.7095 28.1719C47.7657 27.8391 47.6766 27.4922 47.4657 27.225C46.8001 26.3579 46.4532 25.2704 46.3407 24.0375C46.1673 22.1016 46.622 20.7469 47.0907 19.875C47.2501 19.5797 47.2595 19.6407 47.3907 19.4625ZM8.87821 25.2H12.4782V28.8H8.87821V25.2ZM14.8782 25.2H18.4782V28.8H14.8782V25.2ZM20.8782 25.2H24.4782V28.8H20.8782V25.2ZM26.8782 25.2H30.4782V28.8H26.8782V25.2ZM32.8782 25.2H36.4782V28.8H32.8782V25.2ZM3.17821 34.8H46.6782C41.1704 43.6969 32.0251 48.0001 20.8782 48.0001C14.3157 48.0001 10.0595 45.7735 7.26571 42.8251C12.5907 43.0782 16.7157 41.6626 16.7157 41.6626C17.3766 41.5782 17.8501 40.9735 17.7657 40.3126C17.6813 39.6516 17.0766 39.1782 16.4157 39.2625C16.3501 39.2719 16.2891 39.2813 16.2282 39.3C16.1251 39.3141 16.0266 39.3375 15.9282 39.375C15.9282 39.375 11.0204 41.0485 5.27821 40.2375C4.20009 38.461 3.5204 36.5579 3.17821 34.8ZM19.6782 37.2C19.0173 37.2 18.4782 37.7391 18.4782 38.4C18.4782 39.061 19.0173 39.6 19.6782 39.6C20.3391 39.6 20.8782 39.061 20.8782 38.4C20.8782 38.236 20.8641 38.0907 20.8032 37.95C20.7188 38.1 20.536 38.2125 20.3532 38.2125C20.0813 38.2125 19.8657 37.9594 19.8657 37.6875C19.8657 37.5047 19.9829 37.3594 20.1282 37.275C19.9923 37.2235 19.8329 37.2 19.6782 37.2Z" fill="white"/>
</g>
<defs>
<clipPath id="clip0_507_679">
<rect width="60" height="60" fill="white" transform="translate(0.47821)"/>
</clipPath>
</defs>
</svg>
