<svg width="61" height="60" viewBox="0 0 61 60" fill="none" xmlns="http://www.w3.org/2000/svg">
<g clip-path="url(#clip0_507_683)">
<path d="M12.4783 48H6.47827C4.88697 48 3.36085 47.3679 2.23563 46.2426C1.11041 45.1174 0.478271 43.5913 0.478271 42L0.478271 22C0.478271 20.4087 1.11041 18.8826 2.23563 17.7574C3.36085 16.6321 4.88697 16 6.47827 16H32.4783V12H28.4783V8H24.4783V12H16.4783V6C16.4783 4.4087 17.1104 2.88258 18.2356 1.75736C19.3608 0.632141 20.887 0 22.4783 0L38.4783 0C40.0696 0 41.5957 0.632141 42.7209 1.75736C43.8461 2.88258 44.4783 4.4087 44.4783 6V26C44.4783 26.5304 44.2676 27.0391 43.8925 27.4142C43.5174 27.7893 43.0087 28 42.4783 28H18.4783C16.887 28 15.3608 28.6321 14.2356 29.7574C13.1104 30.8826 12.4783 32.4087 12.4783 34V48Z" fill="white"/>
<path d="M48.4783 12V26C48.4783 27.5913 47.8461 29.1174 46.7209 30.2426C45.5957 31.3679 44.0696 32 42.4783 32H18.4783C17.9478 32 17.4391 32.2107 17.0641 32.5858C16.689 32.9609 16.4783 33.4696 16.4783 34V54C16.4783 55.5913 17.1104 57.1174 18.2356 58.2426C19.3608 59.3679 20.887 60 22.4783 60H38.4783C40.0696 60 41.5957 59.3679 42.7209 58.2426C43.8461 57.1174 44.4783 55.5913 44.4783 54V48H36.4783V52H32.4783V48H28.4783V44H54.4783C56.0696 44 57.5957 43.3679 58.7209 42.2426C59.8461 41.1174 60.4783 39.5913 60.4783 38V18C60.4783 16.4087 59.8461 14.8826 58.7209 13.7574C57.5957 12.6321 56.0696 12 54.4783 12H48.4783Z" fill="white"/>
</g>
<defs>
<clipPath id="clip0_507_683">
<rect width="60" height="60" fill="white" transform="translate(0.478271)"/>
</clipPath>
</defs>
</svg>
