<svg width="61" height="60" viewBox="0 0 61 60" fill="none" xmlns="http://www.w3.org/2000/svg">
<g clip-path="url(#clip0_507_681)">
<path d="M53.2282 39.49C51.3054 39.49 49.4613 38.7262 48.1017 37.3665C46.742 36.0069 45.9782 34.1628 45.9782 32.24C45.9782 30.3172 46.742 28.4731 48.1017 27.1135C49.4613 25.7538 51.3054 24.99 53.2282 24.99C55.151 24.99 56.9951 25.7538 58.3547 27.1135C59.7144 28.4731 60.4782 30.3172 60.4782 32.24C60.4782 34.1628 59.7144 36.0069 58.3547 37.3665C56.9951 38.7262 55.151 39.49 53.2282 39.49ZM53.2282 36.49C53.7863 36.4903 54.339 36.3807 54.8548 36.1675C55.3706 35.9542 55.8393 35.6414 56.2341 35.247C56.629 34.8526 56.9424 34.3842 57.1562 33.8687C57.3701 33.3532 57.4804 32.8006 57.4807 32.2425C57.481 31.6844 57.3714 31.1317 57.1582 30.6159C56.9449 30.1002 56.6321 29.6315 56.2377 29.2366C55.8433 28.8417 55.3749 28.5284 54.8594 28.3145C54.3439 28.1006 53.7913 27.9903 53.2332 27.99H53.2282C52.101 27.99 51.02 28.4378 50.223 29.2348C49.426 30.0318 48.9782 31.1128 48.9782 32.24C48.9782 33.3672 49.426 34.4482 50.223 35.2452C51.02 36.0422 52.101 36.49 53.2282 36.49ZM38.0657 39.49C36.1429 39.49 34.2988 38.7262 32.9392 37.3665C31.5795 36.0069 30.8157 34.1628 30.8157 32.24C30.8157 30.3172 31.5795 28.4731 32.9392 27.1135C34.2988 25.7538 36.1429 24.99 38.0657 24.99C39.9885 24.99 41.8326 25.7538 43.1922 27.1135C44.5519 28.4731 45.3157 30.3172 45.3157 32.24C45.3157 34.1628 44.5519 36.0069 43.1922 37.3665C41.8326 38.7262 39.9885 39.49 38.0657 39.49ZM38.0657 36.49C38.6238 36.4903 39.1765 36.3807 39.6923 36.1675C40.2081 35.9542 40.6768 35.6414 41.0716 35.247C41.4665 34.8526 41.7799 34.3842 41.9937 33.8687C42.2076 33.3532 42.3179 32.8006 42.3182 32.2425C42.3185 31.6844 42.2089 31.1317 41.9957 30.6159C41.7824 30.1002 41.4696 29.6315 41.0752 29.2366C40.6808 28.8417 40.2124 28.5284 39.6969 28.3145C39.1814 28.1006 38.6288 27.9903 38.0707 27.99H38.0657C36.9385 27.99 35.8575 28.4378 35.0605 29.2348C34.2635 30.0318 33.8157 31.1128 33.8157 32.24C33.8157 33.3672 34.2635 34.4482 35.0605 35.2452C35.8575 36.0422 36.9385 36.49 38.0657 36.49ZM30.1407 32.145C30.1407 36.195 26.8957 39.49 22.8957 39.49C18.8957 39.49 15.6457 36.205 15.6457 32.15C15.6457 28.095 18.5982 25 22.8982 25C24.4882 25 25.9582 25.335 27.1482 26.21V22.01C27.1482 21.6122 27.3062 21.2307 27.5875 20.9493C27.8689 20.668 28.2504 20.51 28.6482 20.51C29.046 20.51 29.4276 20.668 29.7089 20.9493C29.9902 21.2307 30.1482 21.6122 30.1482 22.01V32.145H30.1407ZM22.8957 36.495C24.0229 36.4957 25.1041 36.0485 25.9016 35.252C26.6991 34.4554 27.1475 33.3747 27.1482 32.2475C27.1489 31.1203 26.7017 30.0391 25.9052 29.2416C25.1086 28.4441 24.0279 27.9957 22.9007 27.995H22.8957C21.7685 27.995 20.6875 28.4428 19.8905 29.2398C19.0935 30.0368 18.6457 31.1178 18.6457 32.245C18.6457 33.3722 19.0935 34.4532 19.8905 35.2502C20.6875 36.0472 21.7685 36.495 22.8957 36.495ZM7.72821 39.49C5.80539 39.49 3.96132 38.7262 2.60169 37.3665C1.24205 36.0069 0.47821 34.1628 0.47821 32.24C0.47821 30.3172 1.24205 28.4731 2.60169 27.1135C3.96132 25.7538 5.80539 24.99 7.72821 24.99C9.65103 24.99 11.4951 25.7538 12.8547 27.1135C14.2144 28.4731 14.9782 30.3172 14.9782 32.24C14.9782 34.1628 14.2144 36.0069 12.8547 37.3665C11.4951 38.7262 9.65103 39.49 7.72821 39.49ZM7.72821 36.49C8.28633 36.4903 8.83905 36.3807 9.35481 36.1675C9.87056 35.9542 10.3393 35.6414 10.7341 35.247C11.129 34.8526 11.4424 34.3842 11.6562 33.8687C11.8701 33.3532 11.9804 32.8006 11.9807 32.2425C11.981 31.6844 11.8714 31.1317 11.6582 30.6159C11.4449 30.1002 11.1321 29.6315 10.7377 29.2366C10.3433 28.8417 9.87493 28.5284 9.35942 28.3145C8.84392 28.1006 8.29133 27.9903 7.73321 27.99H7.72821C6.60104 27.99 5.52004 28.4378 4.72301 29.2348C3.92598 30.0318 3.47821 31.1128 3.47821 32.24C3.47821 33.3672 3.92598 34.4482 4.72301 35.2452C5.52004 36.0422 6.60104 36.49 7.72821 36.49Z" fill="white"/>
</g>
<defs>
<clipPath id="clip0_507_681">
<rect width="60" height="60" fill="white" transform="translate(0.47821)"/>
</clipPath>
</defs>
</svg>
