<svg width="54" height="60" viewBox="0 0 54 60" fill="none" xmlns="http://www.w3.org/2000/svg">
<path d="M25.575 0.3826C26.0079 0.131354 26.4995 -0.000976563 27 -0.000976562C27.5005 -0.000976563 27.9921 0.131354 28.425 0.3826L51.8475 13.9763C52.2735 14.2232 52.6273 14.5775 52.8734 15.004C53.1195 15.4304 53.2494 15.914 53.25 16.4063V43.5938C53.2494 44.0862 53.1195 44.5698 52.8734 44.9962C52.6273 45.4227 52.2735 45.777 51.8475 46.0238L28.425 59.6176C27.9921 59.8688 27.5005 60.0012 27 60.0012C26.4995 60.0012 26.0079 59.8688 25.575 59.6176L2.1525 46.0238C1.72648 45.777 1.37272 45.4227 1.1266 44.9962C0.88048 44.5698 0.750618 44.0862 0.75 43.5938V16.4063C0.750618 15.914 0.88048 15.4304 1.1266 15.004C1.37272 14.5775 1.72648 14.2232 2.1525 13.9763L25.575 0.3826ZM6.405 18.0226V41.9776L27 53.9326L47.595 41.9776V18.0226L27 6.0676L6.405 18.0226ZM15.6862 17.0889C16.2031 16.8759 16.7714 16.8203 17.3198 16.929C17.8682 17.0378 18.3722 17.306 18.7687 17.7001L34.6725 33.5251V19.6876C34.6725 18.1351 35.94 16.8751 37.5 16.8751C39.06 16.8751 40.3275 18.1351 40.3275 19.6876V40.3126C40.3266 40.8702 40.1601 41.415 39.8489 41.8777C39.5378 42.3404 39.0961 42.7002 38.58 42.9113C38.0636 43.1235 37.4961 43.1787 36.9485 43.07C36.4008 42.9612 35.8975 42.6934 35.5013 42.3001L19.5975 26.4751V40.3126C19.5975 41.8651 18.33 43.1251 16.77 43.1251C16.3997 43.1261 16.0328 43.0541 15.6903 42.9133C15.3477 42.7725 15.0363 42.5656 14.7738 42.3044C14.5112 42.0433 14.3027 41.733 14.16 41.3912C14.0174 41.0494 13.9435 40.6829 13.9425 40.3126V19.6876C13.9431 19.1304 14.1091 18.586 14.4195 18.1233C14.73 17.6606 15.1709 17.3006 15.6862 17.0889Z" fill="white"/>
</svg>
