<svg width="61" height="60" viewBox="0 0 61 60" fill="none" xmlns="http://www.w3.org/2000/svg">
<g clip-path="url(#clip0_507_693)">
<mask id="mask0_507_693" style="mask-type:luminance" maskUnits="userSpaceOnUse" x="0" y="0" width="61" height="60">
<path d="M0.521851 0H60.5219V60H0.521851V0Z" fill="white"/>
</mask>
<g mask="url(#mask0_507_693)">
<path d="M13.2211 0H15.9261V2.6725H18.4011V0H21.1061V8.09H18.4011V5.3825H15.9261V8.09H13.2236L13.2211 0ZM24.6611 2.6825H22.2811V0H29.7486V2.6825H27.3661V8.09H24.6611V2.6825ZM30.9336 0H33.7536L35.4886 2.8425L37.2211 0H40.0411V8.09H37.3486V4.08L35.4886 6.9575H35.4411L33.5786 4.0825V8.09H30.9336V0ZM41.3861 0H44.0936V5.4175H47.8936V8.0925H41.3861V0Z" fill="white"/>
<path fill-rule="evenodd" clip-rule="evenodd" d="M13.1369 55.18L8.02185 11.7925H53.0219L47.9043 55.175L30.4969 60L13.1369 55.18ZM23.4793 31.43L22.9944 25.98H43.3569L43.8318 20.66H17.1819L18.6169 36.7525H37.0594L36.4419 43.6525L30.5069 45.2575H30.5018L24.5768 43.6575L24.1969 39.415H18.8519L19.5969 47.77L30.4969 50.795L41.4144 47.77L42.7444 32.86L42.8744 31.4325L23.4793 31.43Z" fill="white"/>
</g>
</g>
<defs>
<clipPath id="clip0_507_693">
<rect width="60" height="60" fill="white" transform="translate(0.521851)"/>
</clipPath>
</defs>
</svg>
