<svg width="61" height="60" viewBox="0 0 61 60" fill="none" xmlns="http://www.w3.org/2000/svg">
<g clip-path="url(#clip0_507_686)">
<path d="M30.4783 59.8899C29.6233 59.8899 28.8283 59.6674 28.0858 59.2824L20.5133 54.9374C19.3758 54.3324 19.9458 54.1124 20.2883 54.0024C21.8233 53.5074 22.1083 53.3974 23.7033 52.5149C23.8733 52.4049 24.1033 52.4599 24.2733 52.5699L30.0808 55.9274C30.3058 56.0374 30.5933 56.0374 30.7633 55.9274L53.4808 43.2174C53.7058 43.1074 53.8208 42.8874 53.8208 42.6124V17.2474C53.8208 16.9724 53.7083 16.7524 53.4808 16.6424L30.7633 3.98991C30.5358 3.87991 30.2508 3.87991 30.0808 3.98991L7.36327 16.6424C7.13577 16.7524 7.02077 17.0274 7.02077 17.2474V42.6124C7.02077 42.8324 7.13577 43.1074 7.36327 43.2174L13.5683 46.6849C16.9283 48.3349 19.0333 46.4099 19.0333 44.4849V19.4499C19.0333 19.1199 19.3183 18.7899 19.7183 18.7899H22.6208C22.9633 18.7899 23.3033 19.0649 23.3033 19.4499V44.4824C23.3033 48.8299 20.8558 51.3599 16.5858 51.3599C15.2758 51.3599 14.2508 51.3599 11.3483 49.9849L5.37077 46.6849C4.65048 46.2888 4.04898 45.7077 3.62839 45.0014C3.2078 44.2951 2.98337 43.4894 2.97827 42.6674V17.3024C2.97827 15.6524 3.88827 14.1124 5.37077 13.2874L28.0883 0.574905C28.8279 0.195621 29.6471 -0.00219727 30.4783 -0.00219727C31.3094 -0.00219727 32.1287 0.195621 32.8683 0.574905L55.5883 13.2849C57.0683 14.1099 57.9783 15.6499 57.9783 17.2999V42.6649C57.9783 44.3149 57.0683 45.8549 55.5883 46.6824L32.8708 59.3899C32.1157 59.7173 31.3013 59.8857 30.4783 59.8849M37.4808 42.4424C27.5183 42.4424 25.4683 38.0424 25.4683 34.2999C25.4683 33.9699 25.7533 33.6399 26.1508 33.6399H29.1108C29.4533 33.6399 29.7358 33.8599 29.7358 34.1899C30.1933 37.1049 31.5033 38.5349 37.5383 38.5349C42.3208 38.5349 44.3708 37.4899 44.3708 35.0149C44.3708 33.5849 43.8008 32.5399 36.3433 31.8249C30.1358 31.2174 26.2658 29.8999 26.2658 25.1124C26.2658 20.6549 30.1358 18.0124 36.6283 18.0124C43.9158 18.0124 47.5033 20.4349 47.9583 25.7174C47.9532 25.8962 47.8929 26.0691 47.7858 26.2124C47.6733 26.3224 47.5033 26.4324 47.3308 26.4324H44.3708C44.227 26.4289 44.0882 26.3787 43.9755 26.2894C43.8627 26.2001 43.7821 26.0766 43.7458 25.9374C43.0608 22.9124 41.2958 21.9199 36.6283 21.9199C31.3883 21.9199 30.7633 23.6799 30.7633 25.0024C30.7633 26.5974 31.5033 27.0924 38.5633 27.9724C45.5658 28.8524 48.8683 30.1174 48.8683 34.8474C48.8108 39.6924 44.7133 42.4424 37.4808 42.4424Z" fill="white"/>
</g>
<defs>
<clipPath id="clip0_507_686">
<rect width="60" height="60" fill="white" transform="translate(0.478271)"/>
</clipPath>
</defs>
</svg>
