<svg width="300" height="44" viewBox="0 0 300 44" fill="none" xmlns="http://www.w3.org/2000/svg">
<path d="M285.219 19.3613V10.1284H300V5.20117H279.002V31.6593H285.219V24.1274H296.869V19.3613H285.219Z" fill="#FAFAFA"/>
<path d="M300 33.5444H285.219H279.002V38.4947H300V33.5444Z" fill="#FAFAFA"/>
<path d="M270.471 28.5701C271.285 26.5286 271.692 24.2876 271.692 21.8469C271.692 19.4063 271.285 17.1653 270.471 15.1238C269.658 13.0823 268.514 11.3324 267.041 9.87418C265.567 8.40061 263.794 7.25706 261.722 6.44352C259.65 5.61464 257.347 5.2002 254.815 5.2002H242.128V10.1274H248.345H254.815C256.442 10.1274 257.9 10.3961 259.189 10.9333C260.494 11.4705 261.599 12.2457 262.505 13.2588C263.426 14.2565 264.124 15.4845 264.6 16.9427C265.091 18.3856 265.337 20.0203 265.337 21.8469C265.337 23.6736 265.091 25.316 264.6 26.7742C264.124 28.2171 263.426 29.4451 262.505 30.4581C261.599 31.4559 260.494 32.2233 259.189 32.7606C257.9 33.2978 256.442 33.5664 254.815 33.5664H248.345V11.8716H242.128V38.4937H254.815C257.347 38.4937 259.65 38.0869 261.722 37.2734C263.794 36.4599 265.567 35.3163 267.041 33.8427C268.514 32.3692 269.658 30.6116 270.471 28.5701Z" fill="#FAFAFA"/>
<path d="M234.847 21.8472C234.847 24.2878 234.44 26.5519 233.627 28.6394C232.828 30.7116 231.693 32.5075 230.219 34.0272C228.745 35.5468 226.973 36.7364 224.9 37.596C222.828 38.4402 220.526 38.8623 217.993 38.8623C215.476 38.8623 213.181 38.4402 211.109 37.596C209.036 36.7364 207.256 35.5468 205.767 34.0272C204.293 32.5075 203.15 30.7116 202.336 28.6394C201.523 26.5519 201.116 24.2878 201.116 21.8472C201.116 19.4066 201.523 17.1502 202.336 15.078C203.15 12.9904 204.293 11.1868 205.767 9.66719C207.256 8.14757 209.036 6.96564 211.109 6.12141C213.181 5.26182 215.476 4.83203 217.993 4.83203C219.681 4.83203 221.27 5.03158 222.759 5.43067C224.248 5.81441 225.614 6.367 226.857 7.08844C228.101 7.79452 229.214 8.66178 230.196 9.69021C231.194 10.7033 232.038 11.8392 232.729 13.0978C233.419 14.3565 233.941 15.7226 234.294 17.1962C234.663 18.6698 234.847 20.2201 234.847 21.8472ZM228.515 21.8472C228.515 20.0206 228.27 18.3858 227.778 16.9429C227.287 15.4847 226.589 14.2491 225.683 13.236C224.778 12.2229 223.672 11.4478 222.368 10.9105C221.078 10.3733 219.62 10.1047 217.993 10.1047C216.366 10.1047 214.9 10.3733 213.595 10.9105C212.306 11.4478 211.201 12.2229 210.28 13.236C209.374 14.2491 208.676 15.4847 208.185 16.9429C207.693 18.3858 207.448 20.0206 207.448 21.8472C207.448 23.6738 207.693 25.3162 208.185 26.7744C208.676 28.2173 209.374 29.4453 210.28 30.4584C211.201 31.4561 212.306 32.2236 213.595 32.7608C214.9 33.2981 216.366 33.5667 217.993 33.5667C219.62 33.5667 221.078 33.2981 222.368 32.7608C223.672 32.2236 224.778 31.4561 225.683 30.4584C226.589 29.4453 227.287 28.2173 227.778 26.7744C228.27 25.3162 228.515 23.6738 228.515 21.8472Z" fill="#FAFAFA"/>
<path d="M194.392 30.6426C194.73 30.6426 195.029 30.773 195.29 31.034L197.731 33.6818C196.38 35.3549 194.715 36.6366 192.735 37.5269C190.77 38.4172 188.406 38.8623 185.643 38.8623C183.172 38.8623 180.946 38.4402 178.966 37.596C177.001 36.7517 175.32 35.5775 173.924 34.0732C172.527 32.5689 171.452 30.773 170.7 28.6855C169.963 26.5979 169.595 24.3185 169.595 21.8472C169.595 19.3452 169.994 17.0581 170.792 14.9859C171.59 12.8983 172.711 11.1024 174.154 9.59811C175.612 8.09384 177.347 6.92726 179.357 6.09838C181.368 5.25415 183.594 4.83203 186.034 4.83203C188.46 4.83203 190.609 5.23112 192.481 6.02931C194.369 6.82749 195.973 7.87127 197.294 9.16065L195.221 12.0387C195.098 12.2229 194.937 12.3841 194.738 12.5222C194.554 12.6604 194.293 12.7295 193.955 12.7295C193.725 12.7295 193.487 12.6681 193.241 12.5453C192.996 12.4071 192.727 12.2459 192.435 12.0617C192.144 11.8622 191.806 11.6473 191.422 11.4171C191.039 11.1868 190.593 10.9796 190.087 10.7954C189.58 10.5958 188.989 10.4347 188.314 10.3119C187.654 10.1737 186.886 10.1047 186.011 10.1047C184.523 10.1047 183.156 10.3733 181.913 10.9105C180.685 11.4324 179.626 12.1999 178.736 13.213C177.845 14.2107 177.155 15.4387 176.664 16.8969C176.172 18.3398 175.927 19.9899 175.927 21.8472C175.927 23.7198 176.188 25.3853 176.71 26.8435C177.247 28.3017 177.968 29.5297 178.874 30.5274C179.779 31.5252 180.846 32.2927 182.074 32.8299C183.302 33.3518 184.622 33.6127 186.034 33.6127C186.879 33.6127 187.639 33.5667 188.314 33.4746C189.005 33.3825 189.634 33.2367 190.202 33.0371C190.785 32.8376 191.33 32.5843 191.837 32.2773C192.359 31.955 192.873 31.5635 193.379 31.1031C193.533 30.9649 193.694 30.8575 193.863 30.7807C194.032 30.6886 194.208 30.6426 194.392 30.6426Z" fill="#FAFAFA"/>
<path d="M156.059 38.4947V25.6009L151.362 17.7035L145.284 6.58265C145.069 6.18355 144.8 5.85354 144.478 5.59259C144.171 5.33164 143.749 5.20117 143.212 5.20117H137.755L149.889 25.6009V38.4947H156.059Z" fill="#FAFAFA"/>
<path d="M160.664 6.58265L155.416 16.7293C155.126 17.2956 154.39 18.5579 154.157 19.0677L157.164 23.7446L168.193 5.20117H162.713C162.192 5.20117 161.762 5.34699 161.424 5.63864C161.086 5.93028 160.833 6.24495 160.664 6.58265Z" fill="#FAFAFA"/>
<path d="M132.504 38.4937V5.2002H127.048V25.4388C127.048 25.8839 127.063 26.3674 127.094 26.8893C127.124 27.4112 127.163 27.9408 127.209 28.478L111.525 8.27398V17.0881L127.14 37.4346C127.447 37.8183 127.761 38.0946 128.084 38.2635C128.421 38.417 128.836 38.4937 129.327 38.4937H132.504Z" fill="#FAFAFA"/>
<path d="M109.894 18.0479C109.894 17.1883 109.848 16.252 109.756 15.2389V6.19025C109.587 5.97536 109.434 5.80651 109.296 5.68371C109.158 5.54557 109.012 5.44579 108.858 5.38439C108.72 5.30764 108.551 5.26159 108.352 5.24624C108.167 5.21554 107.945 5.2002 107.684 5.2002H104.438V38.4937H109.894V18.0479Z" fill="#FAFAFA"/>
<path d="M84.1608 14.8485L88.2131 25.9233H79.507L77.8881 30.2979H89.8018L92.2884 37.0902C92.4573 37.4893 92.7106 37.827 93.0483 38.1033C93.3859 38.3642 93.8234 38.4947 94.3606 38.4947H99.1498L86.0718 5.20117H79.7631L66.6621 38.4947H71.4973C72.0192 38.4947 72.4566 38.3489 72.8097 38.0572C73.1627 37.7656 73.4006 37.4432 73.5234 37.0902L76.0101 30.2979L77.6218 25.9233L81.6511 14.8945C81.8506 14.388 82.0579 13.797 82.2728 13.1216C82.4877 12.4309 82.6949 11.6941 82.8944 10.9113C83.1093 11.6941 83.3242 12.4232 83.5391 13.0986C83.754 13.774 83.9612 14.3573 84.1608 14.8485Z" fill="#FAFAFA"/>
<path d="M29.466 29.7165L25.4137 18.6417C25.2142 18.1505 25.0069 17.5672 24.792 16.8918C24.5771 16.2164 24.3622 15.4873 24.1473 14.7045C23.9478 15.4873 23.7406 16.2241 23.5257 16.9148C23.3108 17.5902 23.1036 18.1812 22.904 18.6877L18.8747 29.7165H29.466ZM40.4027 42.2879H35.6136C35.0763 42.2879 34.6389 42.1574 34.3012 41.8965C33.9635 41.6202 33.7102 41.2825 33.5414 40.8834L31.0547 34.0912H17.263L14.7764 40.8834C14.6536 41.2364 14.4156 41.5588 14.0626 41.8504C13.7096 42.1421 13.2721 42.2879 12.7502 42.2879H7.91504L21.016 8.99438L24.1042 1.43945L27.3247 8.99438L40.4027 42.2879Z" fill="#FAFAFA"/>
<path d="M21.551 29.7165L17.4987 18.6417C17.2991 18.1505 17.0919 17.5672 16.877 16.8918C16.6621 16.2164 16.4472 15.4873 16.2323 14.7045C16.0328 15.4873 15.8255 16.2241 15.6106 16.9148C15.3958 17.5902 15.1885 18.1812 14.989 18.6877L10.9597 29.7165H21.551ZM32.4876 42.2879H27.6985C27.1613 42.2879 26.7238 42.1574 26.3861 41.8965C26.0484 41.6202 25.7952 41.2825 25.6263 40.8834L23.1397 34.0912H9.34797L6.86132 40.8834C6.73852 41.2364 6.5006 41.5588 6.14756 41.8504C5.79451 42.1421 5.35705 42.2879 4.83516 42.2879H0L13.101 8.99438L16.1891 1.43945L19.4097 8.99438L32.4876 42.2879Z" fill="#FAFAFA"/>
<path d="M51.4455 0H52.8845V43.5308H51.4455V0Z" fill="#FAFAFA"/>
</svg>
