<svg width="34" height="23" viewBox="0 0 34 23" fill="none" xmlns="http://www.w3.org/2000/svg">
<g clip-path="url(#clip0_1082_7)">
<path d="M26.7 12.7399L19.29 19.3199C19.12 19.4699 18.97 19.6599 18.87 19.8599C18.78 20.0599 18.72 20.2799 18.72 20.4999C18.72 20.7199 18.77 20.9399 18.86 21.1499C18.96 21.3499 19.1 21.5399 19.27 21.6999C19.45 21.8499 19.66 21.9799 19.89 22.0599C20.12 22.1399 20.36 22.1899 20.61 22.1799C20.86 22.1799 21.11 22.1399 21.34 22.0499C21.57 21.9599 21.77 21.8299 21.95 21.6799L32.55 12.2499C32.9 11.9299 33.1 11.5099 33.1 11.0699C33.1 10.6299 32.9 10.1999 32.55 9.88993L21.95 0.459929C21.59 0.159929 21.12 -0.0100705 20.63 -7.05367e-05C20.14 -7.05367e-05 19.66 0.169929 19.32 0.479929C18.97 0.789929 18.77 1.20993 18.77 1.64993C18.76 2.07993 18.95 2.49993 19.29 2.81993L26.7 9.39993H1.87C1.37 9.39993 0.9 9.57993 0.54 9.88993C0.19 10.1999 0 10.6299 0 11.0699C0 11.5099 0.19 11.9299 0.54 12.2499C0.9 12.5599 1.37 12.7399 1.87 12.7399H26.7Z" fill="#7470FF"/>
</g>
<defs>
<clipPath id="clip0_1082_7">
<rect width="33.1064" height="22.1895" fill="white"/>
</clipPath>
</defs>
</svg>
