<svg width="22.189941" height="33.106445" viewBox="0 0 22.1899 33.1064" fill="none" xmlns="http://www.w3.org/2000/svg" xmlns:xlink="http://www.w3.org/1999/xlink">
	<desc>
			Created with Pixso.
	</desc>
	<defs/>
	<path id="Vector" d="M9.44 26.7L2.86 19.29C2.71 19.12 2.52 18.97 2.32 18.87C2.12 18.78 1.9 18.72 1.68 18.72C1.45 18.72 1.24 18.77 1.03 18.86C0.83 18.96 0.64 19.09 0.48 19.27C0.33 19.45 0.2 19.66 0.12 19.89C0.04 20.12 -0.01 20.36 0 20.61C0 20.86 0.04 21.11 0.13 21.34C0.22 21.57 0.34 21.77 0.5 21.95L9.93 32.55C10.24 32.9 10.67 33.1 11.11 33.1C11.55 33.1 11.98 32.9 12.29 32.55L21.72 21.95C22.02 21.59 22.19 21.12 22.18 20.63C22.18 20.13 22.01 19.66 21.7 19.32C21.39 18.97 20.97 18.77 20.53 18.77C20.1 18.76 19.67 18.95 19.36 19.29L12.78 26.7L12.78 1.87C12.78 1.37 12.6 0.9 12.29 0.54C11.98 0.19 11.55 0 11.11 0C10.67 0 10.24 0.19 9.93 0.54C9.62 0.9 9.44 1.37 9.44 1.87L9.44 26.7Z" fill="#747474" fill-opacity="1.000000" fill-rule="nonzero"/>
</svg>
