<svg width="33.106445" height="22.189453" viewBox="0 0 33.1064 22.1895" fill="none" xmlns="http://www.w3.org/2000/svg" xmlns:xlink="http://www.w3.org/1999/xlink">
	<desc>
			Created with Pixso.
	</desc>
	<defs/>
	<path id="Vector" d="M26.7 12.74L19.29 19.32C19.12 19.47 18.97 19.66 18.87 19.86C18.78 20.06 18.72 20.28 18.72 20.5C18.72 20.72 18.77 20.94 18.86 21.15C18.96 21.35 19.1 21.54 19.27 21.7C19.45 21.85 19.66 21.98 19.89 22.06C20.12 22.14 20.36 22.19 20.61 22.18C20.86 22.18 21.11 22.14 21.34 22.05C21.57 21.96 21.77 21.83 21.95 21.68L32.55 12.25C32.9 11.93 33.1 11.51 33.1 11.07C33.1 10.63 32.9 10.2 32.55 9.89L21.95 0.46C21.59 0.16 21.12 -0.01 20.63 0C20.14 0 19.66 0.17 19.32 0.48C18.97 0.79 18.77 1.21 18.77 1.65C18.76 2.08 18.95 2.5 19.29 2.82L26.7 9.4L1.87 9.4C1.37 9.4 0.9 9.58 0.54 9.89C0.19 10.2 0 10.63 0 11.07C0 11.51 0.19 11.93 0.54 12.25C0.9 12.56 1.37 12.74 1.87 12.74L26.7 12.74Z" fill="#7DFF7A" fill-opacity="1.000000" fill-rule="nonzero"/>
</svg>
