<?xml version="1.0" encoding="UTF-8"?>
<svg xmlns="http://www.w3.org/2000/svg" xmlns:xlink="http://www.w3.org/1999/xlink" width="480px" height="px" viewBox="0 0 480 480" version="1.1">
<defs>
<filter id="alpha" filterUnits="objectBoundingBox" x="0%" y="0%" width="100%" height="100%">
  <feColorMatrix type="matrix" in="SourceGraphic" values="0 0 0 0 1 0 0 0 0 1 0 0 0 0 1 0 0 0 1 0"/>
</filter>
<mask id="mask0">
  <g filter="url(#alpha)">
<rect x="0" y="0" width="480" height="480" style="fill:rgb(0%,0%,0%);fill-opacity:0.501961;stroke:none;"/>
  </g>
</mask>
<clipPath id="clip1">
  <rect x="0" y="0" width="480" height="480"/>
</clipPath>
<g id="surface5" clip-path="url(#clip1)">
<path style=" stroke:none;fill-rule:nonzero;fill:rgb(87.843137%,87.843137%,87.843137%);fill-opacity:1;" d="M 225.210938 223.738281 L 210.707031 223.738281 L 204.40625 375.269531 L 225.210938 375.269531 Z M 225.210938 223.738281 "/>
</g>
<mask id="mask1">
  <g filter="url(#alpha)">
<rect x="0" y="0" width="480" height="480" style="fill:rgb(0%,0%,0%);fill-opacity:0.2;stroke:none;"/>
  </g>
</mask>
<clipPath id="clip2">
  <rect x="0" y="0" width="480" height="480"/>
</clipPath>
<g id="surface8" clip-path="url(#clip2)">
<path style=" stroke:none;fill-rule:nonzero;fill:rgb(0%,0%,0%);fill-opacity:1;" d="M 234.839844 143.980469 L 122.121094 143.980469 C 116.15625 143.980469 111.324219 148.8125 111.324219 154.777344 L 111.324219 392.445312 C 111.324219 398.410156 116.15625 403.242188 122.121094 403.242188 L 234.839844 403.242188 C 240.800781 403.242188 245.632812 398.410156 245.632812 392.445312 L 245.632812 154.777344 C 245.632812 148.8125 240.800781 143.980469 234.839844 143.980469 Z M 234.839844 143.980469 "/>
</g>
<mask id="mask2">
  <g filter="url(#alpha)">
<rect x="0" y="0" width="480" height="480" style="fill:rgb(0%,0%,0%);fill-opacity:0.101961;stroke:none;"/>
  </g>
</mask>
<clipPath id="clip3">
  <rect x="0" y="0" width="480" height="480"/>
</clipPath>
<g id="surface11" clip-path="url(#clip3)">
<path style=" stroke:none;fill-rule:nonzero;fill:rgb(0%,0%,0%);fill-opacity:1;" d="M 253.128906 292.75 L 247.96875 186.433594 C 247.757812 182.128906 244.101562 178.8125 239.800781 179.023438 L 147.777344 183.492188 C 143.476562 183.699219 140.15625 187.355469 140.367188 191.65625 L 145.527344 297.976562 C 145.738281 302.277344 149.394531 305.59375 153.695312 305.382812 L 245.71875 300.917969 C 250.019531 300.707031 253.339844 297.050781 253.128906 292.75 Z M 253.128906 292.75 "/>
</g>
<mask id="mask3">
  <g filter="url(#alpha)">
<rect x="0" y="0" width="480" height="480" style="fill:rgb(0%,0%,0%);fill-opacity:0.2;stroke:none;"/>
  </g>
</mask>
<clipPath id="clip4">
  <rect x="0" y="0" width="480" height="480"/>
</clipPath>
<g id="surface14" clip-path="url(#clip4)">
<path style=" stroke:none;fill-rule:nonzero;fill:rgb(25.098039%,48.235294%,100%);fill-opacity:1;" d="M 208.578125 247.511719 L 203.726562 185.300781 C 203.457031 181.867188 200.457031 179.300781 197.023438 179.570312 L 158.515625 182.574219 C 155.082031 182.839844 152.515625 185.839844 152.785156 189.273438 L 157.636719 251.484375 C 157.902344 254.917969 160.90625 257.484375 164.339844 257.214844 L 202.84375 254.214844 C 206.277344 253.945312 208.84375 250.945312 208.578125 247.511719 Z M 208.578125 247.511719 "/>
</g>
<mask id="mask4">
  <g filter="url(#alpha)">
<rect x="0" y="0" width="480" height="480" style="fill:rgb(0%,0%,0%);fill-opacity:0.2;stroke:none;"/>
  </g>
</mask>
<clipPath id="clip5">
  <rect x="0" y="0" width="480" height="480"/>
</clipPath>
<g id="surface17" clip-path="url(#clip5)">
<path style=" stroke:none;fill-rule:nonzero;fill:rgb(25.098039%,48.235294%,100%);fill-opacity:1;" d="M 252.949219 190.851562 L 252.125 180.296875 C 251.910156 177.539062 249.5 175.476562 246.742188 175.691406 L 213.746094 178.265625 C 210.988281 178.480469 208.925781 180.890625 209.140625 183.648438 L 209.960938 194.203125 C 210.179688 196.960938 212.589844 199.023438 215.347656 198.808594 L 248.34375 196.234375 C 251.101562 196.019531 253.164062 193.609375 252.949219 190.851562 Z M 252.949219 190.851562 "/>
</g>
<mask id="mask5">
  <g filter="url(#alpha)">
<rect x="0" y="0" width="480" height="480" style="fill:rgb(0%,0%,0%);fill-opacity:0.4;stroke:none;"/>
  </g>
</mask>
<clipPath id="clip6">
  <rect x="0" y="0" width="480" height="480"/>
</clipPath>
<g id="surface20" clip-path="url(#clip6)">
<path style=" stroke:none;fill-rule:nonzero;fill:rgb(6.27451%,100%,15.686275%);fill-opacity:1;" d="M 255.050781 217.902344 L 254.230469 207.347656 C 254.015625 204.589844 251.601562 202.527344 248.84375 202.742188 L 215.847656 205.316406 C 213.089844 205.53125 211.027344 207.941406 211.242188 210.699219 L 212.066406 221.253906 C 212.28125 224.011719 214.691406 226.074219 217.453125 225.859375 L 250.449219 223.285156 C 253.207031 223.070312 255.265625 220.660156 255.050781 217.902344 Z M 255.050781 217.902344 "/>
</g>
<mask id="mask6">
  <g filter="url(#alpha)">
<rect x="0" y="0" width="480" height="480" style="fill:rgb(0%,0%,0%);fill-opacity:0.6;stroke:none;"/>
  </g>
</mask>
<clipPath id="clip7">
  <rect x="0" y="0" width="480" height="480"/>
</clipPath>
<g id="surface23" clip-path="url(#clip7)">
<path style=" stroke:none;fill-rule:nonzero;fill:rgb(25.098039%,48.235294%,100%);fill-opacity:1;" d="M 257.164062 244.949219 L 256.34375 234.398438 C 256.128906 231.640625 253.71875 229.578125 250.957031 229.792969 L 217.960938 232.367188 C 215.203125 232.582031 213.144531 234.992188 213.359375 237.75 L 214.179688 248.304688 C 214.394531 251.0625 216.804688 253.125 219.566406 252.910156 L 252.5625 250.335938 C 255.320312 250.121094 257.378906 247.710938 257.164062 244.949219 Z M 257.164062 244.949219 "/>
</g>
<mask id="mask7">
  <g filter="url(#alpha)">
<rect x="0" y="0" width="480" height="480" style="fill:rgb(0%,0%,0%);fill-opacity:0.701961;stroke:none;"/>
  </g>
</mask>
<clipPath id="clip8">
  <rect x="0" y="0" width="480" height="480"/>
</clipPath>
<g id="surface26" clip-path="url(#clip8)">
<path style=" stroke:none;fill-rule:nonzero;fill:rgb(100%,100%,100%);fill-opacity:1;" d="M 386.199219 197.261719 C 387.414062 200.066406 388.410156 202.730469 389.390625 205.527344 C 390.363281 208.324219 391.253906 211.082031 392.011719 213.957031 C 392.839844 216.890625 393.507812 219.867188 394.007812 222.875 C 394.289062 224.480469 394.488281 226.105469 394.597656 227.730469 C 394.746094 229.648438 394.695312 231.574219 394.457031 233.480469 L 394.398438 233.871094 C 394.371094 234.0625 394.328125 234.246094 394.273438 234.429688 C 393.414062 237.046875 392.378906 239.605469 391.179688 242.089844 C 390.058594 244.496094 388.785156 246.765625 387.519531 249.015625 C 386.253906 251.269531 384.875 253.425781 383.449219 255.5625 C 382.019531 257.695312 380.574219 259.765625 378.945312 261.824219 C 378.402344 262.503906 377.640625 262.96875 376.789062 263.144531 C 375.933594 263.316406 375.046875 263.1875 374.28125 262.773438 C 373.519531 262.359375 372.921875 261.695312 372.597656 260.886719 C 372.273438 260.078125 372.242188 259.183594 372.511719 258.355469 L 372.511719 258.269531 C 373.277344 255.960938 374.128906 253.605469 374.941406 251.289062 C 375.757812 248.96875 376.601562 246.671875 377.375 244.371094 C 378.152344 242.074219 378.929688 239.78125 379.617188 237.550781 C 380.308594 235.320312 380.910156 233.078125 381.332031 231.039062 L 381.148438 231.996094 C 381.128906 231.070312 381.035156 230.152344 380.871094 229.246094 C 380.683594 228.144531 380.441406 226.9375 380.136719 225.722656 C 379.828125 224.503906 379.492188 223.257812 379.121094 222.003906 C 378.746094 220.75 378.363281 219.484375 377.941406 218.171875 C 377.097656 215.632812 376.226562 213.066406 375.296875 210.507812 L 372.492188 202.914062 L 372.441406 202.777344 C 371.714844 200.957031 371.734375 198.921875 372.507812 197.117188 C 373.277344 195.316406 374.730469 193.890625 376.550781 193.160156 C 378.375 192.429688 380.40625 192.453125 382.210938 193.222656 C 384.015625 193.996094 385.4375 195.449219 386.171875 197.269531 Z M 386.199219 197.261719 "/>
</g>
<mask id="mask8">
  <g filter="url(#alpha)">
<rect x="0" y="0" width="480" height="480" style="fill:rgb(0%,0%,0%);fill-opacity:0.2;stroke:none;"/>
  </g>
</mask>
<clipPath id="clip9">
  <rect x="0" y="0" width="480" height="480"/>
</clipPath>
<g id="surface29" clip-path="url(#clip9)">
<path style=" stroke:none;fill-rule:nonzero;fill:rgb(0%,0%,0%);fill-opacity:1;" d="M 351.023438 276.222656 L 345.863281 289.632812 C 347.507812 301.367188 349.480469 313.367188 351.609375 321.992188 C 353.898438 306.339844 352.242188 280.667969 351.023438 276.222656 Z M 351.023438 276.222656 "/>
</g>
<mask id="mask9">
  <g filter="url(#alpha)">
<rect x="0" y="0" width="480" height="480" style="fill:rgb(0%,0%,0%);fill-opacity:0.701961;stroke:none;"/>
  </g>
</mask>
<clipPath id="clip10">
  <rect x="0" y="0" width="480" height="480"/>
</clipPath>
<g id="surface32" clip-path="url(#clip10)">
<path style=" stroke:none;fill-rule:nonzero;fill:rgb(100%,100%,100%);fill-opacity:1;" d="M 376.074219 189.097656 C 374.582031 187.308594 372.953125 185.632812 371.207031 184.089844 C 369.710938 183.054688 357.308594 181.511719 354.347656 181.617188 C 351.386719 181.722656 347.277344 185.507812 347.277344 185.507812 Z M 376.074219 189.097656 "/>
</g>
<mask id="mask10">
  <g filter="url(#alpha)">
<rect x="0" y="0" width="480" height="480" style="fill:rgb(0%,0%,0%);fill-opacity:0.6;stroke:none;"/>
  </g>
</mask>
<clipPath id="clip11">
  <rect x="0" y="0" width="480" height="480"/>
</clipPath>
<g id="surface35" clip-path="url(#clip11)">
<path style=" stroke:none;fill-rule:nonzero;fill:rgb(100%,100%,100%);fill-opacity:1;" d="M 357.191406 153.339844 C 357.191406 153.339844 357.851562 161.375 364.605469 166.214844 C 371.359375 171.050781 377.367188 171.5 377.367188 171.5 L 379.03125 166.214844 C 379.03125 166.214844 363.785156 157.027344 358.628906 151.894531 C 358.121094 152.347656 357.640625 152.828125 357.191406 153.339844 Z M 357.191406 153.339844 "/>
</g>
<mask id="mask11">
  <g filter="url(#alpha)">
<rect x="0" y="0" width="480" height="480" style="fill:rgb(0%,0%,0%);fill-opacity:0.701961;stroke:none;"/>
  </g>
</mask>
<clipPath id="clip12">
  <rect x="0" y="0" width="480" height="480"/>
</clipPath>
<g id="surface38" clip-path="url(#clip12)">
<path style=" stroke:none;fill-rule:nonzero;fill:rgb(100%,100%,100%);fill-opacity:1;" d="M 375.773438 188.238281 C 366.0625 185.5625 352.011719 183.628906 342.449219 183.886719 C 340.085938 183.960938 337.8125 184.816406 335.988281 186.320312 C 334.160156 187.828125 332.886719 189.894531 332.363281 192.203125 C 329.125 206.246094 328.628906 231.554688 327.6875 256.96875 C 348.535156 267.503906 371.875 263.328125 371.875 263.328125 C 373.113281 258.355469 372.835938 241.429688 372.402344 232.347656 C 374.992188 223.421875 379.675781 213.449219 383.226562 201.609375 C 383.632812 200.242188 383.761719 198.808594 383.605469 197.390625 C 383.449219 195.972656 383.007812 194.601562 382.3125 193.355469 C 381.621094 192.109375 380.683594 191.015625 379.5625 190.136719 C 378.4375 189.257812 377.152344 188.613281 375.773438 188.238281 Z M 375.773438 188.238281 "/>
</g>
<mask id="mask12">
  <g filter="url(#alpha)">
<rect x="0" y="0" width="480" height="480" style="fill:rgb(0%,0%,0%);fill-opacity:0.2;stroke:none;"/>
  </g>
</mask>
<clipPath id="clip13">
  <rect x="0" y="0" width="480" height="480"/>
</clipPath>
<g id="surface41" clip-path="url(#clip13)">
<path style=" stroke:none;fill-rule:nonzero;fill:rgb(100%,100%,100%);fill-opacity:1;" d="M 330.582031 249.46875 C 330.453125 249.46875 330.332031 249.417969 330.242188 249.328125 C 330.152344 249.238281 330.101562 249.117188 330.101562 248.988281 C 330.101562 229.5625 332.699219 200.910156 336.347656 190.863281 C 336.390625 190.742188 336.480469 190.644531 336.59375 190.589844 C 336.710938 190.539062 336.84375 190.53125 336.960938 190.574219 C 337.019531 190.59375 337.074219 190.625 337.125 190.667969 C 337.171875 190.710938 337.210938 190.761719 337.234375 190.820312 C 337.261719 190.875 337.277344 190.9375 337.28125 191.003906 C 337.28125 191.066406 337.269531 191.128906 337.246094 191.1875 C 333.984375 200.183594 331.078125 227.195312 331.058594 248.988281 C 331.058594 249.050781 331.050781 249.113281 331.023438 249.171875 C 331 249.230469 330.964844 249.285156 330.917969 249.328125 C 330.875 249.371094 330.824219 249.40625 330.765625 249.429688 C 330.707031 249.457031 330.644531 249.46875 330.582031 249.46875 Z M 330.582031 249.46875 "/>
</g>
<mask id="mask13">
  <g filter="url(#alpha)">
<rect x="0" y="0" width="480" height="480" style="fill:rgb(0%,0%,0%);fill-opacity:0.701961;stroke:none;"/>
  </g>
</mask>
<clipPath id="clip14">
  <rect x="0" y="0" width="480" height="480"/>
</clipPath>
<g id="surface44" clip-path="url(#clip14)">
<path style=" stroke:none;fill-rule:nonzero;fill:rgb(100%,100%,100%);fill-opacity:1;" d="M 345.007812 195.757812 C 343.554688 198.410156 342.078125 200.777344 340.488281 203.21875 C 338.898438 205.660156 337.230469 208.007812 335.410156 210.328125 C 333.578125 212.726562 331.609375 215.015625 329.507812 217.1875 C 328.382812 218.363281 327.183594 219.472656 325.925781 220.507812 C 324.457031 221.753906 322.851562 222.824219 321.136719 223.699219 L 320.792969 223.871094 C 320.617188 223.957031 320.4375 224.027344 320.253906 224.082031 C 317.378906 224.929688 314.371094 225.222656 311.386719 224.945312 C 310.050781 224.839844 308.726562 224.644531 307.417969 224.359375 C 306.167969 224.101562 304.929688 223.785156 303.710938 223.402344 C 301.375 222.652344 299.101562 221.71875 296.910156 220.613281 C 295.828125 220.070312 294.785156 219.484375 293.75 218.871094 C 292.714844 218.257812 291.757812 217.625 290.675781 216.839844 C 289.980469 216.339844 289.480469 215.617188 289.261719 214.789062 C 289.042969 213.960938 289.117188 213.085938 289.472656 212.304688 C 289.824219 211.527344 290.4375 210.894531 291.207031 210.519531 C 291.976562 210.144531 292.847656 210.042969 293.683594 210.242188 L 294.007812 210.316406 L 297.007812 211.015625 C 298.019531 211.257812 299.046875 211.464844 300.0625 211.660156 C 302.039062 212.046875 304.035156 212.335938 306.039062 212.519531 C 307.871094 212.6875 309.714844 212.6875 311.546875 212.519531 C 313.007812 212.410156 314.441406 212.050781 315.78125 211.457031 L 314.898438 211.851562 C 315.585938 211.347656 316.226562 210.785156 316.816406 210.171875 C 317.554688 209.417969 318.351562 208.554688 319.113281 207.636719 C 319.882812 206.714844 320.648438 205.71875 321.394531 204.714844 C 322.140625 203.707031 322.917969 202.664062 323.65625 201.589844 C 325.121094 199.464844 326.585938 197.269531 328.011719 195.039062 C 329.441406 192.804688 330.886719 190.496094 332.210938 188.332031 L 332.277344 188.21875 C 332.773438 187.382812 333.429688 186.652344 334.203125 186.070312 C 334.980469 185.484375 335.867188 185.0625 336.808594 184.820312 C 337.746094 184.578125 338.726562 184.527344 339.6875 184.664062 C 340.652344 184.800781 341.574219 185.128906 342.410156 185.621094 C 343.25 186.117188 343.976562 186.773438 344.558594 187.550781 C 345.144531 188.328125 345.566406 189.210938 345.808594 190.152344 C 346.050781 191.09375 346.105469 192.074219 345.964844 193.035156 C 345.828125 193.996094 345.503906 194.921875 345.007812 195.757812 Z M 345.007812 195.757812 "/>
</g>
<mask id="mask14">
  <g filter="url(#alpha)">
<rect x="0" y="0" width="480" height="480" style="fill:rgb(0%,0%,0%);fill-opacity:0.2;stroke:none;"/>
  </g>
</mask>
<clipPath id="clip15">
  <rect x="0" y="0" width="480" height="480"/>
</clipPath>
<g id="surface47" clip-path="url(#clip15)">
<path style=" stroke:none;fill-rule:nonzero;fill:rgb(0%,0%,0%);fill-opacity:1;" d="M 376.609375 161.960938 C 377.339844 159.554688 377.382812 156.992188 376.742188 154.5625 C 376.101562 152.132812 374.792969 149.925781 372.96875 148.195312 C 373.03125 148.089844 373.117188 147.996094 373.21875 147.929688 C 373.320312 147.859375 373.441406 147.816406 373.566406 147.804688 C 375.019531 148.742188 379.035156 154.441406 376.609375 161.960938 Z M 376.609375 161.960938 "/>
</g>
</defs>
<g id="surface1">
<rect x="0" y="0" width="480" height="480" style="fill:rgb(100%,100%,100%);fill-opacity:1;stroke:none;"/>
<path style=" stroke:none;fill-rule:nonzero;fill:rgb(92.156863%,92.156863%,92.156863%);fill-opacity:1;" d="M 479.386719 375.269531 L 0.425781 375.269531 L 0.425781 375.507812 L 479.386719 375.507812 Z M 479.386719 375.269531 "/>
<path style=" stroke:none;fill-rule:nonzero;fill:rgb(92.156863%,92.156863%,92.156863%);fill-opacity:1;" d="M 431.394531 390.683594 L 399.667969 390.683594 L 399.667969 390.921875 L 431.394531 390.921875 Z M 431.394531 390.683594 "/>
<path style=" stroke:none;fill-rule:nonzero;fill:rgb(92.156863%,92.156863%,92.156863%);fill-opacity:1;" d="M 317.707031 393.289062 L 309.382812 393.289062 L 309.382812 393.527344 L 317.707031 393.527344 Z M 317.707031 393.289062 "/>
<path style=" stroke:none;fill-rule:nonzero;fill:rgb(92.156863%,92.156863%,92.156863%);fill-opacity:1;" d="M 398.707031 381.792969 L 380.328125 381.792969 L 380.328125 382.035156 L 398.707031 382.035156 Z M 398.707031 381.792969 "/>
<path style=" stroke:none;fill-rule:nonzero;fill:rgb(92.156863%,92.156863%,92.156863%);fill-opacity:1;" d="M 92.050781 383.402344 L 50.675781 383.402344 L 50.675781 383.644531 L 92.050781 383.644531 Z M 92.050781 383.402344 "/>
<path style=" stroke:none;fill-rule:nonzero;fill:rgb(92.156863%,92.156863%,92.156863%);fill-opacity:1;" d="M 106.648438 383.402344 L 100.585938 383.402344 L 100.585938 383.644531 L 106.648438 383.644531 Z M 106.648438 383.402344 "/>
<path style=" stroke:none;fill-rule:nonzero;fill:rgb(92.156863%,92.156863%,92.156863%);fill-opacity:1;" d="M 216.101562 387.445312 L 126.363281 387.445312 L 126.363281 387.6875 L 216.101562 387.6875 Z M 216.101562 387.445312 "/>
<path style=" stroke:none;fill-rule:nonzero;fill:rgb(92.156863%,92.156863%,92.156863%);fill-opacity:1;" d="M 227.453125 332.546875 L 42.488281 332.546875 C 41.039062 332.542969 39.648438 331.96875 38.625 330.941406 C 37.601562 329.917969 37.027344 328.527344 37.027344 327.078125 L 37.027344 67.070312 C 37.039062 65.628906 37.621094 64.25 38.644531 63.234375 C 39.664062 62.222656 41.046875 61.648438 42.488281 61.648438 L 227.453125 61.648438 C 228.902344 61.648438 230.292969 62.222656 231.320312 63.25 C 232.34375 64.273438 232.921875 65.667969 232.921875 67.117188 L 232.921875 327.078125 C 232.921875 328.527344 232.34375 329.921875 231.320312 330.945312 C 230.292969 331.972656 228.902344 332.546875 227.453125 332.546875 Z M 42.488281 61.839844 C 41.101562 61.839844 39.773438 62.394531 38.796875 63.375 C 37.816406 64.355469 37.265625 65.683594 37.265625 67.070312 L 37.265625 327.078125 C 37.265625 328.460938 37.816406 329.792969 38.796875 330.773438 C 39.773438 331.753906 41.101562 332.304688 42.488281 332.308594 L 227.453125 332.308594 C 228.835938 332.304688 230.167969 331.753906 231.148438 330.773438 C 232.128906 329.792969 232.679688 328.464844 232.683594 327.078125 L 232.683594 67.070312 C 232.679688 65.683594 232.128906 64.355469 231.148438 63.375 C 230.167969 62.394531 228.835938 61.839844 227.453125 61.839844 Z M 42.488281 61.839844 "/>
<path style=" stroke:none;fill-rule:nonzero;fill:rgb(92.156863%,92.156863%,92.156863%);fill-opacity:1;" d="M 434.660156 332.546875 L 249.683594 332.546875 C 248.234375 332.542969 246.84375 331.96875 245.820312 330.941406 C 244.796875 329.917969 244.21875 328.527344 244.214844 327.078125 L 244.214844 67.070312 C 244.230469 65.628906 244.8125 64.25 245.835938 63.234375 C 246.863281 62.21875 248.242188 61.648438 249.683594 61.648438 L 434.660156 61.648438 C 436.097656 61.652344 437.476562 62.222656 438.5 63.238281 C 439.519531 64.253906 440.097656 65.628906 440.109375 67.070312 L 440.109375 327.078125 C 440.109375 328.523438 439.535156 329.914062 438.515625 330.9375 C 437.492188 331.964844 436.105469 332.542969 434.660156 332.546875 Z M 249.683594 61.839844 C 248.300781 61.839844 246.96875 62.394531 245.992188 63.375 C 245.011719 64.355469 244.457031 65.683594 244.457031 67.070312 L 244.457031 327.078125 C 244.457031 328.464844 245.011719 329.792969 245.992188 330.773438 C 246.96875 331.753906 248.300781 332.304688 249.683594 332.308594 L 434.660156 332.308594 C 436.046875 332.304688 437.375 331.753906 438.355469 330.773438 C 439.335938 329.792969 439.886719 328.464844 439.890625 327.078125 L 439.890625 67.070312 C 439.886719 65.683594 439.335938 64.355469 438.355469 63.375 C 437.375 62.394531 436.046875 61.839844 434.660156 61.839844 Z M 249.683594 61.839844 "/>
<path style=" stroke:none;fill-rule:nonzero;fill:rgb(94.117647%,94.117647%,94.117647%);fill-opacity:1;" d="M 418.046875 375.269531 L 448.414062 375.269531 L 448.414062 321.511719 L 418.046875 321.511719 Z M 418.046875 375.269531 "/>
<path style=" stroke:none;fill-rule:nonzero;fill:rgb(94.117647%,94.117647%,94.117647%);fill-opacity:1;" d="M 391.457031 375.269531 L 421.824219 375.269531 L 421.824219 333.304688 L 391.457031 333.304688 Z M 391.457031 375.269531 "/>
<path style=" stroke:none;fill-rule:nonzero;fill:rgb(94.117647%,94.117647%,94.117647%);fill-opacity:1;" d="M 372.039062 375.269531 L 402.40625 375.269531 L 402.40625 298.722656 L 372.039062 298.722656 Z M 372.039062 375.269531 "/>
<path style=" stroke:none;fill-rule:nonzero;fill:rgb(94.117647%,94.117647%,94.117647%);fill-opacity:1;" d="M 351.867188 375.269531 L 382.234375 375.269531 L 382.234375 236.660156 L 351.867188 236.660156 Z M 351.867188 375.269531 "/>
<path style=" stroke:none;fill-rule:nonzero;fill:rgb(94.117647%,94.117647%,94.117647%);fill-opacity:1;" d="M 276.765625 375.269531 L 358.246094 375.269531 L 358.246094 247.445312 L 276.765625 247.445312 Z M 276.765625 375.269531 "/>
<path style=" stroke:none;fill-rule:nonzero;fill:rgb(96.078431%,96.078431%,96.078431%);fill-opacity:1;" d="M 69.828125 327.164062 L 26.835938 327.164062 L 26.835938 375.269531 L 69.828125 375.269531 Z M 69.828125 327.164062 "/>
<path style=" stroke:none;fill-rule:nonzero;fill:rgb(96.078431%,96.078431%,96.078431%);fill-opacity:1;" d="M 107.472656 337.710938 L 64.480469 337.710938 L 64.480469 375.261719 L 107.472656 375.261719 Z M 107.472656 337.710938 "/>
<path style=" stroke:none;fill-rule:nonzero;fill:rgb(96.078431%,96.078431%,96.078431%);fill-opacity:1;" d="M 134.964844 306.769531 L 91.972656 306.769531 L 91.972656 375.269531 L 134.964844 375.269531 Z M 134.964844 306.769531 "/>
<path style=" stroke:none;fill-rule:nonzero;fill:rgb(96.078431%,96.078431%,96.078431%);fill-opacity:1;" d="M 163.539062 251.230469 L 120.546875 251.230469 L 120.546875 375.269531 L 163.539062 375.269531 Z M 163.539062 251.230469 "/>
<path style=" stroke:none;fill-rule:nonzero;fill:rgb(94.117647%,94.117647%,94.117647%);fill-opacity:1;" d="M 154.859375 375.269531 L 225.210938 375.269531 L 225.210938 223.738281 L 154.859375 223.738281 Z M 154.859375 375.269531 "/>
<path style=" stroke:none;fill-rule:nonzero;fill:rgb(96.078431%,96.078431%,96.078431%);fill-opacity:1;" d="M 161.546875 248.539062 L 164.898438 248.539062 L 164.898438 230.097656 L 161.546875 230.097656 Z M 161.546875 248.539062 "/>
<path style=" stroke:none;fill-rule:nonzero;fill:rgb(96.078431%,96.078431%,96.078431%);fill-opacity:1;" d="M 161.546875 277.359375 L 164.898438 277.359375 L 164.898438 258.921875 L 161.546875 258.921875 Z M 161.546875 277.359375 "/>
<path style=" stroke:none;fill-rule:nonzero;fill:rgb(96.078431%,96.078431%,96.078431%);fill-opacity:1;" d="M 161.546875 306.207031 L 164.898438 306.207031 L 164.898438 287.765625 L 161.546875 287.765625 Z M 161.546875 306.207031 "/>
<path style=" stroke:none;fill-rule:nonzero;fill:rgb(96.078431%,96.078431%,96.078431%);fill-opacity:1;" d="M 161.546875 335.035156 L 164.898438 335.035156 L 164.898438 316.597656 L 161.546875 316.597656 Z M 161.546875 335.035156 "/>
<path style=" stroke:none;fill-rule:nonzero;fill:rgb(96.078431%,96.078431%,96.078431%);fill-opacity:1;" d="M 161.546875 363.871094 L 164.898438 363.871094 L 164.898438 345.433594 L 161.546875 345.433594 Z M 161.546875 363.871094 "/>
<path style=" stroke:none;fill-rule:nonzero;fill:rgb(96.078431%,96.078431%,96.078431%);fill-opacity:1;" d="M 173.425781 248.539062 L 176.777344 248.539062 L 176.777344 230.097656 L 173.425781 230.097656 Z M 173.425781 248.539062 "/>
<path style=" stroke:none;fill-rule:nonzero;fill:rgb(96.078431%,96.078431%,96.078431%);fill-opacity:1;" d="M 173.425781 277.359375 L 176.777344 277.359375 L 176.777344 258.921875 L 173.425781 258.921875 Z M 173.425781 277.359375 "/>
<path style=" stroke:none;fill-rule:nonzero;fill:rgb(96.078431%,96.078431%,96.078431%);fill-opacity:1;" d="M 173.425781 306.207031 L 176.777344 306.207031 L 176.777344 287.765625 L 173.425781 287.765625 Z M 173.425781 306.207031 "/>
<path style=" stroke:none;fill-rule:nonzero;fill:rgb(96.078431%,96.078431%,96.078431%);fill-opacity:1;" d="M 173.425781 335.035156 L 176.777344 335.035156 L 176.777344 316.597656 L 173.425781 316.597656 Z M 173.425781 335.035156 "/>
<path style=" stroke:none;fill-rule:nonzero;fill:rgb(96.078431%,96.078431%,96.078431%);fill-opacity:1;" d="M 173.425781 363.871094 L 176.777344 363.871094 L 176.777344 345.433594 L 173.425781 345.433594 Z M 173.425781 363.871094 "/>
<path style=" stroke:none;fill-rule:nonzero;fill:rgb(96.078431%,96.078431%,96.078431%);fill-opacity:1;" d="M 185.292969 248.539062 L 188.648438 248.539062 L 188.648438 230.097656 L 185.292969 230.097656 Z M 185.292969 248.539062 "/>
<path style=" stroke:none;fill-rule:nonzero;fill:rgb(96.078431%,96.078431%,96.078431%);fill-opacity:1;" d="M 185.292969 277.359375 L 188.648438 277.359375 L 188.648438 258.921875 L 185.292969 258.921875 Z M 185.292969 277.359375 "/>
<path style=" stroke:none;fill-rule:nonzero;fill:rgb(96.078431%,96.078431%,96.078431%);fill-opacity:1;" d="M 185.292969 306.207031 L 188.648438 306.207031 L 188.648438 287.765625 L 185.292969 287.765625 Z M 185.292969 306.207031 "/>
<path style=" stroke:none;fill-rule:nonzero;fill:rgb(96.078431%,96.078431%,96.078431%);fill-opacity:1;" d="M 185.292969 335.035156 L 188.648438 335.035156 L 188.648438 316.597656 L 185.292969 316.597656 Z M 185.292969 335.035156 "/>
<path style=" stroke:none;fill-rule:nonzero;fill:rgb(96.078431%,96.078431%,96.078431%);fill-opacity:1;" d="M 185.292969 363.871094 L 188.648438 363.871094 L 188.648438 345.433594 L 185.292969 345.433594 Z M 185.292969 363.871094 "/>
<path style=" stroke:none;fill-rule:nonzero;fill:rgb(96.078431%,96.078431%,96.078431%);fill-opacity:1;" d="M 197.171875 248.539062 L 200.523438 248.539062 L 200.523438 230.097656 L 197.171875 230.097656 Z M 197.171875 248.539062 "/>
<path style=" stroke:none;fill-rule:nonzero;fill:rgb(96.078431%,96.078431%,96.078431%);fill-opacity:1;" d="M 197.171875 277.359375 L 200.523438 277.359375 L 200.523438 258.921875 L 197.171875 258.921875 Z M 197.171875 277.359375 "/>
<path style=" stroke:none;fill-rule:nonzero;fill:rgb(96.078431%,96.078431%,96.078431%);fill-opacity:1;" d="M 197.171875 306.207031 L 200.523438 306.207031 L 200.523438 287.765625 L 197.171875 287.765625 Z M 197.171875 306.207031 "/>
<path style=" stroke:none;fill-rule:nonzero;fill:rgb(96.078431%,96.078431%,96.078431%);fill-opacity:1;" d="M 197.171875 335.035156 L 200.523438 335.035156 L 200.523438 316.597656 L 197.171875 316.597656 Z M 197.171875 335.035156 "/>
<path style=" stroke:none;fill-rule:nonzero;fill:rgb(96.078431%,96.078431%,96.078431%);fill-opacity:1;" d="M 197.171875 363.871094 L 200.523438 363.871094 L 200.523438 345.433594 L 197.171875 345.433594 Z M 197.171875 363.871094 "/>
<path style=" stroke:none;fill-rule:nonzero;fill:rgb(96.078431%,96.078431%,96.078431%);fill-opacity:1;" d="M 209.03125 248.539062 L 212.382812 248.539062 L 212.382812 230.097656 L 209.03125 230.097656 Z M 209.03125 248.539062 "/>
<path style=" stroke:none;fill-rule:nonzero;fill:rgb(96.078431%,96.078431%,96.078431%);fill-opacity:1;" d="M 209.03125 277.359375 L 212.382812 277.359375 L 212.382812 258.921875 L 209.03125 258.921875 Z M 209.03125 277.359375 "/>
<path style=" stroke:none;fill-rule:nonzero;fill:rgb(96.078431%,96.078431%,96.078431%);fill-opacity:1;" d="M 209.03125 306.207031 L 212.382812 306.207031 L 212.382812 287.765625 L 209.03125 287.765625 Z M 209.03125 306.207031 "/>
<path style=" stroke:none;fill-rule:nonzero;fill:rgb(96.078431%,96.078431%,96.078431%);fill-opacity:1;" d="M 209.03125 335.035156 L 212.382812 335.035156 L 212.382812 316.597656 L 209.03125 316.597656 Z M 209.03125 335.035156 "/>
<path style=" stroke:none;fill-rule:nonzero;fill:rgb(96.078431%,96.078431%,96.078431%);fill-opacity:1;" d="M 209.03125 363.871094 L 212.382812 363.871094 L 212.382812 345.433594 L 209.03125 345.433594 Z M 209.03125 363.871094 "/>
<use xlink:href="#surface5" mask="url(#mask0)"/>
<path style=" stroke:none;fill-rule:nonzero;fill:rgb(94.117647%,94.117647%,94.117647%);fill-opacity:1;" d="M 341.308594 119.285156 L 255.96875 129.019531 L 255.96875 375.269531 L 341.308594 375.269531 Z M 341.308594 119.285156 "/>
<path style=" stroke:none;fill-rule:nonzero;fill:rgb(90.196078%,90.196078%,90.196078%);fill-opacity:1;" d="M 409.589844 119.285156 L 341.308594 119.285156 L 341.308594 375.269531 L 409.589844 375.269531 Z M 409.589844 119.285156 "/>
<path style=" stroke:none;fill-rule:nonzero;fill:rgb(87.843137%,87.843137%,87.843137%);fill-opacity:1;" d="M 409.589844 140.492188 L 255.96875 140.492188 L 255.96875 141.804688 L 409.589844 141.804688 Z M 409.589844 140.492188 "/>
<path style=" stroke:none;fill-rule:nonzero;fill:rgb(87.843137%,87.843137%,87.843137%);fill-opacity:1;" d="M 409.589844 154.433594 L 255.96875 154.433594 L 255.96875 155.746094 L 409.589844 155.746094 Z M 409.589844 154.433594 "/>
<path style=" stroke:none;fill-rule:nonzero;fill:rgb(87.843137%,87.843137%,87.843137%);fill-opacity:1;" d="M 409.589844 168.371094 L 255.96875 168.371094 L 255.96875 169.683594 L 409.589844 169.683594 Z M 409.589844 168.371094 "/>
<path style=" stroke:none;fill-rule:nonzero;fill:rgb(87.843137%,87.843137%,87.843137%);fill-opacity:1;" d="M 409.589844 182.308594 L 255.96875 182.308594 L 255.96875 183.621094 L 409.589844 183.621094 Z M 409.589844 182.308594 "/>
<path style=" stroke:none;fill-rule:nonzero;fill:rgb(87.843137%,87.843137%,87.843137%);fill-opacity:1;" d="M 409.589844 196.246094 L 255.96875 196.246094 L 255.96875 197.558594 L 409.589844 197.558594 Z M 409.589844 196.246094 "/>
<path style=" stroke:none;fill-rule:nonzero;fill:rgb(87.843137%,87.843137%,87.843137%);fill-opacity:1;" d="M 409.589844 210.183594 L 255.96875 210.183594 L 255.96875 211.496094 L 409.589844 211.496094 Z M 409.589844 210.183594 "/>
<path style=" stroke:none;fill-rule:nonzero;fill:rgb(87.843137%,87.843137%,87.843137%);fill-opacity:1;" d="M 409.589844 224.121094 L 255.96875 224.121094 L 255.96875 225.433594 L 409.589844 225.433594 Z M 409.589844 224.121094 "/>
<path style=" stroke:none;fill-rule:nonzero;fill:rgb(87.843137%,87.843137%,87.843137%);fill-opacity:1;" d="M 409.589844 238.058594 L 255.96875 238.058594 L 255.96875 239.371094 L 409.589844 239.371094 Z M 409.589844 238.058594 "/>
<path style=" stroke:none;fill-rule:nonzero;fill:rgb(87.843137%,87.843137%,87.843137%);fill-opacity:1;" d="M 409.589844 251.996094 L 255.96875 251.996094 L 255.96875 253.308594 L 409.589844 253.308594 Z M 409.589844 251.996094 "/>
<path style=" stroke:none;fill-rule:nonzero;fill:rgb(87.843137%,87.843137%,87.843137%);fill-opacity:1;" d="M 409.589844 265.933594 L 255.96875 265.933594 L 255.96875 267.246094 L 409.589844 267.246094 Z M 409.589844 265.933594 "/>
<path style=" stroke:none;fill-rule:nonzero;fill:rgb(87.843137%,87.843137%,87.843137%);fill-opacity:1;" d="M 409.589844 279.871094 L 255.96875 279.871094 L 255.96875 281.183594 L 409.589844 281.183594 Z M 409.589844 279.871094 "/>
<path style=" stroke:none;fill-rule:nonzero;fill:rgb(87.843137%,87.843137%,87.843137%);fill-opacity:1;" d="M 409.589844 293.816406 L 255.96875 293.816406 L 255.96875 295.132812 L 409.589844 295.132812 Z M 409.589844 293.816406 "/>
<path style=" stroke:none;fill-rule:nonzero;fill:rgb(87.843137%,87.843137%,87.843137%);fill-opacity:1;" d="M 409.589844 307.757812 L 255.96875 307.757812 L 255.96875 309.070312 L 409.589844 309.070312 Z M 409.589844 307.757812 "/>
<path style=" stroke:none;fill-rule:nonzero;fill:rgb(87.843137%,87.843137%,87.843137%);fill-opacity:1;" d="M 409.589844 321.695312 L 255.96875 321.695312 L 255.96875 323.003906 L 409.589844 323.003906 Z M 409.589844 321.695312 "/>
<path style=" stroke:none;fill-rule:nonzero;fill:rgb(87.843137%,87.843137%,87.843137%);fill-opacity:1;" d="M 409.589844 335.628906 L 255.96875 335.628906 L 255.96875 336.945312 L 409.589844 336.945312 Z M 409.589844 335.628906 "/>
<path style=" stroke:none;fill-rule:nonzero;fill:rgb(87.843137%,87.843137%,87.843137%);fill-opacity:1;" d="M 409.589844 349.570312 L 255.96875 349.570312 L 255.96875 350.882812 L 409.589844 350.882812 Z M 409.589844 349.570312 "/>
<path style=" stroke:none;fill-rule:nonzero;fill:rgb(87.843137%,87.843137%,87.843137%);fill-opacity:1;" d="M 409.589844 363.507812 L 255.96875 363.507812 L 255.96875 364.820312 L 409.589844 364.820312 Z M 409.589844 363.507812 "/>
<path style=" stroke:none;fill-rule:nonzero;fill:rgb(94.117647%,94.117647%,94.117647%);fill-opacity:1;" d="M 103.898438 375.269531 L 144.382812 375.269531 L 144.382812 163.964844 L 103.898438 163.964844 Z M 103.898438 375.269531 "/>
<path style=" stroke:none;fill-rule:nonzero;fill:rgb(98.039216%,98.039216%,98.039216%);fill-opacity:1;" d="M 103.898438 163.960938 L 144.382812 163.960938 L 129.484375 145.300781 L 71.511719 145.300781 Z M 103.898438 163.960938 "/>
<path style=" stroke:none;fill-rule:nonzero;fill:rgb(92.156863%,92.156863%,92.156863%);fill-opacity:1;" d="M 103.898438 163.960938 L 71.511719 145.300781 L 71.511719 375.269531 L 103.898438 375.269531 Z M 103.898438 163.960938 "/>
<path style=" stroke:none;fill-rule:nonzero;fill:rgb(87.843137%,87.843137%,87.843137%);fill-opacity:1;" d="M 71.523438 174.929688 L 144.382812 174.929688 L 144.382812 173.808594 L 71.523438 173.808594 Z M 71.523438 174.929688 "/>
<path style=" stroke:none;fill-rule:nonzero;fill:rgb(87.843137%,87.843137%,87.843137%);fill-opacity:1;" d="M 71.523438 186.894531 L 144.382812 186.894531 L 144.382812 185.773438 L 71.523438 185.773438 Z M 71.523438 186.894531 "/>
<path style=" stroke:none;fill-rule:nonzero;fill:rgb(87.843137%,87.843137%,87.843137%);fill-opacity:1;" d="M 71.523438 198.859375 L 144.382812 198.859375 L 144.382812 197.738281 L 71.523438 197.738281 Z M 71.523438 198.859375 "/>
<path style=" stroke:none;fill-rule:nonzero;fill:rgb(87.843137%,87.843137%,87.843137%);fill-opacity:1;" d="M 71.523438 210.8125 L 144.382812 210.8125 L 144.382812 209.695312 L 71.523438 209.695312 Z M 71.523438 210.8125 "/>
<path style=" stroke:none;fill-rule:nonzero;fill:rgb(87.843137%,87.843137%,87.843137%);fill-opacity:1;" d="M 71.523438 222.777344 L 144.382812 222.777344 L 144.382812 221.660156 L 71.523438 221.660156 Z M 71.523438 222.777344 "/>
<path style=" stroke:none;fill-rule:nonzero;fill:rgb(87.843137%,87.843137%,87.843137%);fill-opacity:1;" d="M 71.523438 234.734375 L 144.382812 234.734375 L 144.382812 233.613281 L 71.523438 233.613281 Z M 71.523438 234.734375 "/>
<path style=" stroke:none;fill-rule:nonzero;fill:rgb(87.843137%,87.843137%,87.843137%);fill-opacity:1;" d="M 71.523438 246.699219 L 144.382812 246.699219 L 144.382812 245.578125 L 71.523438 245.578125 Z M 71.523438 246.699219 "/>
<path style=" stroke:none;fill-rule:nonzero;fill:rgb(87.843137%,87.843137%,87.843137%);fill-opacity:1;" d="M 71.523438 258.664062 L 144.382812 258.664062 L 144.382812 257.542969 L 71.523438 257.542969 Z M 71.523438 258.664062 "/>
<path style=" stroke:none;fill-rule:nonzero;fill:rgb(87.843137%,87.843137%,87.843137%);fill-opacity:1;" d="M 71.523438 270.617188 L 144.382812 270.617188 L 144.382812 269.496094 L 71.523438 269.496094 Z M 71.523438 270.617188 "/>
<path style=" stroke:none;fill-rule:nonzero;fill:rgb(87.843137%,87.843137%,87.843137%);fill-opacity:1;" d="M 71.523438 282.582031 L 144.382812 282.582031 L 144.382812 281.460938 L 71.523438 281.460938 Z M 71.523438 282.582031 "/>
<path style=" stroke:none;fill-rule:nonzero;fill:rgb(87.843137%,87.843137%,87.843137%);fill-opacity:1;" d="M 71.523438 294.535156 L 144.382812 294.535156 L 144.382812 293.417969 L 71.523438 293.417969 Z M 71.523438 294.535156 "/>
<path style=" stroke:none;fill-rule:nonzero;fill:rgb(87.843137%,87.843137%,87.843137%);fill-opacity:1;" d="M 71.523438 306.5 L 144.382812 306.5 L 144.382812 305.378906 L 71.523438 305.378906 Z M 71.523438 306.5 "/>
<path style=" stroke:none;fill-rule:nonzero;fill:rgb(87.843137%,87.843137%,87.843137%);fill-opacity:1;" d="M 71.523438 318.457031 L 144.382812 318.457031 L 144.382812 317.335938 L 71.523438 317.335938 Z M 71.523438 318.457031 "/>
<path style=" stroke:none;fill-rule:nonzero;fill:rgb(87.843137%,87.843137%,87.843137%);fill-opacity:1;" d="M 71.523438 330.417969 L 144.382812 330.417969 L 144.382812 329.300781 L 71.523438 329.300781 Z M 71.523438 330.417969 "/>
<path style=" stroke:none;fill-rule:nonzero;fill:rgb(87.843137%,87.843137%,87.843137%);fill-opacity:1;" d="M 71.523438 342.386719 L 144.382812 342.386719 L 144.382812 341.261719 L 71.523438 341.261719 Z M 71.523438 342.386719 "/>
<path style=" stroke:none;fill-rule:nonzero;fill:rgb(87.843137%,87.843137%,87.843137%);fill-opacity:1;" d="M 71.523438 354.339844 L 144.382812 354.339844 L 144.382812 353.21875 L 71.523438 353.21875 Z M 71.523438 354.339844 "/>
<path style=" stroke:none;fill-rule:nonzero;fill:rgb(87.843137%,87.843137%,87.843137%);fill-opacity:1;" d="M 71.523438 366.304688 L 144.382812 366.304688 L 144.382812 365.183594 L 71.523438 365.183594 Z M 71.523438 366.304688 "/>
<path style=" stroke:none;fill-rule:nonzero;fill:rgb(94.117647%,94.117647%,94.117647%);fill-opacity:1;" d="M 246.957031 375.261719 L 301.546875 375.261719 L 301.546875 186.855469 L 246.957031 186.855469 Z M 246.957031 375.261719 "/>
<path style=" stroke:none;fill-rule:nonzero;fill:rgb(90.196078%,90.196078%,90.196078%);fill-opacity:1;" d="M 282.023438 226.839844 L 290.789062 226.839844 L 290.789062 196.597656 L 282.023438 196.597656 Z M 282.023438 226.839844 "/>
<path style=" stroke:none;fill-rule:nonzero;fill:rgb(90.196078%,90.196078%,90.196078%);fill-opacity:1;" d="M 260.539062 226.839844 L 269.304688 226.839844 L 269.304688 196.597656 L 260.539062 196.597656 Z M 260.539062 226.839844 "/>
<path style=" stroke:none;fill-rule:nonzero;fill:rgb(90.196078%,90.196078%,90.196078%);fill-opacity:1;" d="M 282.023438 266 L 290.789062 266 L 290.789062 235.757812 L 282.023438 235.757812 Z M 282.023438 266 "/>
<path style=" stroke:none;fill-rule:nonzero;fill:rgb(90.196078%,90.196078%,90.196078%);fill-opacity:1;" d="M 260.539062 266 L 269.304688 266 L 269.304688 235.757812 L 260.539062 235.757812 Z M 260.539062 266 "/>
<path style=" stroke:none;fill-rule:nonzero;fill:rgb(90.196078%,90.196078%,90.196078%);fill-opacity:1;" d="M 282.023438 305.160156 L 290.789062 305.160156 L 290.789062 274.917969 L 282.023438 274.917969 Z M 282.023438 305.160156 "/>
<path style=" stroke:none;fill-rule:nonzero;fill:rgb(90.196078%,90.196078%,90.196078%);fill-opacity:1;" d="M 260.539062 305.160156 L 269.304688 305.160156 L 269.304688 274.917969 L 260.539062 274.917969 Z M 260.539062 305.160156 "/>
<path style=" stroke:none;fill-rule:nonzero;fill:rgb(90.196078%,90.196078%,90.196078%);fill-opacity:1;" d="M 282.023438 344.320312 L 290.789062 344.320312 L 290.789062 314.078125 L 282.023438 314.078125 Z M 282.023438 344.320312 "/>
<path style=" stroke:none;fill-rule:nonzero;fill:rgb(90.196078%,90.196078%,90.196078%);fill-opacity:1;" d="M 260.539062 344.320312 L 269.304688 344.320312 L 269.304688 314.078125 L 260.539062 314.078125 Z M 260.539062 344.320312 "/>
<path style=" stroke:none;fill-rule:nonzero;fill:rgb(100%,100%,100%);fill-opacity:1;" d="M 246.945312 186.867188 L 301.535156 186.867188 L 288.738281 173.808594 L 234.148438 173.808594 Z M 246.945312 186.867188 "/>
<path style=" stroke:none;fill-rule:nonzero;fill:rgb(90.196078%,90.196078%,90.196078%);fill-opacity:1;" d="M 246.945312 186.867188 L 234.148438 173.808594 L 221.339844 186.867188 L 221.339844 375.269531 L 246.945312 375.269531 Z M 246.945312 186.867188 "/>
<path style=" stroke:none;fill-rule:nonzero;fill:rgb(98.039216%,98.039216%,98.039216%);fill-opacity:1;" d="M 182.679688 152.574219 C 197.207031 152.574219 208.984375 140.796875 208.984375 126.269531 C 208.984375 111.742188 197.207031 99.964844 182.679688 99.964844 C 168.152344 99.964844 156.375 111.742188 156.375 126.269531 C 156.375 140.796875 168.152344 152.574219 182.679688 152.574219 Z M 182.679688 152.574219 "/>
<path style=" stroke:none;fill-rule:nonzero;fill:rgb(96.078431%,96.078431%,96.078431%);fill-opacity:1;" d="M 376.734375 86.246094 C 370.191406 85.613281 364.1875 80.988281 355.660156 79.714844 C 351.417969 79.082031 348.953125 80.671875 346.445312 82.167969 C 343.300781 84.082031 339.460938 85.039062 334.644531 84.925781 C 328.308594 84.757812 322.035156 83.605469 316.050781 81.515625 C 310.648438 79.675781 305.007812 77.472656 300.722656 78.265625 C 292.78125 79.722656 292.550781 84.972656 285.980469 85.71875 C 279.410156 86.46875 278.214844 90.011719 283.664062 90.011719 L 383.496094 90.011719 C 388.269531 90.011719 383.285156 86.871094 376.734375 86.246094 Z M 376.734375 86.246094 "/>
<path style=" stroke:none;fill-rule:nonzero;fill:rgb(96.078431%,96.078431%,96.078431%);fill-opacity:1;" d="M 95.152344 85.15625 C 92.394531 86.773438 86.945312 85.796875 77.996094 84.398438 C 72.75 83.585938 70.140625 85.261719 66.503906 86.765625 C 65.046875 87.378906 58.648438 89.476562 67 89.476562 L 113.460938 89.476562 C 126.335938 89.476562 114.359375 87.175781 112.300781 86.285156 L 112.195312 86.285156 C 106.035156 83.546875 97.902344 83.546875 95.152344 85.15625 Z M 95.152344 85.15625 "/>
<path style=" stroke:none;fill-rule:nonzero;fill:rgb(96.078431%,96.078431%,96.078431%);fill-opacity:1;" d="M 124.953125 121.84375 L 175.722656 121.84375 C 180.167969 121.84375 175.53125 118.910156 169.429688 118.328125 C 163.328125 117.742188 157.734375 113.433594 149.753906 112.246094 C 141.777344 111.058594 141.566406 117.511719 131.085938 117.445312 C 122.617188 117.40625 116.332031 121.84375 124.953125 121.84375 Z M 124.953125 121.84375 "/>
<path style=" stroke:none;fill-rule:nonzero;fill:rgb(96.078431%,96.078431%,96.078431%);fill-opacity:1;" d="M 239.90625 418.527344 C 342.480469 418.527344 425.636719 413.675781 425.636719 407.683594 C 425.636719 401.695312 342.480469 396.84375 239.90625 396.84375 C 137.328125 396.84375 54.175781 401.695312 54.175781 407.683594 C 54.175781 413.675781 137.328125 418.527344 239.90625 418.527344 Z M 239.90625 418.527344 "/>
<path style=" stroke:none;fill-rule:nonzero;fill:rgb(100%,61.176471%,15.294118%);fill-opacity:1;" d="M 131.773438 183.695312 C 131.484375 183.695312 131.207031 183.582031 131.003906 183.375 C 130.796875 183.171875 130.683594 182.894531 130.683594 182.605469 L 130.683594 94.898438 C 130.683594 94.605469 130.796875 94.328125 131.003906 94.125 C 131.207031 93.921875 131.484375 93.804688 131.773438 93.804688 C 132.066406 93.804688 132.34375 93.921875 132.546875 94.125 C 132.753906 94.328125 132.867188 94.605469 132.867188 94.898438 L 132.867188 182.605469 C 132.867188 182.894531 132.753906 183.171875 132.546875 183.375 C 132.34375 183.582031 132.066406 183.695312 131.773438 183.695312 Z M 131.773438 183.695312 "/>
<path style=" stroke:none;fill-rule:nonzero;fill:rgb(100%,61.176471%,15.294118%);fill-opacity:1;" d="M 161.011719 183.695312 C 160.722656 183.695312 160.445312 183.582031 160.238281 183.375 C 160.035156 183.171875 159.917969 182.894531 159.917969 182.605469 L 159.917969 94.898438 C 159.90625 94.746094 159.921875 94.589844 159.972656 94.445312 C 160.019531 94.300781 160.097656 94.164062 160.199219 94.050781 C 160.304688 93.9375 160.429688 93.847656 160.570312 93.785156 C 160.710938 93.726562 160.863281 93.691406 161.015625 93.691406 C 161.167969 93.691406 161.320312 93.726562 161.460938 93.785156 C 161.601562 93.847656 161.726562 93.9375 161.832031 94.050781 C 161.933594 94.164062 162.011719 94.300781 162.058594 94.445312 C 162.109375 94.589844 162.125 94.746094 162.113281 94.898438 L 162.113281 182.605469 C 162.109375 182.894531 161.992188 183.171875 161.785156 183.375 C 161.582031 183.582031 161.300781 183.695312 161.011719 183.695312 Z M 161.011719 183.695312 "/>
<path style=" stroke:none;fill-rule:nonzero;fill:rgb(100%,61.176471%,15.294118%);fill-opacity:1;" d="M 161.011719 125.226562 C 160.722656 125.226562 160.441406 125.113281 160.234375 124.910156 L 146.394531 111.066406 L 132.550781 124.871094 C 132.339844 125.046875 132.070312 125.136719 131.796875 125.125 C 131.519531 125.113281 131.257812 125 131.066406 124.804688 C 130.871094 124.609375 130.753906 124.347656 130.742188 124.074219 C 130.730469 123.800781 130.824219 123.53125 131 123.316406 L 144.839844 109.542969 L 131 95.671875 C 130.832031 95.519531 130.714844 95.324219 130.667969 95.101562 C 130.617188 94.882812 130.636719 94.652344 130.71875 94.445312 C 130.804688 94.234375 130.949219 94.058594 131.140625 93.933594 C 131.328125 93.8125 131.550781 93.75 131.773438 93.757812 L 161.011719 93.757812 C 161.226562 93.757812 161.441406 93.824219 161.621094 93.941406 C 161.800781 94.0625 161.941406 94.234375 162.027344 94.4375 C 162.109375 94.636719 162.132812 94.859375 162.089844 95.074219 C 162.046875 95.285156 161.941406 95.480469 161.785156 95.632812 L 147.945312 109.542969 L 161.785156 123.386719 C 161.957031 123.535156 162.082031 123.734375 162.132812 123.957031 C 162.1875 124.175781 162.167969 124.410156 162.082031 124.621094 C 162 124.832031 161.847656 125.011719 161.65625 125.132812 C 161.464844 125.253906 161.238281 125.3125 161.011719 125.300781 Z M 134.417969 95.988281 L 146.394531 107.964844 L 158.367188 95.988281 Z M 134.417969 95.988281 "/>
<path style=" stroke:none;fill-rule:nonzero;fill:rgb(100%,61.176471%,15.294118%);fill-opacity:1;" d="M 131.773438 95.988281 C 131.558594 95.988281 131.34375 95.925781 131.164062 95.808594 C 130.984375 95.6875 130.84375 95.515625 130.757812 95.316406 C 130.675781 95.113281 130.652344 94.894531 130.695312 94.679688 C 130.738281 94.46875 130.84375 94.273438 131 94.121094 L 145.617188 79.503906 C 145.71875 79.398438 145.839844 79.320312 145.972656 79.261719 C 146.105469 79.207031 146.25 79.179688 146.394531 79.179688 C 146.539062 79.179688 146.679688 79.207031 146.8125 79.261719 C 146.945312 79.320312 147.066406 79.398438 147.167969 79.503906 L 161.785156 94.121094 C 161.890625 94.222656 161.96875 94.34375 162.027344 94.476562 C 162.082031 94.609375 162.109375 94.753906 162.109375 94.898438 C 162.109375 95.039062 162.082031 95.183594 162.027344 95.316406 C 161.96875 95.449219 161.890625 95.570312 161.785156 95.671875 C 161.578125 95.875 161.300781 95.988281 161.011719 95.988281 C 160.722656 95.988281 160.441406 95.875 160.234375 95.671875 L 146.394531 81.832031 L 132.550781 95.671875 C 132.34375 95.875 132.066406 95.988281 131.773438 95.988281 Z M 131.773438 95.988281 "/>
<path style=" stroke:none;fill-rule:nonzero;fill:rgb(100%,61.176471%,15.294118%);fill-opacity:1;" d="M 190.246094 95.988281 C 189.957031 95.988281 189.679688 95.875 189.46875 95.671875 L 175.628906 81.832031 L 161.785156 95.671875 C 161.578125 95.875 161.300781 95.988281 161.011719 95.988281 C 160.722656 95.988281 160.441406 95.875 160.234375 95.671875 C 160.132812 95.570312 160.050781 95.449219 159.996094 95.316406 C 159.941406 95.183594 159.910156 95.039062 159.910156 94.898438 C 159.910156 94.753906 159.941406 94.609375 159.996094 94.476562 C 160.050781 94.34375 160.132812 94.222656 160.234375 94.121094 L 174.851562 79.503906 C 174.953125 79.398438 175.074219 79.320312 175.207031 79.261719 C 175.339844 79.207031 175.484375 79.179688 175.628906 79.179688 C 175.773438 79.179688 175.914062 79.207031 176.050781 79.261719 C 176.183594 79.320312 176.304688 79.398438 176.40625 79.503906 L 191.050781 94.121094 C 191.207031 94.273438 191.3125 94.46875 191.351562 94.679688 C 191.394531 94.894531 191.375 95.113281 191.292969 95.316406 C 191.207031 95.515625 191.066406 95.6875 190.886719 95.808594 C 190.703125 95.925781 190.492188 95.988281 190.273438 95.988281 Z M 190.246094 95.988281 "/>
<path style=" stroke:none;fill-rule:nonzero;fill:rgb(100%,61.176471%,15.294118%);fill-opacity:1;" d="M 190.246094 95.988281 C 189.957031 95.988281 189.679688 95.875 189.46875 95.671875 C 189.367188 95.570312 189.285156 95.449219 189.230469 95.316406 C 189.175781 95.183594 189.148438 95.039062 189.148438 94.898438 C 189.148438 94.753906 189.175781 94.609375 189.230469 94.476562 C 189.285156 94.34375 189.367188 94.222656 189.46875 94.121094 L 204.089844 79.503906 C 204.191406 79.398438 204.3125 79.320312 204.445312 79.261719 C 204.578125 79.207031 204.71875 79.179688 204.863281 79.179688 C 205.007812 79.179688 205.152344 79.207031 205.285156 79.261719 C 205.417969 79.320312 205.539062 79.398438 205.640625 79.503906 L 220.257812 94.121094 C 220.359375 94.222656 220.441406 94.34375 220.5 94.476562 C 220.554688 94.609375 220.582031 94.753906 220.582031 94.898438 C 220.582031 95.039062 220.554688 95.183594 220.5 95.316406 C 220.441406 95.449219 220.359375 95.570312 220.257812 95.671875 C 220.050781 95.875 219.769531 95.988281 219.480469 95.988281 C 219.191406 95.988281 218.914062 95.875 218.707031 95.671875 L 204.863281 81.832031 L 191.050781 95.671875 C 190.945312 95.777344 190.820312 95.859375 190.679688 95.914062 C 190.542969 95.96875 190.394531 95.992188 190.246094 95.988281 Z M 190.246094 95.988281 "/>
<path style=" stroke:none;fill-rule:nonzero;fill:rgb(100%,61.176471%,15.294118%);fill-opacity:1;" d="M 131.773438 154.460938 C 131.558594 154.460938 131.34375 154.398438 131.164062 154.277344 C 130.984375 154.160156 130.84375 153.988281 130.757812 153.785156 C 130.675781 153.585938 130.652344 153.367188 130.695312 153.152344 C 130.738281 152.941406 130.84375 152.746094 131 152.59375 L 160.234375 123.355469 C 160.445312 123.179688 160.714844 123.089844 160.992188 123.101562 C 161.265625 123.113281 161.527344 123.226562 161.722656 123.421875 C 161.914062 123.617188 162.03125 123.878906 162.042969 124.152344 C 162.054688 124.425781 161.964844 124.695312 161.785156 124.90625 L 132.550781 154.144531 C 132.34375 154.347656 132.066406 154.460938 131.773438 154.460938 Z M 131.773438 154.460938 "/>
<path style=" stroke:none;fill-rule:nonzero;fill:rgb(100%,61.176471%,15.294118%);fill-opacity:1;" d="M 161.011719 154.460938 C 160.71875 154.460938 160.441406 154.347656 160.234375 154.144531 L 131 124.871094 C 130.824219 124.660156 130.730469 124.390625 130.742188 124.113281 C 130.753906 123.839844 130.871094 123.578125 131.066406 123.382812 C 131.257812 123.1875 131.519531 123.074219 131.796875 123.0625 C 132.070312 123.050781 132.339844 123.140625 132.550781 123.316406 L 161.785156 152.554688 C 161.941406 152.707031 162.046875 152.902344 162.089844 153.113281 C 162.132812 153.328125 162.109375 153.546875 162.027344 153.75 C 161.945312 153.949219 161.800781 154.121094 161.621094 154.238281 C 161.441406 154.359375 161.226562 154.421875 161.011719 154.421875 Z M 161.011719 154.460938 "/>
<path style=" stroke:none;fill-rule:nonzero;fill:rgb(14.901961%,19.607843%,21.960784%);fill-opacity:1;" d="M 161.011719 183.695312 L 131.773438 183.695312 C 131.558594 183.699219 131.347656 183.636719 131.164062 183.515625 C 130.984375 183.394531 130.84375 183.226562 130.761719 183.027344 C 130.679688 182.824219 130.65625 182.605469 130.699219 182.390625 C 130.742188 182.179688 130.847656 181.984375 131 181.828125 L 144.839844 167.976562 L 131 154.136719 C 130.824219 153.921875 130.730469 153.652344 130.742188 153.378906 C 130.753906 153.105469 130.871094 152.84375 131.066406 152.648438 C 131.257812 152.453125 131.519531 152.339844 131.796875 152.328125 C 132.070312 152.316406 132.339844 152.40625 132.550781 152.582031 L 146.394531 166.425781 L 160.234375 152.582031 C 160.445312 152.40625 160.714844 152.316406 160.992188 152.328125 C 161.265625 152.339844 161.527344 152.453125 161.722656 152.648438 C 161.914062 152.84375 162.03125 153.105469 162.042969 153.378906 C 162.054688 153.652344 161.964844 153.921875 161.785156 154.136719 L 147.945312 167.976562 L 161.785156 181.820312 C 161.941406 181.972656 162.046875 182.167969 162.089844 182.378906 C 162.132812 182.59375 162.109375 182.8125 162.027344 183.015625 C 161.945312 183.214844 161.800781 183.386719 161.621094 183.503906 C 161.441406 183.625 161.226562 183.6875 161.011719 183.6875 Z M 134.417969 181.511719 L 158.367188 181.511719 L 146.394531 169.539062 Z M 134.417969 181.511719 "/>
<path style=" stroke:none;fill-rule:nonzero;fill:rgb(100%,61.176471%,15.294118%);fill-opacity:1;" d="M 121.542969 110.683594 L 105.929688 110.683594 L 107.894531 94.898438 L 119.570312 94.898438 Z M 121.542969 110.683594 "/>
<path style=" stroke:none;fill-rule:nonzero;fill:rgb(100%,61.176471%,15.294118%);fill-opacity:1;" d="M 121.542969 111.777344 L 105.929688 111.777344 C 105.773438 111.773438 105.621094 111.742188 105.480469 111.679688 C 105.339844 111.617188 105.210938 111.527344 105.105469 111.410156 C 105.003906 111.292969 104.929688 111.15625 104.882812 111.007812 C 104.835938 110.859375 104.820312 110.703125 104.839844 110.550781 L 106.8125 94.761719 C 106.84375 94.5 106.972656 94.253906 107.171875 94.078125 C 107.371094 93.902344 107.628906 93.804688 107.894531 93.804688 L 119.570312 93.804688 C 119.839844 93.804688 120.097656 93.902344 120.296875 94.078125 C 120.5 94.253906 120.628906 94.496094 120.664062 94.761719 L 122.578125 110.550781 C 122.597656 110.703125 122.585938 110.859375 122.539062 111.007812 C 122.492188 111.152344 122.417969 111.289062 122.3125 111.40625 C 122.210938 111.523438 122.085938 111.613281 121.945312 111.679688 C 121.804688 111.742188 121.652344 111.773438 121.496094 111.777344 Z M 107.175781 109.582031 L 120.300781 109.582031 L 118.605469 95.988281 L 108.871094 95.988281 Z M 107.175781 109.582031 "/>
<path style=" stroke:none;fill-rule:nonzero;fill:rgb(14.901961%,19.607843%,21.960784%);fill-opacity:1;" d="M 219.480469 95.988281 L 103.460938 95.988281 C 103.304688 96.003906 103.152344 95.984375 103.007812 95.9375 C 102.863281 95.886719 102.726562 95.808594 102.613281 95.707031 C 102.5 95.601562 102.410156 95.476562 102.347656 95.335938 C 102.285156 95.195312 102.253906 95.046875 102.253906 94.890625 C 102.253906 94.738281 102.285156 94.585938 102.347656 94.445312 C 102.410156 94.304688 102.5 94.179688 102.613281 94.078125 C 102.726562 93.972656 102.863281 93.894531 103.007812 93.847656 C 103.152344 93.796875 103.304688 93.78125 103.460938 93.796875 L 219.480469 93.796875 C 219.636719 93.78125 219.789062 93.796875 219.933594 93.847656 C 220.078125 93.894531 220.214844 93.972656 220.324219 94.078125 C 220.441406 94.179688 220.53125 94.304688 220.589844 94.445312 C 220.65625 94.585938 220.6875 94.738281 220.6875 94.890625 C 220.6875 95.046875 220.65625 95.195312 220.589844 95.335938 C 220.53125 95.476562 220.441406 95.601562 220.324219 95.707031 C 220.214844 95.808594 220.078125 95.886719 219.933594 95.9375 C 219.789062 95.984375 219.636719 96.003906 219.480469 95.988281 Z M 219.480469 95.988281 "/>
<path style=" stroke:none;fill-rule:nonzero;fill:rgb(100%,61.176471%,15.294118%);fill-opacity:1;" d="M 204.863281 81.371094 L 146.429688 81.371094 C 146.15625 81.34375 145.902344 81.21875 145.71875 81.015625 C 145.535156 80.8125 145.433594 80.546875 145.433594 80.273438 C 145.433594 80 145.535156 79.734375 145.71875 79.53125 C 145.902344 79.328125 146.15625 79.203125 146.429688 79.175781 L 204.863281 79.175781 C 205.015625 79.164062 205.171875 79.179688 205.316406 79.230469 C 205.460938 79.277344 205.59375 79.355469 205.707031 79.460938 C 205.820312 79.5625 205.914062 79.6875 205.976562 79.828125 C 206.035156 79.96875 206.070312 80.121094 206.070312 80.273438 C 206.070312 80.425781 206.035156 80.578125 205.976562 80.71875 C 205.914062 80.859375 205.820312 80.984375 205.707031 81.089844 C 205.59375 81.191406 205.460938 81.269531 205.316406 81.320312 C 205.171875 81.367188 205.015625 81.386719 204.863281 81.371094 Z M 204.863281 81.371094 "/>
<path style=" stroke:none;fill-rule:nonzero;fill:rgb(0%,10.196078%,25.490196%);fill-opacity:1;" d="M 234.839844 143.980469 L 122.121094 143.980469 C 116.15625 143.980469 111.324219 148.8125 111.324219 154.777344 L 111.324219 392.445312 C 111.324219 398.410156 116.15625 403.242188 122.121094 403.242188 L 234.839844 403.242188 C 240.800781 403.242188 245.632812 398.410156 245.632812 392.445312 L 245.632812 154.777344 C 245.632812 148.8125 240.800781 143.980469 234.839844 143.980469 Z M 234.839844 143.980469 "/>
<use xlink:href="#surface8" mask="url(#mask1)"/>
<path style=" stroke:none;fill-rule:nonzero;fill:rgb(0.784314%,14.117647%,23.921569%);fill-opacity:1;" d="M 248.632812 143.980469 L 135.914062 143.980469 C 129.953125 143.980469 125.117188 148.8125 125.117188 154.777344 L 125.117188 392.445312 C 125.117188 398.410156 129.953125 403.242188 135.914062 403.242188 L 248.632812 403.242188 C 254.59375 403.242188 259.425781 398.410156 259.425781 392.445312 L 259.425781 154.777344 C 259.425781 148.8125 254.59375 143.980469 248.632812 143.980469 Z M 248.632812 143.980469 "/>
<path style=" stroke:none;fill-rule:nonzero;fill:rgb(100%,100%,100%);fill-opacity:1;" d="M 254.925781 392.445312 L 254.925781 154.765625 C 254.925781 151.289062 252.109375 148.472656 248.632812 148.472656 L 135.902344 148.472656 C 132.429688 148.472656 129.609375 151.289062 129.609375 154.765625 L 129.609375 392.445312 C 129.609375 395.921875 132.429688 398.738281 135.902344 398.738281 L 248.632812 398.738281 C 252.109375 398.738281 254.925781 395.921875 254.925781 392.445312 Z M 254.925781 392.445312 "/>
<use xlink:href="#surface11" mask="url(#mask2)"/>
<path style=" stroke:none;fill-rule:nonzero;fill:rgb(25.098039%,48.235294%,100%);fill-opacity:1;" d="M 251.332031 160.773438 L 251.332031 156.269531 C 251.332031 153.953125 249.457031 152.074219 247.136719 152.074219 L 137.40625 152.074219 C 135.089844 152.074219 133.210938 153.953125 133.210938 156.269531 L 133.210938 160.773438 C 133.210938 163.089844 135.089844 164.96875 137.40625 164.96875 L 247.136719 164.96875 C 249.457031 164.96875 251.332031 163.089844 251.332031 160.773438 Z M 251.332031 160.773438 "/>
<path style=" stroke:none;fill-rule:nonzero;fill:rgb(100%,100%,100%);fill-opacity:1;" d="M 145.703125 161.539062 C 144.902344 161.539062 144.132812 161.222656 143.566406 160.65625 C 143 160.089844 142.679688 159.324219 142.675781 158.519531 C 142.679688 157.71875 143 156.949219 143.566406 156.382812 C 144.132812 155.816406 144.902344 155.496094 145.703125 155.496094 C 146.503906 155.496094 147.273438 155.816406 147.839844 156.382812 C 148.40625 156.949219 148.726562 157.71875 148.730469 158.519531 C 148.726562 159.324219 148.40625 160.089844 147.839844 160.65625 C 147.273438 161.222656 146.503906 161.539062 145.703125 161.539062 Z M 145.703125 161.539062 "/>
<path style=" stroke:none;fill-rule:nonzero;fill:rgb(100%,100%,100%);fill-opacity:1;" d="M 154.699219 161.539062 C 153.898438 161.539062 153.128906 161.222656 152.5625 160.65625 C 151.992188 160.089844 151.671875 159.324219 151.671875 158.519531 C 151.671875 157.71875 151.992188 156.949219 152.558594 156.382812 C 153.128906 155.816406 153.894531 155.496094 154.699219 155.496094 C 155.5 155.496094 156.265625 155.816406 156.832031 156.382812 C 157.398438 156.953125 157.714844 157.71875 157.714844 158.519531 C 157.714844 159.320312 157.394531 160.085938 156.828125 160.652344 C 156.261719 161.21875 155.496094 161.535156 154.699219 161.539062 Z M 154.699219 161.539062 "/>
<path style=" stroke:none;fill-rule:nonzero;fill:rgb(100%,100%,100%);fill-opacity:1;" d="M 163.691406 161.539062 C 162.890625 161.539062 162.125 161.222656 161.554688 160.65625 C 160.988281 160.089844 160.667969 159.324219 160.664062 158.519531 C 160.667969 157.71875 160.988281 156.949219 161.554688 156.382812 C 162.121094 155.816406 162.890625 155.496094 163.691406 155.496094 C 164.496094 155.496094 165.261719 155.816406 165.828125 156.382812 C 166.394531 156.953125 166.710938 157.71875 166.710938 158.519531 C 166.707031 159.320312 166.390625 160.085938 165.824219 160.652344 C 165.257812 161.21875 164.492188 161.535156 163.691406 161.539062 Z M 163.691406 161.539062 "/>
<path style=" stroke:none;fill-rule:nonzero;fill:rgb(100%,100%,100%);fill-opacity:1;" d="M 242.914062 154.765625 L 238.71875 154.765625 C 237.804688 154.765625 237.070312 155.503906 237.070312 156.414062 L 237.070312 160.609375 C 237.070312 161.519531 237.804688 162.257812 238.71875 162.257812 L 242.914062 162.257812 C 243.820312 162.257812 244.558594 161.519531 244.558594 160.609375 L 244.558594 156.414062 C 244.558594 155.503906 243.820312 154.765625 242.914062 154.765625 Z M 242.914062 154.765625 "/>
<path style=" stroke:none;fill-rule:nonzero;fill:rgb(48.627451%,73.333333%,87.45098%);fill-opacity:1;" d="M 170.730469 347.773438 C 181.4375 343.335938 186.523438 331.058594 182.089844 320.351562 C 177.652344 309.640625 165.375 304.554688 154.667969 308.988281 C 143.957031 313.425781 138.871094 325.703125 143.308594 336.414062 C 147.742188 347.121094 160.019531 352.207031 170.730469 347.773438 Z M 170.730469 347.773438 "/>
<path style=" stroke:none;fill-rule:nonzero;fill:rgb(25.098039%,48.235294%,100%);fill-opacity:1;" d="M 237.613281 318.839844 L 196.691406 318.839844 C 195.996094 318.835938 195.332031 318.558594 194.839844 318.066406 C 194.347656 317.574219 194.070312 316.910156 194.070312 316.214844 C 194.070312 315.519531 194.347656 314.851562 194.839844 314.363281 C 195.332031 313.867188 195.996094 313.59375 196.691406 313.589844 L 237.613281 313.589844 C 238.3125 313.589844 238.980469 313.867188 239.46875 314.359375 C 239.964844 314.851562 240.238281 315.519531 240.238281 316.214844 C 240.238281 316.910156 239.964844 317.578125 239.46875 318.070312 C 238.980469 318.5625 238.3125 318.839844 237.613281 318.839844 Z M 237.613281 318.839844 "/>
<path style=" stroke:none;fill-rule:nonzero;fill:rgb(25.098039%,48.235294%,100%);fill-opacity:1;" d="M 237.613281 331.003906 L 196.691406 331.003906 C 195.996094 331.003906 195.332031 330.722656 194.839844 330.234375 C 194.347656 329.742188 194.070312 329.074219 194.070312 328.378906 C 194.070312 327.683594 194.347656 327.019531 194.839844 326.527344 C 195.332031 326.035156 195.996094 325.757812 196.691406 325.757812 L 237.613281 325.757812 C 238.3125 325.757812 238.980469 326.03125 239.46875 326.523438 C 239.964844 327.015625 240.238281 327.683594 240.238281 328.378906 C 240.238281 329.078125 239.964844 329.742188 239.46875 330.234375 C 238.980469 330.726562 238.3125 331.003906 237.613281 331.003906 Z M 237.613281 331.003906 "/>
<path style=" stroke:none;fill-rule:nonzero;fill:rgb(25.098039%,48.235294%,100%);fill-opacity:1;" d="M 237.613281 337.921875 L 196.691406 337.921875 C 195.242188 337.921875 194.070312 339.09375 194.070312 340.542969 C 194.070312 341.996094 195.242188 343.171875 196.691406 343.171875 L 237.613281 343.171875 C 239.066406 343.171875 240.238281 341.996094 240.238281 340.542969 C 240.238281 339.09375 239.066406 337.921875 237.613281 337.921875 Z M 237.613281 337.921875 "/>
<path style=" stroke:none;fill-rule:nonzero;fill:rgb(91.372549%,0%,29.803922%);fill-opacity:0.25098;" d="M 233.441406 361.148438 L 151.117188 361.148438 C 145.921875 361.148438 141.707031 365.359375 141.707031 370.554688 L 141.707031 382.253906 C 141.707031 387.449219 145.921875 391.660156 151.117188 391.660156 L 233.441406 391.660156 C 238.636719 391.660156 242.847656 387.449219 242.847656 382.253906 L 242.847656 370.554688 C 242.847656 365.359375 238.636719 361.148438 233.441406 361.148438 Z M 233.441406 361.148438 "/>
<path style=" stroke:none;fill-rule:nonzero;fill:rgb(100%,100%,100%);fill-opacity:1;" d="M 264.464844 285.054688 L 256.1875 178.933594 C 255.851562 174.640625 252.101562 171.433594 247.804688 171.765625 L 155.953125 178.929688 C 151.660156 179.265625 148.449219 183.019531 148.785156 187.3125 L 157.0625 293.433594 C 157.398438 297.726562 161.148438 300.933594 165.441406 300.601562 L 257.296875 293.4375 C 261.589844 293.101562 264.796875 289.351562 264.464844 285.054688 Z M 264.464844 285.054688 "/>
<path style=" stroke:none;fill-rule:nonzero;fill:rgb(25.098039%,48.235294%,100%);fill-opacity:1;" d="M 164.8125 301.125 C 162.726562 301.121094 160.71875 300.332031 159.191406 298.910156 C 157.664062 297.488281 156.730469 295.542969 156.574219 293.464844 L 148.300781 187.335938 C 148.132812 185.148438 148.839844 182.984375 150.265625 181.320312 C 151.691406 179.652344 153.71875 178.621094 155.90625 178.445312 L 247.769531 171.28125 C 249.953125 171.113281 252.117188 171.820312 253.785156 173.246094 C 255.453125 174.671875 256.484375 176.699219 256.660156 178.886719 L 264.933594 285.015625 C 265.105469 287.203125 264.398438 289.367188 262.972656 291.039062 C 261.546875 292.707031 259.515625 293.738281 257.328125 293.914062 L 165.464844 301.070312 C 165.246094 301.125 165.035156 301.125 164.8125 301.125 Z M 157.535156 293.464844 C 157.691406 295.394531 158.605469 297.179688 160.078125 298.4375 C 161.546875 299.695312 163.457031 300.316406 165.386719 300.167969 L 257.253906 293.003906 C 259.183594 292.84375 260.972656 291.929688 262.226562 290.457031 C 263.484375 288.980469 264.105469 287.070312 263.957031 285.140625 L 255.683594 179.011719 C 255.523438 177.082031 254.609375 175.289062 253.136719 174.03125 C 251.660156 172.777344 249.75 172.15625 247.816406 172.304688 L 155.960938 179.472656 C 154.03125 179.628906 152.242188 180.546875 150.988281 182.019531 C 149.730469 183.492188 149.109375 185.40625 149.257812 187.335938 Z M 157.535156 293.464844 "/>
<path style=" stroke:none;fill-rule:nonzero;fill:rgb(91.372549%,0%,29.803922%);fill-opacity:1;" d="M 260.46875 283.175781 L 258.632812 259.652344 C 258.371094 256.261719 255.40625 253.726562 252.015625 253.992188 L 164.535156 260.816406 C 161.144531 261.078125 158.609375 264.042969 158.875 267.433594 L 160.707031 290.957031 C 160.972656 294.347656 163.9375 296.882812 167.328125 296.617188 L 254.808594 289.796875 C 258.199219 289.53125 260.734375 286.566406 260.46875 283.175781 Z M 260.46875 283.175781 "/>
<use xlink:href="#surface14" mask="url(#mask3)"/>
<use xlink:href="#surface17" mask="url(#mask4)"/>
<use xlink:href="#surface20" mask="url(#mask5)"/>
<use xlink:href="#surface23" mask="url(#mask6)"/>
<path style=" stroke:none;fill-rule:nonzero;fill:rgb(14.901961%,19.607843%,21.960784%);fill-opacity:1;" d="M 217.152344 159.011719 C 217.023438 159.011719 216.902344 158.957031 216.808594 158.867188 C 216.71875 158.777344 216.664062 158.652344 216.664062 158.523438 L 216.664062 94.898438 C 216.652344 94.824219 216.652344 94.753906 216.671875 94.683594 C 216.6875 94.613281 216.71875 94.546875 216.765625 94.492188 C 216.8125 94.433594 216.871094 94.390625 216.933594 94.359375 C 217 94.328125 217.074219 94.3125 217.144531 94.3125 C 217.21875 94.3125 217.289062 94.328125 217.355469 94.359375 C 217.421875 94.390625 217.476562 94.433594 217.523438 94.492188 C 217.570312 94.546875 217.601562 94.613281 217.621094 94.683594 C 217.636719 94.753906 217.640625 94.824219 217.625 94.898438 L 217.625 158.523438 C 217.625 158.648438 217.574219 158.769531 217.488281 158.859375 C 217.402344 158.953125 217.28125 159.003906 217.152344 159.011719 Z M 217.152344 159.011719 "/>
<path style=" stroke:none;fill-rule:nonzero;fill:rgb(14.901961%,19.607843%,21.960784%);fill-opacity:1;" d="M 223.238281 168.933594 L 211.070312 168.933594 C 210.585938 168.933594 210.117188 168.777344 209.726562 168.488281 C 209.339844 168.199219 209.054688 167.789062 208.917969 167.324219 L 206.300781 158.4375 C 206.203125 158.101562 206.1875 157.75 206.25 157.40625 C 206.3125 157.0625 206.453125 156.742188 206.664062 156.460938 C 206.871094 156.183594 207.144531 155.957031 207.453125 155.800781 C 207.765625 155.644531 208.109375 155.5625 208.457031 155.5625 L 225.851562 155.5625 C 226.199219 155.5625 226.542969 155.644531 226.855469 155.800781 C 227.167969 155.957031 227.4375 156.183594 227.644531 156.460938 C 227.851562 156.742188 227.996094 157.0625 228.058594 157.40625 C 228.121094 157.75 228.105469 158.101562 228.007812 158.4375 L 225.390625 167.324219 C 225.253906 167.789062 224.972656 168.199219 224.582031 168.488281 C 224.195312 168.777344 223.722656 168.9375 223.238281 168.933594 Z M 223.238281 168.933594 "/>
<path style=" stroke:none;fill-rule:nonzero;fill:rgb(14.901961%,19.607843%,21.960784%);fill-opacity:1;" d="M 217.152344 182.710938 C 216.863281 182.710938 216.585938 182.59375 216.382812 182.390625 C 216.179688 182.183594 216.0625 181.90625 216.0625 181.617188 C 216.0625 181.328125 216.179688 181.050781 216.382812 180.84375 C 216.585938 180.640625 216.863281 180.523438 217.152344 180.523438 C 218.171875 180.523438 219.144531 180.121094 219.863281 179.402344 C 220.582031 178.683594 220.988281 177.710938 220.988281 176.695312 C 220.988281 175.675781 220.582031 174.703125 219.863281 173.984375 C 219.144531 173.265625 218.171875 172.863281 217.152344 172.863281 C 216.863281 172.863281 216.585938 172.746094 216.382812 172.542969 C 216.179688 172.335938 216.0625 172.058594 216.0625 171.769531 L 216.0625 168.933594 C 216.085938 168.660156 216.214844 168.40625 216.417969 168.222656 C 216.621094 168.039062 216.882812 167.933594 217.160156 167.933594 C 217.433594 167.933594 217.699219 168.039062 217.902344 168.222656 C 218.105469 168.40625 218.230469 168.660156 218.253906 168.933594 L 218.253906 170.765625 C 219.726562 171.042969 221.039062 171.859375 221.9375 173.054688 C 222.839844 174.25 223.265625 175.738281 223.125 177.226562 C 222.988281 178.71875 222.300781 180.101562 221.195312 181.113281 C 220.09375 182.121094 218.652344 182.683594 217.152344 182.691406 Z M 217.152344 182.710938 "/>
<path style=" stroke:none;fill-rule:nonzero;fill:rgb(25.098039%,48.235294%,100%);fill-opacity:1;" d="M 386.199219 197.261719 C 387.414062 200.066406 388.410156 202.730469 389.390625 205.527344 C 390.363281 208.324219 391.253906 211.082031 392.011719 213.957031 C 392.839844 216.890625 393.507812 219.867188 394.007812 222.875 C 394.289062 224.480469 394.488281 226.105469 394.597656 227.730469 C 394.746094 229.648438 394.695312 231.574219 394.457031 233.480469 L 394.398438 233.871094 C 394.371094 234.0625 394.328125 234.246094 394.273438 234.429688 C 393.414062 237.046875 392.378906 239.605469 391.179688 242.089844 C 390.058594 244.496094 388.785156 246.765625 387.519531 249.015625 C 386.253906 251.269531 384.875 253.425781 383.449219 255.5625 C 382.019531 257.695312 380.574219 259.765625 378.945312 261.824219 C 378.402344 262.503906 377.640625 262.96875 376.789062 263.144531 C 375.933594 263.316406 375.046875 263.1875 374.28125 262.773438 C 373.519531 262.359375 372.921875 261.695312 372.597656 260.886719 C 372.273438 260.078125 372.242188 259.183594 372.511719 258.355469 L 372.511719 258.269531 C 373.277344 255.960938 374.128906 253.605469 374.941406 251.289062 C 375.757812 248.96875 376.601562 246.671875 377.375 244.371094 C 378.152344 242.074219 378.929688 239.78125 379.617188 237.550781 C 380.308594 235.320312 380.910156 233.078125 381.332031 231.039062 L 381.148438 231.996094 C 381.128906 231.070312 381.035156 230.152344 380.871094 229.246094 C 380.683594 228.144531 380.441406 226.9375 380.136719 225.722656 C 379.828125 224.503906 379.492188 223.257812 379.121094 222.003906 C 378.746094 220.75 378.363281 219.484375 377.941406 218.171875 C 377.097656 215.632812 376.226562 213.066406 375.296875 210.507812 L 372.492188 202.914062 L 372.441406 202.777344 C 371.714844 200.957031 371.734375 198.921875 372.507812 197.117188 C 373.277344 195.316406 374.730469 193.890625 376.550781 193.160156 C 378.375 192.429688 380.40625 192.453125 382.210938 193.222656 C 384.015625 193.996094 385.4375 195.449219 386.171875 197.269531 Z M 386.199219 197.261719 "/>
<use xlink:href="#surface26" mask="url(#mask7)"/>
<path style=" stroke:none;fill-rule:nonzero;fill:rgb(100%,72.156863%,70.980392%);fill-opacity:1;" d="M 372.949219 257.0625 L 368.054688 259.632812 L 374.902344 266.75 C 376.21875 265.8125 377.386719 264.691406 378.382812 263.425781 C 379.054688 262.515625 379.34375 261.375 379.179688 260.257812 C 379.019531 259.136719 378.421875 258.128906 377.519531 257.445312 C 376.871094 256.957031 376.097656 256.660156 375.289062 256.59375 C 374.484375 256.527344 373.671875 256.691406 372.949219 257.0625 Z M 372.949219 257.0625 "/>
<path style=" stroke:none;fill-rule:nonzero;fill:rgb(100%,72.156863%,70.980392%);fill-opacity:1;" d="M 365.394531 267.78125 L 368.21875 269.871094 C 368.761719 270.269531 369.433594 270.464844 370.105469 270.421875 C 370.78125 270.378906 371.417969 270.097656 371.90625 269.632812 L 374.867188 266.757812 L 368.015625 259.640625 L 364.875 263.769531 C 364.414062 264.371094 364.210938 265.132812 364.308594 265.882812 C 364.40625 266.632812 364.792969 267.316406 365.394531 267.78125 Z M 365.394531 267.78125 "/>
<path style=" stroke:none;fill-rule:nonzero;fill:rgb(100%,72.156863%,70.980392%);fill-opacity:1;" d="M 294.929688 211.6875 L 289.878906 205.171875 L 284.085938 213.171875 C 284.085938 213.171875 289.371094 218.507812 292.65625 216.160156 Z M 294.929688 211.6875 "/>
<path style=" stroke:none;fill-rule:nonzero;fill:rgb(100%,72.156863%,70.980392%);fill-opacity:1;" d="M 281.402344 204.03125 L 279.839844 207.175781 C 279.542969 207.78125 279.46875 208.476562 279.628906 209.132812 C 279.792969 209.789062 280.183594 210.371094 280.730469 210.765625 L 284.085938 213.171875 L 289.878906 205.171875 L 285.28125 202.769531 C 284.941406 202.59375 284.574219 202.492188 284.195312 202.460938 C 283.820312 202.429688 283.441406 202.476562 283.078125 202.59375 C 282.71875 202.710938 282.382812 202.898438 282.097656 203.144531 C 281.808594 203.390625 281.570312 203.695312 281.402344 204.03125 Z M 281.402344 204.03125 "/>
<path style=" stroke:none;fill-rule:nonzero;fill:rgb(14.901961%,19.607843%,21.960784%);fill-opacity:1;" d="M 378.667969 408.546875 L 372.59375 408.546875 L 371.847656 407.847656 L 370.730469 408.546875 C 367.019531 408.546875 362.019531 408.414062 359.632812 407.59375 C 359.566406 407.3125 359.574219 407.019531 359.660156 406.746094 C 359.746094 406.472656 359.910156 406.230469 360.125 406.039062 C 360.125 406.039062 369.941406 403.003906 370.824219 400.960938 L 378.265625 400.960938 "/>
<path style=" stroke:none;fill-rule:nonzero;fill:rgb(13.72549%,15.294118%,29.019608%);fill-opacity:1;" d="M 371.140625 322.671875 C 369.921875 291.269531 371.90625 266.449219 368.925781 254.410156 L 341.148438 249.917969 C 341.148438 249.917969 346.261719 303.109375 352.414062 325.113281 C 358.5625 347.117188 369.65625 401.460938 369.65625 401.460938 L 379.109375 401.460938 C 379.109375 401.460938 379.339844 348.441406 371.140625 322.671875 Z M 371.140625 322.671875 "/>
<use xlink:href="#surface29" mask="url(#mask8)"/>
<path style=" stroke:none;fill-rule:nonzero;fill:rgb(14.901961%,19.607843%,21.960784%);fill-opacity:1;" d="M 299.984375 399.542969 C 299.984375 399.542969 313.960938 400.605469 315.496094 398.921875 L 322.824219 401.171875 L 320.773438 408.546875 L 316.25 407.167969 L 315.742188 406.277344 L 314.421875 406.601562 C 310.761719 405.484375 301.085938 402.371094 299 400.855469 C 299.027344 400.566406 299.136719 400.292969 299.308594 400.0625 C 299.484375 399.832031 299.71875 399.652344 299.984375 399.542969 Z M 299.984375 399.542969 "/>
<path style=" stroke:none;fill-rule:nonzero;fill:rgb(13.72549%,15.294118%,29.019608%);fill-opacity:1;" d="M 341.761719 324.578125 C 351.105469 301.664062 357.292969 277.582031 360.152344 253 L 329.824219 248.039062 C 329.824219 248.039062 325.320312 302.898438 323.359375 325.449219 C 321.328125 348.886719 313.445312 398.835938 313.445312 398.835938 L 323.242188 401.804688 C 323.242188 401.804688 340.746094 353.738281 341.761719 324.578125 Z M 341.761719 324.578125 "/>
<path style=" stroke:none;fill-rule:nonzero;fill:rgb(100%,72.156863%,70.980392%);fill-opacity:1;" d="M 371.476562 168.023438 C 369.695312 173.773438 368.601562 182.097656 370.324219 186.800781 C 366.972656 189.117188 361.703125 191.820312 355.316406 190.796875 C 348.925781 189.769531 350.746094 185.621094 352.777344 183.648438 C 357.691406 182.011719 358.207031 179.703125 357.394531 177.488281 Z M 371.476562 168.023438 "/>
<path style=" stroke:none;fill-rule:nonzero;fill:rgb(25.098039%,48.235294%,100%);fill-opacity:1;" d="M 376.074219 189.097656 C 374.582031 187.308594 372.953125 185.632812 371.207031 184.089844 C 369.710938 183.054688 357.308594 181.511719 354.347656 181.617188 C 351.386719 181.722656 347.277344 185.507812 347.277344 185.507812 Z M 376.074219 189.097656 "/>
<use xlink:href="#surface32" mask="url(#mask9)"/>
<path style=" stroke:none;fill-rule:nonzero;fill:rgb(14.901961%,19.607843%,21.960784%);fill-opacity:1;" d="M 354.855469 161.15625 C 354.664062 161.722656 354.214844 162.113281 353.851562 161.960938 C 353.488281 161.808594 353.324219 161.273438 353.515625 160.695312 C 353.707031 160.121094 354.15625 159.738281 354.519531 159.902344 C 354.882812 160.066406 355.046875 160.589844 354.855469 161.15625 Z M 354.855469 161.15625 "/>
<path style=" stroke:none;fill-rule:nonzero;fill:rgb(38.823529%,5.882353%,5.882353%);fill-opacity:1;" d="M 354.632812 161.960938 C 353.390625 163.464844 351.941406 164.789062 350.335938 165.898438 C 350.628906 166.304688 351.007812 166.644531 351.445312 166.890625 C 351.882812 167.136719 352.371094 167.285156 352.871094 167.324219 Z M 354.632812 161.960938 "/>
<path style=" stroke:none;fill-rule:nonzero;fill:rgb(14.901961%,19.607843%,21.960784%);fill-opacity:1;" d="M 354.855469 157.238281 C 354.878906 157.292969 354.914062 157.339844 354.960938 157.371094 C 355.011719 157.40625 355.066406 157.425781 355.125 157.429688 C 355.5625 157.476562 355.980469 157.621094 356.351562 157.859375 C 356.71875 158.097656 357.027344 158.421875 357.25 158.800781 C 357.269531 158.84375 357.296875 158.878906 357.328125 158.910156 C 357.363281 158.941406 357.402344 158.964844 357.445312 158.980469 C 357.488281 158.996094 357.535156 159.003906 357.578125 159 C 357.625 158.996094 357.671875 158.984375 357.710938 158.964844 C 357.792969 158.921875 357.855469 158.847656 357.886719 158.761719 C 357.917969 158.671875 357.914062 158.578125 357.871094 158.492188 C 357.605469 158.007812 357.21875 157.59375 356.757812 157.285156 C 356.292969 156.980469 355.761719 156.789062 355.210938 156.730469 C 355.148438 156.726562 355.085938 156.738281 355.03125 156.765625 C 354.976562 156.792969 354.925781 156.835938 354.890625 156.886719 C 354.855469 156.9375 354.835938 156.996094 354.828125 157.058594 C 354.820312 157.121094 354.832031 157.183594 354.855469 157.238281 Z M 354.855469 157.238281 "/>
<path style=" stroke:none;fill-rule:nonzero;fill:rgb(100%,72.156863%,70.980392%);fill-opacity:1;" d="M 374.519531 165.992188 C 371.792969 172.8125 370.546875 176.953125 365.898438 179.335938 C 358.839844 182.929688 351.300781 176.816406 351.933594 169.296875 C 352.5 162.535156 356.859375 152.515625 364.578125 152.054688 C 366.285156 151.960938 367.988281 152.296875 369.527344 153.035156 C 371.070312 153.777344 372.398438 154.894531 373.390625 156.285156 C 374.382812 157.675781 375.007812 159.296875 375.207031 160.992188 C 375.402344 162.691406 375.167969 164.410156 374.519531 165.992188 Z M 374.519531 165.992188 "/>
<path style=" stroke:none;fill-rule:nonzero;fill:rgb(14.901961%,19.607843%,21.960784%);fill-opacity:1;" d="M 359.1875 166.214844 C 359 167.761719 359.140625 169.328125 359.597656 170.816406 C 360.054688 172.300781 360.816406 173.675781 361.839844 174.851562 C 362.859375 176.023438 364.117188 176.972656 365.527344 177.628906 C 366.941406 178.285156 368.472656 178.640625 370.03125 178.667969 C 376.886719 178.667969 376.992188 168.898438 375.773438 166.644531 C 379.417969 166.011719 381.523438 161.011719 379.300781 157.851562 C 382.644531 155.226562 374.914062 151.242188 365.507812 150.726562 C 355.132812 150.148438 357.03125 156.261719 360.488281 158.109375 C 357.164062 159.097656 356.820312 165.015625 359.1875 166.214844 Z M 359.1875 166.214844 "/>
<path style=" stroke:none;fill-rule:nonzero;fill:rgb(25.098039%,48.235294%,100%);fill-opacity:1;" d="M 357.191406 153.339844 C 357.191406 153.339844 357.851562 161.375 364.605469 166.214844 C 371.359375 171.050781 377.367188 171.5 377.367188 171.5 L 379.03125 166.214844 C 379.03125 166.214844 363.785156 157.027344 358.628906 151.894531 C 358.121094 152.347656 357.640625 152.828125 357.191406 153.339844 Z M 357.191406 153.339844 "/>
<use xlink:href="#surface35" mask="url(#mask10)"/>
<path style=" stroke:none;fill-rule:nonzero;fill:rgb(100%,72.156863%,70.980392%);fill-opacity:1;" d="M 362.769531 166.308594 C 361.886719 167.605469 360.542969 168.519531 359.011719 168.859375 C 357.097656 169.230469 356.484375 167.277344 357.335938 165.390625 C 358.105469 163.695312 360.039062 161.453125 361.828125 161.933594 C 363.621094 162.410156 363.917969 164.664062 362.769531 166.308594 Z M 362.769531 166.308594 "/>
<path style=" stroke:none;fill-rule:nonzero;fill:rgb(25.098039%,48.235294%,100%);fill-opacity:1;" d="M 375.773438 188.238281 C 366.0625 185.5625 352.011719 183.628906 342.449219 183.886719 C 340.085938 183.960938 337.8125 184.816406 335.988281 186.320312 C 334.160156 187.828125 332.886719 189.894531 332.363281 192.203125 C 329.125 206.246094 328.628906 231.554688 327.6875 256.96875 C 348.535156 267.503906 371.875 263.328125 371.875 263.328125 C 373.113281 258.355469 372.835938 241.429688 372.402344 232.347656 C 374.992188 223.421875 379.675781 213.449219 383.226562 201.609375 C 383.632812 200.242188 383.761719 198.808594 383.605469 197.390625 C 383.449219 195.972656 383.007812 194.601562 382.3125 193.355469 C 381.621094 192.109375 380.683594 191.015625 379.5625 190.136719 C 378.4375 189.257812 377.152344 188.613281 375.773438 188.238281 Z M 375.773438 188.238281 "/>
<use xlink:href="#surface38" mask="url(#mask11)"/>
<path style=" stroke:none;fill-rule:nonzero;fill:rgb(14.901961%,19.607843%,21.960784%);fill-opacity:1;" d="M 345.144531 182.480469 C 337.132812 182.019531 332.152344 185.976562 330.113281 198.066406 C 328.074219 210.152344 325.867188 237.558594 326.722656 247.445312 C 353.609375 258.761719 370.285156 254.152344 373.878906 251.515625 C 375.289062 249.363281 374.769531 242.664062 374.0625 240.019531 C 375.859375 235.273438 376.761719 230.230469 376.714844 225.15625 C 380.699219 221.324219 382.464844 213.976562 382.597656 211.121094 C 386.101562 206.445312 386.570312 195.863281 384.628906 192.84375 C 382.683594 189.828125 377.03125 184.261719 345.144531 182.480469 Z M 345.144531 182.480469 "/>
<use xlink:href="#surface41" mask="url(#mask12)"/>
<path style=" stroke:none;fill-rule:nonzero;fill:rgb(25.098039%,48.235294%,100%);fill-opacity:1;" d="M 345.007812 195.757812 C 343.554688 198.410156 342.078125 200.777344 340.488281 203.21875 C 338.898438 205.660156 337.230469 208.007812 335.410156 210.328125 C 333.578125 212.726562 331.609375 215.015625 329.507812 217.1875 C 328.382812 218.363281 327.183594 219.472656 325.925781 220.507812 C 324.457031 221.753906 322.851562 222.824219 321.136719 223.699219 L 320.792969 223.871094 C 320.617188 223.957031 320.4375 224.027344 320.253906 224.082031 C 317.378906 224.929688 314.371094 225.222656 311.386719 224.945312 C 310.050781 224.839844 308.726562 224.644531 307.417969 224.359375 C 306.167969 224.101562 304.929688 223.785156 303.710938 223.402344 C 301.375 222.652344 299.101562 221.71875 296.910156 220.613281 C 295.828125 220.070312 294.785156 219.484375 293.75 218.871094 C 292.714844 218.257812 291.757812 217.625 290.675781 216.839844 C 289.980469 216.339844 289.480469 215.617188 289.261719 214.789062 C 289.042969 213.960938 289.117188 213.085938 289.472656 212.304688 C 289.824219 211.527344 290.4375 210.894531 291.207031 210.519531 C 291.976562 210.144531 292.847656 210.042969 293.683594 210.242188 L 294.007812 210.316406 L 297.007812 211.015625 C 298.019531 211.257812 299.046875 211.464844 300.0625 211.660156 C 302.039062 212.046875 304.035156 212.335938 306.039062 212.519531 C 307.871094 212.6875 309.714844 212.6875 311.546875 212.519531 C 313.007812 212.410156 314.441406 212.050781 315.78125 211.457031 L 314.898438 211.851562 C 315.585938 211.347656 316.226562 210.785156 316.816406 210.171875 C 317.554688 209.417969 318.351562 208.554688 319.113281 207.636719 C 319.882812 206.714844 320.648438 205.71875 321.394531 204.714844 C 322.140625 203.707031 322.917969 202.664062 323.65625 201.589844 C 325.121094 199.464844 326.585938 197.269531 328.011719 195.039062 C 329.441406 192.804688 330.886719 190.496094 332.210938 188.332031 L 332.277344 188.21875 C 332.773438 187.382812 333.429688 186.652344 334.203125 186.070312 C 334.980469 185.484375 335.867188 185.0625 336.808594 184.820312 C 337.746094 184.578125 338.726562 184.527344 339.6875 184.664062 C 340.652344 184.800781 341.574219 185.128906 342.410156 185.621094 C 343.25 186.117188 343.976562 186.773438 344.558594 187.550781 C 345.144531 188.328125 345.566406 189.210938 345.808594 190.152344 C 346.050781 191.09375 346.105469 192.074219 345.964844 193.035156 C 345.828125 193.996094 345.503906 194.921875 345.007812 195.757812 Z M 345.007812 195.757812 "/>
<use xlink:href="#surface44" mask="url(#mask13)"/>
<path style=" stroke:none;fill-rule:nonzero;fill:rgb(100%,77.647059%,15.294118%);fill-opacity:1;" d="M 379.167969 169.578125 C 379.042969 169.699219 378.890625 169.785156 378.71875 169.824219 C 378.550781 169.863281 378.375 169.859375 378.210938 169.808594 C 372.824219 167.75 367.867188 164.707031 363.589844 160.839844 C 356.339844 154.191406 355.714844 146.578125 358.933594 150.21875 C 360.71875 148.300781 368.285156 145.964844 375.296875 149 C 382.710938 152.230469 386.285156 162.230469 379.167969 169.578125 Z M 379.167969 169.578125 "/>
<path style=" stroke:none;fill-rule:nonzero;fill:rgb(100%,77.647059%,15.294118%);fill-opacity:1;" d="M 372.96875 148.195312 C 374.792969 149.925781 376.101562 152.132812 376.742188 154.5625 C 377.382812 156.992188 377.339844 159.554688 376.609375 161.960938 C 378.167969 161.621094 379.667969 161.046875 381.054688 160.253906 C 381.054688 160.253906 382.175781 154.882812 380.097656 151.425781 C 378.019531 147.964844 373.421875 147.09375 372.96875 148.195312 Z M 372.96875 148.195312 "/>
<use xlink:href="#surface47" mask="url(#mask14)"/>
</g>
</svg>
