<svg width="27" height="26" viewBox="0 0 27 26" fill="none" xmlns="http://www.w3.org/2000/svg">
<path d="M13.4998 18.3337C14.9143 18.3337 16.2709 17.7718 17.2711 16.7716C18.2713 15.7714 18.8332 14.4148 18.8332 13.0003C18.8332 11.5858 18.2713 10.2293 17.2711 9.22909C16.2709 8.2289 14.9143 7.66699 13.4998 7.66699C12.0853 7.66699 10.7288 8.2289 9.7286 9.22909C8.72841 10.2293 8.1665 11.5858 8.1665 13.0003C8.1665 14.4148 8.72841 15.7714 9.7286 16.7716C10.7288 17.7718 12.0853 18.3337 13.4998 18.3337Z" stroke="#D3D3D3" stroke-width="2" stroke-linecap="round" stroke-linejoin="round"/>
<path d="M1.5 18.3333V7.66667C1.5 5.89856 2.20238 4.20286 3.45262 2.95262C4.70286 1.70238 6.39856 1 8.16667 1H18.8333C20.6014 1 22.2971 1.70238 23.5474 2.95262C24.7976 4.20286 25.5 5.89856 25.5 7.66667V18.3333C25.5 20.1014 24.7976 21.7971 23.5474 23.0474C22.2971 24.2976 20.6014 25 18.8333 25H8.16667C6.39856 25 4.70286 24.2976 3.45262 23.0474C2.20238 21.7971 1.5 20.1014 1.5 18.3333Z" stroke="#D3D3D3" stroke-width="2"/>
<path d="M20.8335 5.67971L20.8468 5.66504" stroke="#D3D3D3" stroke-width="2" stroke-linecap="round" stroke-linejoin="round"/>
</svg>
