<?xml version="1.0" encoding="UTF-8"?> <svg xmlns="http://www.w3.org/2000/svg" width="135" height="114" viewBox="0 0 135 114" fill="none"> <path d="M29.919 12.6427C29.919 12.6427 29.8124 12.4757 29.6753 12.1721C29.5382 11.8684 29.3707 11.4433 29.2336 10.9119C29.0965 10.3805 28.9899 9.75806 29.0051 9.05968C29.0051 8.71049 29.0508 8.34608 29.1117 7.98171C29.1727 7.61733 29.2793 7.20743 29.4468 6.82787C29.6905 6.23573 30.0408 5.64362 30.4673 5.0667C30.5525 4.97114 30.6303 4.86813 30.7058 4.76809C30.7381 4.72528 30.7705 4.68249 30.8024 4.64158C30.8422 4.59198 30.8755 4.54236 30.9108 4.497L30.9179 4.48802L30.9316 4.47116L30.9437 4.45701C30.9522 4.4474 30.9609 4.43805 30.9699 4.42904C31.0004 4.39867 31.0308 4.36451 31.0613 4.33033C31.0918 4.29618 31.1222 4.26202 31.1527 4.23165C31.3964 3.95836 31.6401 3.70026 31.899 3.45734C32.3255 3.04744 32.7367 2.66788 33.148 2.33384L33.3088 2.21351L33.3121 2.211C33.6727 1.94106 33.9988 1.69693 34.2903 1.49882C34.9605 1.02817 35.4174 0.754883 35.4174 0.754883C35.4174 0.754883 35.2955 1.66584 35.0823 2.91079C34.9909 3.54846 34.8538 4.26202 34.7015 4.99077C34.5645 5.73471 34.3969 6.50902 34.1989 7.23777C34.0466 7.81472 33.8486 8.36127 33.6506 8.86229C33.0566 10.3805 32.1122 11.2611 31.3507 11.8532C30.9699 12.1417 30.6044 12.3391 30.3455 12.4605C30.2236 12.5213 30.117 12.5668 30.0408 12.5972C29.9647 12.6275 29.919 12.6427 29.919 12.6427Z" fill="black"></path> <path d="M17.8717 21.6157C17.5823 21.1299 17.3082 20.553 17.1102 19.885C17.0188 19.5509 16.9426 19.1866 16.8817 18.807L16.8763 18.7369L16.8704 18.6581C16.8645 18.5755 16.8592 18.4929 16.8557 18.4103C16.8529 18.3451 16.8512 18.28 16.8512 18.2149C16.8512 18.0175 16.8665 17.8201 16.8817 17.6076C16.9731 16.7726 17.232 15.8768 17.5976 15.0114C17.9783 14.1612 18.4505 13.3261 18.9227 12.5974C19.41 11.899 19.8974 11.2917 20.2478 10.8666C20.3037 10.8015 20.3568 10.7407 20.4062 10.6842L20.4081 10.682C20.519 10.5549 20.6113 10.4493 20.6742 10.3656L20.8418 10.1986C20.8418 10.1986 20.8875 10.5174 20.9788 11.0488C21.055 11.5802 21.1616 12.3241 21.2682 13.1591C21.3749 14.0094 21.451 14.9203 21.5272 15.8464C21.6033 16.7726 21.6186 17.6683 21.5272 18.4578C21.451 19.2625 21.2682 19.9457 21.0245 20.5226C20.9027 20.7959 20.7504 21.0692 20.6133 21.2969C20.4762 21.5398 20.3391 21.7524 20.1868 21.9498C19.6081 22.7089 19.0293 23.0884 19.0293 23.0884C19.0293 23.0884 18.4353 22.557 17.8717 21.6157Z" fill="black"></path> <path d="M10.3321 34.2929C9.92084 33.9134 9.49436 33.4124 9.11359 32.8202C8.73281 32.2129 8.44342 31.5145 8.27588 30.6795C8.19972 30.2696 8.15403 29.8293 8.15403 29.3738C8.15403 28.9335 8.19972 28.478 8.26065 28.0074C8.32154 27.537 8.41287 27.0817 8.50422 26.6265C8.5499 26.3836 8.61097 26.1703 8.67188 25.9578C8.73281 25.7452 8.80898 25.5326 8.86989 25.3353C9.00697 24.9405 9.14405 24.561 9.28112 24.2118C9.40297 23.8626 9.52482 23.5589 9.66191 23.316C9.89038 22.815 10.0579 22.5265 10.0579 22.5265C10.0579 22.5265 10.195 22.815 10.4082 23.316C10.4421 23.3931 10.479 23.4748 10.518 23.5611L10.5186 23.5625L10.5203 23.5661L10.5208 23.5674C10.604 23.7514 10.6965 23.956 10.789 24.1814C10.8649 24.3663 10.9501 24.5605 11.0395 24.764L11.0408 24.767L11.0432 24.7724L11.0436 24.7733C11.1144 24.9345 11.1878 25.1016 11.2612 25.2745C11.5963 26.064 11.9466 26.9294 12.2512 27.7948C12.2822 27.8874 12.3106 27.9775 12.3386 28.0662C12.3794 28.1954 12.4192 28.3215 12.4644 28.4477L12.4914 28.5279L12.5219 28.6175C12.5781 28.7827 12.6321 28.9416 12.6777 29.1005C12.7995 29.5256 12.9061 29.9355 12.9823 30.3303C13.0584 30.725 13.0889 31.0894 13.0889 31.4386C13.0889 31.7878 13.0889 32.1218 13.0584 32.4255C12.9823 33.0479 12.83 33.5793 12.6472 34.0196C12.4644 34.4599 12.2817 34.8091 12.1293 35.052C11.977 35.2798 11.8704 35.4164 11.8704 35.4164C11.8704 35.4164 11.1546 35.052 10.3321 34.2929Z" fill="black"></path> <path d="M2.83864 44.3124C2.76248 43.9633 2.68633 43.6141 2.64063 43.2649C2.61894 43.099 2.59723 42.9297 2.57716 42.7602C2.55497 42.5729 2.53478 42.3854 2.51878 42.2021C2.48833 41.6252 2.48833 41.0786 2.50356 40.5624C2.51878 40.0462 2.53401 39.5755 2.59494 39.1808C2.70156 38.3913 2.79294 37.8903 2.79294 37.8903C2.79294 37.8903 3.41742 38.5887 4.2399 39.5755C4.65114 40.0614 5.13853 40.6383 5.61069 41.2456C6.09809 41.8377 6.57025 42.4754 6.99673 43.0979C7.03844 43.1644 7.08474 43.2355 7.13058 43.3062C7.16843 43.3645 7.20598 43.4225 7.24042 43.4774C7.3311 43.613 7.4068 43.7337 7.48239 43.8542L7.48412 43.857C7.63643 44.0999 7.78873 44.3428 7.91058 44.5857C8.29135 45.2993 8.48936 45.9825 8.59598 46.5898C8.71783 47.2123 8.73306 47.7589 8.68737 48.2295C8.65074 48.6068 8.57496 48.9256 8.51496 49.1779C8.5001 49.2404 8.48622 49.2988 8.47413 49.353C8.43636 49.4886 8.40232 49.5943 8.37761 49.6664L8.36337 49.7071L8.3509 49.7417L8.34231 49.7646L8.33706 49.7782C8.33706 49.7782 7.54504 49.6263 6.52456 49.1101C6.0067 48.852 5.47362 48.5028 4.94052 48.0322C4.40744 47.5615 3.92005 46.9694 3.5088 46.2103C3.18896 45.6485 3.00618 44.9957 2.83864 44.3124Z" fill="black"></path> <path d="M11.2159 64.157C11.2159 64.157 11.9927 63.8989 12.9371 63.3372C13.4245 63.0487 13.9423 62.6843 14.4449 62.2441C14.6886 62.0163 14.9323 61.7886 15.1608 61.5153C15.4045 61.2572 15.633 60.9687 15.831 60.6651C16.029 60.3614 16.2117 60.0274 16.364 59.6934C16.4595 59.484 16.537 59.2687 16.6153 59.0512C16.662 58.9216 16.7089 58.7913 16.7601 58.661C17.019 57.9626 17.1865 57.2642 17.3084 56.6417C17.4607 56.0193 17.5521 55.4727 17.613 55.0779C17.6587 54.6832 17.6739 54.4403 17.6739 54.4403L17.6326 54.461L17.553 54.501C17.501 54.5272 17.4332 54.5615 17.3516 54.6031C17.2433 54.6581 17.1107 54.7259 16.9581 54.8046C16.5164 55.0476 15.9071 55.3968 15.2217 55.8219C14.5515 56.2622 13.8052 56.7936 13.1655 57.3705C12.5106 57.9474 11.9166 58.5851 11.4901 59.2379C11.2616 59.5568 11.1246 59.8756 11.0027 60.1944C10.8809 60.5133 10.8047 60.8169 10.7438 61.1054C10.6852 61.383 10.6688 61.6606 10.6541 61.9112L10.6524 61.9404C10.639 62.1669 10.6726 62.3934 10.7016 62.5892L10.7133 62.6692C10.8809 63.5953 11.2159 64.157 11.2159 64.157Z" fill="black"></path> <path d="M5.38202 63.7612C5.06217 63.5942 4.72708 63.412 4.40724 63.1843C4.07215 62.9717 3.78275 62.6984 3.47814 62.3948C3.18874 62.0911 2.91459 61.7419 2.65566 61.3624L2.29011 60.7702C2.16827 60.5729 2.04642 60.3603 1.95503 60.1478C1.55903 59.2975 1.22394 58.4018 0.980243 57.5819C0.751775 56.7621 0.614698 56.0181 0.523308 55.4868C0.431918 54.9554 0.38623 54.6214 0.38623 54.6214C0.38623 54.6214 0.675615 54.7884 1.14778 55.0616C1.60471 55.3653 2.24443 55.7904 2.96029 56.2762C3.08346 56.363 3.20947 56.4514 3.3376 56.5413C4.667 57.4738 6.22474 58.5666 7.22498 59.6468C7.30114 59.7227 7.36205 59.7986 7.42299 59.8745C7.49913 59.9504 7.56006 60.0263 7.62098 60.1022C7.74283 60.2541 7.84945 60.3907 7.95607 60.5425C8.1693 60.831 8.33684 61.1346 8.47393 61.4079C8.62624 61.6964 8.73286 61.9697 8.809 62.2278C8.83767 62.3307 8.86851 62.4292 8.89826 62.5243C8.94751 62.6819 8.99376 62.8297 9.02224 62.9717C9.23548 63.8978 9.14409 64.5507 9.14409 64.5507C9.14409 64.5507 8.33684 64.6114 7.22498 64.3837C6.66142 64.2622 6.03695 64.08 5.38202 63.7612Z" fill="black"></path> <path d="M14.475 74.193C14.5512 74.7851 14.7187 75.2861 14.9015 75.7112C14.9929 75.9238 15.0995 76.106 15.1909 76.2578C15.2522 76.3698 15.3272 76.4613 15.3929 76.5415C15.4078 76.5596 15.4221 76.5772 15.4357 76.5942C15.4517 76.6143 15.4667 76.6337 15.4803 76.6526C15.6478 76.8651 15.7849 76.9714 15.7849 76.9714C15.7849 76.9714 16.4551 76.5311 17.2014 75.7416L17.2156 75.7263C17.3944 75.5332 17.5869 75.3254 17.765 75.0888C17.963 74.8458 18.161 74.5877 18.3437 74.2993C18.7093 73.7375 19.0291 73.1151 19.2424 72.4318C19.2844 72.3165 19.3119 72.1941 19.34 72.0694C19.3526 72.0133 19.3653 71.9569 19.3794 71.9004C19.4073 71.7893 19.4295 71.6781 19.4495 71.567C19.4623 71.4959 19.4742 71.4249 19.4861 71.3539C19.547 70.9895 19.5775 70.6251 19.5927 70.2607L19.5929 70.2516C19.608 69.526 19.6229 68.8157 19.5622 68.1807C19.5468 68.0192 19.5314 67.8655 19.5159 67.7176L19.509 67.6514C19.4963 67.5309 19.4835 67.4142 19.4708 67.3002C19.4556 67.0269 19.4251 66.7992 19.3947 66.6018C19.349 66.207 19.3033 65.9793 19.3033 65.9793C19.3033 65.9793 19.0748 66.1766 18.7093 66.5259C18.3437 66.875 17.8411 67.3609 17.308 67.953C16.7902 68.5451 16.2571 69.2283 15.7849 69.9571C15.5412 70.3215 15.328 70.701 15.13 71.0806C14.9472 71.4449 14.7949 71.8245 14.6883 72.1889C14.5817 72.5533 14.5207 72.9024 14.475 73.2365C14.4598 73.4035 14.4446 73.5705 14.4446 73.7223V73.95C14.4598 74.0412 14.4598 74.1171 14.475 74.193Z" fill="black"></path> <path d="M11.9924 78.2302C11.703 78.2605 11.3984 78.2605 11.0633 78.2454C10.7434 78.2302 10.4083 78.1847 10.058 78.0784C9.3574 77.9417 8.59584 77.6988 7.84952 77.2585C7.65281 77.1379 7.47114 77.0172 7.28956 76.8966L7.28597 76.8942C7.1032 76.7727 6.92042 76.6209 6.75288 76.469C6.40257 76.1654 6.06748 75.8314 5.74763 75.4821C5.58009 75.3152 5.42778 75.133 5.27548 74.9508C5.21456 74.8901 5.16717 74.8293 5.11981 74.7686C5.0961 74.7383 5.0724 74.7079 5.04701 74.6775C5.01648 74.641 4.98595 74.6044 4.9564 74.5679C4.92747 74.5322 4.89948 74.4964 4.87335 74.4607C4.8596 74.4419 4.84636 74.4231 4.83377 74.4042L4.83169 74.4013C4.57346 74.0227 4.3153 73.6441 4.08745 73.2807C3.88129 72.9519 3.69995 72.6355 3.5322 72.3427L3.52943 72.3379L3.52809 72.3354L3.4782 72.2483C3.37353 72.0491 3.28075 71.8559 3.19615 71.6797C3.14533 71.5738 3.09747 71.4741 3.05174 71.3829C2.82327 70.8819 2.70142 70.5783 2.70142 70.5783C2.70142 70.5783 3.02128 70.6845 3.55436 70.8515C4.08745 71.0185 4.80331 71.2614 5.62578 71.5499L5.66666 71.564L5.67193 71.5657L5.68003 71.5685L5.68345 71.5697C6.50598 71.8531 7.41245 72.1656 8.26075 72.5216L8.37632 72.5708L8.46194 72.6072L8.46354 72.6079C8.82552 72.7617 9.19142 72.9171 9.52494 73.0834C9.95141 73.2807 10.3474 73.4781 10.713 73.6755C11.0633 73.888 11.3831 74.1158 11.6573 74.3435L11.6973 74.3789C11.8183 74.486 11.9282 74.5832 12.0381 74.6927C12.1599 74.8293 12.2665 74.9356 12.3731 75.0419C12.8148 75.5125 13.1195 75.968 13.3479 76.3931C13.4546 76.6057 13.5459 76.803 13.6069 76.9852C13.683 77.1674 13.7439 77.3192 13.7896 77.4559C13.881 77.7291 13.8962 77.881 13.8962 77.881C13.8962 77.881 13.1347 78.1543 11.9924 78.2302Z" fill="black"></path> <path d="M23.0197 87.6591C23.3243 88.0083 23.629 88.2664 23.8574 88.4182C24.0859 88.57 24.2382 88.6459 24.2382 88.6459C24.2382 88.6459 24.7561 88.0387 25.2435 87.0821C25.7461 86.1104 26.2487 84.7744 26.2335 83.3472C26.2335 82.8159 26.1878 82.2693 26.0812 81.7531C26.0355 81.495 25.9593 81.2369 25.8832 80.9788C25.8451 80.8573 25.8108 80.7283 25.7765 80.5992C25.7423 80.4702 25.708 80.3411 25.6699 80.2197C25.5328 79.7945 25.3958 79.3846 25.2435 79.0202C25.1978 78.9292 25.1673 78.8381 25.1368 78.747C25.0912 78.6559 25.0759 78.58 25.0302 78.4889C24.9693 78.3219 24.9084 78.1701 24.8475 78.0334C24.6038 77.4717 24.421 77.1376 24.421 77.1376C24.421 77.1376 23.9488 77.836 23.4005 78.914L23.3696 78.9759L23.3183 79.0795C23.2788 79.1597 23.239 79.241 23.1986 79.3237C23.1264 79.4716 23.0522 79.6235 22.974 79.7794C22.9492 79.8288 22.9261 79.8798 22.9035 79.9314L22.8831 79.9783L22.8674 80.0147C22.8557 80.042 22.8439 80.0693 22.8321 80.0964C22.8092 80.1486 22.7858 80.2001 22.7608 80.2501C22.7195 80.3325 22.6871 80.4193 22.654 80.5082C22.6262 80.5828 22.5975 80.6598 22.5628 80.7359C22.3191 81.3887 22.1059 82.1023 21.9536 82.8007C21.8926 83.074 21.8469 83.3321 21.8165 83.5902C21.786 83.8483 21.7708 84.1064 21.7708 84.3493C21.7708 85.1084 21.9231 85.7613 22.1516 86.323C22.3953 86.8696 22.7151 87.3098 23.0197 87.6591Z" fill="black"></path> <path d="M21.7254 88.7369C22.0757 89.0709 22.3041 89.4049 22.4564 89.6327L22.4861 89.6804L22.5006 89.7039C22.5263 89.746 22.5493 89.7846 22.5697 89.8194C22.5864 89.8481 22.6014 89.8741 22.6145 89.8973C22.6614 89.9805 22.6849 90.0274 22.6849 90.0274C22.6849 90.0274 22.03 90.498 20.9486 90.8776C19.8824 91.2571 18.3897 91.5152 16.6839 91.0902C16.364 91.0142 16.0442 90.8928 15.7243 90.7561C15.4049 90.6349 15.0854 90.4681 14.766 90.3014L14.7647 90.3007C14.4449 90.1185 14.125 89.9363 13.8204 89.7389C13.7443 89.6782 13.6681 89.6327 13.592 89.5871C13.5542 89.5571 13.5165 89.5307 13.4788 89.5044L13.4737 89.5008C13.437 89.4751 13.4002 89.4494 13.3635 89.4201L13.3305 89.3948L13.2974 89.3697L13.2421 89.3283C13.14 89.2526 13.0346 89.1769 12.937 89.1013C12.0232 88.3877 11.2007 87.6438 10.6676 87.0364C10.1193 86.4443 9.79942 86.0344 9.79942 86.0344C9.79942 86.0344 10.7438 86.0496 12.0689 86.1255L12.3037 86.139L12.308 86.1392L12.3123 86.1394L12.3169 86.1397C13.5929 86.2133 15.2094 86.3065 16.6382 86.5202C16.9428 86.5658 17.2474 86.6114 17.5368 86.6721C17.8262 86.7176 18.1156 86.7783 18.3897 86.8543C19.2122 87.0668 19.8672 87.3705 20.4003 87.7044C20.9486 88.0385 21.3903 88.3877 21.7254 88.7369Z" fill="black"></path> <path d="M32.1274 94.1124C32.3407 94.826 32.691 95.418 33.0718 95.9039C33.2546 96.1468 33.4678 96.3442 33.6658 96.5112C33.879 96.6782 34.077 96.83 34.275 96.9515C34.671 97.1944 35.0366 97.3614 35.2955 97.4525C35.4174 97.498 35.5392 97.5284 35.6154 97.5436C35.6915 97.5588 35.7372 97.574 35.7372 97.574C35.7372 97.574 35.8134 97.3918 35.92 97.0881C36.0266 96.7845 36.1485 96.3442 36.2398 95.7976C36.4378 94.7348 36.5292 93.3229 36.118 91.9564C35.92 91.2581 35.5849 90.5749 35.2041 89.9524C34.8386 89.3147 34.4121 88.7074 34.0161 88.2064C33.9478 88.1225 33.8812 88.0369 33.8165 87.9525L33.7511 87.8671L33.7483 87.8633C33.7214 87.8282 33.6949 87.7935 33.6687 87.7595C33.5995 87.6695 33.5325 87.5842 33.4678 87.508C33.3002 87.2955 33.1479 87.1132 33.0109 86.9614C32.7519 86.6578 32.5692 86.4908 32.5692 86.4908C32.5692 86.4908 32.4778 86.7793 32.3711 87.2499C32.2493 87.7206 32.1122 88.4038 32.0056 89.1629C31.9447 89.5577 31.899 89.9676 31.8685 90.3926C31.8381 90.8026 31.8381 91.2277 31.8381 91.668C31.8381 92.0931 31.8685 92.5182 31.9142 92.9433C31.9295 93.3533 32.0056 93.7632 32.1274 94.1124Z" fill="black"></path> <path d="M47.5262 97.4057C47.1302 96.7832 46.6123 96.2366 46.0792 95.7052C45.8203 95.4471 45.5309 95.2042 45.2567 94.9765C45.1197 94.8551 44.9826 94.7488 44.8455 94.6577C44.7771 94.6047 44.7125 94.5517 44.6479 94.4987L44.6465 94.4975L44.6123 94.4695L44.5769 94.4405L44.5381 94.409C44.5213 94.3956 44.5045 94.3821 44.4875 94.3686L44.4495 94.3388C43.9316 93.9441 43.4595 93.6253 43.1244 93.4127C42.9781 93.3133 42.8551 93.2313 42.7629 93.1703C42.711 93.1361 42.6689 93.1086 42.6378 93.0883L42.5941 93.0599L42.5761 93.0483C42.5761 93.0483 42.5761 93.352 42.5913 93.8378C42.6065 94.3388 42.6522 95.0069 42.7589 95.7812C42.8655 96.5403 43.033 97.4057 43.2767 98.2407C43.5356 99.0454 43.8707 99.8349 44.2819 100.488C44.3488 100.61 44.432 100.724 44.5136 100.836C44.5435 100.877 44.5732 100.918 44.6018 100.958C44.6475 101.034 44.7084 101.095 44.7693 101.171C44.7999 101.201 44.8266 101.232 44.8533 101.262C44.8799 101.292 44.9065 101.323 44.9369 101.353C45.1806 101.596 45.4243 101.793 45.6832 101.976C45.9269 102.158 46.1858 102.294 46.4295 102.416C46.6732 102.537 46.9169 102.644 47.1454 102.704C48.0593 102.962 48.7142 102.917 48.7142 102.917C48.7142 102.917 48.8208 102.143 48.7142 101.08C48.6533 100.548 48.5619 99.9411 48.3639 99.3187C48.3182 99.1669 48.2573 98.9998 48.1963 98.848C48.1354 98.681 48.0745 98.5292 48.0136 98.3622C47.8765 98.0282 47.7242 97.7093 47.5262 97.4057Z" fill="black"></path> <path d="M44.9523 104.04C44.6325 104.04 44.2821 104.056 43.9166 104.101L43.6424 104.147C43.5511 104.162 43.4597 104.177 43.353 104.192C43.1703 104.223 42.9723 104.268 42.7743 104.329C41.967 104.541 41.0989 104.891 40.2154 105.301C39.3625 105.68 38.4943 106.105 37.7176 106.5C37.1807 106.773 36.6875 107.038 36.273 107.262L36.2642 107.266L36.2622 107.267C36.0813 107.365 35.9155 107.454 35.768 107.532C35.2806 107.79 34.9912 107.957 34.9912 107.957L35.2197 108.049C35.2841 108.068 35.3596 108.095 35.4447 108.126C35.5607 108.169 35.6949 108.217 35.8441 108.261C36.3925 108.413 37.154 108.61 38.0222 108.792C38.2354 108.838 38.4639 108.884 38.6923 108.914C38.8049 108.929 38.9211 108.944 39.0373 108.959C39.1572 108.974 39.277 108.99 39.393 109.005C39.8651 109.051 40.3525 109.096 40.8399 109.111C41.7995 109.157 42.7895 109.035 43.6272 108.808C45.3026 108.352 46.445 107.32 47.1456 106.47C47.8614 105.604 48.1508 104.891 48.1508 104.891C48.1508 104.891 47.5721 104.526 46.6277 104.299C46.1708 104.162 45.6073 104.04 44.9523 104.04Z" fill="black"></path> <path d="M34.3996 99.0972C34.4667 99.1538 34.5196 99.1984 34.5643 99.243C34.61 99.2885 34.6862 99.3188 34.6862 99.3188L34.6767 99.3304C34.6706 99.3378 34.6614 99.3488 34.6492 99.363C34.639 99.3748 34.6268 99.3889 34.6124 99.4053L34.5886 99.4321C34.5277 99.5001 34.4384 99.5962 34.3206 99.7136C34.0922 99.9565 33.7266 100.275 33.2697 100.594C32.3406 101.232 30.985 101.9 29.2182 101.945C28.3501 101.945 27.4058 101.778 26.4614 101.52C26.3396 101.475 26.233 101.444 26.1111 101.414C26.0045 101.384 25.8826 101.338 25.776 101.293C25.6618 101.247 25.5514 101.205 25.4409 101.164C25.3305 101.122 25.2201 101.08 25.1059 101.035C24.6776 100.873 24.2637 100.682 23.8779 100.505L23.8417 100.488C23.6437 100.382 23.4457 100.291 23.2629 100.199C23.0801 100.108 22.8974 100.002 22.745 99.911C22.41 99.7288 22.1206 99.5618 21.8921 99.41C21.4047 99.1215 21.1305 98.9241 21.1305 98.9241C21.1305 98.9241 21.4504 98.8482 21.9987 98.7116C22.5318 98.5749 23.2934 98.4079 24.1463 98.2258C24.2986 98.1932 24.4548 98.1606 24.6135 98.1281C24.8992 98.0696 25.1929 98.011 25.4866 97.9525C25.9436 97.8613 26.431 97.7702 26.9031 97.6944C27.3753 97.6184 27.8474 97.5577 28.3044 97.5122C28.7613 97.4666 29.1878 97.4514 29.6143 97.4363C30.452 97.4211 31.183 97.5273 31.7923 97.7095C31.9076 97.7519 32.0253 97.7918 32.1417 97.8313C32.3172 97.8908 32.4895 97.9492 32.6452 98.0131C32.9194 98.1195 33.1479 98.2409 33.3611 98.3624C33.7876 98.5901 34.1074 98.8482 34.3206 99.0304L34.3394 99.0464L34.3996 99.0972Z" fill="black"></path> <path d="M15.8764 47.851C15.983 47.76 16.0744 47.6689 16.1658 47.5778L16.4552 47.2893C16.6532 47.0919 16.8359 46.8794 17.0035 46.6668C17.1222 46.5162 17.2333 46.358 17.3421 46.203C17.3869 46.1392 17.4313 46.076 17.4757 46.014C17.5154 45.9507 17.5551 45.8895 17.5945 45.8298C17.6419 45.7579 17.689 45.6882 17.7352 45.6198L17.7375 45.6165L17.7795 45.554C17.8011 45.5221 17.8224 45.4904 17.8434 45.4587L17.8848 45.3961L17.9174 45.3459C18.1611 44.9664 18.3743 44.5868 18.5571 44.2377C18.6049 44.1422 18.6528 44.0509 18.6985 43.9638L18.7014 43.9583L18.7036 43.9541L18.7131 43.9361L18.7426 43.8796L18.7676 43.8314C18.7843 43.7992 18.8005 43.7676 18.816 43.7366C18.8922 43.5696 18.9683 43.433 19.0445 43.2963C19.3186 42.7498 19.4557 42.4006 19.4557 42.4006C19.4557 42.4006 18.6028 42.5372 17.3995 42.856C17.1101 42.932 16.775 43.0231 16.4552 43.1293C16.1353 43.2356 15.8002 43.3571 15.4499 43.4937C14.7645 43.7518 14.0791 44.0706 13.4394 44.435C12.9368 44.7083 12.5103 45.0272 12.1296 45.3459C11.5508 45.847 11.1243 46.3935 10.8502 46.9401C10.5912 47.4715 10.4541 48.0029 10.3932 48.4432C10.3323 48.8986 10.3171 49.2782 10.3627 49.5515C10.3932 49.8248 10.4389 49.9766 10.4389 49.9766C10.4389 49.9766 11.2462 49.9311 12.3123 49.6426C13.3937 49.3389 14.7798 48.8075 15.8764 47.851Z" fill="black"></path> <path d="M20.6436 35.0365C20.9634 34.8391 21.2833 34.6114 21.5879 34.3837C21.8773 34.1559 22.1515 33.913 22.4256 33.6701C22.4577 33.64 22.49 33.6101 22.5225 33.5804C22.5576 33.5483 22.5928 33.5165 22.628 33.4848L22.6616 33.4547L22.7506 33.3752C22.9036 33.2387 23.0533 33.1052 23.1872 32.9717C23.4157 32.7439 23.6289 32.5162 23.8117 32.3189C23.8554 32.2679 23.8992 32.2205 23.9413 32.1748L23.9424 32.1736C23.9878 32.1244 24.0312 32.0774 24.0706 32.0304C24.1467 31.9393 24.2229 31.8634 24.299 31.7875C24.5732 31.4838 24.7255 31.3016 24.7255 31.3016C24.7255 31.3016 24.4209 31.2713 23.903 31.2257L23.8385 31.2219L23.8369 31.2217C23.325 31.1916 22.6355 31.1511 21.8621 31.1801C21.0701 31.2105 20.1562 31.2864 19.2728 31.4231C19.1586 31.4458 19.0481 31.4648 18.9377 31.4838C18.8273 31.5028 18.7169 31.5218 18.6026 31.5445C18.3894 31.5901 18.1762 31.6508 17.9782 31.7115C17.5669 31.833 17.1709 31.9696 16.8206 32.1367C16.4703 32.3037 16.1504 32.4858 15.861 32.6832C15.5716 32.8806 15.3432 33.1083 15.13 33.3209C14.7187 33.7612 14.4293 34.2318 14.2313 34.6418C14.0333 35.0517 13.9572 35.4312 13.9115 35.6893C13.8658 35.9626 13.8505 36.1145 13.8505 36.1145C13.8505 36.1145 14.6426 36.2966 15.7544 36.2966C16.318 36.2966 16.9577 36.2663 17.6278 36.1448C18.3132 36.0385 19.0139 35.8412 19.6993 35.5375C20.0039 35.4312 20.3237 35.249 20.6436 35.0365Z" fill="black"></path> <path d="M27.6038 24.9859C27.7866 24.9252 27.9542 24.8644 28.1369 24.7885C28.2283 24.7582 28.3045 24.7278 28.3959 24.6822C28.4872 24.6519 28.5786 24.6063 28.67 24.576C29.3859 24.2875 30.0256 23.9383 30.5891 23.6195C31.1679 23.3158 31.6553 23.0122 31.9904 22.7844C32.1579 22.663 32.295 22.5719 32.3864 22.5112C32.4255 22.4852 32.459 22.4647 32.4846 22.4499C32.5188 22.43 32.5387 22.4201 32.5387 22.4201C32.5387 22.4201 32.5158 22.4109 32.4726 22.3952C32.4369 22.3822 32.3874 22.3647 32.3255 22.3442C32.2665 22.3246 32.1962 22.2993 32.1171 22.2709L32.114 22.2698C32.0719 22.2547 32.0274 22.2387 31.9807 22.2221C31.9385 22.2072 31.8947 22.1919 31.8494 22.1763C31.8208 22.1665 31.7916 22.1567 31.7619 22.1468C31.2898 21.995 30.6044 21.7824 29.8123 21.6002C29.4163 21.5091 29.0051 21.418 28.5634 21.3421C28.4568 21.3269 28.3464 21.308 28.2359 21.289C28.1255 21.27 28.0151 21.251 27.9085 21.2358C27.8357 21.2255 27.7611 21.2169 27.686 21.2094C27.6465 21.2055 27.6068 21.2019 27.5671 21.1986C27.5099 21.1937 27.4527 21.1894 27.3961 21.1852L27.2535 21.1751C26.3701 21.0992 25.4715 21.0992 24.6795 21.2358C23.9027 21.3725 23.263 21.6458 22.7299 21.9494C22.4557 22.1012 22.2273 22.2683 22.014 22.4504C21.816 22.6326 21.6485 22.8148 21.4962 22.997C20.9022 23.7106 20.6889 24.3179 20.6889 24.3179C20.6889 24.3179 21.4048 24.6974 22.4862 25.0011C23.0193 25.1529 23.659 25.2895 24.3444 25.3503C25.0298 25.411 25.7304 25.3958 26.492 25.2895C26.8728 25.1984 27.2535 25.1074 27.6038 24.9859Z" fill="black"></path> <path d="M39.7734 16.4989C40.2303 16.4078 40.6568 16.3015 41.0528 16.1952C41.4488 16.1042 41.8143 16.0131 42.119 15.922C42.713 15.7398 43.0937 15.6031 43.0937 15.6031C43.0937 15.6031 42.4083 15.0869 41.3574 14.4645C40.8395 14.1456 40.2151 13.8116 39.5449 13.4928C38.89 13.1891 38.1893 12.9158 37.4735 12.7033C36.9404 12.5363 36.4073 12.4148 35.8894 12.3541C34.3359 12.2175 33.1022 12.6578 32.3254 13.2043C31.9294 13.4624 31.64 13.7357 31.4572 13.9179C31.4146 13.9604 31.3753 14.0028 31.3409 14.0422C31.3015 14.0873 31.2684 14.1284 31.244 14.1608C31.1983 14.2215 31.183 14.2519 31.183 14.2519C31.183 14.2519 31.3201 14.3885 31.5791 14.6011C31.838 14.8136 32.2188 15.0869 32.7062 15.3754C33.1783 15.6639 33.7571 15.9675 34.3816 16.2104C34.7014 16.3319 35.0365 16.4382 35.3868 16.5141C35.7372 16.6052 36.0875 16.6659 36.4682 16.7114C37.5649 16.8481 38.7072 16.6811 39.7734 16.4989Z" fill="black"></path> <path d="M58.8888 105.377L50.9352 104.332C50.6569 104.271 50.3728 104.209 50.0856 104.148C49.9724 104.121 49.8573 104.096 49.7417 104.071C49.5305 104.025 49.3175 103.979 49.1108 103.92C48.791 103.829 48.4559 103.738 48.1208 103.647C47.9549 103.601 47.7871 103.556 47.6182 103.51C47.1206 103.376 46.6146 103.24 46.1255 103.07C43.4601 102.281 40.9013 101.172 39.0278 100.292C38.7876 100.172 38.5516 100.056 38.3286 99.9472C38.1275 99.8488 37.937 99.7555 37.7637 99.6691C37.6645 99.6235 37.5729 99.5778 37.4851 99.5341C37.3978 99.4905 37.3142 99.4489 37.2306 99.411C37.1156 99.3589 37.015 99.2997 36.9189 99.2432L36.9154 99.2411C36.8727 99.2159 36.8308 99.1913 36.7889 99.1681C36.2558 98.8796 35.9664 98.7126 35.9664 98.7126C35.9664 98.7126 35.6618 98.5456 35.1287 98.2572C34.8661 98.1032 34.5487 97.9063 34.1843 97.6803L34.1831 97.6796C33.8293 97.46 33.4313 97.2131 32.9964 96.9515C31.2752 95.8128 29.0058 94.2338 26.9496 92.4271C24.8782 90.6356 22.9743 88.6619 21.634 87.1284C21.5101 87.005 21.4072 86.8745 21.3064 86.7466L21.3056 86.7455C21.2579 86.685 21.2106 86.6251 21.1618 86.5667C21.0095 86.3845 20.8724 86.2175 20.7506 86.0505C20.6036 85.8695 20.4664 85.7031 20.339 85.5487C20.2421 85.4312 20.1508 85.3205 20.0652 85.2155C19.9247 85.054 19.8226 84.9077 19.7425 84.793C19.7218 84.7633 19.7026 84.7359 19.6845 84.7107C19.674 84.6959 19.6638 84.6819 19.6539 84.6689C19.6103 84.6037 19.5736 84.5558 19.5472 84.5235C19.5183 84.4882 19.5016 84.4715 19.5016 84.4715C19.5016 84.4715 19.4785 84.4396 19.4341 84.3788C19.4083 84.3436 19.3754 84.2986 19.3357 84.2445C19.2435 84.119 19.1145 83.9442 18.9533 83.7276C18.8863 83.6305 18.8096 83.5284 18.727 83.4187C18.603 83.254 18.4659 83.0718 18.3288 82.8622C18.1119 82.5307 17.8676 82.1717 17.5957 81.7724L17.5521 81.7083C17.415 81.4958 17.2627 81.2832 17.1103 81.0554C16.9899 80.8754 16.879 80.6858 16.7626 80.4867C16.7319 80.4343 16.7004 80.3804 16.6687 80.3267C16.5553 80.1402 16.4419 79.9496 16.327 79.7563C16.1331 79.4301 15.9347 79.0966 15.7243 78.7629C15.5524 78.4293 15.3698 78.0901 15.1859 77.7489C15.0603 77.5157 14.9341 77.2815 14.8105 77.0473C14.7343 76.8955 14.6582 76.7589 14.5668 76.607C14.5606 76.5948 14.5546 76.5825 14.5486 76.5703C14.5414 76.5554 14.5343 76.5406 14.5273 76.5258L14.5076 76.4835C14.4915 76.4486 14.4757 76.4137 14.4599 76.3788C14.4257 76.3031 14.3915 76.2273 14.3535 76.1515C14.2849 75.9996 14.2125 75.8476 14.1401 75.6957C14.0678 75.544 13.9955 75.3923 13.9271 75.2406C12.8 72.7962 11.8556 70.2608 11.3225 68.3174C11.3073 68.2686 11.2926 68.2204 11.2783 68.1728L11.2562 68.0988L11.2337 68.0226C11.1934 67.8862 11.1539 67.7523 11.1093 67.619C11.0988 67.5822 11.0878 67.5455 11.0766 67.5088L11.0577 67.4467C11.0105 67.2925 10.964 67.1405 10.9418 66.9966C10.904 66.8333 10.8662 66.6778 10.8305 66.5312C10.78 66.3233 10.7338 66.1333 10.6981 65.9642L10.4848 65.0684C10.4848 65.0684 10.4696 64.9925 10.4239 64.8406C10.3934 64.6888 10.3478 64.4611 10.3021 64.1726C10.2411 63.8841 10.1802 63.5349 10.1193 63.1402C10.1036 63.0591 10.0867 62.9754 10.0692 62.8892C10.0019 62.5565 9.92709 62.1867 9.89083 61.789C9.85166 61.467 9.80622 61.1325 9.75853 60.7814C9.73201 60.5861 9.7048 60.3858 9.67759 60.1796C9.67301 60.1387 9.66708 60.0963 9.6606 60.0534C9.65628 60.0248 9.65171 59.9959 9.64713 59.967C9.63571 59.8949 9.62429 59.8228 9.61667 59.7545C9.60143 59.6027 9.5862 59.4661 9.57097 59.299C9.55708 59.0222 9.53054 58.7452 9.50288 58.4568L9.49482 58.3729C9.38255 57.3533 9.36222 56.2625 9.34181 55.1671C9.33731 54.9249 9.33279 54.6826 9.32727 54.4407C9.3396 54.0803 9.34861 53.72 9.35757 53.3611C9.38184 52.3894 9.40585 51.4287 9.49482 50.5084C9.51005 50.2048 9.54051 49.886 9.57097 49.5823C9.57594 49.5328 9.57929 49.4833 9.58259 49.4344C9.5847 49.4032 9.58679 49.3724 9.58927 49.3418C9.59486 49.2729 9.60244 49.2058 9.61667 49.142C9.62429 49.0661 9.63571 48.994 9.64713 48.9219C9.65855 48.8497 9.66997 48.7776 9.67759 48.7017C9.75375 48.14 9.8299 47.5934 9.89083 47.0924C9.94054 46.6835 10.0106 46.3151 10.076 45.9706L10.0936 45.878C10.1023 45.832 10.1109 45.7864 10.1193 45.7411C10.1954 45.3464 10.2564 44.9972 10.3021 44.7087C10.3394 44.5317 10.3654 44.3776 10.3868 44.2499C10.4004 44.1694 10.4121 44.0994 10.4239 44.0407C10.4696 43.8889 10.4848 43.7978 10.4848 43.7978C10.4848 43.7978 10.561 43.4789 10.6981 42.9021C10.7338 42.733 10.7799 42.5431 10.8304 42.3353C10.8661 42.1888 10.904 42.0328 10.9418 41.8696C10.9875 41.6723 11.0484 41.4597 11.1093 41.2471C11.1556 41.0742 11.2106 40.9013 11.2678 40.7216C11.2859 40.6648 11.3042 40.6072 11.3225 40.5488C11.8556 38.6054 12.8 36.0851 13.9271 33.6256C14.0794 33.3219 14.2164 33.0183 14.3535 32.7146C14.3916 32.6387 14.4259 32.5628 14.4601 32.4869C14.4944 32.4109 14.5287 32.335 14.5668 32.2591L14.5857 32.2218C14.5963 32.2009 14.6069 32.1804 14.6176 32.16C14.6775 32.046 14.7394 31.937 14.8105 31.8189C15.1303 31.2267 15.4349 30.6498 15.7243 30.1033C16.0442 29.5567 16.364 29.0253 16.6687 28.5395C16.733 28.4369 16.7945 28.3317 16.8557 28.2271C16.9394 28.084 17.0224 27.9423 17.1103 27.8107C17.1723 27.7182 17.2342 27.6281 17.2951 27.5395C17.384 27.4102 17.4707 27.284 17.5521 27.1579C17.6328 27.0326 17.7136 26.9112 17.7933 26.7935C17.8628 26.6906 17.9315 26.5905 17.9985 26.4928L18.0022 26.4874C18.0358 26.4384 18.0689 26.3901 18.1015 26.3424C18.1292 26.3018 18.1566 26.2616 18.1835 26.2218C18.2336 26.1479 18.2822 26.0753 18.3288 26.004C18.4659 25.7944 18.603 25.6122 18.727 25.4475C18.8096 25.3378 18.8863 25.2357 18.9533 25.1386C19.3036 24.6528 19.5016 24.3947 19.5016 24.3947C19.5016 24.3947 19.5626 24.3188 19.6539 24.1973C19.6805 24.162 19.7109 24.1203 19.7451 24.0734C19.8067 23.989 19.8807 23.8875 19.9671 23.7754C19.9982 23.7351 20.0309 23.6934 20.0652 23.6507C20.1599 23.5327 20.271 23.3984 20.392 23.2519L20.3937 23.2499C20.4542 23.1769 20.5171 23.1008 20.5817 23.0222C20.6369 22.9551 20.6934 22.8861 20.7506 22.8157C20.8255 22.7245 20.9003 22.6332 20.9752 22.5395C21.0374 22.4617 21.0996 22.3821 21.1618 22.2995C21.3141 22.1173 21.4664 21.9351 21.634 21.7377C22.9743 20.2043 24.8782 18.2306 26.9496 16.4391C29.021 14.6324 31.2752 13.0534 32.9964 11.9147C33.4318 11.6528 33.8302 11.4056 34.1843 11.1859C34.5487 10.9599 34.8661 10.763 35.1287 10.609C35.3601 10.4838 35.5485 10.3814 35.6876 10.3057C35.8689 10.207 35.9664 10.1536 35.9664 10.1536C35.9664 10.1536 36.271 9.98654 36.7889 9.69806C36.926 9.62216 37.063 9.54623 37.2306 9.45515C37.2889 9.42876 37.3472 9.40052 37.4067 9.37107L37.4856 9.33184C37.5732 9.28819 37.6646 9.2426 37.7637 9.19704C37.8032 9.17735 37.8443 9.15766 37.8865 9.13745C37.9744 9.09536 38.067 9.05099 38.1597 8.99968H38.1901C38.5252 9.03006 38.9974 9.04521 39.5609 9.01487C40.6881 8.96931 42.1502 8.72639 43.4296 8.02802C44.0998 7.69398 44.7243 7.22333 45.2726 6.72232C45.402 6.59329 45.5391 6.46808 45.6761 6.34287L45.6771 6.34192C45.8139 6.21694 45.9507 6.09195 46.0798 5.96319C46.3388 5.72028 46.5672 5.46217 46.7805 5.21926C46.9135 5.06214 47.0433 4.91138 47.1663 4.76844C47.4235 4.46978 47.6514 4.20506 47.8162 3.98948C47.934 3.83529 48.027 3.7095 48.0915 3.62069C48.1604 3.52591 48.197 3.47328 48.197 3.47328C48.197 3.47328 47.8923 3.45809 47.3745 3.45809C46.8566 3.45809 46.1407 3.47328 45.3335 3.53399L45.1932 3.54476C45.1488 3.54826 45.1037 3.55192 45.0583 3.55588C44.9436 3.56592 44.8263 3.57802 44.709 3.59474L44.0693 3.68582C43.6429 3.74657 43.2012 3.83765 42.7747 3.92874C41.9065 4.14131 41.0384 4.39939 40.3682 4.77895C39.6828 5.14335 39.1497 5.59882 38.7537 6.05428C38.3729 6.52496 38.1292 6.9956 37.9464 7.43588C37.7789 7.861 37.7027 8.24056 37.6723 8.49866C37.657 8.54419 37.657 8.60494 37.657 8.65049C37.6342 8.66565 37.6076 8.67703 37.5809 8.6884C37.5663 8.69464 37.5517 8.70087 37.5377 8.70774C37.5262 8.71343 37.5151 8.71952 37.5048 8.72639L37.5027 8.72743C37.3206 8.81817 37.1386 8.90889 36.9717 8.9845C36.8069 9.07408 36.6716 9.14897 36.5368 9.2236L36.53 9.22741C35.9969 9.51589 35.6923 9.69806 35.6923 9.69806C35.6923 9.69806 35.3876 9.86508 34.8545 10.1536C34.5473 10.3337 34.1595 10.5727 33.7073 10.8515C33.3974 11.0425 33.0571 11.2522 32.6917 11.4744C30.9554 12.6131 28.6707 14.2224 26.5841 16.0443C24.4974 17.8662 22.5783 19.8399 21.2075 21.4037C21.0834 21.5275 20.9803 21.6582 20.8792 21.7865C20.8315 21.847 20.7842 21.907 20.7353 21.9655C20.6851 22.0256 20.6364 22.0841 20.5889 22.1415C20.5536 22.1842 20.5188 22.2263 20.4844 22.2681L20.3089 22.4817C20.0677 22.7621 19.8619 23.0191 19.6915 23.2319L19.6235 23.3167C19.5105 23.4466 19.4223 23.5667 19.3476 23.6684C19.2914 23.7449 19.2428 23.8111 19.197 23.8633C19.1056 23.9847 19.0447 24.0607 19.0447 24.0607C19.0447 24.0607 18.8467 24.3339 18.4812 24.8198C18.2984 25.0627 18.0851 25.3511 17.8414 25.7004C17.613 26.0495 17.354 26.4443 17.0647 26.8694C16.9704 27.001 16.8819 27.1385 16.792 27.2782L16.7911 27.2795C16.7361 27.3649 16.6806 27.4512 16.623 27.5374C16.5743 27.6102 16.5271 27.6862 16.4806 27.7637L16.4485 27.8174C16.4218 27.8625 16.3951 27.908 16.3684 27.9537C16.3072 28.0582 16.2456 28.1636 16.1812 28.2662C15.8766 28.7672 15.5568 29.2986 15.2369 29.8452C14.9323 30.4069 14.6277 30.9838 14.3078 31.5911L14.3074 31.592C14.2314 31.7435 14.1554 31.895 14.0641 32.0314C13.988 32.1832 13.9271 32.3351 13.8509 32.4869C13.8139 32.5606 13.7778 32.6352 13.7422 32.7103C13.7045 32.7897 13.6674 32.8696 13.6303 32.9496C13.5578 33.1053 13.4854 33.2611 13.4092 33.413C12.2669 35.8878 11.3073 38.4384 10.7742 40.397C10.7427 40.4974 10.7138 40.5953 10.6854 40.6917C10.6451 40.8282 10.6056 40.9618 10.561 41.0953C10.5001 41.3231 10.4239 41.5204 10.3782 41.733C10.3445 41.8786 10.3108 42.0202 10.2786 42.1553L10.2782 42.1567C10.2233 42.3872 10.1729 42.5989 10.1345 42.7806C9.99745 43.3575 9.90606 43.6915 9.90606 43.6915C9.90606 43.6915 9.90204 43.7155 9.89197 43.7594C9.88241 43.801 9.86738 43.8606 9.84514 43.9345C9.81621 44.0305 9.79339 44.1571 9.76508 44.3141C9.74873 44.4048 9.73034 44.5066 9.70805 44.6177C9.67512 44.8256 9.62637 45.0729 9.57321 45.3426L9.57277 45.3448C9.55231 45.4486 9.53117 45.5557 9.51005 45.6653L9.47596 45.8473C9.40792 46.2088 9.33363 46.6036 9.28159 47.0316C9.23945 47.3781 9.19004 47.7464 9.13839 48.1313L9.08903 48.5002L9.06835 48.6562C9.06074 48.7321 9.04931 48.8042 9.03788 48.8764L9.03317 48.9062C9.02338 48.9685 9.014 49.031 9.00743 49.0965L8.96173 49.5519C8.95349 49.7164 8.94077 49.8808 8.926 50.0501C8.91774 50.1448 8.90885 50.241 8.89973 50.3395L8.88558 50.4932C8.78236 51.442 8.75688 52.4426 8.73107 53.4558C8.72261 53.788 8.71408 54.1224 8.7028 54.4559C8.71408 54.7894 8.72257 55.1229 8.73102 55.455C8.75683 56.4683 8.78236 57.4697 8.88558 58.4185C8.89153 58.4807 8.8969 58.5424 8.90191 58.6036C8.90924 58.6931 8.91581 58.7817 8.92235 58.8696C8.93422 59.0293 8.94592 59.187 8.96173 59.3446C8.9667 59.3941 8.97004 59.4436 8.97335 59.4925C8.98019 59.5937 8.98689 59.6928 9.00743 59.7849C9.01569 59.8672 9.02841 59.9494 9.04075 60.0292C9.04685 60.0687 9.05286 60.1075 9.0582 60.1455C9.062 60.1725 9.06545 60.1992 9.06835 60.2252C9.09182 60.4029 9.11528 60.5778 9.13829 60.7494C9.18998 61.1346 9.23944 61.5031 9.28159 61.8497C9.31769 62.1466 9.36983 62.4275 9.41901 62.6924C9.45282 62.8745 9.48522 63.0491 9.51005 63.2161C9.52605 63.3022 9.54136 63.3856 9.55616 63.4663L9.56869 63.5348C9.61908 63.8101 9.66357 64.0531 9.70805 64.2637C9.7336 64.3847 9.75379 64.495 9.77203 64.5947L9.77237 64.5966L9.77259 64.5978C9.79755 64.7343 9.81881 64.8507 9.84514 64.9469C9.8756 65.0987 9.90606 65.1898 9.90606 65.1898C9.90606 65.1898 9.98222 65.5238 10.1345 66.1008C10.1663 66.2511 10.2063 66.418 10.2503 66.6013C10.2906 66.7695 10.3345 66.9524 10.3782 67.1484C10.3988 67.215 10.4211 67.2834 10.444 67.3535C10.4888 67.491 10.5359 67.6352 10.5762 67.786C10.6223 67.9581 10.677 68.1302 10.7338 68.309L10.7346 68.3112C10.7527 68.3682 10.7711 68.4259 10.7895 68.4844C11.3225 70.443 12.2669 72.9936 13.4244 75.4683C13.5615 75.772 13.7138 76.0908 13.8661 76.3945C13.8849 76.4319 13.9028 76.4693 13.9201 76.5067C13.938 76.5452 13.9554 76.5837 13.9728 76.6222C13.9991 76.6806 14.0254 76.7389 14.0535 76.7972C14.0619 76.8148 14.0706 76.8324 14.0794 76.8499C14.1555 77.0018 14.2469 77.1536 14.3231 77.2902C14.6429 77.8823 14.9475 78.4593 15.2522 79.0362C15.572 79.5828 15.8919 80.1141 16.1965 80.6152C16.3488 80.8581 16.4859 81.1162 16.6382 81.3439C16.7905 81.5716 16.9428 81.7994 17.0799 82.012C17.3693 82.4371 17.6282 82.8318 17.8567 83.181C18.0851 83.5302 18.3136 83.8186 18.4964 84.0616C18.8619 84.5475 19.0599 84.8207 19.0599 84.8207C19.0599 84.8207 19.0847 84.8516 19.1264 84.9055C19.1416 84.9251 19.159 84.9479 19.1783 84.9732C19.1891 84.9874 19.2004 85.0023 19.2122 85.0181C19.2258 85.0362 19.2404 85.0559 19.2561 85.0771L19.2754 85.1034C19.3634 85.2231 19.4819 85.3844 19.6387 85.5647C19.7336 85.6829 19.8449 85.8175 19.9662 85.9641C20.0786 86.1 20.1996 86.2463 20.3241 86.3997L20.3309 86.408C20.4191 86.5154 20.5073 86.6229 20.5998 86.7346C20.6487 86.7936 20.6987 86.8539 20.7506 86.9159C20.799 86.9739 20.8459 87.0333 20.8932 87.0933L20.895 87.0957C20.9959 87.2236 21.0988 87.3541 21.2227 87.4776C22.5783 89.0414 24.4974 91.0152 26.5993 92.8371C28.686 94.6589 30.9706 96.2531 32.707 97.4069C33.0557 97.619 33.3791 97.8197 33.6756 98.0036L33.6784 98.0053C34.1448 98.2946 34.5442 98.5423 34.8698 98.7278C35.1307 98.869 35.3369 98.9811 35.4794 99.0588C35.6281 99.1397 35.7075 99.1833 35.7075 99.1833C35.7075 99.1833 36.0121 99.3503 36.5452 99.6539C36.5931 99.6805 36.6429 99.707 36.6938 99.7342C36.7887 99.7848 36.8878 99.8376 36.9869 99.8968C37.0556 99.928 37.1268 99.9616 37.1996 99.9968C37.3023 100.047 37.408 100.099 37.5137 100.152L37.52 100.155C37.9007 100.337 38.3272 100.55 38.7994 100.793C40.7033 101.673 43.2773 102.782 45.9732 103.586C46.5093 103.768 47.0455 103.912 47.5816 104.055L47.6151 104.064C47.738 104.097 47.8609 104.13 47.9837 104.163C48.1114 104.198 48.239 104.233 48.3658 104.267C48.5719 104.324 48.7757 104.38 48.9737 104.436C49.1804 104.495 49.3935 104.541 49.6046 104.587C49.7203 104.612 49.8353 104.637 49.9485 104.664L50.0999 104.697L50.0852 104.709C50.0852 104.709 57.4418 106.577 59.102 113.333L58.8888 105.377Z" fill="black"></path> <path d="M104.935 12.6427C104.935 12.6427 105.042 12.4757 105.179 12.1721C105.316 11.8684 105.484 11.4433 105.605 10.9271C105.742 10.3957 105.849 9.77324 105.834 9.07486C105.834 8.72564 105.803 8.36127 105.727 7.98171C105.651 7.61733 105.56 7.20743 105.392 6.82787C105.148 6.23573 104.798 5.64362 104.372 5.0667C104.318 4.9984 104.265 4.92628 104.212 4.85416C104.158 4.78204 104.105 4.70992 104.052 4.64158C104.006 4.56568 103.945 4.48975 103.884 4.42904C103.854 4.39887 103.824 4.36495 103.793 4.33102L103.793 4.33024C103.762 4.29612 103.732 4.26199 103.701 4.23165C103.458 3.95836 103.214 3.70026 102.955 3.45734C102.529 3.04744 102.117 2.66788 101.706 2.33384L101.545 2.21345C101.183 1.94247 100.856 1.69754 100.564 1.49882C99.8937 1.02817 99.4368 0.754883 99.4368 0.754883C99.4368 0.754883 99.5586 1.66584 99.7719 2.91079C99.8785 3.54846 100 4.26202 100.153 4.99077C100.29 5.7499 100.457 6.52421 100.655 7.23777C100.808 7.81472 101.006 8.36127 101.204 8.86229C101.798 10.3805 102.742 11.2611 103.503 11.8532C103.884 12.1417 104.25 12.3391 104.509 12.4605C104.631 12.5213 104.737 12.5668 104.813 12.5972C104.89 12.6275 104.935 12.6427 104.935 12.6427Z" fill="black"></path> <path d="M116.983 21.6157C117.272 21.1299 117.547 20.553 117.745 19.885C117.836 19.5509 117.912 19.1866 117.988 18.807C118.003 18.6096 118.019 18.4122 118.019 18.2149C118.019 18.0175 118.019 17.8201 117.988 17.6076C117.897 16.7726 117.638 15.8768 117.272 15.0114C116.876 14.1612 116.404 13.3261 115.932 12.5974C115.429 11.899 114.957 11.2917 114.607 10.8666C114.424 10.654 114.272 10.487 114.18 10.3656L114.013 10.1986C114.013 10.1986 114.008 10.2238 114 10.2718C113.991 10.3186 113.979 10.3871 113.964 10.4751C113.941 10.6181 113.91 10.8124 113.876 11.0488C113.784 11.5802 113.678 12.3241 113.586 13.1591C113.48 14.0094 113.404 14.9203 113.328 15.8464C113.267 16.7726 113.251 17.6683 113.343 18.4578C113.419 19.2625 113.602 19.9457 113.845 20.5226C113.967 20.7959 114.12 21.0692 114.257 21.2969C114.394 21.5398 114.546 21.7524 114.683 21.9498C115.247 22.7089 115.825 23.0884 115.825 23.0884C115.825 23.0884 116.419 22.557 116.983 21.6157Z" fill="black"></path> <path d="M124.522 34.2929C124.934 33.9134 125.36 33.4124 125.741 32.8202C126.106 32.2129 126.411 31.5145 126.594 30.6643C126.67 30.2544 126.7 29.8141 126.716 29.3586C126.716 28.9184 126.67 28.4628 126.609 27.9922C126.548 27.5215 126.472 27.0661 126.365 26.6106C126.32 26.3677 126.259 26.1551 126.198 25.9426C126.137 25.7302 126.076 25.5173 126 25.3201C125.878 24.9254 125.741 24.5458 125.604 24.1966C125.482 23.8626 125.36 23.5589 125.238 23.316C124.994 22.815 124.842 22.5265 124.842 22.5265C124.842 22.5265 124.69 22.815 124.477 23.316C124.462 23.3492 124.447 23.3833 124.431 23.4182C124.41 23.4661 124.387 23.5156 124.364 23.5667C124.281 23.7508 124.188 23.9557 124.096 24.1814C124.019 24.3689 123.932 24.566 123.842 24.7727C123.808 24.8496 123.773 24.9286 123.738 25.0082C123.7 25.0954 123.662 25.1842 123.624 25.2745C123.289 26.064 122.938 26.9294 122.634 27.7948C122.604 27.8822 122.575 27.9673 122.546 28.051C122.531 28.0929 122.517 28.1345 122.502 28.1759L122.464 28.2844L122.405 28.4477L122.387 28.503L122.314 28.7168C122.27 28.8469 122.228 28.9737 122.192 29.1005C122.055 29.5256 121.964 29.9355 121.887 30.3303C121.811 30.725 121.781 31.0894 121.781 31.4386C121.765 31.7878 121.781 32.1218 121.811 32.4255C121.872 33.0479 122.04 33.5793 122.222 34.0196C122.39 34.4599 122.573 34.8091 122.725 35.052C122.877 35.2798 122.984 35.4164 122.984 35.4164C122.984 35.4164 123.7 35.052 124.522 34.2929Z" fill="black"></path> <path d="M132.016 44.3139C132.107 43.9647 132.168 43.6155 132.214 43.2663C132.259 42.9171 132.305 42.5527 132.32 42.2187C132.351 41.6418 132.351 41.0952 132.335 40.579C132.32 40.0628 132.305 39.5922 132.244 39.1974C132.137 38.4079 132.046 37.9069 132.046 37.9069C132.046 37.9069 131.422 38.6053 130.599 39.5922C130.188 40.078 129.701 40.6549 129.228 41.2623C128.741 41.8543 128.269 42.492 127.842 43.1145C127.804 43.1752 127.762 43.2398 127.72 43.3043C127.679 43.3688 127.637 43.4333 127.599 43.4941C127.57 43.5362 127.544 43.5769 127.518 43.6165C127.484 43.669 127.452 43.7197 127.42 43.7697L127.357 43.8703L127.356 43.8714L127.355 43.8736C127.187 44.1165 127.05 44.3594 126.928 44.6024C126.548 45.3159 126.35 45.9992 126.243 46.6064C126.121 47.2289 126.106 47.7755 126.152 48.2462C126.188 48.6234 126.264 48.9421 126.324 49.1944C126.339 49.2569 126.353 49.3154 126.365 49.3696C126.441 49.6429 126.502 49.7948 126.502 49.7948C126.502 49.7948 127.294 49.6429 128.33 49.1115C128.848 48.8534 129.381 48.5043 129.914 48.0336C130.432 47.5629 130.934 46.9708 131.345 46.2117C131.665 45.65 131.848 44.9971 132.016 44.3139Z" fill="black"></path> <path d="M123.639 64.157C123.639 64.157 122.877 63.8989 121.918 63.3372C121.446 63.0487 120.912 62.6843 120.41 62.2441C120.376 62.2125 120.342 62.181 120.308 62.1494C120.095 61.9524 119.878 61.7508 119.694 61.5153C119.45 61.2572 119.222 60.9687 119.024 60.6651C118.811 60.3614 118.643 60.0274 118.491 59.6934C118.383 59.4582 118.291 59.2155 118.198 58.9705L118.198 58.9684C118.159 58.8662 118.12 58.7636 118.079 58.661C117.821 57.9626 117.653 57.2642 117.531 56.6417C117.379 56.0193 117.287 55.4727 117.242 55.0779C117.196 54.6832 117.166 54.4403 117.166 54.4403C117.166 54.4403 117.44 54.5769 117.881 54.8046C118.323 55.0476 118.932 55.3968 119.618 55.8219C120.288 56.2622 121.034 56.7936 121.674 57.3705C122.329 57.9474 122.923 58.5851 123.349 59.2379C123.578 59.5568 123.715 59.8756 123.837 60.1944C123.959 60.5133 124.035 60.8169 124.096 61.1054C124.154 61.383 124.171 61.6606 124.185 61.9111L124.187 61.9404C124.201 62.1668 124.167 62.3931 124.138 62.5889L124.126 62.6692C123.974 63.5953 123.639 64.157 123.639 64.157Z" fill="black"></path> <path d="M129.487 63.762C129.807 63.595 130.142 63.4128 130.462 63.1851C130.782 62.9725 131.087 62.6992 131.406 62.3652C131.696 62.0615 131.97 61.7124 132.229 61.3328L132.594 60.7407C132.716 60.5433 132.838 60.3308 132.93 60.1182C133.326 59.268 133.661 58.3722 133.904 57.5524C134.133 56.7325 134.27 55.9886 134.361 55.4572C134.453 54.9258 134.498 54.5918 134.498 54.5918C134.498 54.5918 134.209 54.7588 133.737 55.0625L133.732 55.0659C133.275 55.3693 132.637 55.7932 131.924 56.277C131.801 56.3638 131.675 56.4521 131.547 56.542C130.218 57.4745 128.66 58.5674 127.66 59.6476C127.626 59.6898 127.587 59.732 127.549 59.7742L127.531 59.7943C127.519 59.8079 127.507 59.8215 127.495 59.8351L127.478 59.8547L127.462 59.8753C127.416 59.9209 127.376 59.9665 127.338 60.0121C127.312 60.0424 127.288 60.0727 127.264 60.103C127.126 60.2548 127.02 60.3915 126.913 60.5433C126.7 60.8318 126.532 61.1354 126.395 61.4087C126.258 61.6972 126.136 61.9705 126.06 62.2286C126.052 62.2587 126.043 62.2886 126.035 62.318L126.03 62.3329L126.018 62.3747L125.993 62.4543L125.974 62.5151L125.973 62.5186L125.971 62.5241L125.971 62.5252C125.959 62.5646 125.947 62.6035 125.935 62.6418C125.9 62.7564 125.868 62.8661 125.847 62.9725C125.634 63.8986 125.725 64.5515 125.725 64.5515C125.725 64.5515 126.532 64.6122 127.644 64.3845C128.193 64.263 128.832 64.0808 129.487 63.762Z" fill="black"></path> <path d="M120.38 74.193C120.303 74.7851 120.136 75.2861 119.938 75.7112C119.846 75.9238 119.74 76.106 119.648 76.2578C119.579 76.3665 119.51 76.456 119.449 76.5345L119.448 76.5356C119.415 76.5772 119.385 76.6158 119.359 76.6526C119.176 76.8651 119.054 76.9714 119.054 76.9714C119.054 76.9714 118.384 76.5311 117.638 75.7416C117.455 75.5442 117.272 75.3317 117.074 75.0888C116.876 74.8458 116.678 74.5877 116.496 74.2993C116.13 73.7375 115.81 73.1151 115.597 72.4318C115.551 72.2648 115.506 72.0826 115.46 71.9004C115.414 71.7182 115.384 71.5361 115.353 71.3539C115.292 70.9895 115.262 70.6251 115.247 70.2607C115.231 69.532 115.231 68.8184 115.277 68.1807C115.308 67.8619 115.338 67.5735 115.368 67.3002C115.375 67.1794 115.385 67.0675 115.396 66.9633L115.402 66.9083L115.409 66.8587L115.414 66.8179C115.424 66.7418 115.434 66.67 115.445 66.6018C115.49 66.207 115.536 65.9793 115.536 65.9793L115.56 65.9999L115.596 66.0324C115.628 66.0607 115.672 66.1001 115.727 66.1498C115.828 66.2414 115.965 66.3681 116.13 66.5259C116.496 66.875 116.998 67.3609 117.547 67.953C118.064 68.5451 118.597 69.2283 119.07 69.9571C119.313 70.3215 119.527 70.701 119.725 71.0806C119.907 71.4449 120.044 71.8245 120.166 72.1889C120.273 72.5533 120.349 72.9024 120.38 73.2365L120.384 73.2904C120.387 73.3222 120.39 73.3539 120.393 73.3854C120.402 73.5017 120.41 73.6157 120.41 73.7223V73.95C120.41 74.0412 120.395 74.1171 120.38 74.193Z" fill="black"></path> <path d="M122.862 78.2306C123.151 78.2609 123.456 78.2609 123.791 78.2458C124.111 78.2306 124.446 78.1851 124.812 78.0636C125.527 77.927 126.274 77.684 127.035 77.2437C127.232 77.123 127.414 77.0022 127.596 76.8814L127.599 76.8794C127.782 76.7579 127.964 76.6061 128.132 76.4543C128.467 76.1506 128.817 75.8166 129.137 75.4674C129.305 75.3004 129.457 75.1182 129.609 74.936L129.838 74.6627C129.845 74.6524 129.852 74.6421 129.859 74.6317L129.873 74.6127L129.891 74.5867C129.906 74.5664 129.922 74.5462 129.937 74.5259C129.971 74.4804 130.005 74.4349 130.036 74.3895C130.31 74.0099 130.554 73.6303 130.782 73.2659C130.99 72.9346 131.172 72.6159 131.341 72.321L131.391 72.2335C131.434 72.1585 131.474 72.0842 131.511 72.0114C131.578 71.8809 131.636 71.755 131.69 71.6372L131.691 71.635C131.735 71.5403 131.776 71.4507 131.818 71.3681C132.046 70.8671 132.168 70.5635 132.168 70.5635C132.168 70.5635 131.848 70.6698 131.315 70.8368C130.782 71.0037 130.066 71.2467 129.244 71.5351C128.406 71.8236 127.492 72.1425 126.609 72.5068C126.167 72.689 125.741 72.8712 125.329 73.0686C124.903 73.2659 124.522 73.4633 124.157 73.6759C123.806 73.8884 123.486 74.1162 123.212 74.3439L123.172 74.3791C123.119 74.4267 123.067 74.4723 123.017 74.518C122.985 74.5465 122.954 74.575 122.923 74.604C122.908 74.6182 122.893 74.6325 122.879 74.647L122.861 74.6638L122.831 74.6931L122.481 75.0423C122.055 75.5129 121.735 75.9684 121.522 76.3935C121.4 76.6061 121.308 76.8034 121.247 76.9856C121.206 77.0846 121.169 77.1747 121.137 77.2583C121.11 77.3284 121.086 77.394 121.065 77.4563C120.989 77.7144 120.958 77.8814 120.958 77.8814C120.958 77.8814 121.72 78.1547 122.862 78.2306Z" fill="black"></path> <path d="M111.835 87.6591C111.53 88.0083 111.241 88.2664 110.997 88.4182C110.769 88.57 110.616 88.6459 110.616 88.6459C110.616 88.6459 110.099 88.0387 109.611 87.0821C109.109 86.1104 108.606 84.7744 108.621 83.3472C108.621 82.8159 108.667 82.2693 108.789 81.7531C108.834 81.495 108.911 81.2369 108.987 80.9788C109.025 80.8573 109.059 80.7283 109.093 80.5992C109.128 80.4702 109.162 80.3411 109.2 80.2197C109.337 79.7945 109.474 79.3846 109.626 79.0202C109.649 78.9747 109.668 78.9291 109.687 78.8836C109.696 78.8633 109.704 78.843 109.713 78.8227C109.719 78.8099 109.724 78.7972 109.73 78.7844C109.736 78.772 109.742 78.7595 109.748 78.747C109.756 78.7229 109.764 78.6999 109.772 78.6774L109.794 78.6174C109.809 78.5758 109.825 78.5342 109.84 78.4889C109.869 78.4096 109.901 78.3336 109.932 78.2612C109.966 78.1811 109.998 78.1052 110.022 78.0334C110.266 77.4717 110.449 77.1376 110.449 77.1376C110.449 77.1376 110.921 77.836 111.469 78.914C111.536 79.0467 111.603 79.183 111.671 79.3229C111.743 79.4711 111.818 79.6232 111.896 79.7794C111.957 79.9312 112.033 80.0982 112.109 80.2501C112.17 80.4019 112.231 80.5689 112.292 80.7359C112.536 81.3887 112.749 82.1023 112.901 82.8007C112.962 83.074 113.008 83.3321 113.038 83.5902C113.069 83.8483 113.084 84.1064 113.084 84.3493C113.084 85.1084 112.932 85.7613 112.703 86.323C112.459 86.8696 112.14 87.3098 111.835 87.6591Z" fill="black"></path> <path d="M112.494 89.5004C112.46 89.5475 112.428 89.5918 112.398 89.6327C112.246 89.8756 112.185 90.0274 112.185 90.0274C112.185 90.0274 112.84 90.498 113.921 90.8776C114.988 91.2571 116.48 91.5152 118.186 91.0902C118.506 91.0142 118.826 90.8928 119.146 90.7561C119.465 90.6349 119.785 90.4681 120.104 90.3014L120.105 90.3007C120.425 90.1185 120.745 89.9363 121.05 89.7389C121.126 89.6782 121.202 89.6327 121.278 89.5871C121.316 89.5565 121.351 89.5297 121.386 89.5029C121.42 89.4766 121.454 89.4502 121.491 89.4201C121.56 89.3668 121.633 89.3135 121.705 89.2603C121.777 89.2073 121.849 89.1543 121.918 89.1013C122.832 88.3877 123.654 87.6438 124.187 87.0364C124.736 86.4443 125.055 86.0344 125.055 86.0344C125.055 86.0344 124.111 86.0496 122.786 86.1255L122.551 86.139L122.547 86.1392L122.542 86.1394L122.538 86.1397C121.262 86.2133 119.645 86.3066 118.217 86.5202C117.912 86.5658 117.607 86.6114 117.318 86.6721C117.029 86.7176 116.739 86.7783 116.465 86.8543C115.643 87.0668 114.988 87.3705 114.455 87.7044C113.906 88.0385 113.465 88.3877 113.129 88.7369C112.842 89.0108 112.647 89.2851 112.494 89.5004Z" fill="black"></path> <path d="M102.727 94.1124C102.514 94.826 102.163 95.418 101.783 95.9039C101.6 96.1468 101.387 96.3442 101.189 96.5112C100.975 96.6782 100.777 96.83 100.579 96.9515C100.183 97.1944 99.8178 97.3614 99.5589 97.4525C99.437 97.498 99.3152 97.5284 99.239 97.5436C99.1629 97.5588 99.1172 97.574 99.1172 97.574C99.1172 97.574 99.041 97.3918 98.9344 97.0881C98.8278 96.7845 98.7059 96.3442 98.5993 95.7976C98.4013 94.7348 98.3099 93.3229 98.7212 91.9564C98.9192 91.2581 99.2542 90.5749 99.635 89.9524C100.016 89.3147 100.427 88.7074 100.823 88.2064C100.915 88.094 101.003 87.9783 101.088 87.8669C101.187 87.7376 101.281 87.614 101.371 87.508C101.467 87.3869 101.562 87.2757 101.649 87.1744C101.715 87.0981 101.776 87.0266 101.828 86.9614C102.087 86.6578 102.27 86.4908 102.27 86.4908C102.27 86.4908 102.361 86.7793 102.468 87.2499C102.59 87.7206 102.727 88.4038 102.849 89.1629C102.91 89.5577 102.955 89.9676 102.986 90.3926C103.016 90.8026 103.032 91.2277 103.016 91.668C103.016 92.0931 102.986 92.5182 102.94 92.9433C102.91 93.3533 102.849 93.7632 102.727 94.1124Z" fill="black"></path> <path d="M87.3284 97.4057C87.7244 96.7832 88.2422 96.2366 88.7753 95.7052C89.0495 95.4471 89.3237 95.2042 89.5978 94.9765C89.7057 94.8809 89.8231 94.7947 89.9275 94.718L89.9594 94.6945L90.0091 94.6577C90.1461 94.5514 90.268 94.4451 90.4051 94.3388C90.9229 93.9441 91.3798 93.6253 91.7302 93.4127C92.0653 93.1849 92.2785 93.0483 92.2785 93.0483C92.2785 93.0483 92.2785 93.352 92.2633 93.8378C92.248 94.3388 92.2023 95.0069 92.0957 95.7812C91.9891 96.5403 91.8216 97.4057 91.5779 98.2407C91.3189 99.0454 90.9839 99.8349 90.5878 100.488C90.4812 100.655 90.3746 100.807 90.268 100.958C90.2071 101.034 90.1614 101.095 90.1004 101.171C90.0395 101.232 89.9786 101.292 89.9329 101.353C89.6892 101.596 89.4455 101.793 89.1866 101.976C88.9429 102.158 88.684 102.294 88.4403 102.416C88.1966 102.537 87.9529 102.644 87.7244 102.704C86.8105 102.962 86.1404 102.917 86.1404 102.917C86.1404 102.917 86.0338 102.143 86.1556 101.08C86.2165 100.548 86.3079 99.9411 86.5059 99.3187C86.5144 99.2904 86.5229 99.2616 86.5316 99.2324C86.5692 99.1051 86.6087 98.9715 86.6582 98.848C86.7191 98.681 86.7801 98.5292 86.8562 98.3622C86.9628 98.0282 87.1304 97.7093 87.3284 97.4057Z" fill="black"></path> <path d="M89.9022 104.04C90.2373 104.04 90.5724 104.056 90.9379 104.101L91.2121 104.147C91.3035 104.162 91.3948 104.177 91.5014 104.192C91.6842 104.223 91.8822 104.268 92.0802 104.329C92.8875 104.541 93.7557 104.891 94.6238 105.301C95.4767 105.68 96.3449 106.105 97.1217 106.5C97.6586 106.773 98.1518 107.038 98.5662 107.262L98.5751 107.266L98.5771 107.267C98.758 107.365 98.9237 107.454 99.0713 107.532C99.5587 107.79 99.8481 107.957 99.8481 107.957L99.6196 108.049C99.5603 108.066 99.4918 108.091 99.414 108.119L99.4131 108.119L99.41 108.12C99.3532 108.141 99.2915 108.163 99.225 108.185C99.1495 108.211 99.0679 108.237 98.9799 108.261C98.4316 108.413 97.67 108.61 96.8019 108.792C96.7058 108.813 96.6066 108.833 96.5058 108.853C96.4355 108.866 96.3644 108.879 96.293 108.89C96.2621 108.895 96.2311 108.9 96.2001 108.904C96.1773 108.908 96.1545 108.911 96.1317 108.914C95.9032 108.944 95.6595 108.975 95.4158 109.005C94.9437 109.051 94.4563 109.096 93.9689 109.111C93.0093 109.157 92.0193 109.035 91.1816 108.808C89.5062 108.352 88.3638 107.32 87.6632 106.47C86.9474 105.604 86.658 104.891 86.658 104.891C86.658 104.891 87.2367 104.526 88.1811 104.299C88.6837 104.162 89.2473 104.04 89.9022 104.04Z" fill="black"></path> <path d="M100.549 99.0304C100.427 99.1215 100.351 99.1822 100.29 99.243C100.244 99.2885 100.183 99.3188 100.183 99.3188C100.183 99.3188 100.218 99.3624 100.288 99.4403C100.349 99.5077 100.436 99.6009 100.549 99.7136C100.792 99.9565 101.143 100.275 101.6 100.594C102.514 101.232 103.884 101.9 105.651 101.945C106.519 101.945 107.464 101.778 108.408 101.52C108.422 101.515 108.435 101.51 108.449 101.505L108.479 101.495L108.493 101.49C108.526 101.479 108.558 101.469 108.591 101.459C108.645 101.443 108.7 101.429 108.758 101.414C108.865 101.384 108.987 101.338 109.093 101.293C109.322 101.201 109.55 101.126 109.764 101.035C110.192 100.873 110.605 100.682 110.991 100.505L111.028 100.488C111.226 100.382 111.424 100.291 111.607 100.199C111.718 100.144 111.825 100.082 111.929 100.022C111.995 99.9839 112.059 99.9463 112.124 99.911C112.459 99.7288 112.734 99.5618 112.977 99.41C113.465 99.1215 113.739 98.9241 113.739 98.9241C113.739 98.9241 113.404 98.8482 112.871 98.7116C112.338 98.5749 111.576 98.4079 110.723 98.2258L110.414 98.162C110.246 98.1274 110.077 98.0928 109.908 98.0582C109.734 98.023 109.56 97.9877 109.383 97.9525C108.926 97.8613 108.439 97.7702 107.966 97.6944C107.494 97.6184 107.022 97.5577 106.565 97.5122C106.108 97.4666 105.682 97.4514 105.255 97.4363C104.418 97.4211 103.686 97.5273 103.077 97.7095L103.006 97.7342L102.948 97.7542L102.824 97.7962L102.822 97.7969C102.611 97.8687 102.41 97.937 102.224 98.0131C101.965 98.1195 101.722 98.2409 101.508 98.3624C101.082 98.5901 100.762 98.8482 100.549 99.0304Z" fill="black"></path> <path d="M118.978 47.8515C118.871 47.7604 118.78 47.6693 118.689 47.5782C118.635 47.5326 118.586 47.4832 118.536 47.4338C118.487 47.3845 118.437 47.3352 118.384 47.2897C118.202 47.0933 118.02 46.8816 117.838 46.67L117.836 46.6672C117.668 46.4395 117.516 46.227 117.364 45.9992C117.211 45.7563 117.059 45.5437 116.922 45.3312C116.678 44.9516 116.465 44.572 116.282 44.2229C116.27 44.1985 116.258 44.1743 116.246 44.1504L116.222 44.1001L116.201 44.0586L116.149 43.9503L116.145 43.9404C116.125 43.8997 116.106 43.8599 116.087 43.8209L116.059 43.7626L116.038 43.7219C116 43.6377 115.958 43.5612 115.918 43.4884L115.916 43.4853L115.915 43.4843C115.876 43.4143 115.84 43.3479 115.81 43.2815C115.536 42.735 115.384 42.3858 115.384 42.3858C115.384 42.3858 116.252 42.5224 117.455 42.8413C117.744 42.9172 118.079 43.0083 118.399 43.1145C118.719 43.2208 119.054 43.3423 119.405 43.4789C120.09 43.737 120.775 44.0558 121.415 44.4202C121.918 44.6935 122.344 45.0124 122.725 45.3312C123.304 45.8322 123.73 46.3788 124.004 46.9253C124.263 47.4567 124.4 47.9881 124.461 48.4284C124.522 48.8839 124.522 49.2635 124.476 49.5367C124.446 49.81 124.4 49.9618 124.4 49.9618C124.4 49.9618 123.593 49.9163 122.527 49.6278C121.445 49.3393 120.075 48.8079 118.978 47.8515Z" fill="black"></path> <path d="M114.211 35.0365C113.891 34.8391 113.571 34.6114 113.282 34.3837C112.992 34.1559 112.703 33.913 112.444 33.6701L112.395 33.6267C112.139 33.4 111.897 33.1858 111.683 32.9717C111.454 32.7439 111.241 32.5162 111.058 32.3189C110.967 32.2125 110.891 32.1215 110.799 32.0304L110.798 32.0292L110.796 32.0276C110.706 31.9378 110.631 31.8626 110.571 31.7875C110.453 31.6574 110.358 31.5496 110.288 31.4689C110.25 31.4258 110.22 31.3903 110.197 31.3634C110.162 31.323 110.144 31.3016 110.144 31.3016C110.144 31.3016 110.449 31.2713 110.967 31.2257C111.469 31.1953 112.216 31.1498 113.008 31.1801C113.8 31.2105 114.714 31.2864 115.597 31.4231C115.825 31.4686 116.039 31.499 116.267 31.5445C116.381 31.5688 116.49 31.5974 116.6 31.628C116.626 31.6354 116.653 31.643 116.68 31.6507L116.892 31.7115C117.303 31.833 117.699 31.9696 118.049 32.1367C118.4 32.3037 118.719 32.4858 119.009 32.6832C119.298 32.8806 119.527 33.1083 119.725 33.3209C120.136 33.7612 120.425 34.2318 120.623 34.6418C120.801 35.0105 120.881 35.3547 120.939 35.608L120.958 35.6893C121.004 35.9626 121.004 36.1145 121.004 36.1145C121.004 36.1145 120.212 36.2966 119.1 36.2966C118.537 36.2966 117.897 36.2663 117.242 36.1448C116.557 36.0385 115.856 35.8412 115.186 35.5375C114.851 35.4312 114.516 35.249 114.211 35.0365Z" fill="black"></path> <path d="M107.25 24.9856C107.067 24.925 106.885 24.8643 106.717 24.7885C106.626 24.7582 106.535 24.7278 106.458 24.6822C106.367 24.6519 106.276 24.6063 106.184 24.576C105.468 24.2875 104.829 23.9383 104.265 23.6195C103.686 23.3158 103.199 23.0122 102.864 22.7844C102.696 22.663 102.559 22.5719 102.468 22.5112C102.42 22.4837 102.384 22.4624 102.359 22.4473C102.329 22.4291 102.316 22.4201 102.316 22.4201C102.316 22.4201 102.392 22.3897 102.529 22.3442C102.555 22.3354 102.583 22.3256 102.614 22.3149L102.656 22.2999L102.74 22.2698C102.844 22.2324 102.963 22.1896 103.092 22.1468C103.58 21.995 104.25 21.7824 105.042 21.6002C105.438 21.5091 105.864 21.418 106.291 21.3421C106.342 21.3349 106.393 21.3268 106.446 21.3182C106.492 21.3106 106.539 21.3026 106.587 21.2946L106.59 21.2941C106.712 21.2735 106.836 21.2524 106.961 21.2358C107.16 21.2074 107.373 21.1924 107.573 21.1782L107.575 21.178L107.616 21.1751C108.499 21.0992 109.398 21.0992 110.175 21.2358C110.952 21.3725 111.591 21.6458 112.124 21.9494C112.383 22.1012 112.627 22.2683 112.84 22.4504C113.038 22.6326 113.206 22.8148 113.358 22.997C113.952 23.7106 114.165 24.3179 114.165 24.3179C114.165 24.3179 113.449 24.6974 112.368 25.0011C111.835 25.1529 111.195 25.2895 110.51 25.3503C109.824 25.411 109.124 25.3958 108.362 25.2895C107.981 25.1984 107.615 25.1071 107.25 24.9856Z" fill="black"></path> <path d="M95.0808 16.4985C94.6239 16.4074 94.1974 16.3011 93.8014 16.1948C93.4054 16.1038 93.0399 16.0127 92.7352 15.9216C92.1412 15.7394 91.7604 15.6027 91.7604 15.6027C91.7604 15.6027 92.4459 15.0865 93.4968 14.464C94.0147 14.1452 94.6391 13.8112 95.2941 13.4924C95.949 13.1887 96.6496 12.9155 97.3655 12.7029C97.8986 12.5359 98.4469 12.4144 98.9647 12.3689C100.518 12.2322 101.752 12.6725 102.529 13.2191C102.871 13.4424 103.123 13.6771 103.313 13.8543C103.342 13.8818 103.37 13.9081 103.397 13.9327C103.488 14.0238 103.565 14.1149 103.61 14.1756C103.656 14.2363 103.671 14.2667 103.671 14.2667C103.671 14.2667 103.534 14.4033 103.26 14.6159C103.001 14.8284 102.62 15.1017 102.148 15.3902C101.676 15.6787 101.097 15.9823 100.473 16.2252C100.153 16.3467 99.8177 16.4529 99.4674 16.5289C99.117 16.62 98.7667 16.6807 98.386 16.7262C97.2893 16.8477 96.147 16.6807 95.0808 16.4985Z" fill="black"></path> <path d="M75.966 105.377L83.9195 104.332C84.1978 104.271 84.4819 104.209 84.7691 104.148C84.8839 104.121 84.9987 104.095 85.1142 104.07L85.1158 104.07C85.3216 104.024 85.5297 103.978 85.7439 103.92C86.0638 103.829 86.3989 103.738 86.734 103.647C86.8319 103.62 86.9306 103.593 87.0297 103.566L87.2365 103.51L87.2388 103.509C87.7357 103.376 88.2409 103.24 88.7292 103.07C91.3947 102.281 93.9535 101.172 95.8421 100.292C96.2991 100.064 96.7408 99.8513 97.1215 99.6691L97.1257 99.667C97.3071 99.5767 97.4884 99.4864 97.6546 99.411C97.722 99.3805 97.7844 99.3475 97.8438 99.3141C97.8652 99.3021 97.8861 99.2901 97.9067 99.2781L97.9663 99.2432C98.0103 99.2173 98.0533 99.1919 98.0963 99.1681C98.6294 98.8796 98.934 98.7126 98.934 98.7126C98.934 98.7126 99.2387 98.5456 99.7717 98.2572C100.034 98.1032 100.352 97.9064 100.716 97.6804C101.07 97.4607 101.469 97.2134 101.904 96.9515C103.64 95.8128 105.895 94.2338 107.966 92.4271C110.037 90.6356 111.941 88.6619 113.282 87.1284C113.397 87.0027 113.506 86.8696 113.612 86.7394C113.66 86.681 113.707 86.6231 113.754 86.5667C113.838 86.4552 113.927 86.3494 114.012 86.2458C114.066 86.1801 114.118 86.1153 114.165 86.0505C114.424 85.7317 114.652 85.4584 114.85 85.2155C114.933 85.1133 115.005 85.0172 115.069 84.9313C115.147 84.8259 115.211 84.7359 115.262 84.6689C115.353 84.5323 115.414 84.4715 115.414 84.4715C115.414 84.4715 115.612 84.1982 115.962 83.7276C116 83.6736 116.04 83.6182 116.083 83.5607C116.108 83.526 116.135 83.4906 116.163 83.4544L116.234 83.3606L116.235 83.3589C116.279 83.3021 116.323 83.2433 116.369 83.182C116.444 83.0824 116.522 82.9764 116.602 82.8622C116.692 82.7243 116.787 82.5818 116.886 82.4336L116.892 82.4244C117.042 82.1998 117.2 81.9622 117.364 81.7083C117.445 81.5824 117.531 81.4565 117.62 81.3273C117.681 81.2385 117.743 81.1482 117.805 81.0554C117.926 80.8753 118.037 80.6856 118.153 80.4863L118.161 80.4728C118.189 80.4247 118.218 80.3759 118.247 80.3267C118.36 80.1404 118.474 79.9499 118.588 79.7568C118.782 79.4305 118.981 79.0967 119.191 78.7629C119.496 78.2012 119.801 77.6242 120.105 77.0473C120.143 76.9715 120.181 76.8995 120.219 76.8276C120.257 76.7553 120.296 76.6831 120.334 76.607C120.41 76.4552 120.471 76.3033 120.547 76.1515C120.684 75.8479 120.821 75.5442 120.973 75.2406C122.101 72.7962 123.045 70.2608 123.578 68.3174C123.609 68.2183 123.637 68.1218 123.666 68.0267L123.667 68.0226C123.707 67.886 123.746 67.7525 123.791 67.619C123.852 67.4065 123.928 67.1939 123.959 66.9966C123.977 66.9176 123.995 66.8404 124.013 66.7652C124.03 66.6959 124.046 66.6283 124.062 66.5624L124.07 66.5316C124.12 66.3235 124.167 66.1334 124.202 65.9642L124.416 65.0684C124.416 65.0684 124.431 64.9925 124.477 64.8406C124.495 64.7784 124.511 64.7036 124.528 64.6171C124.536 64.5761 124.544 64.5325 124.553 64.4864C124.57 64.392 124.589 64.2871 124.614 64.1726C124.652 63.9921 124.69 63.7877 124.732 63.5632C124.757 63.4292 124.783 63.2876 124.812 63.1402L124.83 63.0437C124.902 62.6718 124.984 62.2496 125.04 61.789C125.079 61.467 125.125 61.1325 125.172 60.7814C125.199 60.5862 125.226 60.3858 125.253 60.1796C125.261 60.1113 125.272 60.0392 125.284 59.967C125.295 59.8949 125.307 59.8228 125.314 59.7545C125.329 59.6027 125.345 59.4661 125.36 59.299C125.375 58.9954 125.406 58.6918 125.436 58.3729C125.525 57.4641 125.549 56.4987 125.573 55.5239C125.578 55.3383 125.583 55.1525 125.588 54.9667C125.592 54.7912 125.598 54.6158 125.604 54.4407C125.591 54.0805 125.582 53.7203 125.573 53.3616C125.549 52.39 125.525 51.4286 125.436 50.5084C125.421 50.357 125.41 50.2017 125.398 50.0464L125.396 50.0184C125.385 49.8718 125.374 49.7253 125.36 49.5823C125.355 49.5328 125.352 49.4833 125.348 49.4344C125.344 49.3759 125.34 49.3181 125.334 49.262C125.329 49.221 125.323 49.1809 125.314 49.142C125.299 48.9902 125.284 48.8535 125.253 48.7017L125.211 48.3924C125.15 47.9397 125.09 47.5009 125.04 47.0924C125.006 46.7166 124.937 46.375 124.873 46.0548C124.861 45.9933 124.849 45.9327 124.837 45.8728C124.828 45.8285 124.82 45.7847 124.812 45.7411C124.783 45.5937 124.757 45.4527 124.732 45.3187L124.732 45.3177C124.69 45.0933 124.652 44.8891 124.614 44.7087C124.553 44.4203 124.522 44.1925 124.477 44.0407C124.446 43.8889 124.416 43.7978 124.416 43.7978C124.416 43.7978 124.339 43.4789 124.202 42.9021C124.167 42.7327 124.12 42.5424 124.07 42.3342C124.034 42.1878 123.996 42.0326 123.959 41.8696C123.913 41.6723 123.852 41.4597 123.791 41.2471C123.775 41.1871 123.758 41.127 123.74 41.0668C123.724 41.0126 123.707 40.9584 123.69 40.9037C123.681 40.8743 123.672 40.8448 123.662 40.8152L123.602 40.6264L123.578 40.5488C123.045 38.6054 122.101 36.0851 120.973 33.6256C120.922 33.5125 120.869 33.3994 120.815 33.2862C120.725 33.0957 120.633 32.9052 120.547 32.7146C120.51 32.6415 120.474 32.5684 120.439 32.4953C120.401 32.4166 120.365 32.3378 120.334 32.2591C120.296 32.1833 120.258 32.1112 120.219 32.039L120.218 32.0359C120.18 31.9648 120.143 31.8937 120.105 31.8189C119.785 31.2267 119.481 30.6498 119.191 30.1033C118.871 29.5567 118.552 29.0253 118.247 28.5395C118.095 28.2965 117.958 28.0384 117.805 27.8107C117.743 27.7182 117.682 27.6282 117.621 27.5397C117.532 27.4103 117.445 27.2841 117.364 27.1579C117.245 26.9739 117.126 26.7984 117.013 26.6303C116.864 26.4099 116.723 26.202 116.602 26.004C116.436 25.7502 116.27 25.5365 116.122 25.3455C116.066 25.2738 116.012 25.2048 115.962 25.1386C115.612 24.6528 115.414 24.3947 115.414 24.3947C115.414 24.3947 115.368 24.3188 115.262 24.1973C115.235 24.162 115.205 24.1202 115.17 24.0732L115.168 24.0693C115.129 24.0165 115.086 23.9571 115.038 23.8927C114.982 23.818 114.919 23.7365 114.85 23.6507C114.701 23.4784 114.533 23.2713 114.349 23.0426C114.289 22.9691 114.228 22.8933 114.165 22.8157C114.028 22.6487 113.891 22.4817 113.754 22.2995C113.602 22.1173 113.449 21.9351 113.282 21.7377C111.941 20.2043 110.037 18.2306 107.966 16.4391C105.895 14.6324 103.64 13.0534 101.904 11.9147C101.473 11.6552 101.078 11.4101 100.726 11.192L100.719 11.1876L100.716 11.1857C100.352 10.9598 100.034 10.763 99.7717 10.609C99.2387 10.3205 98.934 10.1536 98.934 10.1536L98.8557 10.1107C98.8106 10.0861 98.7466 10.0511 98.665 10.0067C98.525 9.93047 98.3332 9.82625 98.0963 9.69806L98.0895 9.69425C97.9547 9.61962 97.8194 9.54473 97.6546 9.45515C97.6044 9.4324 97.5542 9.40829 97.5032 9.3832C97.469 9.3664 97.4344 9.34916 97.3992 9.33164L97.3162 9.29038C97.2541 9.25969 97.1896 9.22837 97.1215 9.19704C96.9845 9.13633 96.8626 9.07558 96.7255 8.99968H96.6951C96.36 9.03006 95.8878 9.04521 95.3243 9.01487C94.1972 8.96931 92.735 8.72639 91.4556 8.02802C90.7854 7.69398 90.161 7.22333 89.6126 6.72232C89.5012 6.61128 89.3842 6.50304 89.2676 6.39521C89.1131 6.25239 88.9594 6.11026 88.8206 5.96319C88.5617 5.72028 88.3332 5.46217 88.12 5.21926C88.0407 5.12563 87.9626 5.03425 87.8863 4.94545L87.7337 4.76792C87.4765 4.46926 87.2491 4.20506 87.0843 3.98948C86.8253 3.67064 86.6883 3.47328 86.6883 3.47328C86.6883 3.47328 86.9929 3.45809 87.5108 3.45809C88.0286 3.45809 88.7444 3.47328 89.5517 3.53399L89.594 3.5372C89.7798 3.5514 89.9782 3.56656 90.1762 3.59474L90.8159 3.68582C91.2424 3.74657 91.6841 3.83765 92.1257 3.92874C92.9939 4.14131 93.8621 4.39939 94.5322 4.77895C95.2177 5.14335 95.7507 5.59882 96.1467 6.05428C96.5428 6.52496 96.7712 6.9956 96.954 7.43588C97.1215 7.861 97.2129 8.24056 97.2434 8.49866C97.2434 8.54419 97.2586 8.60494 97.2586 8.65049C97.2735 8.66034 97.2899 8.6686 97.3069 8.6763C97.3161 8.68043 97.3254 8.68442 97.3347 8.6884C97.3614 8.6998 97.3881 8.71121 97.4109 8.72639C97.5097 8.77184 97.6009 8.81728 97.6883 8.86082C97.7759 8.9045 97.8602 8.94653 97.944 8.9845C98.057 9.04591 98.1561 9.10041 98.2506 9.15267L98.3789 9.2236L98.3857 9.22741C98.9188 9.51589 99.2234 9.69806 99.2234 9.69806C99.2234 9.69806 99.3162 9.74893 99.489 9.84299C99.6292 9.91938 99.8222 10.0243 100.061 10.1536C100.387 10.3395 100.788 10.5879 101.256 10.8781C101.552 11.0619 101.875 11.2624 102.224 11.4744C103.96 12.6131 106.245 14.2224 108.332 16.0443C110.418 17.8662 112.337 19.8399 113.693 21.4037C113.876 21.5859 114.028 21.7833 114.165 21.9655C114.316 22.1461 114.452 22.3118 114.588 22.4774L114.592 22.4817C114.712 22.6297 114.829 22.7711 114.938 22.903L114.948 22.9154L114.949 22.9169C115.071 23.0637 115.182 23.1984 115.277 23.3167C115.39 23.4465 115.478 23.5665 115.553 23.6681L115.554 23.6694C115.61 23.7456 115.658 23.8113 115.703 23.8633C115.795 23.9847 115.856 24.0607 115.856 24.0607C115.856 24.0607 116.069 24.3339 116.419 24.8198C116.499 24.9353 116.592 25.0611 116.695 25.1988C116.808 25.3507 116.931 25.5172 117.059 25.7004C117.287 26.0495 117.546 26.4443 117.836 26.8694C117.93 27.0014 118.019 27.1392 118.109 27.2793C118.164 27.3648 118.22 27.4511 118.277 27.5374C118.308 27.5835 118.338 27.6308 118.368 27.679C118.384 27.7037 118.399 27.7285 118.414 27.7536C118.433 27.7859 118.453 27.8185 118.472 27.8513C118.492 27.8854 118.512 27.9196 118.532 27.954C118.593 28.0585 118.655 28.1637 118.719 28.2662C119.024 28.7672 119.344 29.2986 119.664 29.8452C119.968 30.4069 120.273 30.9838 120.593 31.5911L120.593 31.5924C120.669 31.7437 120.745 31.8951 120.836 32.0314C120.885 32.1292 120.934 32.227 120.979 32.3249C121.004 32.3788 121.028 32.4329 121.05 32.4869C121.125 32.6547 121.206 32.8271 121.288 32.999C121.355 33.1382 121.423 33.2771 121.491 33.413C122.634 35.8878 123.578 38.4384 124.126 40.397C124.158 40.4968 124.186 40.594 124.214 40.6898L124.246 40.797C124.276 40.8973 124.306 40.9963 124.339 41.0953C124.416 41.3231 124.477 41.5204 124.522 41.733C124.556 41.8789 124.59 42.0207 124.622 42.1561C124.677 42.3868 124.728 42.5987 124.766 42.7806C124.903 43.3575 124.979 43.6915 124.979 43.6915C124.979 43.6915 124.981 43.701 124.984 43.719C124.988 43.7339 124.992 43.7548 124.998 43.7809C125.008 43.8206 125.021 43.8725 125.04 43.9345C125.071 44.0863 125.116 44.314 125.162 44.6177C125.183 44.7158 125.203 44.8226 125.225 44.9364C125.24 45.0198 125.256 45.107 125.273 45.1971C125.3 45.3459 125.329 45.503 125.36 45.6653C125.378 45.7614 125.397 45.8601 125.417 45.9612L125.418 45.9628C125.483 46.2926 125.553 46.6488 125.588 47.0316C125.609 47.2032 125.632 47.3802 125.656 47.5619C125.679 47.7368 125.703 47.9161 125.727 48.0992L125.767 48.399C125.779 48.484 125.79 48.5698 125.802 48.6562C125.817 48.808 125.832 48.9447 125.863 49.0965L125.908 49.5519C125.923 49.8556 125.954 50.1592 125.984 50.4932C126.097 51.5262 126.117 52.6203 126.137 53.7254V53.7264C126.142 53.9692 126.146 54.2126 126.152 54.4559C126.14 54.8194 126.131 55.1828 126.122 55.5445C126.097 56.5275 126.073 57.4973 125.984 58.4185C125.97 58.5716 125.959 58.7213 125.948 58.8691C125.943 58.9366 125.938 59.0037 125.932 59.0707C125.93 59.1035 125.927 59.1361 125.924 59.1688C125.919 59.2275 125.914 59.286 125.908 59.3446C125.905 59.3743 125.903 59.4041 125.901 59.4336L125.897 59.4925C125.89 59.5937 125.883 59.6928 125.863 59.7849C125.86 59.8072 125.858 59.8296 125.855 59.8519C125.853 59.8707 125.85 59.8896 125.847 59.9084C125.842 59.9478 125.836 59.9869 125.83 60.0254L125.829 60.029L125.829 60.03C125.819 60.0973 125.809 60.1628 125.802 60.2252C125.778 60.403 125.755 60.5779 125.732 60.7496C125.68 61.1347 125.631 61.5031 125.588 61.8497C125.552 62.1465 125.5 62.4272 125.451 62.692L125.451 62.6936C125.431 62.7986 125.412 62.9011 125.395 63.0011C125.382 63.0741 125.37 63.1458 125.36 63.2161C125.339 63.3272 125.32 63.4339 125.301 63.536C125.251 63.8109 125.206 64.0534 125.162 64.2637C125.147 64.355 125.133 64.4401 125.119 64.5192C125.1 64.628 125.082 64.7252 125.065 64.811C125.056 64.8601 125.048 64.9054 125.04 64.9469C125.01 65.0987 124.979 65.1898 124.979 65.1898C124.979 65.1898 124.949 65.3206 124.893 65.5597C124.86 65.7028 124.817 65.8848 124.766 66.1008C124.698 66.3567 124.631 66.6606 124.553 67.0122L124.522 67.1484C124.477 67.3457 124.416 67.5583 124.339 67.786C124.293 67.9587 124.238 68.1314 124.181 68.3106C124.163 68.3678 124.145 68.4257 124.126 68.4844C123.578 70.443 122.634 72.9936 121.491 75.4683C121.354 75.772 121.202 76.0908 121.05 76.3945C120.994 76.5044 120.947 76.6144 120.896 76.7243C120.877 76.7662 120.857 76.8081 120.836 76.8499C120.76 77.0018 120.684 77.1536 120.593 77.2902C120.274 77.88 119.971 78.4547 119.667 79.0293L119.664 79.0362C119.344 79.5828 119.024 80.1141 118.719 80.6152C118.655 80.7177 118.593 80.8229 118.532 80.9274L118.531 80.9294C118.482 81.0125 118.434 81.095 118.385 81.1753C118.35 81.2328 118.314 81.2892 118.277 81.3439C118.125 81.5716 117.973 81.7994 117.836 82.012C117.546 82.4371 117.287 82.8318 117.059 83.181C116.875 83.4629 116.69 83.7051 116.53 83.9158C116.491 83.9662 116.455 84.0147 116.419 84.0616C116.054 84.5475 115.856 84.8207 115.856 84.8207C115.856 84.8207 115.81 84.8966 115.703 85.0181C115.684 85.0433 115.664 85.0718 115.64 85.1032C115.553 85.2228 115.434 85.3842 115.277 85.5647C115.127 85.7377 114.958 85.9458 114.773 86.1756L114.768 86.182L114.766 86.1843C114.709 86.2542 114.651 86.3262 114.592 86.3997L114.585 86.408L114.582 86.412C114.503 86.5081 114.424 86.6042 114.342 86.7035C114.285 86.7725 114.226 86.843 114.165 86.9159C114.116 86.9742 114.069 87.0341 114.022 87.0944C113.92 87.2226 113.817 87.3539 113.693 87.4776C112.337 89.0414 110.418 91.0152 108.332 92.8371C106.245 94.6589 103.96 96.2531 102.224 97.4069C101.882 97.6149 101.564 97.8119 101.273 97.9927L101.268 97.9958L101.255 98.0034C100.788 98.2935 100.387 98.5419 100.061 98.7278C99.8499 98.8421 99.6744 98.9374 99.5397 99.0107C99.3344 99.1224 99.2234 99.1833 99.2234 99.1833C99.2234 99.1833 98.9188 99.3503 98.3857 99.6539C98.3379 99.6804 98.2881 99.7069 98.2372 99.7341C98.1423 99.7847 98.0431 99.8376 97.944 99.8968C97.9073 99.9135 97.8706 99.9308 97.8336 99.9487C97.7862 99.9717 97.7382 99.9956 97.6891 100.02L97.637 100.046C97.5653 100.082 97.4906 100.118 97.4109 100.155C97.0302 100.337 96.6037 100.55 96.1163 100.793C94.2124 101.673 91.6383 102.782 88.9425 103.586C88.4663 103.752 87.966 103.885 87.4766 104.016C87.2929 104.065 87.1107 104.113 86.932 104.163L86.6686 104.235C86.5921 104.256 86.516 104.276 86.4402 104.297C86.35 104.322 86.2603 104.347 86.1716 104.372C86.0943 104.393 86.0177 104.415 85.9419 104.436C85.7352 104.495 85.5221 104.541 85.3109 104.587C85.1953 104.612 85.0803 104.637 84.9671 104.664L84.7668 104.707L84.7695 104.709C84.7695 104.709 77.4129 106.577 75.7527 113.333L75.966 105.377Z" fill="black"></path> </svg> 