<svg width="27" height="28" viewBox="0 0 27 28" fill="none" xmlns="http://www.w3.org/2000/svg">
<path d="M22.9001 4.54707C21.6777 3.31231 20.2216 2.3333 18.6169 1.66714C17.0122 1.00098 15.2909 0.661019 13.5534 0.667072C6.2734 0.667072 0.340065 6.6004 0.340065 13.8804C0.340065 16.2137 0.953399 18.4804 2.10007 20.4804L0.233398 27.3337L7.2334 25.4937C9.16673 26.5471 11.3401 27.1071 13.5534 27.1071C20.8334 27.1071 26.7667 21.1737 26.7667 13.8937C26.7667 10.3604 25.3934 7.0404 22.9001 4.54707ZM13.5534 24.8671C11.5801 24.8671 9.64673 24.3337 7.9534 23.3337L7.5534 23.0937L3.3934 24.1871L4.50007 20.1337L4.2334 19.7204C3.13706 17.9697 2.55492 15.9461 2.5534 13.8804C2.5534 7.82707 7.48673 2.89374 13.5401 2.89374C16.4734 2.89374 19.2334 4.04041 21.3001 6.12041C22.3234 7.13902 23.1343 8.35062 23.6859 9.68497C24.2375 11.0193 24.5188 12.4499 24.5134 13.8937C24.5401 19.9471 19.6067 24.8671 13.5534 24.8671ZM19.5801 16.6537C19.2467 16.4937 17.6201 15.6937 17.3267 15.5737C17.0201 15.4671 16.8067 15.4137 16.5801 15.7337C16.3534 16.0671 15.7267 16.8137 15.5401 17.0271C15.3534 17.2537 15.1534 17.2804 14.8201 17.1071C14.4867 16.9471 13.4201 16.5871 12.1667 15.4671C11.1801 14.5871 10.5267 13.5071 10.3267 13.1737C10.1401 12.8404 10.3001 12.6671 10.4734 12.4937C10.6201 12.3471 10.8067 12.1071 10.9667 11.9204C11.1267 11.7337 11.1934 11.5871 11.3001 11.3737C11.4067 11.1471 11.3534 10.9604 11.2734 10.8004C11.1934 10.6404 10.5267 9.01374 10.2601 8.34707C9.9934 7.70707 9.7134 7.78707 9.5134 7.77374H8.8734C8.64673 7.77374 8.30007 7.85374 7.9934 8.18707C7.70007 8.5204 6.84673 9.32041 6.84673 10.9471C6.84673 12.5737 8.0334 14.1471 8.1934 14.3604C8.3534 14.5871 10.5267 17.9204 13.8334 19.3471C14.6201 19.6937 15.2334 19.8937 15.7134 20.0404C16.5001 20.2937 17.2201 20.2537 17.7934 20.1737C18.4334 20.0804 19.7534 19.3737 20.0201 18.6004C20.3001 17.8271 20.3001 17.1737 20.2067 17.0271C20.1134 16.8804 19.9134 16.8137 19.5801 16.6537Z" fill="#D3D3D3"/>
</svg>
