<?xml version="1.0" encoding="UTF-8"?>
<svg width="72px" height="72px" viewBox="0 0 72 72" version="1.1" xmlns="http://www.w3.org/2000/svg" xmlns:xlink="http://www.w3.org/1999/xlink">
    <title>B1D94101-5C7A-45CA-879D-40E26CC9C71F</title>
    <defs>
        <filter x="-18.8%" y="-18.8%" width="137.5%" height="137.5%" filterUnits="objectBoundingBox" id="filter-1">
            <feOffset dx="0" dy="1" in="SourceAlpha" result="shadowOffsetOuter1"></feOffset>
            <feGaussianBlur stdDeviation="2" in="shadowOffsetOuter1" result="shadowBlurOuter1"></feGaussianBlur>
            <feColorMatrix values="0 0 0 0 0   0 0 0 0 0   0 0 0 0 0  0 0 0 0.2 0" type="matrix" in="shadowBlurOuter1" result="shadowMatrixOuter1"></feColorMatrix>
            <feMerge>
                <feMergeNode in="shadowMatrixOuter1"></feMergeNode>
                <feMergeNode in="SourceGraphic"></feMergeNode>
            </feMerge>
        </filter>
        <path d="M16.3316129,1.0658141e-14 C17.5710968,1.0658141e-14 18.5806452,1.00877419 18.5806452,2.24903226 C18.5806452,2.32567742 18.5767742,2.40309677 18.5682581,2.47896774 L18.5682581,2.47896774 L18.0216774,7.95174194 C18.1300645,7.97729032 18.2384516,8.00516129 18.3452903,8.03535484 L18.3452903,8.03535484 L19.923871,3.69367742 C19.9548387,3.60774194 19.9912258,3.52180645 20.0330323,3.43896774 C20.3256774,2.85522581 20.8180645,2.42864516 21.4258065,2.22580645 C22.0335484,2.02296774 22.6830968,2.06941935 23.2552258,2.35587097 L23.2552258,2.35587097 L23.4487742,2.45264516 C24.6309677,3.04335484 25.1117419,4.48645161 24.5210323,5.66864516 C24.4722581,5.76541935 24.4196129,5.856 24.3615484,5.94193548 L24.3615484,5.94193548 L21.6472258,9.93677419 C23.0957419,11.3442581 24,13.3091613 24,15.483871 C24,16.0691613 23.9450323,16.6010323 23.8374194,17.1197419 L23.8374194,17.1197419 L23.7700645,17.4425806 C23.9489032,17.2072258 24.1354839,16.9772903 24.3344516,16.755871 C25.9803871,14.9256774 28.556129,14.3047742 30.8469677,15.1347097 L30.8469677,15.1347097 L30.8469677,10.8387097 C30.8469677,8.27690323 32.9303226,6.19354839 35.492129,6.19354839 L35.492129,6.19354839 L35.492129,7.74193548 C33.7842581,7.74193548 32.3953548,9.13083871 32.3953548,10.8387097 L32.3953548,10.8387097 L32.3953548,12.7068387 C33.3437419,11.1274839 35.067871,10.0645161 37.0405161,10.0645161 L37.0405161,10.0645161 L40.9114839,10.0645161 L40.9114839,10.8387097 C40.9114839,12.6828387 39.984,14.3125161 38.5726452,15.291871 C39.2763871,15.6588387 39.9336774,16.1690323 40.4965161,16.8015484 C41.7367742,18.1950968 42.5860645,19.8696774 42.9809032,21.6774194 L42.9809032,21.6774194 L46.4516129,21.6774194 C47.3055484,21.6774194 48,22.371871 48,23.2258065 L48,23.2258065 L48,24.7741935 C48,25.628129 47.3055484,26.3225806 46.4516129,26.3225806 L46.4516129,26.3225806 L44.9032258,26.3225806 L44.9032258,41.0330323 C44.9032258,43.1674839 43.1667097,44.904 41.0322581,44.904 L41.0322581,44.904 L18.3932903,44.904 C16.5298065,46.7225806 14.0237419,47.8861935 11.2683871,47.9922581 C11.1228387,47.9976774 10.9788387,48.0007742 10.8340645,48.0007742 C8.016,48.0007742 5.3636129,46.9347097 3.3243871,44.9729032 C1.18064516,42.9096774 0,40.1357419 0,37.1612903 C0,34.5034839 0.972387097,31.9470968 2.73754839,29.9636129 C3.2996129,29.3303226 3.95690323,28.820129 4.66141935,28.4531613 C3.25006452,27.4738065 2.32258065,25.844129 2.32258065,24 L2.32258065,24 L2.32258065,23.2258065 L6.19354839,23.2258065 C6.45677419,23.2258065 6.71380645,23.2513548 6.96774194,23.2877419 L6.96774194,23.2877419 L6.96774194,23.2258065 C6.96774194,22.371871 7.66219355,21.6774194 8.51612903,21.6774194 L8.51612903,21.6774194 L9.62941935,21.6774194 L8.67948387,17.1189677 C8.57109677,16.6010323 8.51612903,16.0691613 8.51612903,15.5396129 C8.51612903,13.3354839 9.42193548,11.355871 10.8727742,9.94064516 L10.8727742,9.94064516 L8.15690323,5.94348387 C8.09729032,5.85522581 8.04541935,5.76541935 7.99741935,5.67174194 C7.40593548,4.48645161 7.88670968,3.04412903 9.06812903,2.45264516 L9.06812903,2.45264516 L9.26167742,2.35587097 C9.83458065,2.06941935 10.484129,2.02296774 11.0910968,2.22580645 C11.6988387,2.42864516 12.1912258,2.85522581 12.4776774,3.42812903 C12.5249032,3.52258065 12.5612903,3.60851613 12.5930323,3.696 L12.5930323,3.696 L14.1708387,8.03690323 C14.2776774,8.00670968 14.3852903,7.97883871 14.4944516,7.95329032 L14.4944516,7.95329032 L13.9470968,2.47354839 C13.9393548,2.40309677 13.9354839,2.32645161 13.9354839,2.24903226 C13.9354839,1.00877419 14.9450323,1.0658141e-14 16.1852903,1.0658141e-14 L16.1852903,1.0658141e-14 Z M6.9716129,29.3581935 C5.88619355,29.4348387 4.73883871,30.0418065 3.89341935,30.9917419 C2.38141935,32.6926452 1.5483871,34.8828387 1.5483871,37.1612903 C1.5483871,39.7107097 2.56103226,42.0882581 4.39819355,43.8565161 C6.23535484,45.624 8.64,46.5367742 11.2087742,46.4446452 C15.9932903,46.2596129 19.9083871,42.3677419 20.1197419,37.5832258 C20.228129,35.1274839 19.3858065,32.7723871 17.7483871,30.9522581 C16.488,29.5517419 14.4007742,29.0872258 12.6750968,29.8273548 C12.3429677,29.9698065 11.9837419,30.0665806 11.6129032,30.1261935 L11.6129032,30.1261935 L11.6129032,31.584 C12.3816774,31.2967742 13.1117419,30.6936774 13.3889032,30.4188387 L13.3889032,30.4188387 L14.4828387,31.5150968 C14.3016774,31.6970323 12.6557419,33.2903226 10.8387097,33.2903226 C9.02167742,33.2903226 7.37574194,31.6970323 7.19458065,31.5150968 L7.19458065,31.5150968 L8.28851613,30.4188387 C8.56567742,30.6944516 9.29574194,31.2975484 10.0645161,31.584 L10.0645161,31.584 L10.0645161,29.4193548 L7.74193548,29.4193548 C7.47948387,29.4193548 7.224,29.3945806 6.9716129,29.3581935 Z M43.3548387,38.7096774 L21.5659355,38.7096774 C21.3189677,40.4152258 20.6670968,41.9969032 19.7132903,43.3548387 L19.7132903,43.3548387 L41.0322581,43.3548387 C42.3127742,43.3548387 43.3548387,42.3127742 43.3548387,41.0322581 L43.3548387,41.0322581 L43.3548387,38.7096774 Z M41.8064516,40.2580645 L41.8064516,41.8064516 L40.2580645,41.8064516 L40.2580645,40.2580645 L41.8064516,40.2580645 Z M43.3548387,32.516129 L20.6338065,32.516129 C21.3174194,33.9538065 21.6650323,35.5339355 21.6650323,37.1612903 L21.6650323,37.1612903 L43.3548387,37.1612903 L43.3548387,32.516129 Z M41.8064516,34.0645161 L41.8064516,35.6129032 L40.2580645,35.6129032 L40.2580645,34.0645161 L41.8064516,34.0645161 Z M46.4516129,23.2258065 L11.7228387,23.2258065 C11.6578065,23.4750968 11.6129032,23.7313548 11.6129032,24 L11.6129032,24 L11.6129032,24.7741935 L41.8072258,24.7741935 L41.8072258,26.3225806 L11.6136774,26.3225806 L11.6136774,28.5429677 C11.7692903,28.5042581 11.9249032,28.4647742 12.0665806,28.4043871 C14.427871,27.3940645 17.1754839,28.0010323 18.8996129,29.9171613 C19.2,30.2508387 19.4686452,30.6046452 19.7225806,30.9677419 L19.7225806,30.9677419 L43.3548387,30.9677419 L43.3548387,24.7741935 L46.4516129,24.7741935 L46.4516129,23.2258065 Z M41.8064516,27.8709677 L41.8064516,29.4193548 L40.2580645,29.4193548 L40.2580645,27.8709677 L41.8064516,27.8709677 Z M6.19354839,24.7741935 L3.94916129,24.7741935 C4.3083871,26.5385806 5.87225806,27.8709677 7.74193548,27.8709677 L7.74193548,27.8709677 L9.98632258,27.8709677 C9.62709677,26.1065806 8.06322581,24.7741935 6.19354839,24.7741935 L6.19354839,24.7741935 Z M10.1341935,23.2258065 L8.51612903,23.2258065 L8.51612903,23.7569032 C9.096,24.0332903 9.62012903,24.4056774 10.0645161,24.860129 L10.0645161,24.860129 L10.0645161,24 C10.0645161,23.736 10.0916129,23.4781935 10.1341935,23.2258065 L10.1341935,23.2258065 Z M36.2624516,16.1969032 C36.0100645,16.2332903 35.7545806,16.2580645 35.492129,16.2580645 L35.492129,16.2580645 L32.3953548,16.2580645 L32.3953548,18.4227097 C33.164129,18.1354839 33.8941935,17.5323871 34.1713548,17.2575484 L34.1713548,17.2575484 L35.2652903,18.3538065 C35.084129,18.5357419 33.4381935,20.1290323 31.6211613,20.1290323 C29.804129,20.1290323 28.1581935,18.5357419 27.9770323,18.3538065 L27.9770323,18.3538065 L29.0709677,17.2575484 C29.348129,17.5331613 30.0781935,18.1362581 30.8469677,18.4227097 L30.8469677,18.4227097 L30.8469677,16.7698065 C30.7501935,16.7365161 30.651871,16.7055484 30.5589677,16.6660645 C28.8325161,15.9274839 26.7460645,16.3896774 25.4849032,17.7909677 C24.48,18.908129 23.7731613,20.2389677 23.4030968,21.6774194 L23.4030968,21.6774194 L41.3876129,21.6774194 C41.0214194,20.256 40.3269677,18.9390968 39.339871,17.8304516 C38.4944516,16.8812903 37.3470968,16.2743226 36.2624516,16.1969032 Z M16.2580645,9.29032258 C12.8430968,9.29032258 10.0645161,12.0689032 10.0645161,15.483871 C10.0645161,15.9630968 10.1086452,16.388129 10.1938065,16.8030968 L10.1938065,16.8030968 L11.0887742,21.0967742 C11.9411613,20.036129 13.2464516,19.3548387 14.7096774,19.3548387 L14.7096774,19.3548387 L14.7096774,20.9032258 C13.9308387,20.9032258 13.2270968,21.2012903 12.6828387,21.6774194 L12.6828387,21.6774194 L21.3058065,21.6774194 L22.3215484,16.8030968 C22.4074839,16.388129 22.4516129,15.9630968 22.4516129,15.5396129 C22.4516129,12.0689032 19.6730323,9.29032258 16.2580645,9.29032258 Z M39.2849032,11.6129032 L37.0405161,11.6129032 C35.1708387,11.6129032 33.6069677,12.9452903 33.2477419,14.7096774 L33.2477419,14.7096774 L35.492129,14.7096774 C37.3618065,14.7096774 38.9249032,13.3772903 39.2849032,11.6129032 L39.2849032,11.6129032 Z M10.6010323,3.69445161 C10.3850323,3.62245161 10.1550968,3.64025806 9.95303226,3.74090323 L9.95303226,3.74090323 L9.75948387,3.83767742 C9.34064516,4.04670968 9.17032258,4.55767742 9.38012903,4.97651613 C9.3956129,5.00903226 9.41651613,5.04309677 9.43819355,5.0756129 L9.43819355,5.0756129 L12.0874839,8.97367742 C12.2949677,8.83974194 12.5094194,8.71587097 12.7300645,8.60206452 L12.7300645,8.60206452 L11.1375484,4.22245161 C11.1259355,4.19148387 11.1143226,4.16283871 11.0996129,4.13496774 C10.9904516,3.91741935 10.8162581,3.76645161 10.6010323,3.69445161 Z M22.5630968,3.74090323 C22.3602581,3.63948387 22.131871,3.62245161 21.9150968,3.69445161 C21.6990968,3.76645161 21.5256774,3.91741935 21.4242581,4.12025806 C21.4018065,4.1636129 21.3901935,4.19225806 21.3793548,4.22167742 L21.3793548,4.22167742 L19.7868387,8.60051613 C20.0074839,8.71432258 20.2219355,8.83819355 20.4301935,8.97212903 L20.4301935,8.97212903 L23.0794839,5.07329032 C23.0996129,5.04309677 23.1205161,5.00825806 23.1375484,4.97341935 C23.3458065,4.55767742 23.1754839,4.04670968 22.7566452,3.83767742 L22.7566452,3.83767742 Z M16.3308387,1.5483871 L16.1845161,1.5483871 C15.7981935,1.5483871 15.483871,1.86270968 15.483871,2.24903226 L15.483871,2.24903226 L16.0312258,7.75354839 C16.1070968,7.75122581 16.1814194,7.74193548 16.2580645,7.74193548 C16.3347097,7.74193548 16.4090323,7.75122581 16.484129,7.75354839 L16.484129,7.75354839 L17.0276129,2.31870968 C17.0314839,1.86270968 16.7171613,1.5483871 16.3308387,1.5483871 L16.3308387,1.5483871 Z" id="path-2"></path>
    </defs>
    <g id="blog" stroke="none" stroke-width="1" fill="none" fill-rule="evenodd">
        <g id="R&amp;D" transform="translate(-954.000000, -3952.000000)">
            <g id="Agriculture" transform="translate(914.000000, 3885.000000)">
                <g id="Icon-/-Business-Areas-/-Agriculture" filter="url(#filter-1)" transform="translate(48.000000, 75.000000)">
                    <rect id="Rectangle" x="0" y="0" width="56" height="56"></rect>
                    <g id="✱-/-Color-/-Icons-/-Black-/-Active" transform="translate(4.000000, 4.000000)">
                        <mask id="mask-3" fill="white">
                            <use xlink:href="#path-2"></use>
                        </mask>
                        <use id="Mask" fill-opacity="0.9" fill="#FFFFFF" fill-rule="nonzero" xlink:href="#path-2"></use>
                        <g mask="url(#mask-3)" id="↳-Tonal-Palette">
                            <g transform="translate(-4.000000, -4.000000)">
                                <rect id="Rectangle-13" fill="#FFFFFF" x="0" y="0" width="56" height="56"></rect>
                            </g>
                        </g>
                    </g>
                </g>
            </g>
        </g>
    </g>
</svg>