<?xml version="1.0" encoding="UTF-8"?>
<svg width="72px" height="72px" viewBox="0 0 72 72" version="1.1" xmlns="http://www.w3.org/2000/svg" xmlns:xlink="http://www.w3.org/1999/xlink">
    <title>272E3B13-53F2-4B3F-B0DB-43977AB0A253</title>
    <defs>
        <filter x="-18.8%" y="-18.8%" width="137.5%" height="137.5%" filterUnits="objectBoundingBox" id="filter-1">
            <feOffset dx="0" dy="1" in="SourceAlpha" result="shadowOffsetOuter1"></feOffset>
            <feGaussianBlur stdDeviation="2" in="shadowOffsetOuter1" result="shadowBlurOuter1"></feGaussianBlur>
            <feColorMatrix values="0 0 0 0 0   0 0 0 0 0   0 0 0 0 0  0 0 0 0.2 0" type="matrix" in="shadowBlurOuter1" result="shadowMatrixOuter1"></feColorMatrix>
            <feMerge>
                <feMergeNode in="shadowMatrixOuter1"></feMergeNode>
                <feMergeNode in="SourceGraphic"></feMergeNode>
            </feMerge>
        </filter>
        <path d="M41.53125,4 C41.779875,4 42.0182813,4.0988125 42.1940625,4.27459375 L42.1940625,4.27459375 L50.7253125,12.804625 C50.9011875,12.9804062 51,13.2189062 51,13.4675313 L51,13.4675313 L51,49.1875 C51,50.7383125 49.7383125,52 48.1875,52 L48.1875,52 L13.6875,52 C12.1366875,52 10.875,50.7383125 10.875,49.1875 L10.875,49.1875 L10.875,41.1562187 C10.875,40.6385312 11.2948125,40.2187187 11.8125,40.2187187 C12.3301875,40.2187187 12.75,40.6385312 12.75,41.1562187 L12.75,41.1562187 L12.75,49.1875 C12.75,49.7044375 13.1705625,50.125 13.6875,50.125 L13.6875,50.125 L48.1875,50.125 C48.7044375,50.125 49.125,49.7044375 49.125,49.1875 L49.125,49.1875 L49.125,14.40625 L43.40625,14.40625 C41.8554375,14.40625 40.59375,13.1445625 40.59375,11.59375 L40.59375,11.59375 L40.59375,5.875 L13.6875,5.875 C13.1705625,5.875 12.75,6.2955625 12.75,6.8125 L12.75,6.8125 L12.75,8.03284375 C13.5990938,7.84815625 14.4799688,7.75 15.3835313,7.75 C15.9012187,7.75 16.3210313,8.1698125 16.3210313,8.6875 L16.3210313,8.6875 L16.3210313,20.1335313 C16.3210313,20.6512187 15.9012187,21.0710313 15.3835313,21.0710313 L15.3835313,21.0710313 L3.9375,21.0710313 C3.4198125,21.0710313 3,20.6512187 3,20.1335313 C3,14.8951562 6.26953125,10.4063125 10.875,8.59975 L10.875,8.59975 L10.875,6.8125 C10.875,5.2616875 12.1366875,4 13.6875,4 L13.6875,4 Z M44.0693437,33.5879688 C45.6201562,33.5879688 46.8818437,34.8496563 46.8818437,36.4004688 C46.8818437,37.9512812 45.6201562,39.2129688 44.0693437,39.2129688 C43.5913125,39.2129688 43.1408437,39.0927813 42.74625,38.8814687 L42.74625,38.8814687 L37.3954687,44.23225 C37.56675,44.59525 37.6629375,45.0004375 37.6629375,45.42775 C37.6629375,46.9785625 36.40125,48.24025 34.8504375,48.24025 C33.299625,48.24025 32.0379375,46.9785625 32.0379375,45.42775 C32.0379375,44.9898437 32.138625,44.5750937 32.317875,44.20525 L32.317875,44.20525 L28.8323437,40.7197187 C28.422375,40.9535312 27.9486562,41.087875 27.4438125,41.087875 C26.9968125,41.087875 26.5741875,40.9825938 26.1985312,40.7962188 L26.1985312,40.7962188 L22.7775937,44.2171563 C22.9544062,44.5849375 23.0535937,44.996875 23.0535937,45.4315938 C23.0535937,46.9824062 21.7919062,48.2440938 20.2410937,48.2440938 C18.6902812,48.2440938 17.4285937,46.9824062 17.4285937,45.4315938 C17.4285937,43.8807813 18.6902812,42.6190938 20.2410937,42.6190938 C20.6736562,42.6190938 21.0837187,42.7174375 21.4501875,42.89275 L21.4501875,42.89275 L24.8903437,39.4525938 C24.7244062,39.0941875 24.631125,38.6955625 24.631125,38.275375 C24.631125,36.7245625 25.8928125,35.462875 27.443625,35.462875 C28.9944375,35.462875 30.256125,36.7245625 30.256125,38.275375 C30.256125,38.6363125 30.187125,38.9812188 30.0628125,39.2984688 L30.0628125,39.2984688 L33.6495,42.8851563 C34.0139062,42.712375 34.4209687,42.61525 34.8504375,42.61525 C35.2903125,42.61525 35.7069375,42.7169687 36.0780937,42.8978125 L36.0780937,42.8978125 L41.4793125,37.4965938 C41.3361562,37.1595625 41.2568437,36.7891563 41.2568437,36.4004688 C41.2568437,34.8496563 42.5185312,33.5879688 44.0693437,33.5879688 Z M20.241,44.4941875 C19.7240625,44.4941875 19.3035,44.91475 19.3035,45.4316875 C19.3035,45.948625 19.7240625,46.3691875 20.241,46.3691875 C20.7579375,46.3691875 21.1785,45.9485313 21.1785,45.4316875 C21.1785,45.1790313 21.0775312,44.9497188 20.9144062,44.7809688 L20.9144062,44.7809688 L20.9004375,44.7684063 C20.8965937,44.7645625 20.8933125,44.7603438 20.8895625,44.7564063 C20.721,44.5944063 20.4927187,44.4941875 20.241,44.4941875 Z M34.85025,44.49025 C34.3333125,44.49025 33.91275,44.9108125 33.91275,45.42775 C33.91275,45.9446875 34.3333125,46.36525 34.85025,46.36525 C35.3671875,46.36525 35.78775,45.9446875 35.78775,45.42775 C35.78775,44.9108125 35.3671875,44.49025 34.85025,44.49025 Z M27.443625,37.337875 C26.9266875,37.337875 26.506125,37.7584375 26.506125,38.275375 C26.506125,38.7923125 26.9266875,39.212875 27.443625,39.212875 C27.9605625,39.212875 28.381125,38.7923125 28.381125,38.275375 C28.381125,37.7584375 27.9605625,37.337875 27.443625,37.337875 Z M11.8125,36.8125 C12.0590625,36.8125 12.3009375,36.9127188 12.4752187,37.0871875 C12.6496875,37.2615625 12.75,37.5034375 12.75,37.75 C12.75,37.9965625 12.6496875,38.2384375 12.4752187,38.4127188 C12.3009375,38.5871875 12.0590625,38.6875 11.8125,38.6875 C11.5659375,38.6875 11.3240625,38.5871875 11.1496875,38.4127188 C10.9752187,38.2384375 10.875,37.9965625 10.875,37.75 C10.875,37.5034375 10.9753125,37.2615625 11.1496875,37.0871875 C11.3240625,36.9127188 11.5659375,36.8125 11.8125,36.8125 Z M44.0691562,35.462875 C43.5523125,35.462875 43.1316562,35.8834375 43.1316562,36.400375 C43.1316562,36.9173125 43.5522187,37.337875 44.0691562,37.337875 C44.5860937,37.337875 45.0066562,36.9173125 45.0066562,36.400375 C45.0066562,35.8834375 44.5860937,35.462875 44.0691562,35.462875 Z M18.7414687,11.1080312 C25.56975,11.1080312 31.125,16.6631875 31.125,23.4914687 C31.125,30.31975 25.56975,35.875 18.7414687,35.875 C11.9131875,35.875 6.35803125,30.31975 6.35803125,23.4914687 C6.35803125,22.9737812 6.77784375,22.5539687 7.29553125,22.5539687 L7.29553125,22.5539687 L17.8039687,22.5539687 L17.8039687,12.0455312 C17.8039687,11.5278437 18.2237812,11.1080312 18.7414687,11.1080312 Z M26.8021875,16.75675 L19.4044687,24.154375 L19.4044687,24.154375 L19.3140599,24.2338299 C19.1556615,24.3561823 18.9570937,24.4289687 18.7414687,24.4289687 L18.7414687,24.4289687 L8.2745625,24.4289687 C8.75015625,29.7860312 13.263,34 18.7414687,34 C24.535875,34 29.25,29.285875 29.25,23.4914687 C29.25,20.9311562 28.3294687,18.5817812 26.8021875,16.75675 L26.8021875,16.75675 Z M39.3834375,26.03125 C39.901125,26.03125 40.3209375,26.4510625 40.3209375,26.96875 C40.3209375,27.4864375 39.901125,27.90625 39.3834375,27.90625 L39.3834375,27.90625 L34.4354062,27.90625 C33.917625,27.90625 33.4979062,27.4864375 33.4979062,26.96875 C33.4979062,26.4510625 33.9177187,26.03125 34.4354062,26.03125 L34.4354062,26.03125 Z M43.651875,26.03125 C43.8984375,26.03125 44.1403125,26.1315625 44.3145937,26.3059375 C44.4890625,26.4803125 44.589375,26.7221875 44.589375,26.96875 C44.589375,27.2153125 44.4889687,27.4571875 44.3145937,27.6314687 C44.1403125,27.8059375 43.8984375,27.90625 43.651875,27.90625 C43.404375,27.90625 43.1634375,27.8058438 42.9890625,27.6314687 C42.8145937,27.4571875 42.714375,27.2153125 42.714375,26.96875 C42.714375,26.7221875 42.8146875,26.4803125 42.9890625,26.3059375 C43.1634375,26.1314687 43.4053125,26.03125 43.651875,26.03125 Z M45.8873437,21.53125 C46.4050312,21.53125 46.8248437,21.9510625 46.8248437,22.46875 C46.8248437,22.9864375 46.4050312,23.40625 45.8873437,23.40625 L45.8873437,23.40625 L34.4354062,23.40625 C33.917625,23.40625 33.4979062,22.9864375 33.4979062,22.46875 C33.4979062,21.9510625 33.9177187,21.53125 34.4354062,21.53125 L34.4354062,21.53125 Z M19.6789687,13.0245625 L19.6789687,21.2281562 L25.4760937,15.431125 C23.87625,14.0921875 21.8736562,13.219375 19.6789687,13.0245625 L19.6789687,13.0245625 Z M14.4459375,9.66653125 C9.39778125,10.11475 5.36465625,14.1477813 4.9164375,19.1960313 L4.9164375,19.1960313 L14.4459375,19.1960313 Z M45.8873437,17.03125 C46.4050312,17.03125 46.8248437,17.4510625 46.8248437,17.96875 C46.8248437,18.4864375 46.4050312,18.90625 45.8873437,18.90625 L45.8873437,18.90625 L34.4354062,18.90625 C33.917625,18.90625 33.4979062,18.4864375 33.4979062,17.96875 C33.4979062,17.4510625 33.9177187,17.03125 34.4354062,17.03125 L34.4354062,17.03125 Z M42.46875,7.200625 L42.46875,11.59375 C42.46875,12.1106875 42.8893125,12.53125 43.40625,12.53125 L43.40625,12.53125 L47.800125,12.53125 L42.46875,7.200625 Z" id="path-2"></path>
    </defs>
    <g id="blog" stroke="none" stroke-width="1" fill="none" fill-rule="evenodd">
        <g id="R&amp;D" transform="translate(-178.000000, -3952.000000)">
            <g id="Finance" transform="translate(138.000000, 3885.000000)">
                <g id="Icon-/-Business-Areas-/-Finance" filter="url(#filter-1)" transform="translate(48.000000, 75.000000)">
                    <rect id="Rectangle" x="0" y="0" width="56" height="56"></rect>
                    <mask id="mask-3" fill="white">
                        <use xlink:href="#path-2"></use>
                    </mask>
                    <use id="Mask" fill-opacity="0.8" fill="#FFFFFF" fill-rule="nonzero" xlink:href="#path-2"></use>
                    <g id="✱-/-Color-/-Icons-/-Black-/-Active" mask="url(#mask-3)" fill="#FFFFFF">
                        <g id="↳-Tonal-Palette">
                            <rect id="Rectangle-13" x="0" y="0" width="56" height="56"></rect>
                        </g>
                    </g>
                </g>
            </g>
        </g>
    </g>
</svg>