<?xml version="1.0" encoding="UTF-8"?>
<svg width="72px" height="72px" viewBox="0 0 72 72" version="1.1" xmlns="http://www.w3.org/2000/svg" xmlns:xlink="http://www.w3.org/1999/xlink">
    <title>722CA087-8663-4CF5-A646-553549E3CF05</title>
    <defs>
        <filter x="-18.8%" y="-18.8%" width="137.5%" height="137.5%" filterUnits="objectBoundingBox" id="filter-1">
            <feOffset dx="0" dy="1" in="SourceAlpha" result="shadowOffsetOuter1"></feOffset>
            <feGaussianBlur stdDeviation="2" in="shadowOffsetOuter1" result="shadowBlurOuter1"></feGaussianBlur>
            <feColorMatrix values="0 0 0 0 0   0 0 0 0 0   0 0 0 0 0  0 0 0 0.2 0" type="matrix" in="shadowBlurOuter1" result="shadowMatrixOuter1"></feColorMatrix>
            <feMerge>
                <feMergeNode in="shadowMatrixOuter1"></feMergeNode>
                <feMergeNode in="SourceGraphic"></feMergeNode>
            </feMerge>
        </filter>
        <path d="M28.3629297,5.09912506 C29.8289922,3.63306256 32.2006797,3.63409381 33.6660859,5.09940631 L33.6660859,5.09940631 L34.9915234,6.42484381 L35.1048672,6.31150006 C36.9369297,4.47831256 39.9028047,4.47896881 41.7342109,6.31168756 L41.7342109,6.31168756 L42.3969297,6.97440631 L43.0605859,6.31121881 C44.8922734,4.47821881 47.8573047,4.47934381 49.6885234,6.31178131 C51.5217109,8.14243756 51.5198359,11.1106563 49.6878672,12.9400001 L49.6878672,12.9400001 L49.0254297,13.6030001 L49.6883359,14.2659063 C50.5739922,15.1510001 51.0618672,16.3281251 51.0618672,17.5804376 C51.0618672,19.3288376 50.1415872,20.4279176 49.7484672,20.8341896 L49.6120316,20.9701006 C49.5917911,20.9898458 49.5789934,21.0025976 49.5750859,21.0083126 L49.5750859,21.0083126 L50.9007109,22.3338438 C52.3667734,23.8000001 52.3665859,26.1726251 50.9004297,27.6378438 C49.4362422,29.1044688 47.0606172,29.1023126 45.5976484,27.6370001 L45.5976484,27.6370001 L40.2950547,22.3344063 L22.3344297,40.2950313 L27.6375859,45.5981876 C29.1038359,47.0633126 29.1030859,49.4363126 27.6373047,50.9009688 C26.1713359,52.3669376 23.7995547,52.3660938 22.3340547,50.9006876 L22.3340547,50.9006876 L21.0086172,49.5751563 L20.8953672,49.6884063 C19.0633047,51.5216876 16.0974297,51.5209376 14.2660234,49.6882188 L14.2660234,49.6882188 L13.6033047,49.0255001 L12.9396484,49.6886876 C11.1075859,51.5218751 8.14274219,51.5204688 6.31152344,49.6882188 C4.47833594,47.8574688 4.48021094,44.8892501 6.31217969,43.0599063 L6.31217969,43.0599063 L6.97461719,42.3969063 L6.31171094,41.7340001 C4.47852344,39.9019376 4.47917969,36.9360626 6.31189844,35.1046563 L6.31189844,35.1046563 L6.42496094,34.9915938 L5.09952344,33.6661563 C3.63336719,32.1999063 3.63355469,29.8272813 5.09971094,28.3622501 C6.56389844,26.8956251 8.93952344,26.8977813 10.4024922,28.3630938 L10.4024922,28.3630938 L15.7050859,33.6656876 L33.6658047,15.7050626 L28.3626484,10.4019063 C26.8963984,8.93678131 26.8971484,6.56378131 28.3629297,5.09912506 Z M9.07611719,29.6884376 C8.34233594,28.9533438 7.15508594,28.9573751 6.42580469,29.6878751 C5.68592969,30.4271876 5.69839844,31.6135001 6.42524219,32.3403438 L6.42524219,32.3403438 L6.51979295,32.4348946 C6.56066558,32.4757672 6.6107279,32.5258295 6.66948186,32.5845835 L15.3858011,41.3009027 C15.5960837,41.5111853 15.806093,41.7211946 16.0153308,41.9304324 L19.590717,45.5058186 C20.0458436,45.9609452 20.4774717,46.3925733 20.877819,46.7929206 L21.3427231,47.2578247 C21.4923542,47.4074558 21.6364823,47.5515839 21.7746094,47.689711 L22.1704896,48.0855912 C22.2961166,48.2112182 22.4152445,48.3303461 22.5273753,48.4424769 L23.6596797,49.5747813 C24.3914922,50.3065001 25.5769609,50.3094063 26.3115859,49.5747813 C27.0450859,48.8419376 27.0445234,47.6560001 26.3117734,46.9240938 L26.3117734,46.9240938 Z M8.30024219,43.7226251 L7.63761719,44.3858126 C6.53699219,45.4850313 6.53821094,47.2649688 7.63696094,48.3621251 C8.73946094,49.4655626 10.5176172,49.4596563 11.6136484,48.3627813 L11.6136484,48.3627813 L12.2773047,47.6996876 L8.30024219,43.7226251 Z M7.75067969,36.3174063 L7.63742969,36.4307501 C6.53708594,37.5301563 6.53774219,39.3092501 7.63724219,40.4080001 L7.63724219,40.4080001 L15.5918359,48.3625938 C16.6912422,49.4629376 18.4703359,49.4622813 19.5690859,48.3627813 L19.5690859,48.3627813 L19.6825234,48.2492501 L7.75067969,36.3174063 Z M34.9917109,17.0309688 L17.0310859,34.9915938 L21.0084297,38.9689376 L38.9690547,21.0084063 L34.9917109,17.0309688 Z M29.8017109,24.8725001 C30.1678047,24.5063126 30.7614297,24.5063126 31.1276172,24.8725001 C31.4937109,25.2386876 31.4937109,25.8322188 31.1275234,26.1984063 L31.1275234,26.1984063 L23.5462422,33.7796876 C23.1801484,34.1457813 22.5865234,34.1457813 22.2204297,33.7796876 C21.8543359,33.4135001 21.8543359,32.8198751 22.2204297,32.4537813 L22.2204297,32.4537813 Z M32.3404609,6.42521881 C31.6085547,5.69350006 30.4231797,5.69059381 29.6885547,6.42521881 C28.9550547,7.15806256 28.9556172,8.34400006 29.6882734,9.07590631 L29.6882734,9.07590631 L46.9239297,26.3114688 C47.6577109,27.0465626 48.8449609,27.0425313 49.5742422,26.3120313 C50.3141172,25.5728126 50.3016484,24.3864063 49.5748047,23.6596563 L49.5748047,23.6596563 L49.4216729,23.5065141 C49.2300309,23.3148632 48.8943119,22.9791363 48.4464317,22.531249 L47.69448,21.7792872 C47.5564643,21.64127 47.412436,21.4972402 47.2628937,21.3476964 L44.6685418,18.7533259 C44.4763263,18.5611094 44.2810902,18.3658722 44.0833321,18.1681132 L43.4829909,17.5677692 C43.2806876,17.3654651 43.0763612,17.1611378 42.8705101,16.955286 L41.9355728,16.0203453 C41.3076649,15.3924353 40.6727681,14.7575367 40.044347,14.1291141 L39.1082552,13.1930201 C38.9020621,12.9868266 38.6973365,12.7821006 38.4945772,12.5793409 L37.8926965,11.9774592 C37.6943683,11.7791307 37.498505,11.5832671 37.3056053,11.3903671 L36.1877597,10.27252 C36.0087091,10.0934692 35.8336195,9.91837939 35.6629895,9.74774923 L34.4746749,8.55943361 C34.3294599,8.41421852 34.1899513,8.27470979 34.0566477,8.14140612 L33.335276,7.42003408 C33.2287873,7.31354533 33.129501,7.21425898 33.0379158,7.12267372 L32.5848069,6.66956478 C32.4672346,6.55199247 32.3844561,6.469214 32.3404609,6.42521881 Z M32.4538984,22.2205001 C32.8195234,21.8548751 33.4129609,21.8548751 33.7795234,22.2205001 C34.1451484,22.5870626 34.1451484,23.1804063 33.7795234,23.5460313 C33.4129609,23.9125938 32.8195234,23.9125938 32.4538984,23.5460313 C32.0873359,23.1805001 32.0873359,22.5870626 32.4538984,22.2205001 Z M40.4082109,7.63731256 C39.3088047,6.53696881 37.5297109,6.53762506 36.4309609,7.63712506 L36.4309609,7.63712506 L36.3174297,7.75065631 L48.2493672,19.6825001 L48.3626172,19.5691563 C49.4629609,18.4697501 49.4623047,16.6906563 48.3628047,15.5919063 L48.3628047,15.5919063 Z M48.3630859,7.63778131 C47.2605859,6.53434381 45.4824297,6.54025006 44.3863984,7.63712506 L44.3863984,7.63712506 L43.7227422,8.30021881 L47.6998047,12.2772813 L48.3624297,11.6140938 C49.4630547,10.5148751 49.4618359,8.73493756 48.3630859,7.63778131 Z" id="path-2"></path>
    </defs>
    <g id="blog" stroke="none" stroke-width="1" fill="none" fill-rule="evenodd">
        <g id="R&amp;D" transform="translate(-566.000000, -4189.000000)">
            <g id="Fitness" transform="translate(526.000000, 4122.000000)">
                <g id="Icon-/-Business-Areas-/-Fitness" filter="url(#filter-1)" transform="translate(48.000000, 75.000000)">
                    <rect id="Rectangle" x="0" y="0" width="56" height="56"></rect>
                    <mask id="mask-3" fill="white">
                        <use xlink:href="#path-2"></use>
                    </mask>
                    <use id="Mask" fill="#FFFFFF" fill-rule="nonzero" xlink:href="#path-2"></use>
                    <g id="✱-/-Color-/-Icons-/-Black-/-Active" mask="url(#mask-3)" fill="#FFFFFF">
                        <g id="↳-Tonal-Palette">
                            <rect id="Rectangle-13" x="0" y="0" width="56" height="56"></rect>
                        </g>
                    </g>
                </g>
            </g>
        </g>
    </g>
</svg>