<?xml version="1.0" encoding="UTF-8"?>
<svg width="72px" height="72px" viewBox="0 0 72 72" version="1.1" xmlns="http://www.w3.org/2000/svg" xmlns:xlink="http://www.w3.org/1999/xlink">
    <title>27AEDB1D-D45D-4AB4-8891-DA9AFD3D3C62</title>
    <defs>
        <filter x="-18.8%" y="-18.8%" width="137.5%" height="137.5%" filterUnits="objectBoundingBox" id="filter-1">
            <feOffset dx="0" dy="1" in="SourceAlpha" result="shadowOffsetOuter1"></feOffset>
            <feGaussianBlur stdDeviation="2" in="shadowOffsetOuter1" result="shadowBlurOuter1"></feGaussianBlur>
            <feColorMatrix values="0 0 0 0 0   0 0 0 0 0   0 0 0 0 0  0 0 0 0.2 0" type="matrix" in="shadowBlurOuter1" result="shadowMatrixOuter1"></feColorMatrix>
            <feMerge>
                <feMergeNode in="shadowMatrixOuter1"></feMergeNode>
                <feMergeNode in="SourceGraphic"></feMergeNode>
            </feMerge>
        </filter>
        <path d="M39.9296875,7 C43.3272813,7 46.4305937,8.38496875 48.6679375,10.899625 C50.8166875,13.314625 52,16.554625 52,20.0229063 C52,29.5644063 41.9062188,37.5954063 28.6139687,49.1150313 C28.4378125,49.26775 28.2189062,49.3440625 28,49.3440625 C27.7810938,49.3440625 27.5621875,49.26775 27.3860312,49.1150313 C14.125375,37.622875 4,29.5777188 4,20.0229063 C4,12.9494688 8.9588125,7 16.0703125,7 C19.785625,7 23.1757188,8.44009375 25.874125,11.16475 C26.8124688,12.1122813 27.5138125,13.0586875 28,13.8097188 C28.4861875,13.0585938 29.1875312,12.1120938 30.125875,11.16475 C32.8242812,8.4401875 36.2144687,7 39.9296875,7 Z M39.9297812,8.87509375 C36.7024375,8.87509375 33.8677187,10.0736875 31.504375,12.4376875 C30.0142543,13.9281961 29.1819576,15.443939 28.9345787,15.9327165 L28.8848775,16.0329069 C28.8660777,16.0716956 28.8563222,16.0930679 28.8554687,16.0949688 C28.703875,16.4311563 28.369,16.648 28.000375,16.648 L28.000375,16.648 C27.629875,16.64725 27.2954687,16.43125 27.144625,16.0949688 C27.1437716,16.0930679 27.1340161,16.0716946 27.1152162,16.0329042 L27.0655151,15.9327096 C26.8181361,15.4439122 25.9858394,13.9281185 24.4957187,12.4376875 C22.1322812,10.0737813 19.2975625,8.87509375 16.0703125,8.87509375 C10.258,8.87509375 5.875,13.6675938 5.875,20.0229063 C5.875,28.5476875 15.4779062,36.3304375 28,47.1664375 C39.8884375,36.8787813 50.1250937,28.7401563 50.1250937,20.0229063 C50.1250937,13.6675938 45.7420937,8.87509375 39.9297812,8.87509375 Z M30.8125,18.7816563 C31.3302813,18.7816563 31.75,19.201375 31.75,19.7191563 L31.75,19.7191563 L31.75,24.9691563 L37,24.9691563 C37.5177812,24.9691563 37.9375,25.388875 37.9375,25.9066563 L37.9375,25.9066563 L37.9375,31.5316563 C37.9375,32.0494375 37.5177812,32.4691563 37,32.4691563 L37,32.4691563 L31.75,32.4691563 L31.75,37.7191563 C31.75,38.2369375 31.3302813,38.6566563 30.8125,38.6566563 L30.8125,38.6566563 L25.1875,38.6566563 C24.6697188,38.6566563 24.25,38.2369375 24.25,37.7191563 L24.25,37.7191563 L24.25,32.4691563 L19,32.4691563 C18.4822188,32.4691563 18.0625,32.0494375 18.0625,31.5316563 L18.0625,31.5316563 L18.0625,25.9066563 C18.0625,25.388875 18.4822188,24.9691563 19,24.9691563 L19,24.9691563 L24.25,24.9691563 L24.25,19.7191563 C24.25,19.201375 24.6697188,18.7816563 25.1875,18.7816563 L25.1875,18.7816563 Z M29.875,20.6565625 L26.125,20.6565625 L26.125,25.9065625 C26.125,26.4243438 25.7052812,26.8440625 25.1875,26.8440625 L25.1875,26.8440625 L19.9375,26.8440625 L19.9375,30.5940625 L25.1875,30.5940625 C25.7052812,30.5940625 26.125,31.0137813 26.125,31.5315625 L26.125,31.5315625 L26.125,36.7815625 L29.875,36.7815625 L29.875,31.5315625 C29.875,31.0137813 30.2947187,30.5940625 30.8125,30.5940625 L30.8125,30.5940625 L36.0625,30.5940625 L36.0625,26.8440625 L30.8125,26.8440625 C30.2947187,26.8440625 29.875,26.4243438 29.875,25.9065625 L29.875,25.9065625 L29.875,20.6565625 Z M45.81025,14.789125 C46.2686875,14.54875 46.8354062,14.725375 47.075875,15.184 C47.8439687,16.6486563 48.25,18.3219063 48.25,20.0229063 C48.25,23.1802188 46.83025,26.4274375 43.7820625,30.2419375 C43.460875,30.6438438 42.8714687,30.7143438 42.4644062,30.3890313 C42.0599687,30.0657813 41.9940625,29.4758125 42.3173125,29.071375 C45.0856562,25.607125 46.375,22.7319063 46.375,20.0229063 C46.375,18.6440313 46.0342187,17.2347813 45.415375,16.05475 C45.1749062,15.5962188 45.3517187,15.0295938 45.81025,14.789125 Z M43.796875,11.8441563 C44.314375,11.8441563 44.734375,12.2640625 44.734375,12.7816563 C44.734375,13.2991563 44.314375,13.7191563 43.796875,13.7191563 C43.279375,13.7191563 42.859375,13.2991563 42.859375,12.7816563 C42.859375,12.2641563 43.279375,11.8441563 43.796875,11.8441563 Z" id="path-2"></path>
    </defs>
    <g id="blog" stroke="none" stroke-width="1" fill="none" fill-rule="evenodd">
        <g id="R&amp;D" transform="translate(-566.000000, -3715.000000)">
            <g id="Healthcare" transform="translate(526.000000, 3648.000000)">
                <g id="Icon-/-Business-Areas-/-Healthcare" filter="url(#filter-1)" transform="translate(48.000000, 75.000000)">
                    <rect id="Rectangle" x="0" y="0" width="56" height="56"></rect>
                    <mask id="mask-3" fill="white">
                        <use xlink:href="#path-2"></use>
                    </mask>
                    <use id="Mask" fill="#FFFFFF" fill-rule="nonzero" xlink:href="#path-2"></use>
                    <g id="✱-/-Color-/-Icons-/-Black-/-Active" mask="url(#mask-3)" fill="#FFFFFF">
                        <g id="↳-Tonal-Palette">
                            <rect id="Rectangle-13" x="0" y="0" width="56" height="56"></rect>
                        </g>
                    </g>
                </g>
            </g>
        </g>
    </g>
</svg>