<?xml version="1.0" encoding="UTF-8"?>
<svg width="72px" height="72px" viewBox="0 0 72 72" version="1.1" xmlns="http://www.w3.org/2000/svg" xmlns:xlink="http://www.w3.org/1999/xlink">
    <title>C109E844-0D21-46E9-93DB-F1560B482B15</title>
    <defs>
        <filter x="-18.8%" y="-18.8%" width="137.5%" height="137.5%" filterUnits="objectBoundingBox" id="filter-1">
            <feOffset dx="0" dy="1" in="SourceAlpha" result="shadowOffsetOuter1"></feOffset>
            <feGaussianBlur stdDeviation="2" in="shadowOffsetOuter1" result="shadowBlurOuter1"></feGaussianBlur>
            <feColorMatrix values="0 0 0 0 0   0 0 0 0 0   0 0 0 0 0  0 0 0 0.2 0" type="matrix" in="shadowBlurOuter1" result="shadowMatrixOuter1"></feColorMatrix>
            <feMerge>
                <feMergeNode in="shadowMatrixOuter1"></feMergeNode>
                <feMergeNode in="SourceGraphic"></feMergeNode>
            </feMerge>
        </filter>
        <path d="M15.6535645,14.2451172 C15.9058838,14.0697021 16.2285156,14.0297852 16.5167237,14.1378174 L16.5167237,14.1378174 L21.7667237,16.1065674 C22.1325683,16.2438964 22.375,16.5936279 22.375,16.984375 L22.375,16.984375 L22.375,36.625 L24.25,36.625 L24.25,27.7952881 C24.25,27.2774658 24.6696777,26.855957 25.1871338,26.855957 L25.1871338,26.855957 L29.8530273,26.8552246 L36.5246583,20.1835938 C36.7927246,19.9155273 37.1959229,19.8349609 37.5463867,19.9803467 C37.8964844,20.1253662 38.125,20.4674073 38.125,20.8464355 L38.125,20.8464355 L38.125,25.520752 L43.4621583,20.1832276 C43.7302246,19.9155273 44.1334229,19.8349609 44.4838867,19.9803467 C44.8339844,20.1253662 45.0625,20.4674073 45.0625,20.8464355 L45.0625,20.8464355 L45.0625,25.520752 L50.3996583,20.1835938 C50.6677246,19.9155273 51.0709229,19.8349609 51.4213867,19.9803467 C51.7714844,20.1253662 52,20.4674073 52,20.8464355 L52,20.8464355 L52,51.0625 C52,51.5803223 51.5803223,52 51.0625,52 L51.0625,52 L4.9375,52 C4.41967769,52 4,51.5803223 4,51.0625 L4,51.0625 L4,37.5625 C4,37.0446777 4.41967769,36.625 4.9375,36.625 L4.9375,36.625 L6.25,36.625 L6.25,15.015625 C6.25,14.7080078 6.40087891,14.4201661 6.6535645,14.2451172 C6.90588381,14.0697021 7.22851562,14.0297852 7.51672366,14.1378174 L7.51672366,14.1378174 L12.7667237,16.1065674 C13.1325683,16.2438964 13.375,16.5936279 13.375,16.984375 L13.375,16.984375 L13.375,36.625 L15.25,36.625 L15.25,31.28125 C15.25,30.7634277 15.6696777,30.34375 16.1875,30.34375 C16.7053223,30.34375 17.125,30.7634277 17.125,31.28125 L17.125,31.28125 L17.125,36.625 L20.5,36.625 L20.5,17.6340333 L17.125,16.3684083 L17.125,22.84375 C17.125,23.3615723 16.7053223,23.78125 16.1875,23.78125 C15.6696777,23.78125 15.25,23.3615723 15.25,22.84375 L15.25,22.84375 L15.25,15.015625 C15.25,14.7080078 15.4005127,14.4201661 15.6535645,14.2451172 Z M50.125,23.1096192 L44.7878417,28.4467773 C44.5197754,28.7148438 44.1165771,28.795044 43.7661133,28.6500244 C43.4160156,28.5050049 43.1875,28.1629638 43.1875,27.7839355 L43.1875,27.7839355 L43.1875,23.1096192 L37.8503417,28.4467773 C37.5822754,28.7148438 37.1790771,28.795044 36.8286133,28.6500244 C36.4785156,28.5050049 36.25,28.1629638 36.25,27.7839355 L36.25,27.7839355 L36.25,23.1096192 L30.904419,28.4555664 C30.7286377,28.6313477 30.4902344,28.7302246 30.2415771,28.7302246 L30.2415771,28.7302246 L26.125,28.730957 L26.125,37.5625 C26.125,38.0803223 25.7053223,38.5 25.1875,38.5 L25.1875,38.5 L5.875,38.5 L5.875,50.125 L50.125,50.125 L50.125,47.453125 L34.75,47.453125 C34.2321777,47.453125 33.8125,47.0334473 33.8125,46.515625 C33.8125,45.9978027 34.2321777,45.578125 34.75,45.578125 L34.75,45.578125 L50.125,45.578125 L50.125,42.953125 L34.75,42.953125 C34.2321777,42.953125 33.8125,42.5334473 33.8125,42.015625 C33.8125,41.4978027 34.2321777,41.078125 34.75,41.078125 L34.75,41.078125 L50.125,41.078125 L50.125,38.453125 L34.75,38.453125 C34.2321777,38.453125 33.8125,38.0334473 33.8125,37.515625 C33.8125,36.9978027 34.2321777,36.578125 34.75,36.578125 L34.75,36.578125 L50.125,36.578125 L50.125,33.953125 L34.75,33.953125 C34.2321777,33.953125 33.8125,33.5334473 33.8125,33.015625 C33.8125,32.4978027 34.2321777,32.078125 34.75,32.078125 L34.75,32.078125 L50.125,32.078125 L50.125,23.1096192 Z M13.9375,40.75 C14.4553223,40.75 14.875,41.1696777 14.875,41.6875 L14.875,41.6875 L14.875,46.9375 C14.875,47.4553223 14.4553223,47.875 13.9375,47.875 L13.9375,47.875 L9.4375,47.875 C8.91967769,47.875 8.5,47.4553223 8.5,46.9375 L8.5,46.9375 L8.5,41.6875 C8.5,41.1696777 8.91967769,40.75 9.4375,40.75 L9.4375,40.75 Z M22.9375,40.75 C23.4553223,40.75 23.875,41.1696777 23.875,41.6875 L23.875,41.6875 L23.875,46.9375 C23.875,47.4553223 23.4553223,47.875 22.9375,47.875 L22.9375,47.875 L18.4375,47.875 C17.9196777,47.875 17.5,47.4553223 17.5,46.9375 L17.5,46.9375 L17.5,41.6875 C17.5,41.1696777 17.9196777,40.75 18.4375,40.75 L18.4375,40.75 Z M13,42.625 L10.375,42.625 L10.375,46 L13,46 L13,42.625 Z M22,42.625 L19.375,42.625 L19.375,46 L22,46 L22,42.625 Z M8.125,16.3684083 L8.125,36.625 L11.5,36.625 L11.5,17.6340333 L8.125,16.3684083 Z M16.1875,26.125 C16.4339599,26.125 16.6760254,26.2253417 16.8503417,26.3996583 C17.0246583,26.5739746 17.125,26.8160401 17.125,27.0625 C17.125,27.3089599 17.0246583,27.5510254 16.8503417,27.7253417 C16.6760254,27.8996583 16.4339599,28 16.1875,28 C15.9410401,28 15.6989746,27.8996583 15.5246582,27.7253417 C15.3503418,27.5510254 15.25,27.3089599 15.25,27.0625 C15.25,26.8160401 15.3503418,26.5739746 15.5246582,26.3996583 C15.6989746,26.2253417 15.9410401,26.125 16.1875,26.125 Z M22.8752442,4 C24.5111084,4 26.0195312,4.90417478 26.8123779,6.30676272 C28.5540771,6.42797856 29.9899902,7.68518069 30.3895263,9.34411619 L30.3895263,9.34411619 L36.5209961,9.34411619 C37.0388183,9.34411619 37.4584961,9.76379397 37.4584961,10.2816162 C37.4584961,10.7990723 37.0388183,11.2191162 36.5209961,11.2191162 L36.5209961,11.2191162 L29.5629883,11.2191162 C29.0451661,11.2191162 28.6254883,10.7990723 28.6254883,10.2816162 C28.6254883,9.11816406 27.6876221,8.171875 26.5347901,8.171875 C26.4663086,8.171875 26.3927002,8.17590334 26.3168945,8.18359375 C25.8942871,8.22534175 25.4973145,7.97998047 25.3468018,7.58410647 C24.9578857,6.56164553 23.9647217,5.875 22.8752442,5.875 C21.7857666,5.875 20.7926026,6.56164553 20.4040527,7.58410647 C20.2531739,7.98034666 19.8562011,8.22570803 19.4335937,8.18359375 C19.3577881,8.17590334 19.2845459,8.171875 19.2160645,8.171875 C18.0628662,8.171875 17.125,9.11816406 17.125,10.2816162 L17.125,10.2816162 L17.125,11.0543213 C17.125,11.5721435 16.7053223,11.9918213 16.1875,11.9918213 C15.6696777,11.9918213 15.25,11.5721435 15.25,11.0543213 L15.25,11.0543213 L15.25,10.2816162 C15.25,8.17810056 16.8803711,6.45031741 18.9381104,6.30676272 C19.730957,4.90417478 21.2393799,4 22.8752442,4 Z M43.4790039,9.34411619 C43.9968261,9.34411619 44.4165039,9.76379397 44.4165039,10.2816162 C44.4165039,10.7990723 43.9968261,11.2191162 43.4790039,11.2191162 L43.4790039,11.2191162 L40.7459717,11.2191162 C40.2281494,11.2191162 39.8084717,10.7990723 39.8084717,10.2816162 C39.8084717,9.76379397 40.2281494,9.34411619 40.7459717,9.34411619 L40.7459717,9.34411619 Z" id="path-2"></path>
    </defs>
    <g id="blog" stroke="none" stroke-width="1" fill="none" fill-rule="evenodd">
        <g id="R&amp;D" transform="translate(-178.000000, -3715.000000)">
            <g id="Manufacturing" transform="translate(138.000000, 3648.000000)">
                <g id="Icon-/-Business-Areas-/-Manufacturing" filter="url(#filter-1)" transform="translate(48.000000, 75.000000)">
                    <rect id="Rectangle" x="0" y="0" width="56" height="56"></rect>
                    <mask id="mask-3" fill="white">
                        <use xlink:href="#path-2"></use>
                    </mask>
                    <use id="Mask" fill="#FFFFFF" fill-rule="nonzero" xlink:href="#path-2"></use>
                    <g id="✱-/-Color-/-Icons-/-Black-/-Active" mask="url(#mask-3)" fill="#FFFFFF">
                        <g id="↳-Tonal-Palette">
                            <rect id="Rectangle-13" x="0" y="0" width="56" height="56"></rect>
                        </g>
                    </g>
                </g>
            </g>
        </g>
    </g>
</svg>