<?xml version="1.0" encoding="UTF-8"?>
<svg width="72px" height="72px" viewBox="0 0 72 72" version="1.1" xmlns="http://www.w3.org/2000/svg" xmlns:xlink="http://www.w3.org/1999/xlink">
    <title>0C00604B-6AFE-4104-AFB5-1C917CAFC2FE</title>
    <defs>
        <filter x="-18.8%" y="-18.8%" width="137.5%" height="137.5%" filterUnits="objectBoundingBox" id="filter-1">
            <feOffset dx="0" dy="1" in="SourceAlpha" result="shadowOffsetOuter1"></feOffset>
            <feGaussianBlur stdDeviation="2" in="shadowOffsetOuter1" result="shadowBlurOuter1"></feGaussianBlur>
            <feColorMatrix values="0 0 0 0 0   0 0 0 0 0   0 0 0 0 0  0 0 0 0.2 0" type="matrix" in="shadowBlurOuter1" result="shadowMatrixOuter1"></feColorMatrix>
            <feMerge>
                <feMergeNode in="shadowMatrixOuter1"></feMergeNode>
                <feMergeNode in="SourceGraphic"></feMergeNode>
            </feMerge>
        </filter>
        <path d="M24.2954252,11.0336386 C24.8118002,11.0291351 25.2393002,11.4426081 25.2472689,11.9649595 C25.2551439,12.4873108 24.8419877,12.9173378 24.3243002,12.9252838 C16.9799252,13.0392703 11.9725502,13.366473 10.2243939,13.8468243 C8.56164393,14.3025811 7.25223768,15.6472432 6.80673768,17.3562838 C5.97370222,20.544369 5.8844121,27.0110467 5.87494281,28.2811107 L5.87411642,28.4143638 C5.8740339,28.43165 5.87397473,28.4464205 5.87393251,28.4585936 L5.8739325,28.5410175 C5.87397472,28.5531889 5.87403389,28.5679577 5.8741164,28.5852423 L5.87494273,28.7184858 C5.88441124,29.9884759 5.9736932,36.4551125 6.80664393,39.6427703 C7.25223768,41.3523784 8.56164393,42.6970405 10.2238314,43.1526081 C13.4037027,44.0262979 25.7970196,44.101057 27.7423492,44.1073493 L28.2553134,44.1073508 C30.2006401,44.1010711 42.5939182,44.0263996 45.7732689,43.1527973 C47.4360189,42.6970405 48.7454252,41.3523784 49.1909252,39.6433378 C50.0416848,36.3873337 50.1167136,29.7118189 50.1232225,28.6444875 L50.1232225,28.3549653 C50.1167142,27.2877115 50.041692,20.612237 49.1910189,17.3567568 C48.7454252,15.6471486 47.4360189,14.3024865 45.7738314,13.8469189 C44.0631752,13.3768784 39.1996127,13.0519459 32.0783627,12.9318108 C31.5606752,12.9231081 31.1479877,12.4925135 31.1566127,11.9701622 C31.1652377,11.4478108 31.5949877,11.0330135 32.1096752,11.0401081 C33.1928331,11.0583698 34.341912,11.0834571 35.5033459,11.1177864 L36.3759009,11.1453042 C40.450823,11.2821594 44.5130469,11.5396323 46.2659252,12.0213378 C48.5728314,12.6536081 50.3886752,14.5134324 51.0042377,16.8749865 C51.9118531,20.348762 51.9913353,27.0425598 51.9981928,28.3029241 L51.9981928,28.6966978 C51.9913342,29.9570646 51.9118386,36.650896 51.0040502,40.1251081 C50.3886752,42.4860946 48.5728314,44.3460135 46.2653627,44.9783784 C44.7952877,45.3822973 41.6736677,45.6265103 38.4189347,45.774155 L37.6661706,45.8065414 C33.6461988,45.9704327 29.6015199,45.9954002 28.3630385,45.9991552 L27.6346241,45.9991552 C26.5122489,45.9957516 23.0851657,45.9749237 19.4603477,45.8490427 L18.708255,45.8214707 C15.0661845,45.6806828 11.3716877,45.4287985 9.73173768,44.9781892 C7.42483143,44.3459189 5.60898768,42.4860946 4.99342518,40.1245405 C4.1236271,36.7955894 4.01438879,30.5092867 4.00076011,28.8819161 L3.99912915,28.6250778 C3.99904249,28.603615 3.99898053,28.5845887 3.99893642,28.5680771 L3.99893643,28.4315445 C3.99898054,28.4150329 3.99904251,28.3960066 3.99912918,28.3745437 L4.00076039,28.1177046 C4.00846481,27.1978827 4.04671911,24.7896521 4.23561704,22.2682172 L4.28193768,21.684964 C4.42925002,19.9329315 4.653192,18.177343 4.99361268,16.8745135 C5.60898768,14.513527 7.42483143,12.6536081 9.73230018,12.0212432 C11.4756367,11.5422453 15.4886784,11.2843686 19.5763501,11.1465712 L20.4526221,11.1188443 C21.7663436,11.0799004 23.0715766,11.052617 24.2954252,11.0336386 Z M23.0389877,21.0131216 C23.3296127,20.8442703 23.6874564,20.8449324 23.9775189,21.0149189 L23.9775189,21.0149189 L35.6025189,27.8257297 C35.8914564,27.9950541 36.0693002,28.3066486 36.0693002,28.6437838 C36.0693002,28.9809189 35.8915502,29.2925135 35.6025189,29.4618378 L35.6025189,29.4618378 L23.9775189,36.2726486 C23.8320189,36.357973 23.6693627,36.4005405 23.5067064,36.4005405 C23.3451752,36.4005405 23.1837377,36.3585405 23.0389877,36.2744459 C22.7483627,36.1055946 22.5692064,35.7930541 22.5692064,35.4545946 L22.5692064,35.4545946 L22.5692064,21.832973 C22.5692064,21.4946081 22.7483627,21.181973 23.0389877,21.0131216 Z M9.43633143,25.9951351 C9.95411268,25.9951351 10.3738314,26.4186351 10.3738314,26.9410811 L10.3738314,26.9410811 L10.3738314,34.6505405 C10.3738314,35.1729865 9.95411268,35.5964865 9.43633143,35.5964865 C8.91855018,35.5964865 8.49883143,35.1729865 8.49883143,34.6505405 L8.49883143,34.6505405 L8.49883143,26.9410811 C8.49883143,26.4186351 8.91855018,25.9951351 9.43633143,25.9951351 Z M24.4442064,23.4760811 L24.4442064,33.8114865 L33.2646752,28.6437838 L24.4442064,23.4760811 Z M9.43633143,21.6910811 C9.95411268,21.6910811 10.3738314,22.1145811 10.3738314,22.637027 L10.3738314,22.637027 L10.3738314,22.6481892 C10.3738314,23.1706351 9.95411268,23.5941351 9.43633143,23.5941351 C8.91855018,23.5941351 8.49883143,23.1706351 8.49883143,22.6481892 L8.49883143,22.6481892 L8.49883143,22.637027 C8.49883143,22.1145811 8.91855018,21.6910811 9.43633143,21.6910811 Z M28.2360189,11.0001892 C28.7530502,11.0016081 29.1711752,11.4250135 29.1709877,11.9464189 L29.1709877,11.9464189 C29.1695814,12.4702838 28.7500502,12.8920811 28.2334877,12.8920811 L28.2334877,12.8920811 L28.2309564,12.8920811 L28.1629877,12.8918919 C27.6459564,12.890473 27.2278314,12.4670676 27.2280189,11.9456622 L27.2280189,11.9456622 C27.2294252,11.4217973 27.6489564,11 28.1655189,11 L28.1655189,11 Z" id="path-2"></path>
    </defs>
    <g id="blog" stroke="none" stroke-width="1" fill="none" fill-rule="evenodd">
        <g id="R&amp;D" transform="translate(-178.000000, -4189.000000)">
            <g id="Media" transform="translate(138.000000, 4122.000000)">
                <g id="Icon-/-Business-Areas-/-Media" filter="url(#filter-1)" transform="translate(48.000000, 75.000000)">
                    <rect id="Rectangle" x="0" y="0" width="56" height="56"></rect>
                    <mask id="mask-3" fill="white">
                        <use xlink:href="#path-2"></use>
                    </mask>
                    <use id="Mask" fill-opacity="0.8" fill="#FFFFFF" fill-rule="nonzero" xlink:href="#path-2"></use>
                    <g id="✱-/-Color-/-Icons-/-Black-/-Active" mask="url(#mask-3)" fill="#FFFFFF">
                        <g id="↳-Tonal-Palette">
                            <rect id="Rectangle-13" x="0" y="0" width="56" height="56"></rect>
                        </g>
                    </g>
                </g>
            </g>
        </g>
    </g>
</svg>