<?xml version="1.0" encoding="UTF-8"?>
<svg width="72px" height="72px" viewBox="0 0 72 72" version="1.1" xmlns="http://www.w3.org/2000/svg" xmlns:xlink="http://www.w3.org/1999/xlink">
    <title>9E0A0F41-E710-45FB-9136-BB721FF64ECE</title>
    <defs>
        <filter x="-18.8%" y="-18.8%" width="137.5%" height="137.5%" filterUnits="objectBoundingBox" id="filter-1">
            <feOffset dx="0" dy="1" in="SourceAlpha" result="shadowOffsetOuter1"></feOffset>
            <feGaussianBlur stdDeviation="2" in="shadowOffsetOuter1" result="shadowBlurOuter1"></feGaussianBlur>
            <feColorMatrix values="0 0 0 0 0   0 0 0 0 0   0 0 0 0 0  0 0 0 0.2 0" type="matrix" in="shadowBlurOuter1" result="shadowMatrixOuter1"></feColorMatrix>
            <feMerge>
                <feMergeNode in="shadowMatrixOuter1"></feMergeNode>
                <feMergeNode in="SourceGraphic"></feMergeNode>
            </feMerge>
        </filter>
        <path d="M12.15625,20.4375003 C12.6739375,20.4375003 13.09375,20.8573128 13.09375,21.3750941 C13.09375,21.8928753 12.6739375,22.3125941 12.15625,22.3125941 L12.15625,22.3125941 L5.875,22.3125941 L5.875,29.5000316 C5.875,35.8138128 9.24596875,41.6820941 14.6891875,44.8749378 L14.6891875,44.8749378 L32.6858125,44.8749378 C38.1290312,41.6820003 41.5,35.8138128 41.5,29.4999378 L41.5,29.4999378 L41.5,22.3125003 L22.1875,22.3125003 C21.6698125,22.3125003 21.25,21.8927816 21.25,21.3750003 C21.25,20.8572191 21.6698125,20.4375003 22.1875,20.4375003 L22.1875,20.4375003 L42.4375,20.4375003 C42.9551875,20.4375003 43.375,20.8572191 43.375,21.3750003 L43.375,21.3750003 L43.375,23.3594066 L51.0625,23.3594066 C51.5802812,23.3594066 52,23.7791253 52,24.2969066 L52,24.2969066 L52,31.0000316 C52,35.9798441 47.9485938,40.0312503 42.9687813,40.0312503 L42.9687813,40.0312503 L40.3225,40.0312503 C39.1515625,41.8766253 37.6812813,43.5141566 35.9816875,44.8750316 L35.9816875,44.8750316 L44.6875,44.8750316 C45.2051875,44.8750316 45.625,45.2947503 45.625,45.8125316 C45.625,49.2243753 42.8493438,52.0000316 39.4375,52.0000316 L39.4375,52.0000316 L10.1875,52.0000316 C6.77565625,52.0000316 4,49.2243753 4,45.8125316 C4,45.2947503 4.4198125,44.8750316 4.9375,44.8750316 L4.9375,44.8750316 L11.3933125,44.8750316 C9.54671875,43.3964066 7.96984375,41.5919066 6.7545625,39.5484378 C4.9525,36.5185316 4,33.0437816 4,29.5000316 L4,29.5000316 L4,21.3750941 C4,20.8573128 4.4198125,20.4375003 4.9375,20.4375003 L4.9375,20.4375003 Z M43.6473437,46.7500316 L5.97765625,46.7500316 C6.4069375,48.6786566 8.13146875,50.1250316 10.1875,50.1250316 L10.1875,50.1250316 L39.4375,50.1250316 C41.4935312,50.1250316 43.2181562,48.6786566 43.6473437,46.7500316 L43.6473437,46.7500316 Z M30.2745625,41.0714066 C30.7255,40.8170628 31.2972813,40.9763441 31.5517188,41.4273753 C31.8060625,41.8783128 31.6467813,42.4500941 31.19575,42.7045316 L31.19575,42.7045316 L31.174375,42.7166253 C31.028875,42.7986566 30.870625,42.8377503 30.714625,42.8377503 C30.38725,42.8377503 30.0695313,42.6660941 29.8972188,42.3606566 C29.642875,41.9097191 29.8021563,41.3379378 30.2531875,41.0835003 L30.2531875,41.0835003 Z M37.9375,28.5625316 C38.4551875,28.5625316 38.875,28.9822503 38.875,29.5000316 C38.875,33.4704378 37.2655,37.3713753 34.4591875,40.2026253 C34.2759063,40.3875941 34.0345938,40.4803128 33.7932813,40.4803128 C33.5546875,40.4803128 33.3160938,40.3898441 33.1332813,40.2086253 C32.7655938,39.8441253 32.762875,39.2505003 33.127375,38.8828128 C35.5885,36.3998441 37,32.9799378 37,29.5000316 C37,28.9822503 37.4198125,28.5625316 37.9375,28.5625316 Z M50.125,25.2344066 L43.375,25.2344066 L43.375,27.1094066 L47.3125,27.1094066 C47.8301875,27.1094066 48.25,27.5291253 48.25,28.0469066 L48.25,28.0469066 L48.25,31.0000316 C48.25,33.9120941 45.8809375,36.2812503 42.9687813,36.2812503 L42.9687813,36.2812503 L42.1735,36.2812503 C41.939875,36.9190316 41.6725,37.5449066 41.3731563,38.1562503 L41.3731563,38.1562503 L42.9687813,38.1562503 C46.9147188,38.1562503 50.125,34.9459691 50.125,31.0000316 L50.125,31.0000316 L50.125,25.2344066 Z M46.375,28.9844066 L43.375,28.9844066 L43.375,29.5000316 C43.375,31.1636253 43.1650938,32.8119378 42.755875,34.4062503 L42.755875,34.4062503 L42.9687813,34.4062503 C44.8469688,34.4062503 46.375,32.8782191 46.375,31.0000316 L46.375,31.0000316 L46.375,28.9844066 Z M17.4259375,20.4372191 C17.6725,20.4372191 17.914375,20.5375316 18.08875,20.7119066 C18.2639687,20.8862816 18.3634375,21.1281566 18.3634375,21.3747191 C18.3634375,21.6222191 18.2639687,21.8631566 18.08875,22.0384691 C17.914375,22.2128441 17.6725,22.3122191 17.4259375,22.3122191 C17.179375,22.3122191 16.9375,22.2128441 16.763125,22.0384691 C16.58875,21.8631566 16.4884375,21.6212816 16.4884375,21.3747191 C16.4884375,21.1281566 16.5888437,20.8872191 16.763125,20.7119066 C16.9375,20.5375316 17.179375,20.4372191 17.4259375,20.4372191 Z M27.8201875,6.46265659 C28.142125,6.05709409 28.7317187,5.98912534 29.137375,6.31115659 C29.5429375,6.63300034 29.6108125,7.22268784 29.288875,7.62825034 C28.5743125,8.52843784 28.5753437,9.78496909 29.2914062,10.6839378 L29.2914062,10.6839378 L29.7791875,11.2963128 C31.26175,13.1578128 31.2639062,15.7595628 29.7844375,17.6234066 L29.7844375,17.6234066 L29.28475,18.2531253 C29.0996875,18.4862816 28.8259375,18.607875 28.54975,18.607875 C28.3455625,18.607875 28.1399687,18.5415003 27.9675625,18.4047191 C27.562,18.0828753 27.494125,17.4931878 27.8160625,17.0876253 L27.8160625,17.0876253 L28.3158437,16.4579066 C29.2495937,15.2815316 29.2481875,13.6394066 28.3125625,12.4646253 L28.3125625,12.4646253 L27.8247812,11.8521566 C26.561875,10.2665628 26.56,8.05040659 27.8201875,6.46265659 Z M17.4271562,6.46265659 C17.7490937,6.05728159 18.3386875,5.98921909 18.7443437,6.31115659 C19.1499062,6.63309409 19.2177812,7.22278159 18.8958437,7.62834409 C18.181375,8.52853159 18.1824062,9.78515659 18.8984687,10.6840316 L18.8984687,10.6840316 L19.38625,11.2964066 C20.8688125,13.1579066 20.8709687,15.7596566 19.3915937,17.6235003 L19.3915937,17.6235003 L18.891625,18.2533128 C18.7065625,18.4864691 18.4329062,18.6079729 18.1567187,18.6079729 C17.9524375,18.6079729 17.7469375,18.5415003 17.5745312,18.4047191 C17.1689687,18.0827816 17.1011875,17.4930941 17.423125,17.0875316 L17.423125,17.0875316 L17.923,16.4578128 C18.8566562,15.2815316 18.85525,13.6394066 17.919625,12.4646253 L17.919625,12.4646253 L17.4318437,11.8521566 C16.1689375,10.2666566 16.1670625,8.05040659 17.4271562,6.46265659 Z M22.6237188,4.35478159 C22.9456563,3.94921909 23.53525,3.88125034 23.9409063,4.20328159 C24.3464688,4.52512534 24.4143438,5.11481284 24.0924063,5.52037534 C23.3778438,6.42056284 23.378875,7.67709409 24.0949375,8.57596909 L24.0949375,8.57596909 L24.5827188,9.18843784 C26.065375,11.0497503 26.0675313,13.6515003 24.5881563,15.5154378 L24.5881563,15.5154378 L24.0882813,16.1452503 C23.903125,16.3785003 23.6294688,16.5 23.3532813,16.5 C23.1490938,16.5 22.9435,16.4335316 22.7710938,16.2967503 C22.3655313,15.9749066 22.2976563,15.3852191 22.6195938,14.9796566 L22.6195938,14.9796566 L23.1194688,14.3498441 C24.0532188,13.1733753 24.0518125,11.5313441 23.1160938,10.3566566 L23.1160938,10.3566566 L22.6283125,9.74418784 C21.3654063,8.15868784 21.3635313,5.94253159 22.6237188,4.35478159 Z" id="path-2"></path>
    </defs>
    <g id="blog" stroke="none" stroke-width="1" fill="none" fill-rule="evenodd">
        <g id="R&amp;D" transform="translate(-954.000000, -4189.000000)">
            <g id="Restaurant" transform="translate(914.000000, 4122.000000)">
                <g id="Icon-/-Business-Areas-/-Restaurant" filter="url(#filter-1)" transform="translate(48.000000, 75.000000)">
                    <rect id="Rectangle" x="0" y="0" width="56" height="56"></rect>
                    <mask id="mask-3" fill="white">
                        <use xlink:href="#path-2"></use>
                    </mask>
                    <use id="Mask" fill="#212121" fill-rule="nonzero" xlink:href="#path-2"></use>
                    <g id="✱-/-Color-/-Icons-/-Black-/-Active" mask="url(#mask-3)" fill="#FFFFFF">
                        <g id="↳-Tonal-Palette">
                            <rect id="Rectangle-13" x="0" y="0" width="56" height="56"></rect>
                        </g>
                    </g>
                </g>
            </g>
        </g>
    </g>
</svg>