<?xml version="1.0" encoding="UTF-8"?>
<svg width="72px" height="72px" viewBox="0 0 72 72" version="1.1" xmlns="http://www.w3.org/2000/svg" xmlns:xlink="http://www.w3.org/1999/xlink">
    <title>A28C97BA-0760-422D-AB43-C0C75704C28A</title>
    <defs>
        <filter x="-18.8%" y="-18.8%" width="137.5%" height="137.5%" filterUnits="objectBoundingBox" id="filter-1">
            <feOffset dx="0" dy="1" in="SourceAlpha" result="shadowOffsetOuter1"></feOffset>
            <feGaussianBlur stdDeviation="2" in="shadowOffsetOuter1" result="shadowBlurOuter1"></feGaussianBlur>
            <feColorMatrix values="0 0 0 0 0   0 0 0 0 0   0 0 0 0 0  0 0 0 0.2 0" type="matrix" in="shadowBlurOuter1" result="shadowMatrixOuter1"></feColorMatrix>
            <feMerge>
                <feMergeNode in="shadowMatrixOuter1"></feMergeNode>
                <feMergeNode in="SourceGraphic"></feMergeNode>
            </feMerge>
        </filter>
        <path d="M49.1875,7 C50.7384033,7 52,8.25793985 52,9.80434783 L52,9.80434783 L52,21.0217391 C52,22.5188519 51.2686768,23.8538383 50.125,24.7163214 L50.125,24.7163214 L50.125,49.0652174 C50.125,49.5815388 49.7053223,50 49.1875,50 L49.1875,50 L6.8125,50 C6.29467769,50 5.875,49.5815388 5.875,49.0652174 L5.875,49.0652174 L5.875,24.7144956 C4.70715334,23.8319293 4,22.4629841 4,21.0217391 L4,21.0217391 L4,9.80434783 C4,8.25793985 5.26159666,7 6.8125,7 L6.8125,7 Z M27.0625,29.4347826 L19.28125,29.4347826 L19.28125,48.1304348 L27.0625,48.1304348 L27.0625,29.4347826 Z M36.625,29.4347826 L28.9375,29.4347826 L28.9375,48.1304348 L36.625,48.1304348 L36.625,29.4347826 Z M17.40625,44.3913043 L7.75,44.3913043 L7.75,48.1304348 L17.40625,48.1304348 L17.40625,44.3913043 Z M48.25,44.3913043 L38.5,44.3913043 L38.5,48.1304348 L48.25,48.1304348 L48.25,44.3913043 Z M33.8125,42.5217391 C34.329956,42.5217391 34.75,42.9405656 34.75,43.4565217 C34.75,43.9724779 34.329956,44.3913043 33.8125,44.3913043 C33.295044,44.3913043 32.78125,43.9724779 32.78125,43.4565217 C32.78125,42.9405656 33.295044,42.5217391 33.8125,42.5217391 Z M17.40625,33.173913 L7.75,33.173913 L7.75,42.5217391 L17.40625,42.5217391 L17.40625,33.173913 Z M48.25,33.173913 L38.5,33.173913 L38.5,42.5217391 L48.25,42.5217391 L48.25,33.173913 Z M33.8125,35.0434783 C34.3303223,35.0434783 34.75,35.4619395 34.75,35.9782609 L34.75,35.9782609 L34.75,39.7173913 C34.75,40.2337127 34.3303223,40.6521739 33.8125,40.6521739 C33.2946777,40.6521739 32.875,40.2337127 32.875,39.7173913 L32.875,39.7173913 L32.875,35.9782609 C32.875,35.4619395 33.2946777,35.0434783 33.8125,35.0434783 Z M12.625,23.7819039 C11.7138672,24.9788638 10.3046875,25.6956522 8.78125,25.6956522 C8.43371584,25.6956522 8.08801272,25.6569464 7.75,25.5820907 L7.75,25.5820907 L7.75,31.3043478 L17.40625,31.3043478 L17.40625,28.5 C17.40625,27.9836786 17.8259277,27.5652174 18.34375,27.5652174 L18.34375,27.5652174 L37.5625,27.5652174 C38.0803223,27.5652174 38.5,27.9836786 38.5,28.5 L38.5,28.5 L38.5,31.3043478 L48.25,31.3043478 L48.25,25.5820907 C47.9123536,25.6569464 47.5666504,25.6956522 47.21875,25.6956522 C45.6905518,25.6956522 44.2821045,24.9741168 43.375,23.7826341 C42.4700927,24.9715608 41.0627442,25.6956522 39.53125,25.6956522 C38.005249,25.6956522 36.597168,24.977038 35.6878662,23.782269 C34.7789307,24.9763078 33.3693848,25.6956522 31.84375,25.6956522 C30.317749,25.6956522 28.909668,24.977038 28.0003662,23.782269 C27.0914307,24.9763078 25.6818848,25.6956522 24.15625,25.6956522 C22.630249,25.6956522 21.222168,24.977038 20.3128662,23.782269 C19.4039307,24.9763078 17.9943848,25.6956522 16.46875,25.6956522 C14.9401855,25.6956522 13.5328369,24.9748471 12.625,23.7819039 Z M42.4375,18.2173913 L36.625,18.2173913 L36.625,21.0217391 C36.625,22.5812925 37.9916992,23.826087 39.53125,23.826087 C41.1066895,23.826087 42.4375,22.5418563 42.4375,21.0217391 L42.4375,21.0217391 L42.4375,18.2173913 Z M34.75,18.2173913 L28.9375,18.2173913 L28.9375,21.0217391 C28.9375,22.5812925 30.3041992,23.826087 31.84375,23.826087 C33.4191895,23.826087 34.75,22.5418563 34.75,21.0217391 L34.75,21.0217391 L34.75,18.2173913 Z M27.0625,18.2173913 L21.25,18.2173913 L21.25,21.0217391 C21.25,22.5812925 22.6166992,23.826087 24.15625,23.826087 C25.7316895,23.826087 27.0625,22.5418563 27.0625,21.0217391 L27.0625,21.0217391 L27.0625,18.2173913 Z M19.375,18.2173913 L13.5625,18.2173913 L13.5625,21.0217391 C13.5625,22.5812925 14.9291992,23.826087 16.46875,23.826087 C18.0441895,23.826087 19.375,22.5418563 19.375,21.0217391 L19.375,21.0217391 L19.375,18.2173913 Z M11.6875,18.2173913 L5.875,18.2173913 L5.875,21.0217391 C5.875,22.5550017 7.21643069,23.826087 8.78125,23.826087 C10.3251953,23.826087 11.6875,22.5769107 11.6875,21.0217391 L11.6875,21.0217391 L11.6875,18.2173913 Z M50.125,18.2173913 L44.3125,18.2173913 L44.3125,21.0217391 C44.3125,22.5418563 45.6433105,23.826087 47.21875,23.826087 C48.7648926,23.826087 50.125,22.5761803 50.125,21.0217391 L50.125,21.0217391 L50.125,18.2173913 Z M34.75,8.86956522 L28.9375,8.86956522 L28.9375,16.3478261 L34.75,16.3478261 L34.75,8.86956522 Z M27.0625,8.86956522 L21.25,8.86956522 L21.25,16.3478261 L27.0625,16.3478261 L27.0625,8.86956522 Z M49.1875,8.86956522 L44.3125,8.86956522 L44.3125,16.3478261 L50.125,16.3478261 L50.125,9.80434783 C50.125,9.28875679 49.7045898,8.86956522 49.1875,8.86956522 L49.1875,8.86956522 Z M42.4375,8.86956522 L36.625,8.86956522 L36.625,16.3478261 L42.4375,16.3478261 L42.4375,8.86956522 Z M19.375,8.86956522 L13.5625,8.86956522 L13.5625,16.3478261 L19.375,16.3478261 L19.375,8.86956522 Z M11.6875,8.86956522 L6.8125,8.86956522 C6.29541016,8.86956522 5.875,9.28875679 5.875,9.80434783 L5.875,9.80434783 L5.875,16.3478261 L11.6875,16.3478261 L11.6875,8.86956522 Z" id="path-2"></path>
    </defs>
    <g id="blog" stroke="none" stroke-width="1" fill="none" fill-rule="evenodd">
        <g id="R&amp;D" transform="translate(-566.000000, -3952.000000)">
            <g id="Retail" transform="translate(526.000000, 3885.000000)">
                <g id="Icon-/-Business-Areas-/-Retail" filter="url(#filter-1)" transform="translate(48.000000, 75.000000)">
                    <rect id="Rectangle" x="0" y="0" width="56" height="56"></rect>
                    <mask id="mask-3" fill="white">
                        <use xlink:href="#path-2"></use>
                    </mask>
                    <use id="Mask" fill="#FFFFFF" fill-rule="nonzero" xlink:href="#path-2"></use>
                    <g id="✱-/-Color-/-Icons-/-Black-/-Active" mask="url(#mask-3)" fill="#FFFFFF">
                        <g id="↳-Tonal-Palette">
                            <rect id="Rectangle-13" x="0" y="0" width="56" height="56"></rect>
                        </g>
                    </g>
                </g>
            </g>
        </g>
    </g>
</svg>