<?xml version="1.0" encoding="UTF-8"?>
<svg width="72px" height="72px" viewBox="0 0 72 72" version="1.1" xmlns="http://www.w3.org/2000/svg" xmlns:xlink="http://www.w3.org/1999/xlink">
    <title>B4BAE33B-4A4C-4FB4-898F-54888DD57DE6</title>
    <defs>
        <filter x="-18.8%" y="-18.8%" width="137.5%" height="137.5%" filterUnits="objectBoundingBox" id="filter-1">
            <feOffset dx="0" dy="1" in="SourceAlpha" result="shadowOffsetOuter1"></feOffset>
            <feGaussianBlur stdDeviation="2" in="shadowOffsetOuter1" result="shadowBlurOuter1"></feGaussianBlur>
            <feColorMatrix values="0 0 0 0 0   0 0 0 0 0   0 0 0 0 0  0 0 0 0.2 0" type="matrix" in="shadowBlurOuter1" result="shadowMatrixOuter1"></feColorMatrix>
            <feMerge>
                <feMergeNode in="shadowMatrixOuter1"></feMergeNode>
                <feMergeNode in="SourceGraphic"></feMergeNode>
            </feMerge>
        </filter>
        <path d="M43.5577393,7.00476072 C44.6094971,7.00476072 45.5982666,7.41455078 46.3420411,8.15795894 C47.6900635,9.50598147 47.8537598,11.5963135 46.8345947,13.1252442 C50.1685791,17.3443604 52,22.6071777 52,28 C52,34.4105224 49.5035401,40.4376221 44.970581,44.970581 C40.4376221,49.5035401 34.4105224,52 28,52 C26.408081,52 24.8157959,51.8428955 23.2678223,51.5334473 C22.7602539,51.4316406 22.4310302,50.9379883 22.5324707,50.4300537 C22.6342773,49.9224854 23.1282959,49.5932617 23.6358643,49.6947021 C25.0629883,49.9803467 26.5314942,50.125 28,50.125 C40.1999511,50.125 50.125,40.1999511 50.125,28 C50.125,23.0748291 48.4678955,18.2675781 45.4488526,14.3970947 C44.8757324,14.7120362 44.2297364,14.8797607 43.5577393,14.8797607 C42.5059815,14.8797607 41.5172119,14.4703369 40.7734375,13.7265625 C40.0296631,12.9827881 39.6202393,11.9940185 39.6202393,10.9422607 C39.6202393,9.89050291 40.0296631,8.90173337 40.7734375,8.15795894 C41.5172119,7.41455078 42.5059815,7.00476072 43.5577393,7.00476072 Z M19.4086914,48.4711914 C19.6551513,48.4711914 19.8972167,48.5715333 20.0715333,48.7458496 C20.2458496,48.9201661 20.3461914,49.1622315 20.3461914,49.4086914 C20.3461914,49.6551513 20.2458496,49.8972167 20.0715333,50.0715333 C19.8972167,50.2458496 19.6551513,50.3461914 19.4086914,50.3461914 C19.1622315,50.3461914 18.9201661,50.2458496 18.7458496,50.0715333 C18.5715333,49.8972167 18.4711914,49.65625 18.4711914,49.4086914 C18.4711914,49.1622315 18.5715333,48.9201661 18.7458496,48.7458496 C18.9201661,48.5715333 19.1622315,48.4711914 19.4086914,48.4711914 Z M28,4 C29.6076661,4 31.2149658,4.16003416 32.7775879,4.47570803 C33.2851562,4.57861328 33.6132812,5.072998 33.5107422,5.58056641 C33.4082031,6.08813481 32.9130859,6.41625981 32.40625,6.31372075 C30.9655761,6.02258303 29.4831542,5.875 28,5.875 C15.8000489,5.875 5.875,15.8000489 5.875,28 C5.875,32.9251709 7.53210447,37.7327881 10.5511474,41.6029053 C11.1242676,41.2879638 11.7702636,41.1202393 12.4422607,41.1202393 C13.4940185,41.1202393 14.4827881,41.5296631 15.2265625,42.2734375 C15.9703369,43.0168458 16.3797607,44.0059815 16.3797607,45.057373 C16.3797607,46.1091308 15.9703369,47.0982666 15.2265625,47.8416748 C14.4827881,48.5854492 13.4940185,48.9952393 12.4422607,48.9952393 C11.3905029,48.9952393 10.4017334,48.5854492 9.65832522,47.8416748 C8.91455078,47.0982666 8.50476072,46.1094971 8.50476072,45.0577393 C8.50476072,44.2685547 8.73547366,43.5148926 9.16467287,42.8736573 C5.83105469,38.6549073 4,33.392456 4,28 C4,21.5894776 6.49645994,15.5623779 11.029419,11.029419 C15.5623779,6.49645994 21.5894776,4 28,4 Z M12.4422607,42.9952393 C11.8914795,42.9952393 11.3732911,43.2094727 10.9840088,43.5991211 C10.5943604,43.9887695 10.3797607,44.5065918 10.3797607,45.0577393 C10.3797607,45.6085205 10.5943604,46.1263428 10.9840088,46.5159912 C11.3736572,46.9056396 11.8914795,47.1202393 12.4422607,47.1202393 C12.993042,47.1202393 13.5112305,46.9056396 13.9005127,46.5159912 C14.2901612,46.1263428 14.5047607,45.6085205 14.5047607,45.0577393 C14.5047607,44.5065918 14.2901612,43.9887695 13.9005127,43.5991211 C13.5108643,43.2098388 12.993042,42.9952393 12.4422607,42.9952393 Z M30.9307862,10.9375 C31.4486084,10.9375 31.8682862,11.3571777 31.8682862,11.875 L31.8682862,11.875 L31.8682862,13.6756592 C33.1009521,14.0074463 34.279419,14.4959717 35.3868408,15.1339112 L35.3868408,15.1339112 L36.6597901,13.8605957 C37.026001,13.4943848 37.6196289,13.4943848 37.9854737,13.8602295 L37.9854737,13.8602295 L42.1320801,18.0035401 C42.3078614,18.1793213 42.4067383,18.4180908 42.4071045,18.666748 C42.4071045,18.9154052 42.3082276,19.1541748 42.1324463,19.329956 L42.1324463,19.329956 L40.8576661,20.6047364 C41.4956055,21.7121582 41.9837646,22.890625 42.3155518,24.1229248 L42.3155518,24.1229248 L44.1264648,24.1229248 C44.6442871,24.1229248 45.0639648,24.5426026 45.0639648,25.0604248 L45.0639648,25.0604248 L45.0639648,30.9223633 C45.0639648,31.4401855 44.6442871,31.8598633 44.1264648,31.8598633 L44.1264648,31.8598633 L42.315918,31.8598633 C41.9841308,33.0925292 41.4956055,34.2709961 40.8576661,35.378418 L40.8576661,35.378418 L42.1394042,36.6601562 C42.505249,37.026001 42.505249,37.6196289 42.1394042,37.9858398 L42.1394042,37.9858398 L37.9960937,42.1320801 C37.8203125,42.3082276 37.581543,42.4071045 37.333252,42.4071045 C37.0842286,42.4071045 36.8458252,42.3082276 36.670044,42.1324463 L36.670044,42.1324463 L35.3868408,40.8492432 C34.279419,41.4871826 33.1009521,41.975708 31.8682862,42.3074951 L31.8682862,42.3074951 L31.8682862,44.125 C31.8682862,44.6428223 31.4486084,45.0625 30.9307862,45.0625 L30.9307862,45.0625 L25.0688477,45.0625 C24.5513916,45.0625 24.1313477,44.6428223 24.1313477,44.125 L24.1313477,44.125 L24.1313477,42.3074951 C22.8990479,41.975708 21.720581,41.4871826 20.612793,40.8492432 L20.612793,40.8492432 L19.329956,42.1324463 C19.1541748,42.3082276 18.9157714,42.4071045 18.6671143,42.4071045 L18.6671143,42.4071045 C18.4180908,42.4071045 18.1796875,42.3078614 18.0039062,42.1320801 L18.0039062,42.1320801 L13.8605957,37.9858398 C13.4943848,37.6196289 13.494751,37.026001 13.8605957,36.6601563 L13.8605957,36.6601563 L15.1423339,35.378418 C14.5043945,34.2709961 14.0158692,33.0925293 13.684082,31.8598633 L13.684082,31.8598633 L11.8735352,31.8598633 C11.6245117,31.8598633 11.3861084,31.7609864 11.2103271,31.5852051 C11.0345459,31.4094239 10.935669,31.1706543 10.9360341,30.9219971 L10.9360341,30.9219971 L10.939331,25.0600586 C10.939331,24.5426026 11.3590088,24.1229248 11.876831,24.1229248 L11.876831,24.1229248 L13.684082,24.1229248 C14.0158692,22.8902588 14.5043945,21.7121582 15.1423339,20.6047364 L15.1423339,20.6047364 L13.8675537,19.329956 C13.6917724,19.1541748 13.5928955,18.9154052 13.5928955,18.666748 C13.5928955,18.4180908 13.6917724,18.1796875 13.8679199,18.0039062 L13.8679199,18.0039062 L18.0141602,13.8602295 C18.3803711,13.4943848 18.973999,13.494751 19.3398437,13.8605957 L19.3398437,13.8605957 L20.6131592,15.1339112 C21.720581,14.4959717 22.8990479,14.0074463 24.1313477,13.6760254 L24.1313477,13.6760254 L24.1313477,11.875 C24.1313477,11.3571777 24.5513916,10.9375 25.0688477,10.9375 L25.0688477,10.9375 Z M29.9932862,12.8125 L26.0063477,12.8125 L26.0063477,14.4135742 C26.0063477,14.8552246 25.6976318,15.2371826 25.2658692,15.3302002 C23.7373047,15.6583252 22.2955322,16.2559815 20.9804687,17.105957 C20.6091308,17.3454589 20.1213379,17.2938232 19.8085937,16.9814453 L19.8085937,16.9814453 L18.6766357,15.8491211 L15.8564453,18.6671143 L16.989502,19.8005371 C17.3018799,20.1129151 17.3538818,20.6010742 17.1140136,20.9720459 C16.2640381,22.2874756 15.6663818,23.729248 15.3382568,25.2574463 C15.2452393,25.6895752 14.8636474,25.9979248 14.4216308,25.9979248 L14.4216308,25.9979248 L12.8135987,25.9979248 L12.8114013,29.9848633 L14.4216308,29.9848633 C14.8636474,29.9848633 15.2452393,30.2935791 15.3382568,30.7253418 C15.6663818,32.2539062 16.2640381,33.6956787 17.1140136,35.0111084 C17.3538818,35.3820801 17.3018799,35.8702393 16.989502,36.1826172 L16.989502,36.1826172 L15.8491211,37.3233643 L18.6671143,40.1435547 L19.8085937,39.0020752 C20.1213379,38.6896973 20.6094971,38.6376953 20.9804687,38.8775635 C22.2958984,39.7275391 23.7376709,40.3251953 25.2658692,40.6533203 C25.6976318,40.7463379 26.0063477,41.1282959 26.0063477,41.5699463 L26.0063477,41.5699463 L26.0063477,43.1875 L29.9932862,43.1875 L29.9932862,41.5699463 C29.9932862,41.1279297 30.3016357,40.7463379 30.7337646,40.6533203 C32.2619629,40.3248291 33.7037354,39.7275391 35.0191651,38.8775635 C35.3901367,38.6376953 35.8782959,38.689331 36.1910401,39.0020752 L36.1910401,39.0020752 L37.3325195,40.1431885 L40.1505127,37.322998 L39.0101318,36.1826172 C38.6977539,35.8702393 38.645752,35.3820801 38.8856201,35.0107422 C39.7355957,33.6956787 40.333252,32.2535401 40.661377,30.7253418 C40.7543945,30.2935791 41.1359864,29.9848633 41.5780029,29.9848633 L41.5780029,29.9848633 L43.1889648,29.9848633 L43.1889648,25.9979248 L41.5780029,25.9979248 C41.1359864,25.9979248 40.7540283,25.6895752 40.661377,25.2574463 C40.3328857,23.729248 39.7355957,22.2874756 38.8856201,20.9720459 C38.645752,20.6010742 38.6973877,20.1129151 39.0101318,19.8001709 L39.0101318,19.8001709 L40.1431885,18.6671143 L37.322998,15.8491211 L36.1906739,16.9810791 C35.8782959,17.2938232 35.3901367,17.3454589 35.0191651,17.1055908 C33.7041016,16.2556152 32.2619629,15.6583252 30.7337646,15.3298339 C30.3016357,15.2371826 29.9932862,14.8552246 29.9932862,14.413208 L29.9932862,14.413208 L29.9932862,12.8125 Z M28,20.2535401 C32.2714844,20.2535401 35.7464599,23.7285156 35.7464599,28 C35.7464599,32.2714844 32.2714844,35.7464599 28,35.7464599 C23.7285156,35.7464599 20.2535401,32.2714844 20.2535401,28 C20.2535401,23.7285156 23.7285156,20.2535401 28,20.2535401 Z M28,22.1285401 C24.7623291,22.1285401 22.1285401,24.7623291 22.1285401,28 C22.1285401,31.2376709 24.7623291,33.8714599 28,33.8714599 C31.2376709,33.8714599 33.8714599,31.2373047 33.8714599,28 C33.8714599,24.7626953 31.2376709,22.1285401 28,22.1285401 Z M43.5577393,8.87976072 C43.006958,8.87976072 42.4887695,9.09436037 42.0994873,9.48400881 C41.7098388,9.87365725 41.4952393,10.3914795 41.4952393,10.9422607 C41.4952393,11.4934082 41.7098388,12.0112305 42.0994873,12.4008789 C42.4887695,12.7901612 43.0065917,13.0047607 43.5577393,13.0047607 C44.1085205,13.0047607 44.6267089,12.7901612 45.0163574,12.4008789 C45.8201904,11.5966797 45.8201904,10.288208 45.0163574,9.48400881 C44.6267089,9.09436037 44.1085205,8.87976072 43.5577393,8.87976072 Z M36.6323242,5.66955569 C36.8791504,5.66955569 37.1208496,5.76989744 37.2951661,5.94421384 C37.4698487,6.11962891 37.5698242,6.36169431 37.5698242,6.60705569 C37.5698242,6.85388181 37.4694824,7.09558103 37.2951661,7.27099609 C37.1208496,7.4453125 36.8791504,7.54565425 36.6323242,7.54565425 C36.3847656,7.54565425 36.1441651,7.4453125 35.9698487,7.27099609 C35.7951661,7.09558103 35.6948242,6.85461428 35.6948242,6.60705569 C35.6948242,6.36059575 35.7951661,6.11962891 35.9698487,5.94421384 C36.1441651,5.76989744 36.3847656,5.66955569 36.6323242,5.66955569 Z" id="path-2"></path>
    </defs>
    <g id="blog" stroke="none" stroke-width="1" fill="none" fill-rule="evenodd">
        <g id="R&amp;D" transform="translate(-954.000000, -3715.000000)">
            <g id="Technology" transform="translate(914.000000, 3648.000000)">
                <g id="Icon-/-Business-Areas-/-Technology" filter="url(#filter-1)" transform="translate(48.000000, 75.000000)">
                    <rect id="Rectangle" x="0" y="0" width="56" height="56"></rect>
                    <mask id="mask-3" fill="white">
                        <use xlink:href="#path-2"></use>
                    </mask>
                    <use id="Mask" fill="#FFFFFF" fill-rule="nonzero" xlink:href="#path-2"></use>
                    <g id="✱-/-Color-/-Icons-/-Black-/-Active" mask="url(#mask-3)" fill="#FFFFFF">
                        <g id="↳-Tonal-Palette">
                            <rect id="Rectangle-13" x="0" y="0" width="56" height="56"></rect>
                        </g>
                    </g>
                </g>
            </g>
        </g>
    </g>
</svg>